<?xml version="1.0" encoding="utf-8"?>
<!-- Generator: Adobe Illustrator 15.0.2, SVG Export Plug-In . SVG Version: 6.00 Build 0)  -->
<!DOCTYPE svg PUBLIC "-//W3C//DTD SVG 1.1//EN" "http://www.w3.org/Graphics/SVG/1.1/DTD/svg11.dtd">
<svg version="1.1" id="Layer_1" xmlns="http://www.w3.org/2000/svg" xmlns:xlink="http://www.w3.org/1999/xlink" x="0px" y="0px"
	 width="192.444px" height="80.783px" viewBox="0 0 192.444 80.783" enable-background="new 0 0 192.444 80.783"
	 xml:space="preserve">
<g>
	<g>
		<g>
			<g>
				<path fill="#3A3736" d="M56.971,24.727V10.66h9.692v2.127h-6.646v3.578H65.6v2.004h-5.582v4.212h6.932v2.146H56.971z"/>
				<path fill="#3A3736" d="M75.563,24.727v-6.216c0-1.043-0.164-1.799-1.431-1.799c-0.675,0-1.615,0.348-2.29,0.756v7.259h-2.944
					V14.688h2.781l0.041,0.92l0.082,0.041c1.166-0.777,2.576-1.206,3.538-1.206c2.658,0,3.148,1.574,3.148,3.455v6.829H75.563z"/>
				<path fill="#3A3736" d="M85.139,22.785c0.102-0.266,0.654-2.597,0.981-3.64c0.45-1.309,1.288-4.171,1.39-4.457h2.944
					c-0.736,2.065-2.719,7.994-3.455,10.039h-3.987c-0.716-2.045-2.72-7.974-3.435-10.039h3.067l1.452,4.662
					c0.225,0.715,0.695,2.739,0.941,3.435H85.139z"/>
				<path fill="#3A3736" d="M93.439,13.461c-1.084,0-1.677-0.695-1.677-1.555c0-0.899,0.613-1.574,1.677-1.574
					c1.125,0,1.737,0.675,1.737,1.574C95.177,12.766,94.564,13.461,93.439,13.461z M91.987,24.727V14.688h2.924v10.039H91.987z"/>
				<path fill="#3A3736" d="M100.406,16.466c1.104-1.083,2.699-2.044,3.824-2.044c0.409,0,0.572,0.245,0.572,0.675
					c0,0.756-0.491,2.29-0.92,2.883l-3.415-0.041v6.788h-2.924V14.688h2.883c0,0.47-0.061,1.247-0.122,1.718L100.406,16.466z"/>
				<path fill="#3A3736" d="M110.526,24.932c-3.721,0-5.01-2.331-5.01-5.214c0-2.822,1.432-5.255,5.133-5.255
					c3.741,0,5.029,2.433,5.029,5.234C115.679,22.499,114.351,24.932,110.526,24.932z M110.649,16.528
					c-1.677,0-2.127,1.615-2.127,3.19c0,1.778,0.348,3.148,2.127,3.148c1.656,0,2.004-1.493,2.004-3.148
					C112.653,18.123,112.326,16.528,110.649,16.528z"/>
				<path fill="#3A3736" d="M123.999,24.727v-6.216c0-1.043-0.164-1.799-1.432-1.799c-0.675,0-1.615,0.348-2.29,0.756v7.259h-2.944
					V14.688h2.78l0.041,0.92l0.082,0.041c1.165-0.777,2.576-1.206,3.537-1.206c2.658,0,3.149,1.574,3.149,3.455v6.829H123.999z"/>
				<path fill="#3A3736" d="M141.684,24.727v-6.358c0-1.104-0.286-1.636-1.329-1.636c-0.634,0-1.574,0.307-2.146,0.695
					c0.062,0.429,0.082,0.94,0.082,1.309v5.99h-2.884c0-2.188-0.021-4.375-0.021-6.563c0-0.94-0.429-1.41-1.206-1.41
					c-0.675,0-1.513,0.307-2.208,0.735v7.238h-2.924V14.688h2.74l0.061,1.002l0.082,0.041c1.146-0.859,2.515-1.268,3.476-1.268
					c1.146,0,1.923,0.408,2.434,1.309c0.981-0.757,2.556-1.309,3.619-1.309c2.679,0,3.169,1.656,3.169,3.537v6.727H141.684z"/>
				<path fill="#3A3736" d="M155.83,19.33v1.043h-6.563c0,1.533,0.716,2.351,2.516,2.351c1.084,0,2.188-0.245,3.23-0.634l0.593,1.8
					c-1.329,0.736-2.862,1.002-4.253,1.002c-4.049,0-5.029-2.413-5.029-5.173c0-2.209,0.94-5.296,4.906-5.296
					C155.544,14.422,155.83,17.53,155.83,19.33z M149.308,18.573h3.865c-0.021-1.329-0.43-2.29-1.82-2.29
					C149.901,16.283,149.41,17.367,149.308,18.573z"/>
				<path fill="#3A3736" d="M164.396,24.727v-6.216c0-1.043-0.164-1.799-1.432-1.799c-0.675,0-1.615,0.348-2.29,0.756v7.259h-2.944
					V14.688h2.78l0.041,0.92l0.082,0.041c1.166-0.777,2.576-1.206,3.537-1.206c2.658,0,3.149,1.574,3.149,3.455v6.829H164.396z"/>
				<path fill="#3A3736" d="M173.023,11.907v2.761h2.924v1.922h-2.924v4.539c0,1.063,0.307,1.554,1.35,1.554
					c0.368,0,1.002-0.102,1.737-0.266l0.368,1.901c-0.858,0.389-2.003,0.573-2.862,0.573c-2.801,0-3.476-1.391-3.476-2.985v-5.316
					h-1.411v-1.595l1.595-0.471c0.144-0.348,0.593-2.064,0.716-2.412L173.023,11.907z"/>
				<path fill="#3A3736" d="M186.578,22.785h1.309l0.143,1.636c-0.654,0.307-1.595,0.512-2.453,0.512
					c-0.88,0-1.514-0.205-1.615-1.207c0-0.021-0.021-0.021-0.041-0.041c-1.411,1.228-2.903,1.248-3.476,1.248
					c-2.495,0-3.108-1.759-3.108-2.924c0-2.086,1.615-3.108,3.722-3.231c0.776-0.061,1.963-0.102,2.739-0.163v-0.245
					c0-1.146-0.368-1.738-1.86-1.738c-0.981,0-2.249,0.204-3.189,0.511c-0.144-0.613-0.307-1.227-0.471-1.819
					c1.186-0.511,2.924-0.838,4.355-0.838c2.412,0,3.946,0.899,3.946,3.496V22.785z M181.772,20.392
					c-0.961,0.082-1.41,0.573-1.41,1.37c0,0.839,0.408,1.288,1.37,1.288c0.613,0,1.41-0.327,2.064-0.899v-1.922L181.772,20.392z"/>
				<path fill="#3A3736" d="M192.424,24.727h-2.903v-14.64h2.924L192.424,24.727z"/>
				<path fill="#3A3736" d="M62.553,42.175h-2.556l0.021,5.398h-3.046V33.506h5.336c3.21,0,4.826,1.677,4.826,4.314
					C67.133,39.845,65.866,42.175,62.553,42.175z M59.997,35.633v4.478h1.983c1.084,0,2.086-0.572,2.086-2.229
					c0-1.595-0.941-2.249-2.188-2.249H59.997z"/>
				<path fill="#3A3736" d="M77.457,42.175v1.043h-6.563c0,1.534,0.716,2.352,2.515,2.352c1.083,0,2.188-0.245,3.23-0.634l0.593,1.8
					c-1.329,0.735-2.862,1.002-4.253,1.002c-4.048,0-5.03-2.413-5.03-5.174c0-2.208,0.94-5.295,4.907-5.295
					C77.171,37.269,77.457,40.376,77.457,42.175z M70.935,41.419h3.864c-0.021-1.329-0.429-2.29-1.82-2.29
					C71.527,39.129,71.037,40.212,70.935,41.419z"/>
				<path fill="#3A3736" d="M82.22,39.313c1.104-1.083,2.699-2.044,3.823-2.044c0.409,0,0.573,0.245,0.573,0.675
					c0,0.756-0.491,2.289-0.92,2.883l-3.415-0.041v6.788h-2.924V37.535h2.883c0,0.47-0.062,1.247-0.123,1.718L82.22,39.313z"/>
				<path fill="#3A3736" d="M89.149,39.436h-1.411v-1.595l1.432-0.409v-1.247c0-1.922,0.838-3.435,3.803-3.435
					c0.695,0,1.82,0.081,2.761,0.347l-0.348,1.983c-0.573-0.122-1.309-0.184-1.738-0.184c-1.042,0-1.636,0.348-1.636,1.329v1.288
					h2.883v1.922h-2.883c0,0.879-0.021,7.259-0.021,8.138h-2.842V39.436z"/>
				<path fill="#3A3736" d="M100.762,47.778c-3.721,0-5.009-2.331-5.009-5.214c0-2.821,1.431-5.254,5.132-5.254
					c3.741,0,5.029,2.433,5.029,5.233C105.914,45.345,104.585,47.778,100.762,47.778z M100.885,39.375
					c-1.677,0-2.127,1.615-2.127,3.189c0,1.779,0.348,3.149,2.127,3.149c1.656,0,2.004-1.493,2.004-3.149
					C102.889,40.969,102.562,39.375,100.885,39.375z"/>
				<path fill="#3A3736" d="M110.473,39.313c1.104-1.083,2.699-2.044,3.824-2.044c0.409,0,0.572,0.245,0.572,0.675
					c0,0.756-0.491,2.289-0.92,2.883l-3.415-0.041v6.788h-2.924V37.535h2.883c0,0.47-0.061,1.247-0.122,1.718L110.473,39.313z"/>
				<path fill="#3A3736" d="M128.773,47.574v-6.359c0-1.104-0.286-1.635-1.329-1.635c-0.634,0-1.574,0.307-2.146,0.694
					c0.062,0.43,0.082,0.94,0.082,1.309v5.991h-2.884c0-2.188-0.021-4.376-0.021-6.563c0-0.94-0.429-1.41-1.206-1.41
					c-0.675,0-1.513,0.307-2.208,0.735v7.238h-2.924V37.535h2.74l0.061,1.002l0.082,0.041c1.146-0.859,2.515-1.268,3.476-1.268
					c1.146,0,1.923,0.408,2.434,1.309c0.981-0.757,2.556-1.309,3.619-1.309c2.679,0,3.169,1.656,3.169,3.537v6.727H128.773z"/>
				<path fill="#3A3736" d="M142.572,45.631h1.309l0.143,1.636c-0.654,0.307-1.595,0.511-2.453,0.511
					c-0.88,0-1.514-0.204-1.615-1.206c0-0.021-0.021-0.021-0.041-0.041c-1.411,1.227-2.903,1.247-3.476,1.247
					c-2.495,0-3.108-1.758-3.108-2.924c0-2.085,1.615-3.107,3.722-3.23c0.776-0.062,1.963-0.103,2.739-0.163v-0.246
					c0-1.145-0.368-1.737-1.86-1.737c-0.981,0-2.249,0.204-3.189,0.511c-0.144-0.613-0.307-1.227-0.471-1.819
					c1.186-0.511,2.924-0.838,4.355-0.838c2.412,0,3.946,0.899,3.946,3.496V45.631z M137.767,43.239
					c-0.961,0.082-1.41,0.573-1.41,1.37c0,0.838,0.408,1.288,1.37,1.288c0.613,0,1.41-0.327,2.064-0.899v-1.922L137.767,43.239z"/>
				<path fill="#3A3736" d="M152.202,47.574v-6.216c0-1.043-0.164-1.799-1.432-1.799c-0.675,0-1.615,0.348-2.29,0.756v7.259h-2.944
					V37.535h2.78l0.041,0.92l0.082,0.041c1.165-0.777,2.576-1.206,3.537-1.206c2.658,0,3.149,1.574,3.149,3.455v6.829H152.202z"/>
				<path fill="#3A3736" d="M162.198,45.508c0.94,0,1.8-0.204,2.699-0.511l0.552,1.942c-1.002,0.511-2.412,0.798-3.782,0.798
					c-3.844,0-4.846-2.291-4.846-5.071c0-2.372,0.899-5.356,4.968-5.356c0.859,0,1.983,0.081,3.129,0.49
					c-0.144,0.675-0.286,1.35-0.45,2.045c-0.858-0.245-1.595-0.286-2.188-0.286c-1.636,0-2.494,1.124-2.494,2.984
					C159.786,44.384,160.379,45.508,162.198,45.508z"/>
				<path fill="#3A3736" d="M175.981,42.175v1.043h-6.562c0,1.534,0.715,2.352,2.515,2.352c1.083,0,2.188-0.245,3.23-0.634
					l0.593,1.8c-1.329,0.735-2.862,1.002-4.253,1.002c-4.048,0-5.03-2.413-5.03-5.174c0-2.208,0.941-5.295,4.908-5.295
					C175.695,37.269,175.981,40.376,175.981,42.175z M169.459,41.419h3.865c-0.021-1.329-0.43-2.29-1.82-2.29
					C170.053,39.129,169.562,40.212,169.459,41.419z"/>
				<path fill="#3A3736" d="M57.155,70.419V56.352h2.985v14.067H57.155z"/>
				<path fill="#3A3736" d="M69.463,70.419v-6.216c0-1.043-0.164-1.8-1.431-1.8c-0.675,0-1.615,0.348-2.29,0.757v7.259h-2.944V60.38
					h2.781l0.041,0.92l0.082,0.041c1.166-0.777,2.576-1.207,3.537-1.207c2.658,0,3.149,1.575,3.149,3.456v6.829H69.463z"/>
				<path fill="#3A3736" d="M81.239,60.769V55.8h2.924v14.619h-2.72l-0.062-0.899c-0.02-0.021-0.041-0.041-0.061-0.041
					c-0.981,0.797-2.229,1.084-3.087,1.084c-3.128,0-3.987-2.29-3.987-4.948c0-3.108,1.145-5.48,4.335-5.48
					C79.235,60.134,80.4,60.278,81.239,60.769z M81.239,62.813c-0.47-0.286-1.37-0.552-2.024-0.552
					c-1.002,0-2.024,0.593-2.024,3.333c0,2.372,0.879,2.924,1.983,2.924c0.593,0,1.595-0.409,2.065-0.757V62.813z"/>
				<path fill="#3A3736" d="M95.202,65.021v1.043h-6.563c0,1.534,0.716,2.352,2.515,2.352c1.083,0,2.188-0.245,3.23-0.634l0.593,1.8
					c-1.329,0.735-2.862,1.002-4.253,1.002c-4.048,0-5.03-2.413-5.03-5.174c0-2.208,0.94-5.295,4.907-5.295
					C94.917,60.115,95.202,63.222,95.202,65.021z M88.68,64.265h3.864c-0.021-1.329-0.429-2.29-1.82-2.29
					C89.273,61.975,88.782,63.058,88.68,64.265z"/>
				<path fill="#3A3736" d="M101.355,66.698l-2.127,3.722h-3.128l3.455-5.234l-3.189-4.805h3.21l1.82,3.394l1.84-3.394h3.128
					l-3.251,4.784l3.415,5.255h-3.189L101.355,66.698z"/>
			</g>
		</g>
	</g>
</g>
<g>
	<g>
		<g>
			<g>
				<circle fill="#F5C817" cx="31.741" cy="61.239" r="2.95"/>
				<circle fill="#F5C817" cx="34.5" cy="54.521" r="2.069"/>
				<circle fill="#F5C817" cx="36.57" cy="49.482" r="1.423"/>
				<circle fill="#F5C817" cx="37.951" cy="46.123" r="1.028"/>
			</g>
		</g>
		<g>
			<g>
				<circle fill="#7D8FC8" cx="19.485" cy="49.01" r="2.95"/>
				<circle fill="#7D8FC8" cx="26.179" cy="46.191" r="2.066"/>
				<circle fill="#7D8FC8" cx="31.198" cy="44.076" r="1.419"/>
				<circle fill="#7D8FC8" cx="34.545" cy="42.666" r="1.022"/>
			</g>
		</g>
		<g>
			<g>
				<circle fill="#0B9BCC" cx="19.463" cy="31.698" r="2.951"/>
				<circle fill="#0B9BCC" cx="26.19" cy="34.436" r="2.062"/>
				<circle fill="#0B9BCC" cx="31.235" cy="36.489" r="1.413"/>
				<circle fill="#0B9BCC" cx="34.6" cy="37.858" r="1.014"/>
			</g>
		</g>
		<g>
			<g>
				<circle fill="#3CBCA3" cx="31.691" cy="19.441" r="2.951"/>
				<circle fill="#3CBCA3" cx="34.492" cy="26.142" r="2.06"/>
				<circle fill="#3CBCA3" cx="36.593" cy="31.168" r="1.408"/>
				<circle fill="#3CBCA3" cx="37.993" cy="34.519" r="1.008"/>
			</g>
		</g>
	</g>
	<g>
		<g>
			<g>
				<circle fill="#F8951D" cx="40.436" cy="77.138" r="3.645"/>
				<circle fill="#F8951D" cx="40.407" cy="67.605" r="2.796"/>
				<circle fill="#F8951D" cx="40.385" cy="60.342" r="2.149"/>
				<circle fill="#F8951D" cx="40.364" cy="53.533" r="1.585"/>
			</g>
		</g>
		<g>
			<g>
				<circle fill="#F36E2B" cx="14.44" cy="66.405" r="3.645"/>
				<circle fill="#F36E2B" cx="21.132" cy="59.615" r="2.793"/>
				<circle fill="#F36E2B" cx="26.229" cy="54.441" r="2.145"/>
				<circle fill="#F36E2B" cx="31.008" cy="49.591" r="1.579"/>
			</g>
		</g>
		<g>
			<g>
				<circle fill="#3175B9" cx="3.645" cy="40.434" r="3.645"/>
				<circle fill="#3175B9" cx="13.178" cy="40.359" r="2.789"/>
				<circle fill="#3175B9" cx="20.44" cy="40.301" r="2.136"/>
				<circle fill="#3175B9" cx="27.249" cy="40.247" r="1.569"/>
			</g>
		</g>
		<g>
			<g>
				<circle fill="#008C8C" cx="14.379" cy="14.439" r="3.645"/>
				<circle fill="#008C8C" cx="21.149" cy="21.149" r="2.785"/>
				<circle fill="#008C8C" cx="26.308" cy="26.263" r="2.129"/>
				<circle fill="#008C8C" cx="31.144" cy="31.056" r="1.561"/>
			</g>
		</g>
		<g>
			<g>
				<circle fill="#2DB45D" cx="40.349" cy="3.645" r="3.645"/>
				<circle fill="#2DB45D" cx="40.338" cy="13.177" r="2.784"/>
				<circle fill="#2DB45D" cx="40.33" cy="20.441" r="2.129"/>
				<circle fill="#2DB45D" cx="40.322" cy="27.25" r="1.56"/>
			</g>
		</g>
	</g>
</g>
</svg>
