<?xml version="1.0" encoding="utf-8"?>
<!-- Generator: Adobe Illustrator 18.0.0, SVG Export Plug-In . SVG Version: 6.00 Build 0)  -->
<!DOCTYPE svg PUBLIC "-//W3C//DTD SVG 1.1//EN" "http://www.w3.org/Graphics/SVG/1.1/DTD/svg11.dtd">
<svg version="1.1" id="Layer_1" xmlns="http://www.w3.org/2000/svg" xmlns:xlink="http://www.w3.org/1999/xlink" x="0px" y="0px"
	 viewBox="0 0 1600 1150" enable-background="new 0 0 1600 1150" xml:space="preserve">
<rect x="1.608" y="1.533" fill="#C85B22" width="1601.797" height="1146.489"/>
<polyline opacity="0.1" fill="#FFFFFF" points="253.877,328.775 102.548,746.418 1505.3,746.418 253.877,328.775 "/>
<rect x="3.573" y="982.705" fill="#FFFFFF" width="1600" height="165.762"/>
<text transform="matrix(1 0 0 1 343.2803 1045.6064)"><tspan x="0" y="0" fill="#010101" font-family="'Helvetica'" font-size="18">Re</tspan><tspan x="23.01" y="0" fill="#010101" font-family="'Helvetica'" font-size="18">f</tspan><tspan x="27.849" y="0" fill="#010101" font-family="'Helvetica'" font-size="18">erences</tspan></text>
<g>
	<polygon fill="#2E2119" points="107.105,1045.373 107.105,1028.678 118.607,1028.678 118.607,1031.203 110.719,1031.203 
		110.719,1035.449 117.344,1035.449 117.344,1037.828 110.719,1037.828 110.719,1042.826 118.947,1042.826 118.947,1045.373 	"/>
	<path fill="#2E2119" d="M129.171,1045.373v-7.375c0-1.24-0.194-2.137-1.698-2.137c-0.801,0-1.917,0.414-2.718,0.896v8.615h-3.495
		v-11.914h3.301l0.049,1.09l0.097,0.051c1.382-0.924,3.058-1.432,4.198-1.432c3.154,0,3.736,1.869,3.736,4.102v8.104H129.171z"/>
	<path fill="#2E2119" d="M140.535,1043.068c0.121-0.314,0.776-3.082,1.164-4.32c0.535-1.553,1.53-4.949,1.651-5.289h3.494
		c-0.874,2.451-3.227,9.486-4.101,11.914h-4.732c-0.85-2.428-3.229-9.463-4.078-11.914h3.642l1.722,5.531
		c0.268,0.85,0.826,3.252,1.117,4.078H140.535z"/>
	<path fill="#2E2119" d="M150.387,1032.002c-1.287,0-1.99-0.824-1.99-1.842c0-1.068,0.729-1.871,1.99-1.871
		c1.335,0,2.061,0.803,2.061,1.871C152.448,1031.178,151.722,1032.002,150.387,1032.002 M148.663,1033.459h3.47v11.914h-3.47
		V1033.459z"/>
	<path fill="#2E2119" d="M158.655,1035.57c1.309-1.287,3.203-2.428,4.538-2.428c0.486,0,0.678,0.293,0.678,0.803
		c0,0.896-0.581,2.717-1.09,3.422l-4.053-0.049v8.055h-3.471v-11.914h3.422c0,0.557-0.072,1.48-0.145,2.039L158.655,1035.57z"/>
	<path fill="#2E2119" d="M170.666,1045.617c-4.416,0-5.945-2.766-5.945-6.188c0-3.35,1.699-6.238,6.092-6.238
		c4.439,0,5.969,2.889,5.969,6.213S175.205,1045.617,170.666,1045.617 M170.812,1035.643c-1.99,0-2.525,1.916-2.525,3.787
		c0,2.109,0.412,3.736,2.525,3.736c1.965,0,2.378-1.773,2.378-3.736C173.19,1037.535,172.802,1035.643,170.812,1035.643"/>
	<path fill="#2E2119" d="M186.656,1045.373v-7.375c0-1.24-0.195-2.137-1.699-2.137c-0.801,0-1.918,0.414-2.719,0.896v8.615h-3.494
		v-11.914h3.3l0.049,1.09l0.097,0.051c1.383-0.924,3.059-1.432,4.199-1.432c3.154,0,3.736,1.869,3.736,4.102v8.104H186.656z"/>
	<path fill="#2E2119" d="M207.645,1045.373v-7.545c0-1.312-0.34-1.943-1.578-1.943c-0.752,0-1.867,0.365-2.547,0.826
		c0.072,0.51,0.098,1.117,0.098,1.553v7.109h-3.424c0-2.598-0.023-5.193-0.023-7.789c0-1.117-0.509-1.674-1.432-1.674
		c-0.801,0-1.795,0.365-2.621,0.871v8.592h-3.47v-11.914h3.253l0.071,1.188l0.097,0.049c1.36-1.02,2.985-1.504,4.125-1.504
		c1.36,0,2.284,0.484,2.889,1.553c1.165-0.896,3.033-1.553,4.296-1.553c3.179,0,3.761,1.967,3.761,4.197v7.984H207.645z"/>
	<path fill="#2E2119" d="M224.433,1038.969v1.236h-7.788c0,1.82,0.85,2.789,2.985,2.789c1.286,0,2.596-0.289,3.833-0.752
		l0.705,2.137c-1.578,0.873-3.398,1.188-5.049,1.188c-4.805,0-5.969-2.861-5.969-6.137c0-2.621,1.117-6.287,5.823-6.287
		C224.094,1033.143,224.433,1036.83,224.433,1038.969 M216.693,1038.068h4.586c-0.023-1.576-0.51-2.717-2.16-2.717
		C217.398,1035.352,216.814,1036.639,216.693,1038.068"/>
	<path fill="#2E2119" d="M234.601,1045.373v-7.375c0-1.24-0.194-2.137-1.699-2.137c-0.801,0-1.917,0.414-2.718,0.896v8.615h-3.494
		v-11.914h3.299l0.049,1.09l0.098,0.051c1.384-0.924,3.057-1.432,4.198-1.432c3.155,0,3.737,1.869,3.737,4.102v8.104H234.601z"/>
	<path fill="#2E2119" d="M244.839,1030.158v3.277h3.471v2.279h-3.471v5.389c0,1.26,0.364,1.842,1.603,1.842
		c0.436,0,1.189-0.119,2.061-0.314l0.437,2.258c-1.019,0.461-2.377,0.678-3.396,0.678c-3.324,0-4.125-1.648-4.125-3.541v-6.311
		h-1.675v-1.893l1.893-0.559c0.171-0.412,0.704-2.449,0.85-2.863L244.839,1030.158z"/>
	<path fill="#2E2119" d="M260.926,1043.068h1.554l0.169,1.939c-0.776,0.365-1.893,0.609-2.911,0.609
		c-1.044,0-1.796-0.244-1.919-1.434c0-0.023-0.022-0.023-0.048-0.049c-1.674,1.459-3.444,1.482-4.124,1.482
		c-2.961,0-3.689-2.086-3.689-3.471c0-2.477,1.918-3.689,4.418-3.834c0.921-0.072,2.329-0.121,3.25-0.195v-0.289
		c0-1.361-0.436-2.062-2.207-2.062c-1.165,0-2.67,0.24-3.785,0.604c-0.171-0.727-0.365-1.455-0.559-2.156
		c1.406-0.609,3.469-0.996,5.168-0.996c2.863,0,4.684,1.066,4.684,4.15V1043.068z M255.223,1040.229
		c-1.141,0.098-1.674,0.68-1.674,1.625c0,0.998,0.484,1.531,1.627,1.531c0.728,0,1.674-0.391,2.449-1.068v-2.283L255.223,1040.229z"
		/>
	<polygon fill="#2E2119" points="267.864,1045.373 264.418,1045.373 264.418,1027.998 267.889,1027.998 	"/>
	<path fill="#2E2119" d="M113.73,1066.082h-3.034l0.025,6.406h-3.616v-16.695h6.333c3.811,0,5.727,1.99,5.727,5.121
		C119.165,1063.316,117.662,1066.082,113.73,1066.082 M110.696,1058.316v5.316h2.353c1.287,0,2.476-0.68,2.476-2.645
		c0-1.896-1.116-2.672-2.596-2.672H110.696z"/>
	<path fill="#2E2119" d="M131.417,1066.082v1.238h-7.788c0,1.82,0.85,2.789,2.985,2.789c1.285,0,2.597-0.291,3.833-0.752
		l0.703,2.137c-1.578,0.873-3.397,1.189-5.047,1.189c-4.805,0-5.969-2.865-5.969-6.141c0-2.621,1.115-6.283,5.823-6.283
		C131.078,1060.26,131.417,1063.947,131.417,1066.082 M123.678,1065.186h4.586c-0.024-1.578-0.51-2.719-2.16-2.719
		C124.381,1062.467,123.798,1063.752,123.678,1065.186"/>
	<path fill="#2E2119" d="M137.07,1062.684c1.311-1.283,3.203-2.424,4.538-2.424c0.485,0,0.681,0.289,0.681,0.799
		c0,0.896-0.584,2.717-1.094,3.422l-4.051-0.049v8.057h-3.472v-11.914h3.423c0,0.557-0.073,1.479-0.146,2.037L137.07,1062.684z"/>
	<path fill="#2E2119" d="M145.295,1062.83h-1.675v-1.893l1.7-0.486v-1.479c0-2.281,0.994-4.078,4.512-4.078
		c0.826,0,2.16,0.098,3.277,0.412l-0.412,2.354c-0.68-0.145-1.555-0.217-2.063-0.217c-1.237,0-1.942,0.412-1.942,1.578v1.527h3.424
		v2.281h-3.424c0,1.043-0.023,8.615-0.023,9.658h-3.373V1062.83z"/>
	<path fill="#2E2119" d="M159.077,1072.73c-4.416,0-5.945-2.766-5.945-6.188c0-3.35,1.698-6.234,6.091-6.234
		c4.44,0,5.969,2.885,5.969,6.209C165.191,1069.844,163.614,1072.73,159.077,1072.73 M159.223,1062.758
		c-1.99,0-2.523,1.918-2.523,3.785c0,2.111,0.412,3.736,2.523,3.736c1.966,0,2.379-1.77,2.379-3.736
		C161.602,1064.65,161.213,1062.758,159.223,1062.758"/>
	<path fill="#2E2119" d="M170.602,1062.684c1.311-1.283,3.204-2.424,4.539-2.424c0.486,0,0.678,0.289,0.678,0.799
		c0,0.896-0.582,2.717-1.09,3.422l-4.054-0.049v8.057h-3.47v-11.914h3.422c0,0.557-0.072,1.479-0.146,2.037L170.602,1062.684z"/>
	<path fill="#2E2119" d="M192.322,1072.488v-7.547c0-1.309-0.34-1.939-1.578-1.939c-0.752,0-1.867,0.363-2.547,0.822
		c0.072,0.51,0.098,1.117,0.098,1.553v7.111h-3.424c0-2.598-0.023-5.193-0.023-7.791c0-1.113-0.509-1.674-1.432-1.674
		c-0.801,0-1.795,0.365-2.62,0.875v8.59h-3.47v-11.914h3.25l0.073,1.189l0.097,0.049c1.36-1.021,2.985-1.504,4.125-1.504
		c1.36,0,2.283,0.482,2.889,1.553c1.165-0.9,3.033-1.553,4.296-1.553c3.179,0,3.761,1.965,3.761,4.197v7.982H192.322z"/>
	<path fill="#2E2119" d="M208.699,1070.184h1.553l0.17,1.941c-0.775,0.363-1.893,0.605-2.912,0.605
		c-1.045,0-1.797-0.242-1.917-1.432c0-0.021-0.024-0.021-0.049-0.047c-1.675,1.455-3.446,1.479-4.125,1.479
		c-2.961,0-3.688-2.086-3.688-3.471c0-2.473,1.916-3.688,4.416-3.834c0.924-0.072,2.33-0.119,3.252-0.191v-0.293
		c0-1.357-0.438-2.062-2.209-2.062c-1.164,0-2.668,0.242-3.785,0.607c-0.17-0.729-0.363-1.455-0.559-2.162
		c1.408-0.604,3.471-0.992,5.17-0.992c2.863,0,4.684,1.068,4.684,4.148V1070.184z M202.996,1067.342
		c-1.141,0.1-1.674,0.682-1.674,1.629c0,0.994,0.484,1.527,1.625,1.527c0.729,0,1.674-0.389,2.451-1.066v-2.281L202.996,1067.342z"
		/>
	<path fill="#2E2119" d="M220.128,1072.488v-7.377c0-1.238-0.194-2.135-1.699-2.135c-0.801,0-1.917,0.412-2.718,0.896v8.615h-3.494
		v-11.914h3.299l0.049,1.092l0.098,0.049c1.383-0.924,3.057-1.434,4.198-1.434c3.155,0,3.737,1.869,3.737,4.102v8.105H220.128z"/>
	<path fill="#2E2119" d="M231.991,1070.037c1.115,0,2.136-0.242,3.204-0.605l0.654,2.305c-1.189,0.605-2.862,0.947-4.488,0.947
		c-4.562,0-5.752-2.719-5.752-6.02c0-2.814,1.067-6.355,5.896-6.355c1.02,0,2.354,0.094,3.714,0.582
		c-0.171,0.799-0.34,1.6-0.534,2.426c-1.02-0.293-1.893-0.34-2.596-0.34c-1.942,0-2.961,1.334-2.961,3.541
		C229.129,1068.703,229.832,1070.037,231.991,1070.037"/>
	<path fill="#2E2119" d="M248.35,1066.082v1.238h-7.788c0,1.82,0.849,2.789,2.984,2.789c1.285,0,2.597-0.291,3.833-0.752
		l0.705,2.137c-1.578,0.873-3.398,1.189-5.049,1.189c-4.803,0-5.969-2.865-5.969-6.141c0-2.621,1.117-6.283,5.824-6.283
		C248.01,1060.26,248.35,1063.947,248.35,1066.082 M240.609,1065.186h4.587c-0.024-1.578-0.511-2.719-2.161-2.719
		C241.314,1062.467,240.73,1063.752,240.609,1065.186"/>
	<rect x="107.324" y="1082.906" fill="#2E2119" width="3.541" height="16.697"/>
	<path fill="#2E2119" d="M121.932,1099.604v-7.379c0-1.238-0.195-2.135-1.699-2.135c-0.801,0-1.917,0.412-2.718,0.896v8.617h-3.495
		v-11.916h3.301l0.049,1.092l0.097,0.051c1.383-0.924,3.058-1.434,4.198-1.434c3.154,0,3.738,1.867,3.738,4.1v8.107H121.932z"/>
	<path fill="#2E2119" d="M135.906,1088.15v-5.898h3.471v17.352h-3.229l-0.072-1.068c-0.024-0.023-0.047-0.049-0.072-0.049
		c-1.164,0.945-2.646,1.285-3.664,1.285c-3.714,0-4.732-2.717-4.732-5.871c0-3.689,1.358-6.504,5.145-6.504
		C133.529,1087.396,134.912,1087.564,135.906,1088.15 M135.906,1090.574c-0.559-0.338-1.625-0.654-2.402-0.654
		c-1.189,0-2.402,0.703-2.402,3.955c0,2.816,1.043,3.471,2.354,3.471c0.704,0,1.893-0.484,2.451-0.896V1090.574z"/>
	<path fill="#2E2119" d="M152.479,1093.195v1.238h-7.79c0,1.82,0.851,2.791,2.985,2.791c1.287,0,2.597-0.291,3.835-0.754
		l0.703,2.137c-1.577,0.873-3.397,1.189-5.049,1.189c-4.804,0-5.968-2.863-5.968-6.139c0-2.623,1.115-6.285,5.824-6.285
		C152.139,1087.373,152.479,1091.061,152.479,1093.195 M144.737,1092.299h4.587c-0.023-1.578-0.51-2.719-2.161-2.719
		C145.441,1089.58,144.859,1090.865,144.737,1092.299"/>
	<polygon fill="#2E2119" points="159.781,1095.184 157.257,1099.604 153.545,1099.604 157.645,1093.391 153.86,1087.688 
		157.67,1087.688 159.83,1091.715 162.014,1087.688 165.727,1087.688 161.867,1093.365 165.921,1099.604 162.135,1099.604 	"/>
	<path fill="#F4C61B" d="M77.161,1092.209c-1.936,0-3.503-1.566-3.503-3.5c0-1.936,1.567-3.504,3.503-3.504
		c1.933,0,3.503,1.568,3.503,3.504C80.664,1090.643,79.094,1092.209,77.161,1092.209"/>
	<path fill="#F4C61B" d="M80.437,1083.189c-1.356,0-2.456-1.1-2.456-2.457s1.1-2.455,2.456-2.455c1.356,0,2.454,1.098,2.454,2.455
		S81.793,1083.189,80.437,1083.189"/>
	<path fill="#F4C61B" d="M82.893,1076.441c-0.933,0-1.689-0.756-1.689-1.688c0-0.934,0.757-1.689,1.689-1.689
		c0.934,0,1.688,0.756,1.688,1.689C84.581,1075.686,83.826,1076.441,82.893,1076.441"/>
	<path fill="#F4C61B" d="M84.53,1071.986c-0.673,0-1.22-0.545-1.22-1.221c0-0.674,0.547-1.219,1.22-1.219
		c0.673,0,1.22,0.545,1.22,1.219C85.75,1071.441,85.203,1071.986,84.53,1071.986"/>
	<path fill="#7E90C8" d="M62.615,1077.695c-1.935,0-3.502-1.57-3.502-3.504c0-1.932,1.567-3.498,3.502-3.498
		c1.934,0,3.502,1.566,3.502,3.498C66.117,1076.125,64.549,1077.695,62.615,1077.695"/>
	<path fill="#7E90C8" d="M70.559,1073.301c-1.355,0-2.451-1.1-2.451-2.455c0-1.352,1.096-2.451,2.451-2.451
		c1.354,0,2.453,1.1,2.453,2.451C73.012,1072.201,71.913,1073.301,70.559,1073.301"/>
	<path fill="#7E90C8" d="M76.518,1070.02c-0.932,0-1.684-0.752-1.684-1.682s0.752-1.686,1.684-1.686c0.93,0,1.684,0.756,1.684,1.686
		S77.447,1070.02,76.518,1070.02"/>
	<path fill="#7E90C8" d="M80.488,1067.875c-0.668,0-1.211-0.541-1.211-1.211s0.543-1.213,1.211-1.213
		c0.672,0,1.214,0.543,1.214,1.213S81.16,1067.875,80.488,1067.875"/>
	<path fill="#0F9ACC" d="M62.589,1057.148c-1.933,0-3.501-1.566-3.501-3.504c0-1.932,1.568-3.498,3.501-3.498
		c1.934,0,3.503,1.566,3.503,3.498C66.092,1055.582,64.523,1057.148,62.589,1057.148"/>
	<path fill="#0F9ACC" d="M70.573,1059.344c-1.35,0-2.448-1.094-2.448-2.447c0-1.352,1.098-2.449,2.448-2.449
		c1.352,0,2.448,1.098,2.448,2.449C73.021,1058.25,71.925,1059.344,70.573,1059.344"/>
	<path fill="#0F9ACC" d="M76.561,1061.01c-0.924,0-1.676-0.75-1.676-1.676c0-0.928,0.752-1.678,1.676-1.678
		c0.928,0,1.678,0.75,1.678,1.678C78.238,1060.26,77.488,1061.01,76.561,1061.01"/>
	<path fill="#0F9ACC" d="M80.555,1062.162c-0.666,0-1.205-0.541-1.205-1.205c0-0.662,0.539-1.203,1.205-1.203
		c0.664,0,1.203,0.541,1.203,1.203C81.758,1061.621,81.219,1062.162,80.555,1062.162"/>
	<path fill="#3FBBA3" d="M77.102,1042.604c-1.934,0-3.504-1.57-3.504-3.504c0-1.936,1.57-3.502,3.504-3.502
		c1.933,0,3.502,1.566,3.502,3.502C80.604,1041.033,79.034,1042.604,77.102,1042.604"/>
	<path fill="#3FBBA3" d="M80.426,1049.496c-1.35,0-2.444-1.092-2.444-2.443c0-1.35,1.095-2.445,2.444-2.445
		c1.35,0,2.445,1.096,2.445,2.445C82.871,1048.404,81.775,1049.496,80.426,1049.496"/>
	<path fill="#3FBBA3" d="M82.92,1054.689c-0.924,0-1.674-0.748-1.674-1.672s0.75-1.672,1.674-1.672c0.922,0,1.67,0.748,1.67,1.672
		S83.842,1054.689,82.92,1054.689"/>
	<path fill="#3FBBA3" d="M84.581,1058.191c-0.661,0-1.196-0.535-1.196-1.195s0.535-1.197,1.196-1.197
		c0.661,0,1.196,0.537,1.196,1.197S85.242,1058.191,84.581,1058.191"/>
	<path fill="#F89624" d="M87.48,1111.902c-2.389,0-4.326-1.936-4.326-4.326c0-2.389,1.938-4.324,4.326-4.324
		c2.389,0,4.326,1.936,4.326,4.324C91.807,1109.967,89.869,1111.902,87.48,1111.902"/>
	<path fill="#F89624" d="M87.446,1099.58c-1.833,0-3.318-1.486-3.318-3.318c0-1.83,1.485-3.318,3.318-3.318s3.317,1.488,3.317,3.318
		C90.764,1098.094,89.279,1099.58,87.446,1099.58"/>
	<path fill="#F89624" d="M87.42,1090.195c-1.408,0-2.551-1.145-2.551-2.553c0-1.406,1.143-2.551,2.551-2.551
		c1.408,0,2.551,1.145,2.551,2.551C89.971,1089.051,88.828,1090.195,87.42,1090.195"/>
	<path fill="#F89624" d="M87.396,1081.443c-1.041,0-1.882-0.844-1.882-1.881c0-1.039,0.841-1.885,1.882-1.885
		c1.038,0,1.882,0.846,1.882,1.885C89.277,1080.6,88.434,1081.443,87.396,1081.443"/>
	<path fill="#F36F2D" d="M56.628,1099.164c-2.39,0-4.325-1.938-4.325-4.326c0-2.391,1.936-4.326,4.325-4.326
		c2.39,0,4.325,1.936,4.325,4.326C60.953,1097.227,59.018,1099.164,56.628,1099.164"/>
	<path fill="#F36F2D" d="M64.569,1090.094c-1.831,0-3.315-1.482-3.315-3.316c0-1.83,1.484-3.312,3.315-3.312
		c1.83,0,3.313,1.482,3.313,3.312C67.883,1088.611,66.399,1090.094,64.569,1090.094"/>
	<path fill="#F36F2D" d="M70.619,1083.184c-1.406,0-2.545-1.137-2.545-2.545c0-1.406,1.139-2.545,2.545-2.545
		c1.405,0,2.545,1.139,2.545,2.545C73.164,1082.047,72.024,1083.184,70.619,1083.184"/>
	<path fill="#F36F2D" d="M76.292,1076.756c-1.036,0-1.876-0.836-1.876-1.873c0-1.035,0.84-1.875,1.876-1.875s1.876,0.84,1.876,1.875
		C78.168,1075.92,77.328,1076.756,76.292,1076.756"/>
	<path fill="#3676BA" d="M43.816,1068.342c-2.39,0-4.326-1.938-4.326-4.328c0-2.387,1.937-4.326,4.326-4.326
		c2.389,0,4.325,1.939,4.325,4.326C48.142,1066.404,46.205,1068.342,43.816,1068.342"/>
	<path fill="#3676BA" d="M55.129,1067.236c-1.828,0-3.31-1.482-3.31-3.311s1.481-3.311,3.31-3.311c1.828,0,3.31,1.482,3.31,3.311
		S56.957,1067.236,55.129,1067.236"/>
	<path fill="#3676BA" d="M63.749,1066.393c-1.4,0-2.536-1.137-2.536-2.533c0-1.402,1.136-2.537,2.536-2.537
		c1.4,0,2.534,1.135,2.534,2.537C66.283,1065.256,65.149,1066.393,63.749,1066.393"/>
	<path fill="#3676BA" d="M71.83,1065.656c-1.029,0-1.863-0.832-1.863-1.863c0-1.027,0.834-1.863,1.863-1.863
		c1.029,0,1.862,0.836,1.862,1.863C73.692,1064.824,72.859,1065.656,71.83,1065.656"/>
	<path fill="#068D8C" d="M56.555,1037.49c-2.389,0-4.326-1.939-4.326-4.326c0-2.391,1.938-4.328,4.326-4.328
		c2.389,0,4.326,1.938,4.326,4.328C60.881,1035.551,58.943,1037.49,56.555,1037.49"/>
	<path fill="#068D8C" d="M64.59,1044.432c-1.825,0-3.305-1.479-3.305-3.305c0-1.824,1.479-3.305,3.305-3.305
		c1.826,0,3.307,1.48,3.307,3.305C67.896,1042.953,66.416,1044.432,64.59,1044.432"/>
	<path fill="#068D8C" d="M70.713,1049.725c-1.396,0-2.527-1.131-2.527-2.527s1.132-2.529,2.527-2.529
		c1.396,0,2.527,1.133,2.527,2.529S72.109,1049.725,70.713,1049.725"/>
	<path fill="#068D8C" d="M76.452,1054.738c-1.022,0-1.853-0.83-1.853-1.852c0-1.025,0.83-1.854,1.853-1.854
		c1.023,0,1.853,0.828,1.853,1.854C78.305,1053.908,77.476,1054.738,76.452,1054.738"/>
	<path fill="#2CB35F" d="M87.377,1024.678c-2.391,0-4.326-1.936-4.326-4.326c0-2.387,1.936-4.326,4.326-4.326
		c2.39,0,4.325,1.939,4.325,4.326C91.702,1022.742,89.767,1024.678,87.377,1024.678"/>
	<path fill="#2CB35F" d="M87.364,1034.969c-1.825,0-3.305-1.479-3.305-3.303s1.479-3.305,3.305-3.305
		c1.825,0,3.304,1.48,3.304,3.305S89.189,1034.969,87.364,1034.969"/>
	<path fill="#2CB35F" d="M87.354,1042.811c-1.395,0-2.524-1.129-2.524-2.523s1.13-2.527,2.524-2.527
		c1.396,0,2.526,1.133,2.526,2.527S88.749,1042.811,87.354,1042.811"/>
	<path fill="#2CB35F" d="M87.346,1050.219c-1.023,0-1.852-0.83-1.852-1.852s0.828-1.852,1.852-1.852c1.021,0,1.851,0.83,1.851,1.852
		S88.367,1050.219,87.346,1050.219"/>
</g>
<rect x="40.338" y="40.635" fill="none" width="865.325" height="38.607"/>
<text transform="matrix(1 0 0 1 37.3379 75.1465)"><tspan x="0" y="0" fill="#FFFFFF" font-family="'Helvetica-Bold'" font-size="48">PM: </tspan><tspan x="101.32" y="0" fill="#F5C714" font-family="'Helvetica-Bold'" font-size="48">MONITORING </tspan></text>
<rect x="40.939" y="92.105" fill="none" width="863.957" height="71.133"/>
<text transform="matrix(1 0 0 1 40.9385 104.9575)" fill="#FFFFFF" font-family="'HelveticaNeue-Medium'" font-size="18">PARTILCUATE MATTER CAN BE TRACED TO A VARIETY OF SOURCES BOTH RURAL AND URBAN</text>
<rect x="562.405" y="258.57" fill="#8D3D0C" width="237.5" height="96"/>
<g>
	<rect x="570.678" y="235.105" fill="none" width="240.901" height="174.294"/>
	<text transform="matrix(1 0 0 1 570.6777 248.0474)"><tspan x="0" y="0" fill="#2BC0D2" font-family="'Helvetica'" font-size="18">SATELLITE</tspan><tspan x="0" y="24.4" fill="#FFFFFF" font-family="'Helvetica'" font-size="12">WORD WORDS  WORD WORDS WORD </tspan><tspan x="0" y="38.8" fill="#FFFFFF" font-family="'Helvetica'" font-size="12">WORDS WORD WORDS WORD WORDS </tspan><tspan x="0" y="53.2" fill="#FFFFFF" font-family="'Helvetica'" font-size="12">WORD WORDS WORD WORDS WORD </tspan><tspan x="0" y="67.6" fill="#FFFFFF" font-family="'Helvetica'" font-size="12">WORDS WORD WORDS WORD WORDS </tspan><tspan x="0" y="82" fill="#FFFFFF" font-family="'Helvetica'" font-size="12">WORD WORDS WORD WORDS WORD </tspan><tspan x="0" y="96.4" fill="#FFFFFF" font-family="'Helvetica'" font-size="12">WORDS WORD WORDS </tspan></text>
	<polyline fill="none" stroke="#2BC0D2" stroke-width="2" stroke-miterlimit="10" points="720.291,251.656 560.429,251.656 
		427.405,354.575 332.405,354.575 	"/>
	<circle fill="#2BC0D2" cx="332.405" cy="354.575" r="5.332"/>
</g>
<rect x="1057.928" y="258.584" fill="#8D3D0C" width="237.5" height="96"/>
<g>
	<rect x="1047.2" y="235.119" fill="none" width="240.901" height="174.294"/>
	<text transform="matrix(1 0 0 1 1118.1123 248.061)"><tspan x="0" y="0" fill="#2BC0D2" font-family="'Helvetica'" font-size="18">GROUND MONITOR</tspan><tspan x="-52.649" y="24.4" fill="#FFFFFF" font-family="'Helvetica'" font-size="12">WORD WORDS  WORD WORDS WORD </tspan><tspan x="-57.319" y="38.8" fill="#FFFFFF" font-family="'Helvetica'" font-size="12">WORDS WORD WORDS WORD WORDS </tspan><tspan x="-49.315" y="53.2" fill="#FFFFFF" font-family="'Helvetica'" font-size="12">WORD WORDS WORD WORDS WORD </tspan><tspan x="-57.319" y="67.6" fill="#FFFFFF" font-family="'Helvetica'" font-size="12">WORDS WORD WORDS WORD WORDS </tspan><tspan x="-49.315" y="82" fill="#FFFFFF" font-family="'Helvetica'" font-size="12">WORD WORDS WORD WORDS WORD </tspan><tspan x="33.337" y="96.4" fill="#FFFFFF" font-family="'Helvetica'" font-size="12">WORDS WORD WORDS </tspan></text>
</g>
<polyline fill="none" stroke="#2BC0D2" stroke-width="2" stroke-miterlimit="10" points="1092.405,251.656 1305.28,251.656 
	1305.28,574.07 "/>
<circle fill="#2BC0D2" cx="1305.28" cy="574.07" r="5.332"/>
<g>
	<circle fill="#FFFFFF" cx="253.877" cy="328.775" r="33.06"/>
	
		<rect x="107.008" y="351.785" transform="matrix(-0.869 0.4948 -0.4948 -0.869 494.649 628.8536)" fill="#FFFFFF" width="114.151" height="56.237"/>
	
		<rect x="286.135" y="249.792" transform="matrix(-0.869 0.4948 -0.4948 -0.869 778.9745 349.5917)" fill="#FFFFFF" width="114.152" height="56.236"/>
	
		<rect x="373.662" y="258.777" transform="matrix(-0.869 0.4948 -0.4948 -0.869 851.0732 313.0749)" fill="#D1D3D4" width="20.858" height="20.856"/>
	
		<rect x="361.132" y="236.769" transform="matrix(-0.869 0.4948 -0.4948 -0.869 816.7623 278.1505)" fill="#D1D3D4" width="20.856" height="20.855"/>
	
		<rect x="350.496" y="271.968" transform="matrix(-0.869 0.4948 -0.4948 -0.869 814.2978 349.2206)" fill="#D1D3D4" width="20.856" height="20.855"/>
	
		<rect x="337.966" y="249.96" transform="matrix(-0.869 0.4948 -0.4948 -0.869 779.9893 314.2856)" fill="#D1D3D4" width="20.856" height="20.855"/>
	
		<rect x="327.329" y="285.158" transform="matrix(-0.869 0.4948 -0.4948 -0.869 777.53 385.3178)" fill="#D1D3D4" width="20.856" height="20.857"/>
	
		<rect x="314.798" y="263.15" transform="matrix(-0.869 0.4948 -0.4948 -0.869 743.2126 350.4174)" fill="#D1D3D4" width="20.855" height="20.856"/>
	
		<rect x="304.163" y="298.349" transform="matrix(-0.869 0.4948 -0.4948 -0.869 740.757 421.4417)" fill="#D1D3D4" width="20.855" height="20.857"/>
	
		<rect x="291.631" y="276.341" transform="matrix(-0.869 0.4948 -0.4948 -0.869 706.4445 386.512)" fill="#D1D3D4" width="20.855" height="20.857"/>
	
		<rect x="194.671" y="360.692" transform="matrix(-0.869 0.4948 -0.4948 -0.869 566.9562 592.1535)" fill="#D1D3D4" width="20.857" height="20.856"/>
	
		<rect x="182.141" y="338.684" transform="matrix(-0.869 0.4948 -0.4948 -0.869 532.652 557.2123)" fill="#D1D3D4" width="20.856" height="20.856"/>
	
		<rect x="171.504" y="373.883" transform="matrix(-0.869 0.4948 -0.4948 -0.869 530.1925 628.2579)" fill="#D1D3D4" width="20.857" height="20.857"/>
	
		<rect x="158.975" y="351.875" transform="matrix(-0.869 0.4948 -0.4948 -0.869 495.8849 593.3226)" fill="#D1D3D4" width="20.855" height="20.857"/>
	
		<rect x="148.337" y="387.075" transform="matrix(-0.869 0.4948 -0.4948 -0.869 493.4254 664.369)" fill="#D1D3D4" width="20.856" height="20.856"/>
	
		<rect x="135.807" y="365.067" transform="matrix(-0.869 0.4948 -0.4948 -0.869 459.0955 629.4593)" fill="#D1D3D4" width="20.855" height="20.855"/>
	
		<rect x="125.171" y="400.266" transform="matrix(-0.869 0.4948 -0.4948 -0.869 456.6616 700.4794)" fill="#D1D3D4" width="20.856" height="20.856"/>
	
		<rect x="112.639" y="378.258" transform="matrix(-0.869 0.4948 -0.4948 -0.869 422.3281 665.5709)" fill="#D1D3D4" width="20.857" height="20.854"/>
</g>
<polyline fill-rule="evenodd" clip-rule="evenodd" fill="none" stroke="#FFFFFF" stroke-width="2" stroke-miterlimit="10" points="
	752.511,780.525 752.511,804.278 104.628,804.278 104.628,780.525 "/>
<g>
	<g>
		<path fill-rule="evenodd" clip-rule="evenodd" fill="#8D3D0C" d="M405.441,884.769c-0.607,0-1.055,0-1.645,0
			c0,0.43,0,0.83,0,1.231c0,12.089,0.005,24.181-0.003,36.271c0,3.777-3.092,6.143-6.616,5.086
			c-2.045-0.617-3.313-2.417-3.313-4.726c0-15.073,0-30.141,0-45.214c0-6.303,0-12.612,0-18.915c0-0.371,0-0.747,0-1.161
			c-0.585,0-1.061,0-1.709,0c0,0.391,0,0.781,0,1.178c0,7.416,0.004,14.827-0.005,22.242c-0.005,2.684-1.583,4.309-4.024,4.183
			c-1.889-0.095-3.402-1.622-3.402-3.499c-0.015-9.078-0.038-18.153,0.002-27.228c0.02-4.652,4.191-9.318,8.852-9.995
			c0.95-0.148,1.926-0.209,2.893-0.209c5.508-0.027,11.014-0.029,16.523-0.012c5.881,0.021,10.203,3.591,11.309,9.369
			c0.167,0.876,0.167,1.792,0.167,2.69c0.015,8.07,0.01,16.14,0,24.214c0,0.656,0.01,1.328-0.137,1.955
			c-0.427,1.857-2.05,2.903-4.077,2.714c-1.698-0.151-2.969-1.507-3.11-3.323c-0.035-0.447-0.058-0.899-0.058-1.346
			c-0.003-7.211-0.003-14.415-0.003-21.621c0-0.41,0-0.818,0-1.288c-0.56,0-1.027,0-1.645,0c0,0.421,0,0.858,0,1.297
			c0,21.134,0,42.264,0,63.401c0,2.922-1.207,4.688-3.626,5.346c-3.258,0.877-6.221-1.273-6.367-4.625
			c-0.015-0.343-0.005-0.692-0.005-1.035c0-11.886,0-23.766,0-35.65C405.441,885.688,405.441,885.276,405.441,884.769z"/>
		<path fill-rule="evenodd" clip-rule="evenodd" fill="#8D3D0C" d="M404.235,842.18c-4.687,0.007-8.5-3.732-8.502-8.344
			c-0.008-4.853,3.803-8.74,8.502-8.682c4.684,0.055,8.508,3.885,8.52,8.533C412.761,838.334,408.906,842.173,404.235,842.18z"/>
	</g>
</g>
<g>
	<g>
		<path fill-rule="evenodd" clip-rule="evenodd" fill="#8D3D0C" d="M458.226,884.769c-0.607,0-1.055,0-1.645,0
			c0,0.43,0,0.83,0,1.231c0,12.089,0.005,24.181-0.002,36.271c0,3.777-3.093,6.143-6.617,5.086
			c-2.045-0.617-3.312-2.417-3.312-4.726c0-15.073,0-30.141,0-45.214c0-6.303,0-12.612,0-18.915c0-0.371,0-0.747,0-1.161
			c-0.586,0-1.062,0-1.709,0c0,0.391,0,0.781,0,1.178c0,7.416,0.004,14.827-0.006,22.242c-0.005,2.684-1.583,4.309-4.023,4.183
			c-1.889-0.095-3.403-1.622-3.403-3.499c-0.015-9.078-0.038-18.153,0.003-27.228c0.019-4.652,4.19-9.318,8.851-9.995
			c0.95-0.148,1.927-0.209,2.893-0.209c5.508-0.027,11.015-0.029,16.523-0.012c5.881,0.021,10.203,3.591,11.309,9.369
			c0.167,0.876,0.167,1.792,0.167,2.69c0.015,8.07,0.01,16.14,0,24.214c0,0.656,0.01,1.328-0.137,1.955
			c-0.426,1.857-2.049,2.903-4.077,2.714c-1.698-0.151-2.97-1.507-3.109-3.323c-0.036-0.447-0.058-0.899-0.058-1.346
			c-0.004-7.211-0.004-14.415-0.004-21.621c0-0.41,0-0.818,0-1.288c-0.56,0-1.027,0-1.645,0c0,0.421,0,0.858,0,1.297
			c0,21.134,0,42.264,0,63.401c0,2.922-1.207,4.688-3.626,5.346c-3.258,0.877-6.22-1.273-6.367-4.625
			c-0.015-0.343-0.005-0.692-0.005-1.035c0-11.886,0-23.766,0-35.65C458.226,885.688,458.226,885.276,458.226,884.769z"/>
		<path fill-rule="evenodd" clip-rule="evenodd" fill="#8D3D0C" d="M457.02,842.18c-4.686,0.007-8.499-3.732-8.502-8.344
			c-0.007-4.853,3.804-8.74,8.502-8.682c4.685,0.055,8.509,3.885,8.521,8.533C465.544,838.334,461.69,842.173,457.02,842.18z"/>
	</g>
</g>
<g>
	<g>
		<path fill-rule="evenodd" clip-rule="evenodd" fill="#8D3D0C" d="M511.011,884.769c-0.607,0-1.056,0-1.646,0
			c0,0.43,0,0.83,0,1.231c0,12.089,0.005,24.181-0.002,36.271c0,3.777-3.093,6.143-6.617,5.086
			c-2.044-0.617-3.312-2.417-3.312-4.726c0-15.073,0-30.141,0-45.214c0-6.303,0-12.612,0-18.915c0-0.371,0-0.747,0-1.161
			c-0.585,0-1.061,0-1.709,0c0,0.391,0,0.781,0,1.178c0,7.416,0.004,14.827-0.005,22.242c-0.006,2.684-1.584,4.309-4.024,4.183
			c-1.889-0.095-3.403-1.622-3.403-3.499c-0.014-9.078-0.038-18.153,0.002-27.228c0.02-4.652,4.191-9.318,8.852-9.995
			c0.95-0.148,1.926-0.209,2.893-0.209c5.508-0.027,11.015-0.029,16.523-0.012c5.881,0.021,10.203,3.591,11.309,9.369
			c0.168,0.876,0.168,1.792,0.168,2.69c0.015,8.07,0.009,16.14,0,24.214c0,0.656,0.009,1.328-0.137,1.955
			c-0.427,1.857-2.05,2.903-4.078,2.714c-1.697-0.151-2.969-1.507-3.109-3.323c-0.036-0.447-0.058-0.899-0.058-1.346
			c-0.003-7.211-0.003-14.415-0.003-21.621c0-0.41,0-0.818,0-1.288c-0.561,0-1.027,0-1.645,0c0,0.421,0,0.858,0,1.297
			c0,21.134,0,42.264,0,63.401c0,2.922-1.207,4.688-3.627,5.346c-3.258,0.877-6.22-1.273-6.367-4.625
			c-0.014-0.343-0.004-0.692-0.004-1.035c0-11.886,0-23.766,0-35.65C511.011,885.688,511.011,885.276,511.011,884.769z"/>
		<path fill-rule="evenodd" clip-rule="evenodd" fill="#8D3D0C" d="M509.804,842.18c-4.686,0.007-8.499-3.732-8.501-8.344
			c-0.008-4.853,3.803-8.74,8.501-8.682c4.686,0.055,8.509,3.885,8.521,8.533C518.329,838.334,514.476,842.173,509.804,842.18z"/>
	</g>
</g>
<g>
	<g>
		<path fill-rule="evenodd" clip-rule="evenodd" fill="#8D3D0C" d="M563.794,884.769c-0.607,0-1.055,0-1.644,0
			c0,0.43,0,0.83,0,1.231c0,12.089,0.006,24.181-0.002,36.271c0,3.777-3.092,6.143-6.617,5.086
			c-2.044-0.617-3.312-2.417-3.312-4.726c0-15.073,0-30.141,0-45.214c0-6.303,0-12.612,0-18.915c0-0.371,0-0.747,0-1.161
			c-0.585,0-1.061,0-1.709,0c0,0.391,0,0.781,0,1.178c0,7.416,0.004,14.827-0.006,22.242c-0.004,2.684-1.582,4.309-4.023,4.183
			c-1.889-0.095-3.403-1.622-3.403-3.499c-0.014-9.078-0.038-18.153,0.003-27.228c0.019-4.652,4.19-9.318,8.851-9.995
			c0.95-0.148,1.927-0.209,2.893-0.209c5.507-0.027,11.014-0.029,16.523-0.012c5.882,0.021,10.204,3.591,11.309,9.369
			c0.168,0.876,0.168,1.792,0.168,2.69c0.015,8.07,0.01,16.14,0,24.214c0,0.656,0.01,1.328-0.137,1.955
			c-0.427,1.857-2.05,2.903-4.078,2.714c-1.697-0.151-2.969-1.507-3.108-3.323c-0.036-0.447-0.059-0.899-0.059-1.346
			c-0.003-7.211-0.003-14.415-0.003-21.621c0-0.41,0-0.818,0-1.288c-0.56,0-1.027,0-1.644,0c0,0.421,0,0.858,0,1.297
			c0,21.134,0,42.264,0,63.401c0,2.922-1.207,4.688-3.626,5.346c-3.259,0.877-6.221-1.273-6.367-4.625
			c-0.015-0.343-0.006-0.692-0.006-1.035c0-11.886,0-23.766,0-35.65C563.794,885.688,563.794,885.276,563.794,884.769z"/>
		<path fill-rule="evenodd" clip-rule="evenodd" fill="#8D3D0C" d="M562.589,842.18c-4.688,0.007-8.5-3.732-8.502-8.344
			c-0.008-4.853,3.803-8.74,8.502-8.682c4.684,0.055,8.508,3.885,8.52,8.533C571.113,838.334,567.26,842.173,562.589,842.18z"/>
	</g>
</g>
<g>
	<g>
		<path fill-rule="evenodd" clip-rule="evenodd" fill="#8D3D0C" d="M616.579,884.769c-0.607,0-1.055,0-1.645,0
			c0,0.43,0,0.83,0,1.231c0,12.089,0.004,24.181-0.002,36.271c0,3.777-3.093,6.143-6.618,5.086
			c-2.044-0.617-3.312-2.417-3.312-4.726c0-15.073,0-30.141,0-45.214c0-6.303,0-12.612,0-18.915c0-0.371,0-0.747,0-1.161
			c-0.585,0-1.061,0-1.709,0c0,0.391,0,0.781,0,1.178c0,7.416,0.004,14.827-0.005,22.242c-0.005,2.684-1.583,4.309-4.024,4.183
			c-1.888-0.095-3.403-1.622-3.403-3.499c-0.014-9.078-0.037-18.153,0.003-27.228c0.02-4.652,4.19-9.318,8.851-9.995
			c0.951-0.148,1.927-0.209,2.893-0.209c5.507-0.027,11.015-0.029,16.523-0.012c5.881,0.021,10.203,3.591,11.308,9.369
			c0.168,0.876,0.168,1.792,0.168,2.69c0.015,8.07,0.01,16.14,0,24.214c0,0.656,0.01,1.328-0.137,1.955
			c-0.426,1.857-2.049,2.903-4.078,2.714c-1.697-0.151-2.969-1.507-3.109-3.323c-0.035-0.447-0.057-0.899-0.057-1.346
			c-0.004-7.211-0.004-14.415-0.004-21.621c0-0.41,0-0.818,0-1.288c-0.56,0-1.027,0-1.645,0c0,0.421,0,0.858,0,1.297
			c0,21.134,0,42.264,0,63.401c0,2.922-1.207,4.688-3.626,5.346c-3.259,0.877-6.221-1.273-6.367-4.625
			c-0.015-0.343-0.005-0.692-0.005-1.035c0-11.886,0-23.766,0-35.65C616.579,885.688,616.579,885.276,616.579,884.769z"/>
		<path fill-rule="evenodd" clip-rule="evenodd" fill="#8D3D0C" d="M615.373,842.18c-4.686,0.007-8.499-3.732-8.502-8.344
			c-0.008-4.853,3.804-8.74,8.502-8.682c4.685,0.055,8.509,3.885,8.521,8.533C623.898,838.334,620.044,842.173,615.373,842.18z"/>
	</g>
</g>
<g>
	<g>
		<path fill-rule="evenodd" clip-rule="evenodd" fill="#8D3D0C" d="M669.363,884.769c-0.607,0-1.055,0-1.644,0
			c0,0.43,0,0.83,0,1.231c0,12.089,0.005,24.181-0.002,36.271c0,3.777-3.093,6.143-6.617,5.086
			c-2.044-0.617-3.314-2.417-3.314-4.726c0-15.073,0-30.141,0-45.214c0-6.303,0-12.612,0-18.915c0-0.371,0-0.747,0-1.161
			c-0.584,0-1.06,0-1.709,0c0,0.391,0,0.781,0,1.178c0,7.416,0.005,14.827-0.005,22.242c-0.005,2.684-1.583,4.309-4.023,4.183
			c-1.89-0.095-3.403-1.622-3.403-3.499c-0.015-9.078-0.038-18.153,0.002-27.228c0.019-4.652,4.191-9.318,8.852-9.995
			c0.95-0.148,1.926-0.209,2.893-0.209c5.508-0.027,11.015-0.029,16.523-0.012c5.881,0.021,10.203,3.591,11.309,9.369
			c0.167,0.876,0.167,1.792,0.167,2.69c0.015,8.07,0.011,16.14,0,24.214c0,0.656,0.011,1.328-0.136,1.955
			c-0.427,1.857-2.051,2.903-4.078,2.714c-1.698-0.151-2.969-1.507-3.109-3.323c-0.036-0.447-0.058-0.899-0.058-1.346
			c-0.003-7.211-0.003-14.415-0.003-21.621c0-0.41,0-0.818,0-1.288c-0.56,0-1.028,0-1.645,0c0,0.421,0,0.858,0,1.297
			c0,21.134,0,42.264,0,63.401c0,2.922-1.206,4.688-3.626,5.346c-3.258,0.877-6.22-1.273-6.367-4.625
			c-0.014-0.343-0.005-0.692-0.005-1.035c0-11.886,0-23.766,0-35.65C669.363,885.688,669.363,885.276,669.363,884.769z"/>
		<path fill-rule="evenodd" clip-rule="evenodd" fill="#8D3D0C" d="M668.157,842.18c-4.687,0.007-8.499-3.732-8.502-8.344
			c-0.007-4.853,3.804-8.74,8.502-8.682c4.685,0.055,8.509,3.885,8.52,8.533C676.683,838.334,672.828,842.173,668.157,842.18z"/>
	</g>
</g>
<g>
	<g>
		<path fill-rule="evenodd" clip-rule="evenodd" fill="#8D3D0C" d="M722.148,884.769c-0.608,0-1.055,0-1.645,0
			c0,0.43,0,0.83,0,1.231c0,12.089,0.005,24.181-0.002,36.271c0,3.777-3.092,6.143-6.617,5.086
			c-2.045-0.617-3.312-2.417-3.312-4.726c0-15.073,0-30.141,0-45.214c0-6.303,0-12.612,0-18.915c0-0.371,0-0.747,0-1.161
			c-0.585,0-1.061,0-1.709,0c0,0.391,0,0.781,0,1.178c0,7.416,0.004,14.827-0.006,22.242c-0.004,2.684-1.583,4.309-4.023,4.183
			c-1.889-0.095-3.403-1.622-3.403-3.499c-0.015-9.078-0.038-18.153,0.003-27.228c0.019-4.652,4.19-9.318,8.851-9.995
			c0.95-0.148,1.927-0.209,2.894-0.209c5.507-0.027,11.014-0.029,16.523-0.012c5.88,0.021,10.203,3.591,11.308,9.369
			c0.167,0.876,0.167,1.792,0.167,2.69c0.016,8.07,0.011,16.14,0,24.214c0,0.656,0.011,1.328-0.136,1.955
			c-0.427,1.857-2.05,2.903-4.078,2.714c-1.697-0.151-2.969-1.507-3.109-3.323c-0.036-0.447-0.058-0.899-0.058-1.346
			c-0.004-7.211-0.004-14.415-0.004-21.621c0-0.41,0-0.818,0-1.288c-0.559,0-1.027,0-1.644,0c0,0.421,0,0.858,0,1.297
			c0,21.134,0,42.264,0,63.401c0,2.922-1.206,4.688-3.625,5.346c-3.259,0.877-6.221-1.273-6.367-4.625
			c-0.015-0.343-0.006-0.692-0.006-1.035c0-11.886,0-23.766,0-35.65C722.148,885.688,722.148,885.276,722.148,884.769z"/>
		<path fill-rule="evenodd" clip-rule="evenodd" fill="#8D3D0C" d="M720.942,842.18c-4.688,0.007-8.5-3.732-8.502-8.344
			c-0.008-4.853,3.803-8.74,8.502-8.682c4.684,0.055,8.508,3.885,8.52,8.533C729.467,838.334,725.613,842.173,720.942,842.18z"/>
	</g>
</g>
<g>
	<g>
		<path fill-rule="evenodd" clip-rule="evenodd" fill="#8D3D0C" d="M139.727,884.769c-0.607,0-1.056,0-1.645,0
			c0,0.43,0,0.83,0,1.231c0,12.089,0.006,24.181-0.002,36.271c0,3.777-3.092,6.143-6.617,5.086
			c-2.044-0.617-3.312-2.417-3.312-4.726c0-15.073,0-30.141,0-45.214c0-6.303,0-12.612,0-18.915c0-0.371,0-0.747,0-1.161
			c-0.584,0-1.061,0-1.709,0c0,0.391,0,0.781,0,1.178c0,7.416,0.004,14.827-0.005,22.242c-0.005,2.684-1.583,4.309-4.024,4.183
			c-1.889-0.095-3.402-1.622-3.402-3.499c-0.015-9.078-0.039-18.153,0.002-27.228c0.02-4.652,4.191-9.318,8.851-9.995
			c0.951-0.148,1.927-0.209,2.894-0.209c5.508-0.027,11.014-0.029,16.523-0.012c5.881,0.021,10.203,3.591,11.309,9.369
			c0.167,0.876,0.167,1.792,0.167,2.69c0.015,8.07,0.01,16.14,0,24.214c0,0.656,0.01,1.328-0.137,1.955
			c-0.427,1.857-2.05,2.903-4.077,2.714c-1.697-0.151-2.969-1.507-3.109-3.323c-0.036-0.447-0.059-0.899-0.059-1.346
			c-0.003-7.211-0.003-14.415-0.003-21.621c0-0.41,0-0.818,0-1.288c-0.559,0-1.027,0-1.645,0c0,0.421,0,0.858,0,1.297
			c0,21.134,0,42.264,0,63.401c0,2.922-1.207,4.688-3.626,5.346c-3.258,0.877-6.221-1.273-6.367-4.625
			c-0.015-0.343-0.005-0.692-0.005-1.035c0-11.886,0-23.766,0-35.65C139.727,885.688,139.727,885.276,139.727,884.769z"/>
		<path fill-rule="evenodd" clip-rule="evenodd" fill="#8D3D0C" d="M138.52,842.18c-4.686,0.007-8.5-3.732-8.502-8.344
			c-0.008-4.853,3.803-8.74,8.502-8.682c4.685,0.055,8.508,3.885,8.521,8.533C147.046,838.334,143.192,842.173,138.52,842.18z"/>
	</g>
</g>
<g>
	<g>
		<path fill-rule="evenodd" clip-rule="evenodd" fill="#8D3D0C" d="M192.511,884.769c-0.607,0-1.055,0-1.645,0
			c0,0.43,0,0.83,0,1.231c0,12.089,0.005,24.181-0.002,36.271c0,3.777-3.093,6.143-6.617,5.086
			c-2.045-0.617-3.312-2.417-3.312-4.726c0-15.073,0-30.141,0-45.214c0-6.303,0-12.612,0-18.915c0-0.371,0-0.747,0-1.161
			c-0.586,0-1.062,0-1.709,0c0,0.391,0,0.781,0,1.178c0,7.416,0.004,14.827-0.006,22.242c-0.004,2.684-1.583,4.309-4.023,4.183
			c-1.889-0.095-3.404-1.622-3.404-3.499c-0.014-9.078-0.037-18.153,0.003-27.228c0.02-4.652,4.19-9.318,8.852-9.995
			c0.95-0.148,1.927-0.209,2.893-0.209c5.508-0.027,11.015-0.029,16.523-0.012c5.881,0.021,10.203,3.591,11.308,9.369
			c0.168,0.876,0.168,1.792,0.168,2.69c0.016,8.07,0.01,16.14,0,24.214c0,0.656,0.01,1.328-0.137,1.955
			c-0.426,1.857-2.049,2.903-4.078,2.714c-1.697-0.151-2.969-1.507-3.108-3.323c-0.036-0.447-0.058-0.899-0.058-1.346
			c-0.004-7.211-0.004-14.415-0.004-21.621c0-0.41,0-0.818,0-1.288c-0.559,0-1.027,0-1.645,0c0,0.421,0,0.858,0,1.297
			c0,21.134,0,42.264,0,63.401c0,2.922-1.207,4.688-3.625,5.346c-3.26,0.877-6.221-1.273-6.367-4.625
			c-0.016-0.343-0.006-0.692-0.006-1.035c0-11.886,0-23.766,0-35.65C192.511,885.688,192.511,885.276,192.511,884.769z"/>
		<path fill-rule="evenodd" clip-rule="evenodd" fill="#8D3D0C" d="M191.305,842.18c-4.687,0.007-8.499-3.732-8.501-8.344
			c-0.009-4.853,3.803-8.74,8.501-8.682c4.685,0.055,8.509,3.885,8.52,8.533C199.829,838.334,195.976,842.173,191.305,842.18z"/>
	</g>
</g>
<g>
	<g>
		<path fill-rule="evenodd" clip-rule="evenodd" fill="#8D3D0C" d="M245.295,884.769c-0.606,0-1.055,0-1.644,0
			c0,0.43,0,0.83,0,1.231c0,12.089,0.004,24.181-0.003,36.271c0,3.777-3.093,6.143-6.617,5.086
			c-2.044-0.617-3.313-2.417-3.313-4.726c0-15.073,0-30.141,0-45.214c0-6.303,0-12.612,0-18.915c0-0.371,0-0.747,0-1.161
			c-0.584,0-1.061,0-1.709,0c0,0.391,0,0.781,0,1.178c0,7.416,0.005,14.827-0.004,22.242c-0.006,2.684-1.584,4.309-4.024,4.183
			c-1.889-0.095-3.403-1.622-3.403-3.499c-0.014-9.078-0.037-18.153,0.002-27.228c0.02-4.652,4.191-9.318,8.852-9.995
			c0.951-0.148,1.926-0.209,2.893-0.209c5.508-0.027,11.015-0.029,16.523-0.012c5.881,0.021,10.203,3.591,11.309,9.369
			c0.168,0.876,0.168,1.792,0.168,2.69c0.014,8.07,0.01,16.14,0,24.214c0,0.656,0.01,1.328-0.137,1.955
			c-0.427,1.857-2.05,2.903-4.078,2.714c-1.697-0.151-2.969-1.507-3.109-3.323c-0.035-0.447-0.058-0.899-0.058-1.346
			c-0.003-7.211-0.003-14.415-0.003-21.621c0-0.41,0-0.818,0-1.288c-0.561,0-1.027,0-1.645,0c0,0.421,0,0.858,0,1.297
			c0,21.134,0,42.264,0,63.401c0,2.922-1.207,4.688-3.627,5.346c-3.258,0.877-6.22-1.273-6.367-4.625
			c-0.014-0.343-0.005-0.692-0.005-1.035c0-11.886,0-23.766,0-35.65C245.295,885.688,245.295,885.276,245.295,884.769z"/>
		<path fill-rule="evenodd" clip-rule="evenodd" fill="#8D3D0C" d="M244.089,842.18c-4.686,0.007-8.499-3.732-8.502-8.344
			c-0.007-4.853,3.804-8.74,8.502-8.682c4.686,0.055,8.51,3.885,8.521,8.533C252.614,838.334,248.761,842.173,244.089,842.18z"/>
	</g>
</g>
<g>
	<g>
		<path fill-rule="evenodd" clip-rule="evenodd" fill="#8D3D0C" d="M298.079,884.769c-0.607,0-1.055,0-1.645,0
			c0,0.43,0,0.83,0,1.231c0,12.089,0.006,24.181-0.002,36.271c0,3.777-3.092,6.143-6.617,5.086
			c-2.044-0.617-3.312-2.417-3.312-4.726c0-15.073,0-30.141,0-45.214c0-6.303,0-12.612,0-18.915c0-0.371,0-0.747,0-1.161
			c-0.585,0-1.06,0-1.709,0c0,0.391,0,0.781,0,1.178c0,7.416,0.004,14.827-0.006,22.242c-0.004,2.684-1.582,4.309-4.023,4.183
			c-1.889-0.095-3.403-1.622-3.403-3.499c-0.015-9.078-0.038-18.153,0.003-27.228c0.02-4.652,4.191-9.318,8.852-9.995
			c0.949-0.148,1.926-0.209,2.893-0.209c5.508-0.027,11.014-0.029,16.523-0.012c5.88,0.021,10.203,3.591,11.309,9.369
			c0.166,0.876,0.166,1.792,0.166,2.69c0.016,8.07,0.011,16.14,0,24.214c0,0.656,0.011,1.328-0.136,1.955
			c-0.427,1.857-2.05,2.903-4.077,2.714c-1.698-0.151-2.969-1.507-3.109-3.323c-0.036-0.447-0.059-0.899-0.059-1.346
			c-0.003-7.211-0.003-14.415-0.003-21.621c0-0.41,0-0.818,0-1.288c-0.56,0-1.027,0-1.645,0c0,0.421,0,0.858,0,1.297
			c0,21.134,0,42.264,0,63.401c0,2.922-1.207,4.688-3.626,5.346c-3.258,0.877-6.221-1.273-6.367-4.625
			c-0.015-0.343-0.006-0.692-0.006-1.035c0-11.886,0-23.766,0-35.65C298.079,885.688,298.079,885.276,298.079,884.769z"/>
		<path fill-rule="evenodd" clip-rule="evenodd" fill="#8D3D0C" d="M296.874,842.18c-4.688,0.007-8.5-3.732-8.502-8.344
			c-0.008-4.853,3.803-8.74,8.502-8.682c4.684,0.055,8.508,3.885,8.521,8.533C305.399,838.334,301.545,842.173,296.874,842.18z"/>
	</g>
</g>
<g>
	<g>
		<path fill-rule="evenodd" clip-rule="evenodd" fill="#8D3D0C" d="M350.864,884.769c-0.607,0-1.055,0-1.645,0
			c0,0.43,0,0.83,0,1.231c0,12.089,0.004,24.181-0.002,36.271c0,3.777-3.093,6.143-6.617,5.086
			c-2.045-0.617-3.312-2.417-3.312-4.726c0-15.073,0-30.141,0-45.214c0-6.303,0-12.612,0-18.915c0-0.371,0-0.747,0-1.161
			c-0.586,0-1.061,0-1.71,0c0,0.391,0,0.781,0,1.178c0,7.416,0.005,14.827-0.005,22.242c-0.005,2.684-1.584,4.309-4.023,4.183
			c-1.889-0.095-3.404-1.622-3.404-3.499c-0.014-9.078-0.037-18.153,0.003-27.228c0.02-4.652,4.19-9.318,8.851-9.995
			c0.951-0.148,1.928-0.209,2.894-0.209c5.507-0.027,11.015-0.029,16.523-0.012c5.881,0.021,10.204,3.591,11.308,9.369
			c0.168,0.876,0.168,1.792,0.168,2.69c0.016,8.07,0.01,16.14,0,24.214c0,0.656,0.01,1.328-0.137,1.955
			c-0.427,1.857-2.049,2.903-4.078,2.714c-1.697-0.151-2.969-1.507-3.109-3.323c-0.035-0.447-0.057-0.899-0.057-1.346
			c-0.004-7.211-0.004-14.415-0.004-21.621c0-0.41,0-0.818,0-1.288c-0.56,0-1.027,0-1.645,0c0,0.421,0,0.858,0,1.297
			c0,21.134,0,42.264,0,63.401c0,2.922-1.207,4.688-3.626,5.346c-3.259,0.877-6.22-1.273-6.367-4.625
			c-0.015-0.343-0.005-0.692-0.005-1.035c0-11.886,0-23.766,0-35.65C350.864,885.688,350.864,885.276,350.864,884.769z"/>
		<path fill-rule="evenodd" clip-rule="evenodd" fill="#8D3D0C" d="M349.658,842.18c-4.686,0.007-8.499-3.732-8.502-8.344
			c-0.007-4.853,3.804-8.74,8.502-8.682c4.685,0.055,8.509,3.885,8.521,8.533C358.183,838.334,354.329,842.173,349.658,842.18z"/>
	</g>
</g>
<polyline fill-rule="evenodd" clip-rule="evenodd" fill="none" stroke="#FFFFFF" stroke-width="2" stroke-miterlimit="10" points="
	1506.259,780.525 1506.259,804.278 858.374,804.278 858.374,780.525 "/>
<g>
	<g>
		<path fill-rule="evenodd" clip-rule="evenodd" fill="#8D3D0C" d="M1131.351,883.891c-0.608,0-1.055,0-1.646,0
			c0,0.43,0,0.829,0,1.228c0,12.09,0.005,24.182-0.002,36.273c0,3.776-3.093,6.142-6.616,5.085
			c-2.045-0.617-3.313-2.417-3.313-4.725c0-15.073,0-30.141,0-45.214c0-6.303,0-12.612,0-18.915c0-0.371,0-0.747,0-1.161
			c-0.585,0-1.061,0-1.709,0c0,0.391,0,0.781,0,1.179c0,7.415,0.004,14.826-0.005,22.242c-0.005,2.682-1.584,4.308-4.023,4.182
			c-1.89-0.095-3.403-1.621-3.403-3.498c-0.015-9.078-0.038-18.154,0.002-27.229c0.02-4.652,4.19-9.318,8.851-9.995
			c0.95-0.147,1.927-0.209,2.894-0.209c5.508-0.026,11.015-0.029,16.522-0.012c5.881,0.022,10.204,3.591,11.309,9.369
			c0.168,0.876,0.168,1.792,0.168,2.69c0.014,8.07,0.01,16.14,0,24.215c0,0.656,0.01,1.328-0.138,1.955
			c-0.426,1.855-2.049,2.902-4.076,2.713c-1.697-0.151-2.969-1.506-3.109-3.323c-0.037-0.446-0.059-0.899-0.059-1.345
			c-0.003-7.211-0.003-14.416-0.003-21.622c0-0.41,0-0.817,0-1.288c-0.56,0-1.027,0-1.646,0c0,0.421,0,0.858,0,1.297
			c0,21.134,0,42.264,0,63.401c0,2.923-1.205,4.688-3.625,5.346c-3.259,0.877-6.221-1.273-6.367-4.624
			c-0.016-0.344-0.005-0.693-0.005-1.036c0-11.886,0-23.765,0-35.649C1131.351,884.809,1131.351,884.396,1131.351,883.891z"/>
		<path fill-rule="evenodd" clip-rule="evenodd" fill="#8D3D0C" d="M1130.145,841.301c-4.687,0.006-8.499-3.733-8.503-8.344
			c-0.007-4.854,3.804-8.74,8.503-8.683c4.685,0.054,8.508,3.886,8.52,8.534C1138.67,837.455,1134.816,841.293,1130.145,841.301z"/>
	</g>
</g>
<g>
	<g>
		<path fill-rule="evenodd" clip-rule="evenodd" fill="#8D3D0C" d="M1184.135,883.891c-0.607,0-1.055,0-1.645,0
			c0,0.43,0,0.829,0,1.228c0,12.09,0.005,24.182-0.002,36.273c0,3.776-3.093,6.142-6.617,5.085
			c-2.045-0.617-3.312-2.417-3.312-4.725c0-15.073,0-30.141,0-45.214c0-6.303,0-12.612,0-18.915c0-0.371,0-0.747,0-1.161
			c-0.586,0-1.062,0-1.71,0c0,0.391,0,0.781,0,1.179c0,7.415,0.005,14.826-0.005,22.242c-0.005,2.682-1.583,4.308-4.023,4.182
			c-1.89-0.095-3.404-1.621-3.404-3.498c-0.014-9.078-0.037-18.154,0.003-27.229c0.021-4.652,4.191-9.318,8.851-9.995
			c0.951-0.147,1.927-0.209,2.894-0.209c5.508-0.026,11.015-0.029,16.523-0.012c5.881,0.022,10.202,3.591,11.308,9.369
			c0.168,0.876,0.168,1.792,0.168,2.69c0.015,8.07,0.011,16.14,0,24.215c0,0.656,0.011,1.328-0.137,1.955
			c-0.427,1.855-2.049,2.902-4.078,2.713c-1.697-0.151-2.969-1.506-3.109-3.323c-0.035-0.446-0.057-0.899-0.057-1.345
			c-0.003-7.211-0.003-14.416-0.003-21.622c0-0.41,0-0.817,0-1.288c-0.561,0-1.028,0-1.646,0c0,0.421,0,0.858,0,1.297
			c0,21.134,0,42.264,0,63.401c0,2.923-1.207,4.688-3.626,5.346c-3.259,0.877-6.22-1.273-6.367-4.624
			c-0.015-0.344-0.005-0.693-0.005-1.036c0-11.886,0-23.765,0-35.649C1184.135,884.809,1184.135,884.396,1184.135,883.891z"/>
		<path fill-rule="evenodd" clip-rule="evenodd" fill="#8D3D0C" d="M1182.929,841.301c-4.687,0.006-8.499-3.733-8.502-8.344
			c-0.008-4.854,3.803-8.74,8.502-8.683c4.685,0.054,8.509,3.886,8.521,8.534C1191.453,837.455,1187.6,841.293,1182.929,841.301z"/>
	</g>
</g>
<g>
	<g>
		<path fill-rule="evenodd" clip-rule="evenodd" fill="#8D3D0C" d="M1236.919,883.891c-0.606,0-1.056,0-1.645,0
			c0,0.43,0,0.829,0,1.228c0,12.09,0.005,24.182-0.002,36.273c0,3.776-3.093,6.142-6.618,5.085
			c-2.044-0.617-3.312-2.417-3.312-4.725c0-15.073,0-30.141,0-45.214c0-6.303,0-12.612,0-18.915c0-0.371,0-0.747,0-1.161
			c-0.584,0-1.061,0-1.709,0c0,0.391,0,0.781,0,1.179c0,7.415,0.005,14.826-0.005,22.242c-0.005,2.682-1.583,4.308-4.024,4.182
			c-1.888-0.095-3.403-1.621-3.403-3.498c-0.014-9.078-0.037-18.154,0.004-27.229c0.019-4.652,4.19-9.318,8.851-9.995
			c0.951-0.147,1.927-0.209,2.893-0.209c5.508-0.026,11.014-0.029,16.523-0.012c5.882,0.022,10.203,3.591,11.309,9.369
			c0.167,0.876,0.167,1.792,0.167,2.69c0.016,8.07,0.011,16.14,0,24.215c0,0.656,0.011,1.328-0.136,1.955
			c-0.427,1.855-2.05,2.902-4.079,2.713c-1.697-0.151-2.969-1.506-3.108-3.323c-0.035-0.446-0.058-0.899-0.058-1.345
			c-0.003-7.211-0.003-14.416-0.003-21.622c0-0.41,0-0.817,0-1.288c-0.561,0-1.027,0-1.645,0c0,0.421,0,0.858,0,1.297
			c0,21.134,0,42.264,0,63.401c0,2.923-1.208,4.688-3.627,5.346c-3.258,0.877-6.22-1.273-6.367-4.624
			c-0.014-0.344-0.005-0.693-0.005-1.036c0-11.886,0-23.765,0-35.649C1236.919,884.809,1236.919,884.396,1236.919,883.891z"/>
		<path fill-rule="evenodd" clip-rule="evenodd" fill="#8D3D0C" d="M1235.713,841.301c-4.687,0.006-8.5-3.733-8.501-8.344
			c-0.008-4.854,3.803-8.74,8.501-8.683c4.685,0.054,8.51,3.886,8.521,8.534C1244.237,837.455,1240.384,841.293,1235.713,841.301z"
			/>
	</g>
</g>
<polygon fill="#FFFFFF" points="102.823,758.468 1505.3,758.468 1505.3,746.418 276.853,746.418 102.548,746.418 "/>
<g>
	<g>
		<path opacity="0.75" fill="#BCBEC0" d="M146.716,720.107c9.262-5.138,13.893-7.706,23.154-12.844
			c0-22.62-0.002-45.239,0.002-67.859c-9.262,0-13.895,0-23.156,0C146.716,666.306,146.716,693.206,146.716,720.107z"/>
		<path opacity="0.75" fill="#E6E7E8" d="M113.182,703.271c-3.193,0-4.79,0-7.983,0c0-24.749,0-49.497,0-74.246
			c3.193,0,4.79,0.001,7.983,0.001C113.182,653.774,113.182,678.523,113.182,703.271z"/>
		<path opacity="0.75" fill="#D1D3D4" d="M113.182,629.026c0,24.748,0,49.497,0,74.245c-3.193,0-4.79,0-7.983,0
			c0,8.622,0,12.933,0,21.555c3.193,0,4.79,0,7.983,0c6.707,0,10.059,0,16.766,0c0-31.934,0-63.867,0-95.801
			C123.24,629.025,119.889,629.026,113.182,629.026z"/>
		<path opacity="0.75" fill="#D1D3D4" d="M133.941,666.148c3.193,0,4.79,0,7.983,0c0-18.495,0-36.989,0-55.484
			c3.514,0,5.271,0,8.784,0c0,11.097,0,16.645,0,27.742c1.916,2.314,2.873,3.473,4.789,5.787c0,22.354,0,44.708,0,67.062
			c1.597,0,2.397,0,3.994,0c0-10.858,0-16.287,0-27.145c5.11,0,7.663,0,12.772,0c0,4.151,0,6.228,0,10.379c5.748,0,8.623,0,14.372,0
			c-6.388,3.513-9.581,5.269-15.969,8.781c0,3.193,0,4.791,0,7.984c-12.242,4.523-24.483,9.049-36.727,13.57
			C133.941,705.267,133.941,685.708,133.941,666.148z"/>
		<path opacity="0.75" fill="#BCBEC0" d="M216.976,686.705c-2.555,0-3.832,0-6.387,0c0-10.936,0-16.405,0-27.342
			c2.555,0,3.832,0,6.387,0C216.976,670.3,216.976,675.769,216.976,686.705z"/>
		<path opacity="0.75" fill="#BCBEC0" d="M176.258,659.363c0,12.773,0,25.547,0,38.32c5.43,0,8.144,0,13.573,0
			c0,2.235,0,3.352,0,5.588c5.429,0,8.145-0.002,13.573-0.002c0-2.235,0-3.351,0-5.586c0-12.773,0-25.547,0-38.32
			C192.546,659.363,187.116,659.363,176.258,659.363z"/>
		<path opacity="0.75" fill="#D1D3D4" d="M254.501,568.75c0-1.677,0-2.515,0-4.191c-9.381,0-18.763,0-28.144,0
			c0,1.677,0,2.515,0,4.191c-3.753,0-5.63,0-9.382,0c0,29.339,0.005,58.679,0,88.018c1.117,0,1.677,0,2.794,0
			c0,4.392,0,6.587,0,10.979c1.198,0,1.796,0,2.994,0c0,21.089-0.001,42.179,0.001,63.268c5.509,0,8.262,0,13.771,0
			c0-21.089,0-42.179,0-63.268c0-4.392,0-6.587,0-10.979c9.582,0,19.163,0,28.745,0c0-29.339,0-58.679,0-88.018
			C260.969,568.75,258.812,568.75,254.501,568.75z"/>
		<path opacity="0.75" fill="#E6E7E8" d="M427.525,724.428c-10.057,0-15.085,0-25.142,0c0-21.688,0-43.376,0-65.064
			c10.057,0,15.085,0,25.142,0C427.525,681.052,427.525,702.739,427.525,724.428z"/>
		<path opacity="0.75" fill="#A7A9AC" d="M471.227,725.326c-7.902,0-11.851,0-19.753,0c0-36.226,0-72.45,0-108.676
			c7.902,0,11.851,0,19.753,0C471.227,652.876,471.227,689.101,471.227,725.326z"/>
		<path opacity="0.75" fill="#E6E7E8" d="M488.887,668.443c-5.866,0-8.798,0-14.665,0c0-77.44,0-154.879,0-232.318
			c4.19,0,6.286,0,10.477,0c0.239,3.593,0.358,5.39,0.598,8.982c1.438,0,2.153,0,3.591,0
			C488.887,519.553,488.887,593.998,488.887,668.443z"/>
		<path opacity="0.75" fill="#E6E7E8" d="M265.28,716.044c-9.581,4.991-19.162,9.982-28.745,14.97c0-24.749,0-49.497,0-74.246
			c9.582,0,19.163,0,28.745,0C265.28,676.526,265.28,696.285,265.28,716.044z"/>
		<path opacity="0.75" fill="#D1D3D4" d="M567.122,624.236c-3.59-13.972-7.182-27.942-10.771-41.914c0-5.428,0-8.143,0-13.57
			c-3.237,0-4.854,0-8.092,0c0-4.95,0-7.425,0-12.375c-3.833,0-5.749,0-9.582,0c0,6.865,0,10.299,0,17.164
			c5.887,16.898,11.776,33.796,17.661,50.695C560.651,624.236,562.81,624.236,567.122,624.236z"/>
		<path opacity="0.75" fill="#A7A9AC" d="M661.033,669.641c0-9.38,0-14.069,0-23.449c1.518,0,2.277,0,3.795,0
			c0-4.551,0-6.826,0-11.377c2.395,0,3.592,0,5.987,0c0-10.618,0-15.927,0-26.545c3.514,0,5.27,0,8.783,0c0,4.391,0,6.586,0,10.977
			c8.303,0,12.453,0,20.757,0c0,7.025,0,10.539,0,17.564c1.757,0,2.636,0,4.392,0c0-3.193,0-4.791,0-7.984c1.996,0,2.995,0,4.991,0
			c0,4.551,0,6.826,0,11.377c3.034,0,4.551,0,7.585,0c0.007,16.067,0.003,32.134-0.002,48.201c-14.471,0-28.941,0-43.412,0
			c0-7.506,0.002-11.258,0.002-18.764C668.762,669.641,666.184,669.641,661.033,669.641z"/>
		<path opacity="0.75" fill="#D1D3D4" d="M673.91,685.109c2.275,0,3.413,0,5.688,0c0,1.318,0,1.977,0,3.295c2.395,0,3.595,0,5.989,0
			c0-9.681,0-19.36,0-29.041c0.64,0,0.958,0,1.597,0c3.673-6.546,5.509-9.819,9.182-16.365c3.832,6.546,5.746,9.819,9.579,16.365
			c0.56,0,0.841,0,1.399,0c0,6.626,0,9.939,0,16.564c-1.277,0-1.917,0-3.194,0c0,9.94,0,14.91,0,24.85c-2.635,0-3.951,0-6.586,0
			c0,2.395,0,3.592,0,5.986c-2.036,0-3.055,0-5.091,0c0,1.197,0,1.797,0,2.994c-7.426,0-11.139,0-18.563,0
			C673.91,699.898,673.91,694.969,673.91,685.109z"/>
		<path opacity="0.75" fill="#E6E7E8" d="M536.681,676.527c0,8.861,0,13.293,0,22.154l0,0c8.684,0,13.025,0,21.71,0
			c0,7.903,0.001,11.854,0.001,19.758c10.661,0,21.323,0,31.984,0c-0.006-79.834-0.001-159.668-0.001-239.502
			c5.269,0,7.903,0,13.173,0c0-3.033,0-4.551,0-7.584c-9.82,0-14.728,0-24.548,0c0,77.306,0,154.612,0,231.918
			c-3.513,0-5.271,0-8.784,0c0-24.083,0-48.167,0-72.25c-1.238,0-1.855,0-3.094,0c0-2.714,0-4.071,0-6.785
			c-4.309,0-6.463,0-10.771,0c0-12.507,0-25.015,0-37.522c0-5.269,0-7.904,0-13.174c-6.591,0-9.883,0-16.474,0
			c0.128,15.118,0.265,30.237,0.397,45.355c-1.438-0.018-2.156-0.025-3.594-0.043C536.681,638.078,536.681,657.303,536.681,676.527
			L536.681,676.527z"/>
		<path opacity="0.75" fill="#A7A9AC" d="M265.28,699.281c1.038,0,1.555,0,2.593,0c0-9.74,0-14.609,0-24.35c1.517,0,2.276,0,3.794,0
			c0,13.704,0,27.408,0,41.112c-2.555,0-3.832,0-6.387,0C265.28,709.338,265.28,705.986,265.28,699.281z"/>
		<path opacity="0.75" fill="#A7A9AC" d="M427.524,716.841c3.593,0,5.389,0,8.981,0c0.001-14.569,0.001-29.139,0.001-43.708
			c-3.593,0-5.389,0-8.981,0C427.525,687.702,427.525,702.271,427.524,716.841z"/>
		<path opacity="0.75" fill="#BCBEC0" d="M283.444,634.215c3.074,0,4.613,0,7.687,0c0,1.437,0,2.155,0,3.592
			c2.954,0,4.431,0,7.385,0c0,2.076,0,3.113,0,5.19c1.916,0,2.875,0,4.791,0c0,4.71,0,7.065,0,11.775c0.719,0,1.076,0,1.795,0
			c0,9.847,0,19.692,0,29.539c-0.28,0-0.419,0-0.698,0c0-4.071,0-6.106,0-10.178c-0.798,0-1.198,0-1.996,0c0-6.587,0-9.878,0-16.465
			c-7.825,0.199-11.737,0.297-19.562,0.496C283.085,648.584,283.204,643.795,283.444,634.215z"/>
		<path opacity="0.75" fill="#E6E7E8" d="M273.662,657.666c0-3.951,0-5.928,0-9.879c1.996,0,2.998,0,4.994,0c0,1.976,0,2.964,0,4.94
			c1.996,0,2.993,0,4.989,0c0,1.975,0,2.964,0,4.939c7.505,0,11.257,0.002,18.762,0.002c0,6.587,0,9.878,0,16.465
			c0.798,0,1.198,0,1.996,0c0,4.071,0,6.107,0,10.178c-7.744,0-11.617,0-19.361,0c0-2.994,0-4.49,0-7.484c-1.317,0-1.975,0-3.292,0
			c0-5.509,0-8.263,0-13.771c-0.958,0-1.44,0-2.397,0c0-2.155,0-3.233,0-5.389C277.077,657.666,275.938,657.666,273.662,657.666z"/>
		<path opacity="0.75" fill="#D1D3D4" d="M273.662,647.787c0-2.874,0-4.312,0-7.185c0.759,0,1.138,0,1.896,0
			c0-5.748,0-8.623,0-14.371c0.639,0,0.96,0,1.599,0c0-1.796,0-2.694,0-4.49c0.838,0,1.258,0,2.096,0c0,0.918,0,1.377,0,2.295
			c1.677,0,2.517,0,4.193,0c-0.003,9.563-0.002,19.128-0.002,28.691c-1.916,0-2.872,0-4.788,0c0-1.976,0-2.964,0-4.94
			C276.66,647.787,275.658,647.787,273.662,647.787z"/>
		<path opacity="0.75" fill="#A7A9AC" d="M283.444,628.824c4.751,0,7.127,0,11.878,0c0,3.593,0,5.39,0,8.982
			c-1.677,0-2.515,0-4.191,0c0-1.436,0-2.155,0-3.592c-3.073,0-4.612,0-7.687,0C283.444,632.059,283.444,630.981,283.444,628.824z"
			/>
		<path opacity="0.75" fill="#E6E7E8" d="M309.392,684.31c0-3.752-0.002-5.627-0.002-9.379c3.114,0,4.673,0,7.787,0
			c0.004-24.55-0.002-49.099,0.002-73.648c1.837,0,2.751,0,4.587,0c0,12.175,0,24.349,0,36.523c2.234,0,3.353,0,5.587,0
			c0,20.69,0,41.382,0,62.072c-5.068,0-7.6,0-12.67,0c0-6.227,0-9.341,0-15.568C312.565,684.31,311.509,684.31,309.392,684.31z"/>
		<path opacity="0.75" fill="#D1D3D4" d="M310.39,674.932c2.715,0,4.072,0,6.787,0c0.004-24.55-0.002-49.099,0.002-73.648
			c-2.715,0-4.074,0-6.789,0C310.39,625.833,310.39,650.382,310.39,674.932z"/>
		<path opacity="0.75" fill="#D1D3D4" d="M338.33,699.879c-2.235,0-3.355,0-5.59,0c0-17.83,0-35.66,0-53.49c2.235,0,3.354,0,5.59,0
			C338.33,664.219,338.33,682.049,338.33,699.879z"/>
		<path opacity="0.75" fill="#E6E7E8" d="M328.65,704.369c3.553-3.553,5.326-5.328,8.879-8.881c0-17.764,0-35.527,0-53.291
			c4.151,0,6.226,0,10.377,0c0,6.467,0,9.699,0,16.166c0.958,0,1.44,0,2.398,0c0,7.904,0,11.856,0,19.76c2.634,0,3.948,0,6.582,0
			c0,9.954,0,19.909,0,29.863c-1.681,1.682-2.521,2.523-4.202,4.205c-6.36,0-9.541,0-15.901,0
			C333.53,709.062,331.903,707.498,328.65,704.369z"/>
		<path opacity="0.75" fill="#BCBEC0" d="M360.479,671.935c-4.07,0-6.103,0-10.175,0c0,2.475,0,3.713,0,6.188
			c2.634,0,3.948,0,6.582,0c0,9.954,0,19.909,0,29.863c1.437,0,2.156,0,3.593,0C360.479,695.97,360.479,683.952,360.479,671.935z"/>
		<path opacity="0.75" fill="#D1D3D4" d="M385.92,437.922c9.545,0,19.091,0,28.636,0c0,5.068,0,7.603,0,12.672
			c0.718,0,1.076,0,1.794,0c0,17.298,0,34.595,0,51.892c1.117,0,1.68,0,2.797,0c0,6.705,0,10.059,0,16.764c1.038,0,1.556,0,2.593,0
			c0,5.509,0,8.263,0,13.771c2.314,0,3.472,0,5.786,0c0,61.273,0.003,122.546-0.001,183.819c-6.465,0-9.698,0-16.163,0
			c0.002-15.768,0.001-31.534,0.001-47.302c-1.038,0-1.555,0-2.593,0c0-4.111,0-6.166,0-10.277c-1.476,0-2.215,0-3.69,0
			c-1.078,0-1.617,0-2.695,0c0-40.249,0-80.499,0-120.748c-1.915,0-2.872,0-4.787,0c0-6.428,0-9.641,0-16.068
			c-3.113,0-4.67,0-7.783,0c0-6.386,0-9.579,0-15.965c-0.958,0-1.436,0-2.395,0c0-7.026,0-10.54,0-17.566c-0.599,0-0.9,0-1.499,0
			C385.92,471.917,385.92,454.919,385.92,437.922z"/>
		<path opacity="0.75" fill="#E6E7E8" d="M427.523,722.631c3.713,0,5.571,0,9.284,0c1.616-1.616,2.423-2.424,4.039-4.04
			c9.429,0,18.858,0,28.287,0c0-8.323-0.001-12.485-0.001-20.808c-2.634,0-3.951,0-6.585,0c0,1.377,0,2.066,0,3.443
			c-1.437,0-2.155,0-3.592,0c0-19.261,0-38.521,0-57.781c-0.359,0-0.539,0-0.897,0c0-2.216,0-3.323,0-5.539c-1.677,0-2.515,0-4.19,0
			c0-1.856,0-2.783,0-4.639c-2.216,0-3.323,0-5.539,0c0,4.131,0,6.197,0,10.328c-2.274,0-3.411,0-5.686,0
			c0,20.158,0,40.316,0,60.475c-3.232,0-4.85,0-8.082,0c0,5.108,0,7.662,0,12.771c-2.814,0-4.223,0-7.037,0
			C427.524,719.156,427.523,720.315,427.523,722.631z"/>
		<path opacity="0.75" fill="#D1D3D4" d="M488.887,445.107c0.658,0,0.989,0,1.648,0c0,3.293,0,4.94,0,8.232c1.077,0,1.616,0,2.693,0
			c0,8.922,0,13.383,0,22.305c-0.897,0-1.347,0-2.244,0c0,16.366,0,32.732,0,49.098c-0.838,0-1.259,0-2.097,0
			C488.887,498.197,488.887,471.652,488.887,445.107z"/>
		<path opacity="0.75" fill="#A7A9AC" d="M510.184,698.682c3.479,0,5.217,0,8.695,0c0-20.191-0.003-40.383,0-60.574
			c-3.479,0-5.217,0-8.695,0C510.184,658.299,510.184,678.49,510.184,698.682z"/>
		<path opacity="0.75" fill="#E6E7E8" d="M522.711,698.682c-4.31,0-6.466,0-10.775,0c0-4.391,0-6.586,0-10.977
			c4.31,0,6.465,0,10.775,0C522.711,692.096,522.711,694.291,522.711,698.682z"/>
		<path opacity="0.75" fill="#D1D3D4" d="M511.935,677.193c4.31,0,6.465,0,10.775,0c0,4.205,0,6.307,0,10.512
			c-4.31,0-6.466,0-10.775,0C511.935,683.5,511.935,681.398,511.935,677.193z"/>
		<path opacity="0.75" fill="#BCBEC0" d="M511.935,655.371c3.672,0,5.509,0,9.181,0c0,8.729,0,13.094,0,21.822
			c-3.672,0-5.509,0-9.181,0C511.935,668.465,511.935,664.1,511.935,655.371z"/>
		<path opacity="0.75" fill="#A7A9AC" d="M536.681,698.682c-6.228,0-9.339,0-15.565,0c0-17.431,0-34.862,0-52.293
			c6.226,0,9.337,0,15.565,0C536.681,663.819,536.681,681.251,536.681,698.682z"/>
		<path opacity="0.75" fill="#D1D3D4" d="M611.932,538.215c-3.833,0-5.749,0-9.581,0c0-22.287,0-44.574,0-66.861
			c3.273,0,4.912,0,8.185,0c0,9.819,0,14.73,0,24.549c0.559,0,0.837,0,1.396,0C611.932,510.007,611.932,524.11,611.932,538.215z"/>
		<path opacity="0.75" fill="#BCBEC0" d="M578.197,703.271c-3.193,0-4.788,0-7.982,0c0-12.84,0-25.68,0-38.519
			c3.193,0,4.79,0,7.983,0C578.199,677.592,578.201,690.432,578.197,703.271z"/>
		<path opacity="0.75" fill="#A7A9AC" d="M643.471,678.523c-3.593,0-5.389,0-8.981,0c0-9.899,0-14.849,0-24.748
			c3.593,0,5.389,0,8.981,0C643.471,663.675,643.471,668.624,643.471,678.523z"/>
		<path opacity="0.75" fill="#BCBEC0" d="M618.819,717.443c4.512,0,6.768,0,11.279,0c0-19.36,0-38.72,0-58.08
			c-4.512,0-6.767,0-11.279,0C618.819,678.724,618.819,698.083,618.819,717.443z"/>
		<path opacity="0.75" fill="#E6E7E8" d="M618.819,695.688c1.637,0,2.455,0,4.092,0c0,8.303,0,12.455,0,20.758
			c3.354,0,5.031,0,8.385,0c0-13.372,0-26.745,0-40.117c1.996,0,2.995,0,4.991,0c0-3.193,0-4.789,0-7.982c2.396,0,3.59,0,5.985,0
			c0-2.475,0-3.713,0-6.188c4.311,0,6.468,0,10.779,0c0,2.993,0,4.489,0,7.482c0,8.623,0,12.934,0,21.557c-5.549,0-8.324,0-13.873,0
			c0,9.779,0,19.559,0,29.338c-0.958,0-1.437,0-2.395,0c0,1.797,0,2.694,0,4.491c-7.186,0-10.779,0-17.965,0
			C618.817,715.247,618.819,705.467,618.819,695.688z"/>
		<path opacity="0.75" fill="#D1D3D4" d="M739.681,688.404c-5.669,0-8.503,0-14.172,0c0-5.15,0-7.725,0-12.875
			c5.669,0,8.503,0,14.172,0C739.681,680.68,739.681,683.254,739.681,688.404z"/>
		<path opacity="0.75" fill="#E6E7E8" d="M717.322,688.404c8.463,0,12.698,0,21.162,0c0-3.394,0-5.091,0-8.484
			c2.954,0,4.429,0,7.384,0c0,3.394,0,5.091,0,8.484c0.798,0,1.198,0,1.996,0c0,3.393,0,5.088,0,8.481c-2.396,0-3.593,0-5.988,0
			c0,3.592,0,5.389,0,8.98c-9.88,0-19.761,0-29.641,0c-2.036-2.754-3.054-4.131-5.09-6.885c0-4.231,0-6.346,0-10.576
			C711.217,688.404,713.251,688.404,717.322,688.404z"/>
		<path opacity="0.75" fill="#BCBEC0" d="M725.509,675.529c0,0-0.424-27.617,0-27.193c0.424,0.426,8.782,0,8.782,0
			c0,7.285,0,10.928,0,18.213c2.156,0,3.233,0,5.39,0c0,3.592,0,5.389,0,8.98C734.012,675.529,731.178,675.529,725.509,675.529z"/>
		<g>
			<path fill="#FFFFFF" d="M747.864,696.885c-2.396,0-3.593,0-5.988,0c0,3.592,0,5.389,0,8.98c-9.88,0-19.761,0-29.641,0
				c-2.036-2.754-3.054-4.131-5.09-6.885c0-9.221,0-13.832,0-23.053c-1.198,0-1.797,0-2.995,0c0,4.91,0,7.365,0,12.275
				c0,5.029,0,7.545,0,12.574c-2.635,0-3.951,0-6.586,0c0,2.395,0,3.592,0,5.986c-2.036,0-3.055,0-5.091,0c0,1.197,0,1.797,0,2.994
				c-7.426,0-11.139,0-18.563,0c0-13.372,0.003-26.745,0.002-40.117c-8.384,0-12.577,0-20.96,0c0,8.623,0,12.934,0,21.557
				c-5.51,0-8.264,0-13.773,0c0,6.227,0,9.34,0,15.566c0,5.509,0,8.263,0,13.772c-0.958,0-1.437,0-2.395,0c0,1.797,0,2.694,0,4.491
				c-7.186,0-10.779,0-17.965,0c0-62.271,0-124.541,0-186.812c-6.108,0-9.163,0-15.271,0c0-19.759,0-39.518,0-59.277
				c-5.27,0-7.903,0-13.173,0c0,79.834-0.005,159.668,0.001,239.502c-10.479,0-20.96,0-31.439,0
				c-1.098-39.817-2.201-79.634-3.292-119.451c-3.832,0-5.748,0-9.58,0c0,25.847,0,51.692,0,77.539c-6.707,0-10.064,0-16.769,0
				c0,8.861,0,13.293,0,22.154c-8.501,0-12.75,0-21.251,0c0-55.086,0-110.172,0-165.258c-0.719,0-1.077,0-1.796,0
				c0-3.473,0-5.209,0-8.682c-0.957,0-1.438,0-2.395,0c0-16.366,0-32.731,0-49.098c-5.148,0-7.723,0-12.871,0
				c0,16.366,0,32.732,0,49.098c-0.838,0-1.259,0-2.097,0c0,37.123,0,74.246,0,111.369c-1.317,0-1.974,0-3.29,0
				c0-32.532,0-65.065,0-97.598c-1.676,0-2.516,0-4.192,0c0-20.657,0-41.315,0-61.973c-2.634-0.838-3.952-1.258-6.586-2.096
				c0-9.46,0-14.19,0-23.65c-1.437,0-2.155,0-3.592,0c0,91.511,0,183.021,0,274.531c-0.838,0-1.258,0-2.096,0
				c0-2.994,0.002-4.49,0.002-7.484c-9.678,0-19.356,0-29.034,0c-1.316,1.916-1.975,2.873-3.291,4.789c-8.021,0-12.033,0-20.055,0
				c-2.754,0-4.132,0-6.886,0c-1.915,0-2.875,0-4.79,0c0.004-21.089,0.002-42.179,0.002-63.268c-1.078,0-1.617,0-2.695,0
				c0-40.283,0-80.566,0-120.85c-1.915,0-2.872,0-4.787,0c0-6.428,0-9.641,0-16.068c-3.113,0-4.67,0-7.783,0
				c0-6.386,0-9.579,0-15.965c-0.958,0-1.436,0-2.395,0c0-7.186,0-10.777,0-17.963c-0.599,0-0.9,0-1.499,0
				c0-16.865,0-33.73,0-50.596c-2.035,0-3.052,0-5.087,0c0,17.564,0,35.128,0,52.691c-2.274,0-3.411,0-5.686,0
				c0,4.67,0,7.006,0,11.676c-2.635,0-3.951,0-6.586,0c0,65.165,0,130.329,0,195.494c-1.916,0-2.873,0-4.789,0
				c0,4.081,0,6.122,0,10.203c-2.504,0-3.756,0-6.26,0c-1.806,1.807-2.71,2.709-4.516,4.516c-6.485,0-9.729,0-16.214,0
				c-3.691-3.692-5.537-5.538-9.229-9.231c0-1.357,0-2.035,0-3.393c-5.148,0-7.723,0-12.872,0c0-6.227,0-9.341,0-15.568
				c-9.88,0-19.761,0-29.641,0c0-2.994,0-4.49,0-7.484c-1.317,0-1.975,0-3.292,0c0-5.509,0-8.263,0-13.771c-0.958,0-1.44,0-2.397,0
				c0-2.155,0-3.233,0-5.389c-2.275,0-3.415,0-5.69,0c0,0.679,0,1.019,0,1.697c0,18.893,0,37.787,0,56.681c-3.354,0-5.028,0-8.382,0
				c-9.581,4.991-19.162,9.982-28.745,14.97c-5.509,0-8.262,0-13.771,0c-0.002-21.089-0.001-42.179-0.001-63.268
				c-1.198,0-1.796,0-2.994,0c0-4.392,0-6.587,0-10.979c-1.117,0-1.677,0-2.794,0c0,9.979,0,19.958,0,29.938
				c-3.434,0-5.148,0-8.582,0c0,4.392,0,6.587,0,10.979c-1.996,0-2.993,0-4.989,0c0,2.235,0,3.351,0,5.586
				c-5.429,0-8.145,0.002-13.573,0.002c0-2.235,0-3.353,0-5.588c-3.602,0-5.4,0-9.002,0c-4.064,2.235-6.097,3.352-10.161,5.588
				c0,3.193,0,4.791,0,7.984c-12.242,4.523-24.483,9.049-36.727,13.57c-9.581,0.003-19.162,0.003-28.743,0
				c0,7.146,0,10.718,0,17.863c214.222,0,428.444,0,642.666,0c0-7.424,0-11.137,0-18.561
				C747.864,713.231,747.864,707.782,747.864,696.885z"/>
		</g>
	</g>
</g>
<g>
	<path fill="#FFFFFF" d="M408.947,781.49v-1.213c1.143-0.111,1.939-0.297,2.391-0.558c0.451-0.26,0.788-0.877,1.011-1.85h1.248
		v12.533h-1.688v-8.912H408.947z"/>
	<path fill="#FFFFFF" d="M423.607,777.491h1.705v6.319l6.459-6.319h2.445l-5.517,5.211l5.631,7.7h-2.289l-4.625-6.488l-2.104,1.988
		v4.5h-1.705V777.491z"/>
	<path fill="#FFFFFF" d="M435.569,777.491h2.506l3.712,10.916l3.686-10.916h2.488v12.911h-1.67v-7.62c0-0.264,0.006-0.7,0.018-1.31
		c0.012-0.609,0.017-1.263,0.017-1.96l-3.686,10.89h-1.732l-3.722-10.89v0.396c0,0.316,0.009,0.799,0.026,1.445
		c0.018,0.648,0.026,1.124,0.026,1.429v7.62h-1.67V777.491z"/>
</g>
<g>
	<path fill="#FFFFFF" d="M1163.04,783.492v-1.213c1.143-0.111,1.939-0.297,2.391-0.559c0.451-0.26,0.788-0.877,1.011-1.85h1.248
		v12.533h-1.688v-8.912H1163.04z"/>
	<path fill="#FFFFFF" d="M1177.7,779.493h1.705v6.319l6.459-6.319h2.445l-5.517,5.211l5.631,7.7h-2.289l-4.625-6.488l-2.104,1.988
		v4.5h-1.705V779.493z"/>
	<path fill="#FFFFFF" d="M1189.662,779.493h2.506l3.712,10.916l3.687-10.916h2.488v12.911h-1.67v-7.62c0-0.264,0.006-0.7,0.018-1.31
		c0.012-0.609,0.018-1.263,0.018-1.96l-3.687,10.89h-1.732l-3.722-10.89v0.396c0,0.316,0.009,0.799,0.026,1.445
		c0.018,0.648,0.026,1.124,0.026,1.429v7.62h-1.67V779.493z"/>
</g>
<g>
	<polyline fill="#FFFFFF" points="1027.167,678.018 977.549,642.278 958.01,657.915 958.01,645.629 948.776,645.629 
		948.776,665.732 929.41,678.018 941.281,678.018 941.281,739.167 1011.516,739.167 1011.516,678.577 	"/>
	<rect x="975.383" y="703.765" fill="#C85B22" width="15.727" height="36.24"/>
	<rect x="954.327" y="679.834" fill="#C85B22" width="14.868" height="18.846"/>
</g>
<rect x="752.511" y="740.525" fill="#C85B22" width="105.863" height="23.753"/>
<line fill="none" stroke="#FFFFFF" stroke-width="2" stroke-miterlimit="10" x1="1227.147" y1="663.903" x2="1213.726" y2="741.292"/>
<line fill="none" stroke="#FFFFFF" stroke-width="2" stroke-miterlimit="10" x1="1344.969" y1="663.82" x2="1358.405" y2="741.292"/>
<rect x="1219.322" y="655.07" fill="#FFFFFF" width="133" height="10"/>
<line fill="none" stroke="#FFFFFF" stroke-width="2" stroke-miterlimit="10" x1="1344.297" y1="664.565" x2="1212.845" y2="741.076"/>
<line fill="none" stroke="#FFFFFF" stroke-width="2" stroke-miterlimit="10" x1="1227.014" y1="664.565" x2="1358.466" y2="741.076"/>
<g>
	<line fill="#FFFFFF" x1="1235.954" y1="741.421" x2="1235.954" y2="709.634"/>
	<path fill="#FFFFFF" d="M1235.954,688.703c0,0,2.889,12.558,0,23.371c0,0-3.974-6.454-0.902-21.976L1235.954,688.703z"/>
	<line fill="#FFFFFF" x1="1239.307" y1="741.507" x2="1239.307" y2="715.867"/>
	<path fill="#FFFFFF" d="M1239.307,699.124c0,0,2.892,12.558,0,23.37c0,0-3.974-6.453-0.903-21.975L1239.307,699.124z"/>
	<line fill="#FFFFFF" x1="1243.901" y1="741.507" x2="1243.901" y2="715.867"/>
	<path fill="#FFFFFF" d="M1243.901,699.124c0,0,2.889,12.558,0,23.37c0,0-3.975-6.453-0.904-21.975L1243.901,699.124z"/>
	<line fill="#FFFFFF" x1="1247.253" y1="741.421" x2="1247.253" y2="702.657"/>
	<path fill="#FFFFFF" d="M1247.253,681.727c0,0,2.892,12.558,0,23.371c0,0-3.973-6.454-0.902-21.977L1247.253,681.727z"/>
	<line fill="#FFFFFF" x1="1232.986" y1="741.071" x2="1232.986" y2="709.286"/>
	<path fill="#FFFFFF" d="M1232.986,688.356c0,0,2.889,12.558,0,23.371c0,0-3.976-6.454-0.904-21.977L1232.986,688.356z"/>
	<line fill="#FFFFFF" x1="1253.39" y1="741.073" x2="1253.39" y2="709.286"/>
	<path fill="#FFFFFF" d="M1253.39,688.356c0,0,2.892,12.558,0,23.371c0,0-3.973-6.454-0.902-21.977L1253.39,688.356z"/>
	<line fill="#FFFFFF" x1="1264.587" y1="741.071" x2="1264.587" y2="709.286"/>
	<path fill="#FFFFFF" d="M1264.587,688.356c0,0,2.891,12.558,0,23.371c0,0-3.975-6.454-0.903-21.977L1264.587,688.356z"/>
	<line fill="#FFFFFF" x1="1243.098" y1="741.073" x2="1243.098" y2="705.013"/>
	<path fill="#FFFFFF" d="M1243.098,683.646c0,0,2.89,12.561,0,23.373c0,0-3.976-6.454-0.905-21.979L1243.098,683.646z"/>
	<path fill="#FFFFFF" d="M1247.613,698.775c0,0,2.888,12.559,0,23.372c0,0-3.974-6.455-0.904-21.978L1247.613,698.775z"/>
	<line fill="#FFFFFF" x1="1267.94" y1="741.157" x2="1267.94" y2="715.521"/>
	<path fill="#FFFFFF" d="M1267.94,698.775c0,0,2.889,12.559,0,23.372c0,0-3.974-6.455-0.903-21.978L1267.94,698.775z"/>
	<line fill="#FFFFFF" x1="1272.535" y1="741.157" x2="1272.535" y2="715.521"/>
	<path fill="#FFFFFF" d="M1272.535,698.775c0,0,2.89,12.559,0,23.372c0,0-3.976-6.455-0.905-21.978L1272.535,698.775z"/>
	<line fill="#FFFFFF" x1="1275.889" y1="741.071" x2="1275.889" y2="702.308"/>
	<path fill="#FFFFFF" d="M1275.889,681.38c0,0,2.888,12.557,0,23.369c0,0-3.974-6.453-0.905-21.975L1275.889,681.38z"/>
	<line fill="#FFFFFF" x1="1277.979" y1="740.483" x2="1277.979" y2="714.846"/>
	<path fill="#FFFFFF" d="M1277.979,693.916c0,0,2.888,12.557,0,23.37c0,0-3.976-6.453-0.904-21.977L1277.979,693.916z"/>
	<line fill="#FFFFFF" x1="1282.854" y1="740.483" x2="1282.854" y2="708.697"/>
	<path fill="#FFFFFF" d="M1282.854,687.768c0,0,2.888,12.558,0,23.37c0,0-3.976-6.452-0.902-21.977L1282.854,687.768z"/>
	<line fill="#FFFFFF" x1="1303.259" y1="740.483" x2="1303.259" y2="708.697"/>
	<path fill="#FFFFFF" d="M1303.259,687.768c0,0,2.892,12.558,0,23.37c0,0-3.973-6.452-0.904-21.977L1303.259,687.768z"/>
	<line fill="#FFFFFF" x1="1314.455" y1="740.483" x2="1314.455" y2="708.697"/>
	<path fill="#FFFFFF" d="M1314.455,687.768c0,0,2.892,12.558,0,23.37c0,0-3.974-6.452-0.903-21.977L1314.455,687.768z"/>
	<line fill="#FFFFFF" x1="1292.966" y1="740.483" x2="1292.966" y2="704.426"/>
	<path fill="#FFFFFF" d="M1292.966,683.06c0,0,2.891,12.557,0,23.371c0,0-3.975-6.454-0.904-21.977L1292.966,683.06z"/>
	<line fill="#FFFFFF" x1="1287.909" y1="740.571" x2="1287.909" y2="714.931"/>
	<path fill="#FFFFFF" d="M1287.909,698.187c0,0,2.892,12.559,0,23.372c0,0-3.973-6.453-0.904-21.977L1287.909,698.187z"/>
	<line fill="#FFFFFF" x1="1297.481" y1="740.571" x2="1297.481" y2="714.931"/>
	<path fill="#FFFFFF" d="M1297.481,698.187c0,0,2.889,12.559,0,23.372c0,0-3.974-6.453-0.904-21.977L1297.481,698.187z"/>
	<line fill="#FFFFFF" x1="1317.811" y1="740.571" x2="1317.811" y2="714.931"/>
	<path fill="#FFFFFF" d="M1317.811,698.187c0,0,2.888,12.559,0,23.372c0,0-3.978-6.453-0.903-21.977L1317.811,698.187z"/>
	<line fill="#FFFFFF" x1="1322.402" y1="740.571" x2="1322.402" y2="714.931"/>
	<path fill="#FFFFFF" d="M1322.402,698.187c0,0,2.891,12.559,0,23.372c0,0-3.976-6.453-0.903-21.977L1322.402,698.187z"/>
	<line fill="#FFFFFF" x1="1325.756" y1="740.483" x2="1325.756" y2="701.719"/>
	<path fill="#FFFFFF" d="M1325.756,680.789c0,0,2.888,12.558,0,23.373c0,0-3.974-6.456-0.902-21.977L1325.756,680.789z"/>
	<line fill="#FFFFFF" x1="1336.333" y1="740.833" x2="1336.333" y2="715.192"/>
	<path fill="#FFFFFF" d="M1336.333,694.265c0,0,2.889,12.557,0,23.37c0,0-3.975-6.453-0.902-21.977L1336.333,694.265z"/>
	<line fill="#FFFFFF" x1="1341.21" y1="740.833" x2="1341.21" y2="709.046"/>
	<path fill="#FFFFFF" d="M1341.21,688.115c0,0,2.889,12.558,0,23.371c0,0-3.975-6.453-0.904-21.975L1341.21,688.115z"/>
	<line fill="#FFFFFF" x1="1361.612" y1="740.834" x2="1361.612" y2="709.046"/>
	<path fill="#FFFFFF" d="M1361.612,688.116c0,0,2.893,12.557,0,23.37c0,0-3.974-6.453-0.901-21.975L1361.612,688.116z"/>
	<line fill="#FFFFFF" x1="1372.811" y1="740.833" x2="1372.811" y2="709.046"/>
	<path fill="#FFFFFF" d="M1372.811,688.115c0,0,2.891,12.558,0,23.371c0,0-3.974-6.453-0.903-21.975L1372.811,688.115z"/>
	<line fill="#FFFFFF" x1="1351.32" y1="740.834" x2="1351.32" y2="704.773"/>
	<path fill="#FFFFFF" d="M1351.32,683.407c0,0,2.892,12.558,0,23.37c0,0-3.975-6.452-0.903-21.977L1351.32,683.407z"/>
	<line fill="#FFFFFF" x1="1346.265" y1="740.918" x2="1346.265" y2="715.28"/>
	<path fill="#FFFFFF" d="M1346.265,698.535c0,0,2.891,12.559,0,23.372c0,0-3.975-6.454-0.903-21.977L1346.265,698.535z"/>
	<line fill="#FFFFFF" x1="1355.836" y1="740.918" x2="1355.836" y2="715.28"/>
	<path fill="#FFFFFF" d="M1355.836,698.535c0,0,2.888,12.559,0,23.372c0,0-3.974-6.454-0.903-21.977L1355.836,698.535z"/>
	<line fill="#FFFFFF" x1="1376.165" y1="740.918" x2="1376.165" y2="715.28"/>
	<path fill="#FFFFFF" d="M1376.165,698.535c0,0,2.889,12.559,0,23.372c0,0-3.975-6.454-0.904-21.977L1376.165,698.535z"/>
	<line fill="#FFFFFF" x1="1380.757" y1="740.918" x2="1380.757" y2="715.28"/>
	<path fill="#FFFFFF" d="M1380.757,698.535c0,0,2.891,12.559,0,23.372c0,0-3.974-6.454-0.903-21.977L1380.757,698.535z"/>
	<line fill="#FFFFFF" x1="1384.111" y1="740.833" x2="1384.111" y2="702.069"/>
	<path fill="#FFFFFF" d="M1384.111,681.139c0,0,2.889,12.56,0,23.372c0,0-3.974-6.453-0.903-21.978L1384.111,681.139z"/>
	<line fill="#FFFFFF" x1="1365.796" y1="741.291" x2="1365.796" y2="715.651"/>
	<path fill="#FFFFFF" d="M1365.796,694.721c0,0,2.888,12.558,0,23.372c0,0-3.975-6.455-0.903-21.977L1365.796,694.721z"/>
	<line fill="#FFFFFF" x1="1370.671" y1="741.291" x2="1370.671" y2="709.504"/>
	<path fill="#FFFFFF" d="M1370.671,688.575c0,0,2.889,12.557,0,23.371c0,0-3.975-6.455-0.903-21.977L1370.671,688.575z"/>
	<line fill="#FFFFFF" x1="1391.075" y1="741.292" x2="1391.075" y2="709.504"/>
	<path fill="#FFFFFF" d="M1391.075,688.575c0,0,2.892,12.557,0,23.371c0,0-3.975-6.454-0.902-21.977L1391.075,688.575z"/>
	<line fill="#FFFFFF" x1="1402.272" y1="741.291" x2="1402.272" y2="709.504"/>
	<path fill="#FFFFFF" d="M1402.272,688.575c0,0,2.891,12.557,0,23.371c0,0-3.973-6.455-0.903-21.977L1402.272,688.575z"/>
	<line fill="#FFFFFF" x1="1380.782" y1="741.292" x2="1380.782" y2="705.231"/>
	<path fill="#FFFFFF" d="M1380.782,683.864c0,0,2.891,12.56,0,23.372c0,0-3.974-6.453-0.903-21.978L1380.782,683.864z"/>
	<line fill="#FFFFFF" x1="1375.728" y1="741.378" x2="1375.728" y2="715.737"/>
	<path fill="#FFFFFF" d="M1375.728,698.994c0,0,2.891,12.559,0,23.371c0,0-3.977-6.454-0.904-21.976L1375.728,698.994z"/>
	<line fill="#FFFFFF" x1="1385.298" y1="741.378" x2="1385.298" y2="715.737"/>
	<path fill="#FFFFFF" d="M1385.298,698.994c0,0,2.89,12.559,0,23.371c0,0-3.975-6.454-0.903-21.976L1385.298,698.994z"/>
	<line fill="#FFFFFF" x1="1405.627" y1="741.378" x2="1405.627" y2="715.737"/>
	<path fill="#FFFFFF" d="M1405.627,698.994c0,0,2.889,12.559,0,23.371c0,0-3.974-6.454-0.903-21.976L1405.627,698.994z"/>
	<line fill="#FFFFFF" x1="1410.22" y1="741.378" x2="1410.22" y2="715.737"/>
	<path fill="#FFFFFF" d="M1410.22,698.994c0,0,2.89,12.559,0,23.371c0,0-3.975-6.454-0.904-21.976L1410.22,698.994z"/>
	<line fill="#FFFFFF" x1="1413.573" y1="741.291" x2="1413.573" y2="702.527"/>
	<path fill="#FFFFFF" d="M1413.573,681.597c0,0,2.889,12.559,0,23.371c0,0-3.974-6.453-0.904-21.977L1413.573,681.597z"/>
	<line fill="#FFFFFF" x1="1418.317" y1="741.292" x2="1418.317" y2="715.651"/>
	<path fill="#FFFFFF" d="M1418.317,694.722c0,0,2.889,12.559,0,23.371c0,0-3.974-6.453-0.902-21.977L1418.317,694.722z"/>
	<line fill="#FFFFFF" x1="1423.194" y1="741.292" x2="1423.194" y2="709.504"/>
	<path fill="#FFFFFF" d="M1423.194,688.575c0,0,2.889,12.557,0,23.371c0,0-3.975-6.454-0.904-21.977L1423.194,688.575z"/>
	<line fill="#FFFFFF" x1="1433.305" y1="741.292" x2="1433.305" y2="705.231"/>
	<path fill="#FFFFFF" d="M1433.305,683.864c0,0,2.891,12.56,0,23.373c0,0-3.974-6.454-0.903-21.975L1433.305,683.864z"/>
	<line fill="#FFFFFF" x1="1428.249" y1="741.378" x2="1428.249" y2="715.737"/>
	<path fill="#FFFFFF" d="M1428.249,698.994c0,0,2.891,12.559,0,23.371c0,0-3.975-6.452-0.902-21.976L1428.249,698.994z"/>
	<line fill="#FFFFFF" x1="1437.821" y1="741.378" x2="1437.821" y2="715.737"/>
	<path fill="#FFFFFF" d="M1437.821,698.994c0,0,2.889,12.559,0,23.371c0,0-3.975-6.452-0.903-21.976L1437.821,698.994z"/>
	<line fill="#FFFFFF" x1="1231.177" y1="740.944" x2="1231.177" y2="709.156"/>
	<path fill="#FFFFFF" d="M1231.177,688.226c0,0,2.89,12.558,0,23.371c0,0-3.973-6.455-0.902-21.977L1231.177,688.226z"/>
	<line fill="#FFFFFF" x1="1242.376" y1="740.944" x2="1242.376" y2="709.156"/>
	<path fill="#FFFFFF" d="M1242.376,688.226c0,0,2.889,12.558,0,23.37c0,0-3.975-6.454-0.905-21.976L1242.376,688.226z"/>
	<line fill="#FFFFFF" x1="1245.728" y1="741.028" x2="1245.728" y2="715.39"/>
	<line fill="#FFFFFF" x1="1250.322" y1="741.028" x2="1250.322" y2="715.39"/>
	<path fill="#FFFFFF" d="M1250.322,698.646c0,0,2.888,12.558,0,23.371c0,0-3.974-6.453-0.904-21.976L1250.322,698.646z"/>
	<line fill="#FFFFFF" x1="1253.675" y1="740.944" x2="1253.675" y2="702.179"/>
	<path fill="#FFFFFF" d="M1253.675,681.249c0,0,2.89,12.557,0,23.371c0,0-3.975-6.454-0.905-21.977L1253.675,681.249z"/>
	<line fill="#FFFFFF" x1="1068.898" y1="741.421" x2="1068.898" y2="709.634"/>
	<path fill="#FFFFFF" d="M1068.898,688.703c0,0,2.888,12.558,0,23.371c0,0-3.974-6.454-0.903-21.976L1068.898,688.703z"/>
	<line fill="#FFFFFF" x1="1072.251" y1="741.507" x2="1072.251" y2="715.867"/>
	<path fill="#FFFFFF" d="M1072.251,699.124c0,0,2.891,12.558,0,23.37c0,0-3.974-6.453-0.902-21.975L1072.251,699.124z"/>
	<line fill="#FFFFFF" x1="1076.845" y1="741.507" x2="1076.845" y2="715.867"/>
	<path fill="#FFFFFF" d="M1076.845,699.124c0,0,2.891,12.558,0,23.37c0,0-3.973-6.453-0.902-21.975L1076.845,699.124z"/>
	<line fill="#FFFFFF" x1="1080.197" y1="741.421" x2="1080.197" y2="702.657"/>
	<path fill="#FFFFFF" d="M1080.197,681.727c0,0,2.892,12.558,0,23.371c0,0-3.974-6.454-0.902-21.977L1080.197,681.727z"/>
	<line fill="#FFFFFF" x1="1065.931" y1="741.071" x2="1065.931" y2="709.286"/>
	<path fill="#FFFFFF" d="M1065.931,688.356c0,0,2.889,12.558,0,23.371c0,0-3.977-6.454-0.904-21.977L1065.931,688.356z"/>
	<line fill="#FFFFFF" x1="1086.334" y1="741.073" x2="1086.334" y2="709.286"/>
	<path fill="#FFFFFF" d="M1086.334,688.356c0,0,2.892,12.558,0,23.371c0,0-3.974-6.454-0.902-21.977L1086.334,688.356z"/>
	<line fill="#FFFFFF" x1="1097.531" y1="741.071" x2="1097.531" y2="709.286"/>
	<path fill="#FFFFFF" d="M1097.531,688.356c0,0,2.89,12.558,0,23.371c0,0-3.975-6.454-0.903-21.977L1097.531,688.356z"/>
	<line fill="#FFFFFF" x1="1076.041" y1="741.073" x2="1076.041" y2="705.013"/>
	<path fill="#FFFFFF" d="M1076.041,683.646c0,0,2.891,12.561,0,23.373c0,0-3.975-6.454-0.904-21.979L1076.041,683.646z"/>
	<path fill="#FFFFFF" d="M1080.558,698.775c0,0,2.888,12.559,0,23.372c0,0-3.975-6.455-0.904-21.978L1080.558,698.775z"/>
	<line fill="#FFFFFF" x1="1100.886" y1="741.157" x2="1100.886" y2="715.521"/>
	<path fill="#FFFFFF" d="M1100.886,698.775c0,0,2.888,12.559,0,23.372c0,0-3.975-6.455-0.904-21.978L1100.886,698.775z"/>
	<line fill="#FFFFFF" x1="1105.479" y1="741.157" x2="1105.479" y2="715.521"/>
	<path fill="#FFFFFF" d="M1105.479,698.775c0,0,2.889,12.559,0,23.372c0,0-3.977-6.455-0.906-21.978L1105.479,698.775z"/>
	<line fill="#FFFFFF" x1="1108.833" y1="741.071" x2="1108.833" y2="702.308"/>
	<path fill="#FFFFFF" d="M1108.833,681.38c0,0,2.888,12.557,0,23.369c0,0-3.975-6.453-0.905-21.975L1108.833,681.38z"/>
	<line fill="#FFFFFF" x1="1110.923" y1="740.483" x2="1110.923" y2="714.846"/>
	<path fill="#FFFFFF" d="M1110.923,693.916c0,0,2.889,12.557,0,23.37c0,0-3.975-6.453-0.903-21.977L1110.923,693.916z"/>
	<line fill="#FFFFFF" x1="1115.799" y1="740.483" x2="1115.799" y2="708.697"/>
	<path fill="#FFFFFF" d="M1115.799,687.768c0,0,2.888,12.558,0,23.37c0,0-3.976-6.452-0.903-21.977L1115.799,687.768z"/>
	<line fill="#FFFFFF" x1="1136.203" y1="740.483" x2="1136.203" y2="708.697"/>
	<path fill="#FFFFFF" d="M1136.203,687.768c0,0,2.892,12.558,0,23.37c0,0-3.974-6.452-0.904-21.977L1136.203,687.768z"/>
	<line fill="#FFFFFF" x1="1147.399" y1="740.483" x2="1147.399" y2="708.697"/>
	<path fill="#FFFFFF" d="M1147.399,687.768c0,0,2.891,12.558,0,23.37c0,0-3.975-6.452-0.903-21.977L1147.399,687.768z"/>
	<line fill="#FFFFFF" x1="1125.91" y1="740.483" x2="1125.91" y2="704.426"/>
	<path fill="#FFFFFF" d="M1125.91,683.06c0,0,2.89,12.557,0,23.371c0,0-3.975-6.454-0.903-21.977L1125.91,683.06z"/>
	<line fill="#FFFFFF" x1="1120.854" y1="740.571" x2="1120.854" y2="714.931"/>
	<path fill="#FFFFFF" d="M1120.854,698.187c0,0,2.891,12.559,0,23.372c0,0-3.973-6.453-0.903-21.977L1120.854,698.187z"/>
	<line fill="#FFFFFF" x1="1130.427" y1="740.571" x2="1130.427" y2="714.931"/>
	<path fill="#FFFFFF" d="M1130.427,698.187c0,0,2.888,12.559,0,23.372c0,0-3.975-6.453-0.905-21.977L1130.427,698.187z"/>
	<line fill="#FFFFFF" x1="1150.755" y1="740.571" x2="1150.755" y2="714.931"/>
	<path fill="#FFFFFF" d="M1150.755,698.187c0,0,2.888,12.559,0,23.372c0,0-3.978-6.453-0.904-21.977L1150.755,698.187z"/>
	<line fill="#FFFFFF" x1="1155.346" y1="740.571" x2="1155.346" y2="714.931"/>
	<path fill="#FFFFFF" d="M1155.346,698.187c0,0,2.892,12.559,0,23.372c0,0-3.976-6.453-0.901-21.977L1155.346,698.187z"/>
	<line fill="#FFFFFF" x1="1158.699" y1="740.483" x2="1158.699" y2="701.719"/>
	<path fill="#FFFFFF" d="M1158.699,680.789c0,0,2.889,12.558,0,23.373c0,0-3.974-6.456-0.901-21.977L1158.699,680.789z"/>
	<line fill="#FFFFFF" x1="1169.277" y1="740.833" x2="1169.277" y2="715.192"/>
	<path fill="#FFFFFF" d="M1169.277,694.265c0,0,2.888,12.557,0,23.37c0,0-3.975-6.453-0.903-21.977L1169.277,694.265z"/>
	<line fill="#FFFFFF" x1="1174.153" y1="740.833" x2="1174.153" y2="709.046"/>
	<path fill="#FFFFFF" d="M1174.153,688.115c0,0,2.889,12.558,0,23.371c0,0-3.974-6.453-0.903-21.975L1174.153,688.115z"/>
	<line fill="#FFFFFF" x1="1194.558" y1="740.834" x2="1194.558" y2="709.046"/>
	<path fill="#FFFFFF" d="M1194.558,688.116c0,0,2.892,12.557,0,23.37c0,0-3.975-6.453-0.903-21.975L1194.558,688.116z"/>
	<line fill="#FFFFFF" x1="1205.755" y1="740.833" x2="1205.755" y2="709.046"/>
	<path fill="#FFFFFF" d="M1205.755,688.115c0,0,2.891,12.558,0,23.371c0,0-3.975-6.453-0.904-21.975L1205.755,688.115z"/>
	<line fill="#FFFFFF" x1="1184.265" y1="740.834" x2="1184.265" y2="704.773"/>
	<path fill="#FFFFFF" d="M1184.265,683.407c0,0,2.891,12.558,0,23.37c0,0-3.975-6.452-0.904-21.977L1184.265,683.407z"/>
	<line fill="#FFFFFF" x1="1179.209" y1="740.918" x2="1179.209" y2="715.28"/>
	<path fill="#FFFFFF" d="M1179.209,698.535c0,0,2.891,12.559,0,23.372c0,0-3.976-6.454-0.903-21.977L1179.209,698.535z"/>
	<line fill="#FFFFFF" x1="1188.779" y1="740.918" x2="1188.779" y2="715.28"/>
	<path fill="#FFFFFF" d="M1188.779,698.535c0,0,2.89,12.559,0,23.372c0,0-3.974-6.454-0.903-21.977L1188.779,698.535z"/>
	<line fill="#FFFFFF" x1="1209.108" y1="740.918" x2="1209.108" y2="715.28"/>
	<path fill="#FFFFFF" d="M1209.108,698.535c0,0,2.889,12.559,0,23.372c0,0-3.973-6.454-0.903-21.977L1209.108,698.535z"/>
	<line fill="#FFFFFF" x1="1213.701" y1="740.918" x2="1213.701" y2="715.28"/>
	<path fill="#FFFFFF" d="M1213.701,698.535c0,0,2.891,12.559,0,23.372c0,0-3.975-6.454-0.903-21.977L1213.701,698.535z"/>
	<line fill="#FFFFFF" x1="1217.056" y1="740.833" x2="1217.056" y2="702.069"/>
	<path fill="#FFFFFF" d="M1217.056,681.139c0,0,2.889,12.56,0,23.372c0,0-3.975-6.453-0.904-21.978L1217.056,681.139z"/>
	<line fill="#FFFFFF" x1="1198.739" y1="741.291" x2="1198.739" y2="715.651"/>
	<path fill="#FFFFFF" d="M1198.739,694.721c0,0,2.889,12.558,0,23.372c0,0-3.975-6.455-0.902-21.977L1198.739,694.721z"/>
	<line fill="#FFFFFF" x1="1203.616" y1="741.291" x2="1203.616" y2="709.504"/>
	<path fill="#FFFFFF" d="M1203.616,688.575c0,0,2.888,12.557,0,23.371c0,0-3.975-6.455-0.904-21.977L1203.616,688.575z"/>
	<line fill="#FFFFFF" x1="1224.02" y1="741.292" x2="1224.02" y2="709.504"/>
	<path fill="#FFFFFF" d="M1224.02,688.575c0,0,2.892,12.557,0,23.371c0,0-3.975-6.454-0.903-21.977L1224.02,688.575z"/>
	<line fill="#FFFFFF" x1="1213.726" y1="741.292" x2="1213.726" y2="705.231"/>
	<path fill="#FFFFFF" d="M1213.726,683.864c0,0,2.891,12.56,0,23.372c0,0-3.973-6.453-0.902-21.978L1213.726,683.864z"/>
	<line fill="#FFFFFF" x1="1208.672" y1="741.378" x2="1208.672" y2="715.737"/>
	<path fill="#FFFFFF" d="M1208.672,698.994c0,0,2.89,12.559,0,23.371c0,0-3.976-6.454-0.904-21.976L1208.672,698.994z"/>
	<line fill="#FFFFFF" x1="1218.243" y1="741.378" x2="1218.243" y2="715.737"/>
	<path fill="#FFFFFF" d="M1218.243,698.994c0,0,2.889,12.559,0,23.371c0,0-3.975-6.454-0.904-21.976L1218.243,698.994z"/>
	<line fill="#FFFFFF" x1="1064.122" y1="740.944" x2="1064.122" y2="709.156"/>
	<path fill="#FFFFFF" d="M1064.122,688.226c0,0,2.889,12.558,0,23.371c0,0-3.974-6.455-0.903-21.977L1064.122,688.226z"/>
	<line fill="#FFFFFF" x1="1075.319" y1="740.944" x2="1075.319" y2="709.156"/>
	<path fill="#FFFFFF" d="M1075.319,688.226c0,0,2.89,12.558,0,23.37c0,0-3.973-6.454-0.904-21.976L1075.319,688.226z"/>
	<line fill="#FFFFFF" x1="1078.671" y1="741.028" x2="1078.671" y2="715.39"/>
	<line fill="#FFFFFF" x1="1083.266" y1="741.028" x2="1083.266" y2="715.39"/>
	<path fill="#FFFFFF" d="M1083.266,698.646c0,0,2.889,12.558,0,23.371c0,0-3.974-6.453-0.903-21.976L1083.266,698.646z"/>
	<line fill="#FFFFFF" x1="1086.618" y1="740.944" x2="1086.618" y2="702.179"/>
	<path fill="#FFFFFF" d="M1086.618,681.249c0,0,2.89,12.557,0,23.371c0,0-3.974-6.454-0.904-21.977L1086.618,681.249z"/>
	<line fill="#FFFFFF" x1="1411.094" y1="740.594" x2="1411.094" y2="714.956"/>
	<path fill="#FFFFFF" d="M1411.094,694.023c0,0,2.888,12.559,0,23.372c0,0-3.976-6.453-0.903-21.975L1411.094,694.023z"/>
	<line fill="#FFFFFF" x1="1415.97" y1="740.594" x2="1415.97" y2="708.808"/>
	<path fill="#FFFFFF" d="M1415.97,687.876c0,0,2.888,12.559,0,23.372c0,0-3.975-6.454-0.904-21.975L1415.97,687.876z"/>
	<line fill="#FFFFFF" x1="1436.373" y1="740.596" x2="1436.373" y2="708.808"/>
	<path fill="#FFFFFF" d="M1436.373,687.878c0,0,2.892,12.559,0,23.37c0,0-3.974-6.452-0.903-21.975L1436.373,687.878z"/>
	<line fill="#FFFFFF" x1="1426.08" y1="740.596" x2="1426.08" y2="704.533"/>
	<path fill="#FFFFFF" d="M1426.08,683.169c0,0,2.891,12.559,0,23.37c0,0-3.974-6.451-0.903-21.976L1426.08,683.169z"/>
	<line fill="#FFFFFF" x1="1421.024" y1="740.681" x2="1421.024" y2="715.041"/>
	<path fill="#FFFFFF" d="M1421.024,698.296c0,0,2.891,12.559,0,23.372c0,0-3.975-6.454-0.903-21.976L1421.024,698.296z"/>
	<line fill="#FFFFFF" x1="1430.597" y1="740.681" x2="1430.597" y2="715.041"/>
	<path fill="#FFFFFF" d="M1430.597,698.296c0,0,2.889,12.559,0,23.372c0,0-3.975-6.454-0.904-21.976L1430.597,698.296z"/>
</g>
<rect x="1253.155" y="624.403" fill="#FFFFFF" width="65.334" height="27.334"/>
<rect x="1256.405" y="627.82" fill="#C85B22" width="20.25" height="20.25"/>
<ellipse fill="#FFFFFF" cx="1305.28" cy="609.695" rx="6.875" ry="2.375"/>
<rect x="1303.905" y="612.07" fill="#FFFFFF" width="2.75" height="12.5"/>
<g>
	<defs>
		<rect id="SVGID_93_" x="1678.585" y="447.641" width="545" height="584"/>
	</defs>
	<clipPath id="SVGID_2_">
		<use xlink:href="#SVGID_93_"  overflow="visible"/>
	</clipPath>
	<g clip-path="url(#SVGID_2_)">
		<g>
			<path opacity="0.75" fill="#BCBEC0" d="M33.175,788.594c-10.464,0-15.694,0-26.158,0c0-37.322-0.001-74.646-0.001-111.969
				c10.464,0,15.695,0,26.159,0C33.175,713.947,33.178,751.271,33.175,788.594z"/>
			<path opacity="0.75" fill="#D1D3D4" d="M186.845,305.55c0-6.866,0-10.297,0-17.163c-38.419,0-76.837,0-115.256,0
				c0,6.866,0.001,10.297,0.001,17.163c-12.805,0-25.61,0-38.415,0c0,120.148,0,240.298,0,360.446c4.575,0,6.864,0,11.439,0
				c0,14.986,0,29.973-0.001,44.959c4.904,0,7.356,0,12.261,0c0,86.363,0,172.727,0,259.091c18.8,0,37.601,0,56.401,0
				c0-86.364-0.005-172.727,0.001-259.091c-0.001-14.986-0.001-29.973-0.001-44.959c39.236,0,78.473,0,117.709,0
				c0.017-120.148,0.001-240.298,0.001-360.446C216.272,305.55,201.559,305.55,186.845,305.55z"/>
			<path opacity="0.75" fill="#E6E7E8" d="M895.401,943.075c-34.318,0-68.638,0-102.956,0c-0.003-88.817,0.001-177.634,0.001-266.45
				c34.318,0,68.638,0,102.956,0C895.402,765.441,895.401,854.258,895.401,943.075z"/>
			<path opacity="0.75" fill="#A7A9AC" d="M1074.37,946.755c-26.967,0-53.934,0-80.9,0c0.011-148.349,0.007-296.696,0.001-445.044
				c26.967,0,53.933,0,80.899,0C1074.359,650.059,1074.37,798.406,1074.37,946.755z"/>
			<path opacity="0.75" fill="#E6E7E8" d="M1146.69,713.81c-20.02,0-40.04,0-60.06,0c0-317.126-0.002-634.252-0.002-951.378
				c14.301,0,28.601,0,42.901,0c0.816,12.262,1.635,24.522,2.45,36.784c5.884,0,8.826,0,14.71,0
				C1146.69,104.081,1146.712,408.946,1146.69,713.81z"/>
			<path opacity="0.75" fill="#E6E7E8" d="M230.984,908.746c-39.238,20.43-78.474,40.863-117.709,61.3c0-101.351,0-202.7,0-304.05
				c39.236,0,78.473,0,117.709,0C230.99,746.912,230.987,827.83,230.984,908.746z"/>
			<path opacity="0.75" fill="#D1D3D4" d="M1467.067,532.775c-14.697-57.217-29.407-114.43-44.109-171.645
				c0-18.523,0-37.047,0-55.57c-11.047,0-22.094,0-33.141,0c0-16.893,0-33.787,0-50.681c-13.079-0.003-26.157-0.003-39.236,0
				c0,23.43,0,46.859,0,70.289c24.112,69.201,48.235,138.398,72.329,207.606C1437.629,532.775,1452.349,532.775,1467.067,532.775z"
				/>
			<path opacity="0.75" fill="#E6E7E8" d="M1342.412,746.914c0.002,30.242-0.001,60.484-0.001,90.727l0,0
				c29.636,0,59.271,0,88.906,0c0,26.97,0,53.939,0,80.909c43.659,0,87.318,0,130.978,0c-0.023-326.932,0-653.862,0-980.794
				c17.981,0,35.964,0,53.945,0c0-10.354,0-20.706,0-31.06c-33.512,0-67.024,0-100.536,0c0,316.58,0,633.159,0,949.739
				c-11.988,0.004-23.978-0.004-35.966,0.002c0-98.625,0-197.25,0-295.875c-5.068,0-7.603,0-12.671,0c0-11.115,0-16.672,0-27.787
				c-14.703,0-29.406,0-44.109,0c0-51.219-0.004-102.438,0-153.656c0-17.983,0-35.967,0-53.95c-22.489,0-44.979,0-67.469,0
				c0.541,61.913,1.096,123.826,1.633,185.739c-5.885-0.07-8.826-0.105-14.711-0.176
				C1342.417,589.46,1342.406,668.188,1342.412,746.914L1342.412,746.914z"/>
			<path opacity="0.75" fill="#A7A9AC" d="M230.984,840.096c4.25,0,6.377,0,10.627,0c0-33.238-0.002-66.477,0-99.715
				c6.213,0,9.318-0.002,15.531-0.002c0,56.123-0.001,112.244-0.001,168.367c-10.463,0-15.694,0-26.157,0
				C230.984,885.863,230.986,862.979,230.984,840.096z"/>
			<path opacity="0.75" fill="#A7A9AC" d="M895.402,912.009c12.261,0,24.521,0,36.781,0c-0.004-59.665-0.004-119.33,0.001-178.995
				c-12.261,0-24.521,0-36.782,0C895.402,792.679,895.398,852.344,895.402,912.009z"/>
			<path opacity="0.75" fill="#BCBEC0" d="M305.372,573.638c10.49-0.001,20.979-0.001,31.469,0c0,5.884,0.001,8.828,0.001,14.712
				c10.082,0,20.164,0,30.246,0c0,8.5,0,12.75,0,21.25c7.846,0,11.769,0,19.615,0c0,16.074,0,32.148,0,48.223
				c2.944,0,4.415,0,7.359,0c0.001,40.322,0.001,80.644,0,120.967c-1.145,0-1.716,0-2.86,0c0-13.894,0-27.787,0-41.681
				c-3.27,0-4.904,0-8.174,0c0-22.477-0.001-44.955,0.001-67.433c-26.704,0.676-53.408,1.359-80.111,2.041
				C303.735,639.023,304.552,606.331,305.372,573.638z"/>
			<path opacity="0.75" fill="#E6E7E8" d="M265.318,669.676c0-13.486,0-26.972,0-40.458c8.175,0,12.262,0,20.437,0
				c0,8.091,0,12.138,0,20.23c8.174,0,12.261-0.001,20.435-0.001c0,8.091,0,12.139,0,20.229c25.613,0,51.225,0,76.838,0
				c-0.002,22.478-0.001,44.955-0.001,67.433c3.27,0,4.904,0,8.174,0c0,13.894,0,27.787,0,41.681c-26.431,0-52.861,0-79.292,0
				c-0.001-10.217-0.001-20.434-0.001-30.65c-5.395,0-8.09,0-13.484,0c0-18.799,0-37.598,0-56.396c-3.924,0-5.886,0-9.81,0
				c0-8.826,0-13.24,0-22.066C279.296,669.676,274.637,669.676,265.318,669.676z"/>
			<path opacity="0.75" fill="#D1D3D4" d="M265.318,629.218c0-9.808,0-19.615,0-29.423c3.107,0,4.66,0,7.767,0
				c0.004-19.618,0.004-39.235,0-58.854c2.615,0,3.923,0,6.538,0c0-7.356,0-11.035,0-18.39c3.433,0,5.148,0,8.581,0
				c0,3.759,0,5.64,0,9.399c6.867,0,10.301,0,17.168,0c0,39.165,0,78.33,0,117.495c-7.847,0-11.77,0.001-19.617,0.001
				c0-8.092,0-12.139,0-20.23C277.58,629.218,273.493,629.218,265.318,629.218z"/>
			<path opacity="0.75" fill="#A7A9AC" d="M305.372,551.565c16.212,0,32.424,0.003,48.637-0.002c0.002,12.263,0,24.524,0,36.787
				c-6.867,0-10.3,0-17.167,0c0-5.884-0.001-8.828-0.001-14.712c-10.49-0.001-20.979-0.001-31.469,0
				C305.372,564.808,305.372,560.394,305.372,551.565z"/>
			<path opacity="0.75" fill="#E6E7E8" d="M411.631,778.789c0-12.803-0.001-25.606,0-38.408c10.626,0,21.252,0,31.878,0
				c0-100.534,0.003-201.067,0-301.602c7.521,0,11.282,0,18.801,0c0,49.856,0,99.714,0,149.57c9.151,0,13.727,0,22.878,0
				c0,84.73-0.001,169.461-0.001,254.192c-17.297,0-34.593,0-51.89,0c-0.001-21.251,0-42.502,0-63.753
				C424.63,778.789,420.297,778.789,411.631,778.789z"/>
			<path opacity="0.75" fill="#D1D3D4" d="M415.719,740.381c11.116,0,16.674,0,27.79,0c0-100.534,0.003-201.067,0-301.602
				c-11.116,0-16.674,0-27.79,0C415.722,539.313,415.719,639.847,415.719,740.381z"/>
			<path opacity="0.75" fill="#D1D3D4" d="M530.134,842.542c-9.153,0-13.729,0.001-22.882,0.001
				c0-73.016,0.003-146.033,0.001-219.049c9.153,0,13.73,0,22.883,0C530.133,696.51,530.134,769.525,530.134,842.542z"/>
			<path opacity="0.75" fill="#E6E7E8" d="M490.498,860.932c12.122-12.123,24.245-24.244,36.366-36.368c0-72.745,0-145.49,0-218.235
				c14.165,0,28.33,0,42.495,0c0,22.067-0.002,44.136,0,66.203c3.922,0,5.883,0,9.806,0c-0.002,26.973,0.001,53.945-0.001,80.918
				c10.787,0,16.181,0,26.968,0c0.001,40.766,0,81.531,0,122.296c-6.884,6.888-10.328,10.333-17.211,17.221
				c-21.706,0-43.413,0-65.119,0C512.701,882.286,501.599,871.609,490.498,860.932z"/>
			<path opacity="0.75" fill="#BCBEC0" d="M620.839,728.111c-13.892-0.002-27.784,0-41.676,0c0,10.135,0,15.203,0,25.338
				c10.787,0,16.181,0,26.968,0c0.001,40.766,0,81.531,0,122.296c5.883,0,8.825,0,14.708,0
				C620.839,826.533,620.839,777.322,620.839,728.111z"/>
			<path opacity="0.75" fill="#D1D3D4" d="M725.027-230.209c39.086,0,78.172,0,117.258,0c0,17.298,0,34.597,0,51.895
				c2.942,0,4.414,0,7.356,0c0,70.836,0,141.672,0,212.508c4.576,0,6.865,0,11.441,0c0,22.883-0.001,45.766,0.001,68.648
				c4.248,0,6.372,0,10.62,0c0,18.799,0,37.598,0,56.396c9.479,0,14.219,0,23.698,0c0,250.924,0,501.848,0,752.771
				c-22.063,0-44.128,0-66.191,0c0-64.571-0.004-129.142,0.001-193.712c-4.249,0-6.374,0-10.623,0
				c0-14.029,0.001-28.059,0.001-42.087c-6.045,0-9.066,0-15.111,0c-4.412,0-6.619,0-11.032,0c-0.006-164.827,0-329.654,0-494.482
				c-7.845,0-11.767,0-19.611,0c0-21.935,0-43.869,0-65.804c-10.623,0-21.245,0-31.868,0c0-21.792-0.001-43.584-0.001-65.376
				c-3.923,0-5.884,0-9.807,0c0.002-23.98,0.002-47.958,0-71.938c-2.453,0-3.678,0-6.13,0
				C725.029-90.995,725.027-160.602,725.027-230.209z"/>
			<path opacity="0.75" fill="#E6E7E8" d="M895.401,935.716c12.669,0,25.338,0,38.007,0c6.619-6.619,9.93-9.929,16.549-16.548
				c38.611,0,77.224,0,115.835,0c0-28.402,0-56.805,0-85.207c-10.786,0-16.181,0-26.967,0c0,5.641,0,8.461,0,14.102
				c-5.885,0-8.826,0-14.711,0c0-78.875,0-157.748,0-236.623c-1.471,0-2.205,0-3.676,0c0-9.073,0-13.61,0-22.684
				c-6.864,0-10.298,0-17.162,0c0-7.599,0-11.398,0-18.996c-9.072,0-13.608,0-22.681,0c0,14.099,0,28.198,0,42.297
				c-9.314,0-13.971,0-23.286,0c-0.006,82.551-0.001,165.102-0.001,247.651c-11.03,0-22.061,0-33.091,0
				c-0.001,17.434-0.001,34.867-0.001,52.301c-9.604,0-19.21,0-28.815,0C895.402,921.492,895.401,926.232,895.401,935.716z"/>
			<path opacity="0.75" fill="#D1D3D4" d="M1146.69-200.783c2.695,0,4.043,0,6.738,0c0,11.237,0,22.475,0,33.712
				c4.414,0,6.621,0,11.034,0c0,30.447,0.002,60.896,0.002,91.343c-3.678,0-5.519,0-9.196,0c0,67.02,0,134.04,0,201.06
				c-3.432,0-5.146,0-8.578,0C1146.69,16.626,1146.69-92.078,1146.69-200.783z"/>
			<path opacity="0.75" fill="#A7A9AC" d="M1233.896,837.641c11.871,0,23.743,0,35.614,0c0-82.688,0-165.373,0-248.061
				c-11.871,0-23.743-0.005-35.614,0C1233.896,672.268,1233.896,754.953,1233.896,837.641z"/>
			<path opacity="0.75" fill="#E6E7E8" d="M1285.206,837.641c-14.71,0-29.42,0-44.13,0c0-14.984,0-29.967,0-44.951
				c14.71,0,29.42,0,44.13,0C1285.206,807.674,1285.206,822.656,1285.206,837.641z"/>
			<path opacity="0.75" fill="#D1D3D4" d="M1241.076,749.643c14.71,0,29.42,0,44.13,0c0,14.35,0,28.697,0,43.047
				c-14.71,0-29.42,0-44.13,0C1241.076,778.34,1241.076,763.992,1241.076,749.643z"/>
			<path opacity="0.75" fill="#BCBEC0" d="M1241.076,660.277c12.532,0,25.063,0,37.596,0c0.002,29.789,0,59.576,0,89.365
				c-12.532,0-25.063,0-37.596,0C1241.076,719.854,1241.078,690.066,1241.076,660.277z"/>
			<path opacity="0.75" fill="#A7A9AC" d="M1342.411,837.641c-21.246,0-42.493,0-63.739,0c0-71.383,0-142.764,0-214.147
				c21.246,0,42.493,0,63.739,0C1342.411,694.877,1342.411,766.258,1342.411,837.641z"/>
			<path opacity="0.75" fill="#BCBEC0" d="M1512.433,856.438c-10.898,0-21.796,0-32.694,0c0-52.582,0-105.162,0-157.744
				c10.898,0,21.796,0,32.694,0C1512.433,751.275,1512.433,803.856,1512.433,856.438z"/>
			<g>
				<path fill="#FFFFFF" d="M2207.232,830.281c-9.808,0-14.712,0-24.521,0c-0.003,12.259,0,24.518,0,36.776
					c-40.461,0-80.922,0-121.383,0c-6.948-9.398-13.895-18.798-20.846-28.194c0-31.468,0-62.936,0-94.403
					c-4.905,0-7.358,0.001-12.264,0.001c0,16.756,0,33.512,0,50.268c0,17.164,0,34.33,0,51.494c-10.789,0-16.185,0-26.974,0
					c0,9.806,0,14.708,0,24.514c-8.338,0-12.507,0-20.845,0c0,4.905,0,7.358,0,12.264c-25.34,0-50.681,0-76.021,0
					c-0.004-54.762,0.007-109.523-0.002-164.286c-28.608,0-57.217,0-85.825,0c0,29.425,0,58.851,0,88.276
					c-18.801,0-37.602,0-56.402,0c0,21.248,0,42.498,0,63.746c0,18.8,0,37.6,0.001,56.399c-3.923,0-5.886,0-9.809,0
					c0,7.358,0.001,11.035,0.001,18.394c-24.522,0-49.045,0-73.567,0c0-255.008,0-510.017,0-765.025c-20.846,0-41.691,0-62.537,0
					c0-80.916,0-161.832,0-242.748c-17.981,0-35.964,0-53.945,0c0,326.932-0.023,653.862,0,980.794c-42.915,0-85.83,0-128.745,0
					c-4.497-163.056-8.992-326.111-13.488-489.167c-13.078,0-26.156,0-39.234,0c0,105.844-0.007,211.688,0.001,317.531
					c-22.886,0-45.771,0-68.657,0c-0.002,30.242-0.001,60.484-0.001,90.727c-29.01,0-58.02,0-87.029,0
					c0-225.585,0-451.171,0-676.756c-2.941,0-4.413,0-7.354,0c0-11.852,0-23.702,0-35.554c-3.923,0-5.884,0-9.807,0
					c0-67.02,0-134.04,0-201.06c-17.57,0-35.141,0-52.711,0c0,67.02,0,134.04,0,201.06c-3.432,0-5.146,0-8.578,0
					c0,152.024,0.01,304.049-0.001,456.073c-5.393,0-8.087,0.002-13.479,0.002c-0.01-133.226-0.001-266.452-0.001-399.678
					c-6.864,0-10.296,0-17.16,0c0-84.596,0-169.19,0-253.786c-8.991-2.857-17.979-5.726-26.97-8.583c0-32.284,0-64.567,0-96.852
					c-5.884,0-8.825,0-14.709,0c0,374.749,0,749.498,0,1124.247c-3.432,0-5.146,0-8.578,0c0-10.216,0-20.433,0-30.649
					c-39.634,0-79.267,0-118.9,0c-5.394,7.844-8.09,11.766-13.483,19.61c-27.375,0-54.75,0-82.125,0c-9.398,0-18.796,0-28.193,0
					c-7.846,0-11.768,0-19.613,0c0-86.364,0.002-172.728,0.002-259.091c-4.413,0-6.62,0-11.032,0c0-164.966,0-329.931,0-494.896
					c-7.845,0-11.767,0-19.611,0c0-21.935,0-43.869,0-65.804c-10.623,0-21.245,0-31.868,0c0-21.792-0.001-43.584-0.001-65.376
					c-3.923,0-5.884,0-9.807,0c0-24.521-0.001-49.04,0.001-73.561c-2.453,0-3.679,0-6.131,0c0-69.065-0.002-138.132-0.002-207.197
					c-8.335,0-12.502,0-20.836,0c0,71.927,0.001,143.853,0.001,215.779c-9.315,0-13.973,0-23.288,0c0,15.938,0,31.876,0,47.814
					c-10.786,0-16.18,0-26.966,0c-0.019,266.858-0.019,533.718,0,800.576c-7.845,0-11.769-0.002-19.613-0.002
					c0,13.929,0,27.857,0,41.786c-10.256,0-15.384,0-25.64,0c-7.396,7.396-11.094,11.095-18.489,18.491c-22.132,0-44.264,0-66.396,0
					c-12.597-12.601-25.195-25.199-37.793-37.799c0-5.558,0-8.338,0-13.896c-17.57,0-35.141,0-52.711,0
					c-0.001-21.251,0-42.502,0-63.753c-40.462,0-80.925,0-121.387,0c-0.001-10.217-0.001-20.434-0.001-30.65
					c-5.395,0-8.09,0-13.484,0c0-18.799,0-37.598,0-56.396c-3.924,0-5.886,0-9.81,0c0-8.826,0-13.24,0-22.066
					c-9.319,0-13.978,0-23.297,0c0,2.779,0,4.17,0,6.949c0,77.373-0.002,154.746-0.002,232.119
					c-11.444,0.002-22.888,0.002-34.331,0.002c-39.238,20.43-78.474,40.863-117.709,61.3c-18.8,0-37.601,0-56.401,0
					c0-86.364,0-172.727,0-259.091c-4.904,0-7.356,0-12.261,0c0.001-14.986,0.001-29.973,0.001-44.959c-4.575,0-6.864,0-11.439,0
					c0,40.865,0,81.732,0,122.598c-11.717,0-23.435,0-35.152,0c0,14.986,0,29.973,0,44.959c-8.173,0-12.261,0-20.434,0
					c0,9.154,0,13.731,0,22.885c-18.527,0-37.055-0.003-55.582,0c0-9.154,0-13.731,0-22.885c-12.288,0-24.576,0-36.864,0
					c-13.871,7.627-27.742,15.254-41.611,22.885c0,10.898,0,21.797,0,32.695c-50.138,18.516-100.269,37.051-150.405,55.574
					c-39.235,0-78.47,0-117.706,0c0,24.384,0,48.768,0,73.151c762.582,0,1525.163,0,2287.745,0c114.688,0,229.378,0,344.066,0
					c0-25.335,0-50.671,0-76.007C2207.232,904.662,2207.232,867.471,2207.232,830.281z"/>
			</g>
		</g>
	</g>
</g>
</svg>
