<?xml version="1.0" encoding="utf-8"?>
<!-- Generator: Adobe Illustrator 18.0.0, SVG Export Plug-In . SVG Version: 6.00 Build 0)  -->
<!DOCTYPE svg PUBLIC "-//W3C//DTD SVG 1.1//EN" "http://www.w3.org/Graphics/SVG/1.1/DTD/svg11.dtd">
<svg version="1.1" id="Layer_1" xmlns="http://www.w3.org/2000/svg" xmlns:xlink="http://www.w3.org/1999/xlink" x="0px" y="0px"
	 viewBox="0 0 1600 1150" enable-background="new 0 0 1600 1150" xml:space="preserve">
<rect x="-1.415" y="-0.955" fill="#C85B22" width="1601.797" height="1146.489"/>
<rect x="-1.247" y="985.193" fill="#FFFFFF" width="1600" height="165.762"/>
<text transform="matrix(1 0 0 1 338.46 1048.0947)"><tspan x="0" y="0" fill="#010101" font-family="'Helvetica'" font-size="18">Re</tspan><tspan x="23.01" y="0" fill="#010101" font-family="'Helvetica'" font-size="18">f</tspan><tspan x="27.849" y="0" fill="#010101" font-family="'Helvetica'" font-size="18">erences</tspan></text>
<rect x="35.518" y="43.123" fill="none" width="865.325" height="38.607"/>
<text transform="matrix(1 0 0 1 32.5176 77.6348)"><tspan x="0" y="0" fill="#FFFFFF" font-family="'Helvetica-Bold'" font-size="48">PM: </tspan><tspan x="101.32" y="0" fill="#F5C714" font-family="'Helvetica-Bold'" font-size="48">RECOMMENDATIONS</tspan></text>
<rect x="36.118" y="94.594" fill="none" width="863.957" height="71.133"/>
<text transform="matrix(1 0 0 1 36.1182 107.4458)" fill="#FFFFFF" font-family="'HelveticaNeue-Medium'" font-size="18">PARTILCUATE MATTER CAN BE TRACED TO A VARIETY OF SOURCES BOTH RURAL AND URBAN</text>
<path opacity="0.1" fill="#FFFFFF" d="M287.198,287.568l492.387,687.49h-802l254-684.49c0,0,16.5,10.49,30,10.49
	C274.085,301.059,287.198,287.568,287.198,287.568z"/>
<g>
	<defs>
		<rect id="SVGID_93_" x="-1.415" y="447.641" width="545" height="584"/>
	</defs>
	<clipPath id="SVGID_2_">
		<use xlink:href="#SVGID_93_"  overflow="visible"/>
	</clipPath>
	<g clip-path="url(#SVGID_2_)">
		<g>
			<path opacity="0.75" fill="#A7A9AC" d="M171.653,718.714c0-32.009,0-64.019,0-96.028c6.215,0,9.324,0,15.538,0
				c-0.001-15.531-0.001-31.061-0.001-46.593c9.809,0,14.712,0,24.521,0c0-36.234,0.002-72.47-0.001-108.704
				c11.989,0,23.979,0,35.969,0c0,14.983,0.001,29.968,0.001,44.951c28.336,0,56.672,0,85.008,0
				c-0.004,23.977-0.001,47.953-0.001,71.93c7.193,0,10.789,0,17.982,0c0-10.899,0.001-21.798,0-32.697c8.175,0,12.263,0,20.438,0
				c0.001,15.53,0,31.06,0,46.591c10.354,0,20.706,0,31.06,0c0,65.796,0,131.593,0,197.39c-59.262,0-118.523,0-177.785,0
				c0-25.613,0-51.227-0.002-76.839C206.804,718.714,189.229,718.714,171.653,718.714z"/>
			<path opacity="0.75" fill="#D1D3D4" d="M224.381,782.06c9.319,0,13.979,0,23.298,0c0,5.397,0,8.096,0,13.493
				c9.807,0,14.711,0,24.518,0c0-39.642,0-79.285,0-118.928c2.617,0,3.926,0,6.542,0c12.534-22.34,25.065-44.681,37.603-67.018
				c13.076,22.34,26.155,44.68,39.234,67.018c2.289,0,3.432,0,5.721,0c0,22.611,0,45.223,0,67.835
				c-5.232,0-7.846,0.001-13.077,0.001c0,33.92,0,67.842,0,101.762c-10.789,0-16.185,0-26.974,0c0,9.806,0,14.708,0,24.514
				c-8.338,0-12.507,0-20.845,0c0,4.905,0,7.358,0,12.264c-25.34,0-50.681,0-76.02,0
				C224.381,849.354,224.378,815.707,224.381,782.06z"/>
			<path opacity="0.75" fill="#A7A9AC" d="M99.729,755.089c-12.261,0-24.521,0-36.782,0c0-33.782,0.003-67.565,0-101.347
				c12.261,0,24.52,0,36.781,0C99.732,687.524,99.729,721.307,99.729,755.089z"/>
			<path opacity="0.75" fill="#BCBEC0" d="M-1.223,914.473c15.396,0,30.791,0,46.187,0c0-79.283,0-158.565,0-237.848
				c-15.396,0-30.791,0-46.187,0C-1.217,755.908-1.223,835.19-1.223,914.473z"/>
			<path opacity="0.75" fill="#E6E7E8" d="M-1.223,825.379c6.704,0,10.055,0,16.759,0c0,28.336,0,56.67,0,85.006
				c11.444,0,22.888,0,34.332,0c0-54.762,0-109.523,0-164.285c8.174,0,12.26,0,20.433,0c0-10.896,0-21.793,0-32.689
				c9.809,0,14.714,0,24.522,0c0-10.136,0-15.205,0-25.341c14.713,0,29.426,0,44.139,0c0,10.215,0,20.43,0,30.645
				c0,29.425,0,58.851,0,88.276c-18.937,0-37.874,0-56.811,0c0,40.049-0.002,80.098,0.001,120.146c-3.923,0-5.886,0-9.808,0
				c0,7.358,0.001,11.035,0.001,18.394c-24.522,0-49.045,0-73.567,0C-1.223,905.479-1.223,865.43-1.223,825.379z"/>
			<path opacity="0.75" fill="#D1D3D4" d="M493.719,795.553c-19.346,0-38.691,0-58.036,0c0-17.574,0-35.15,0-52.725
				c19.346,0,38.69,0,58.036,0C493.719,760.402,493.719,777.979,493.719,795.553z"/>
			<path opacity="0.75" fill="#E6E7E8" d="M402.166,795.553c28.882,0,57.765,0,86.647,0c-0.002-11.582,0-23.162,0-34.744
				c10.084,0,20.167,0,30.251,0c0,11.582,0,23.162,0,34.744c3.268,0,4.901,0,8.169,0c0,11.576,0,23.152,0,34.729
				c-9.808,0-14.712,0-24.521,0c-0.003,12.259,0,24.518,0,36.776c-40.461,0-80.922,0-121.383,0
				c-6.948-9.398-13.895-18.798-20.846-28.194c0-14.438,0-28.873,0-43.311C374.378,795.553,388.272,795.553,402.166,795.553z"/>
			<path opacity="0.75" fill="#BCBEC0" d="M435.683,742.828c0-37.12,0-74.24,0-111.36c11.988,0,23.978,0,35.966,0
				c0,24.862,0,49.724,0,74.585c8.829,0,13.241,0,22.07,0c0,12.258,0,24.518,0,36.775
				C474.373,742.828,455.028,742.828,435.683,742.828z"/>
			<g>
				<path fill="#FFFFFF" d="M527.232,830.281c-9.808,0-14.712,0-24.521,0c-0.003,12.259,0,24.518,0,36.776
					c-40.461,0-80.922,0-121.383,0c-6.948-9.398-13.895-18.798-20.846-28.194c0-31.468,0-62.936,0-94.403
					c-4.905,0-7.358,0.001-12.264,0.001c0,16.756,0,33.512,0,50.268c0,17.164,0,34.33,0,51.494c-10.789,0-16.185,0-26.974,0
					c0,9.806,0,14.708,0,24.514c-8.338,0-12.507,0-20.845,0c0,4.905,0,7.358,0,12.264c-25.34,0-50.681,0-76.02,0
					c-0.004-54.762,0.007-109.523-0.002-164.286c-28.608,0-57.217,0-85.825,0c0,29.425,0,58.851,0,88.276
					c-18.801,0-37.602,0-56.402,0c0,21.248,0,42.498,0,63.746c0,18.8,0,37.6,0.001,56.399c-3.923,0-5.886,0-9.808,0
					c0,7.358,0.001,11.035,0.001,18.394c-24.522,0-49.045,0-73.567,0c0-255.008,0-510.017,0-765.025c-20.846,0-41.691,0-62.537,0
					c0-80.916,0-161.832,0-242.748c-17.981,0-35.964,0-53.945,0c0,326.932-0.023,653.862,0,980.794c-42.915,0-85.83,0-128.745,0
					c-4.497-163.056-8.992-326.111-13.488-489.167c-13.078,0-26.156,0-39.234,0c0,105.844-0.007,211.688,0.001,317.531
					c-22.886,0-45.771,0-68.657,0c-0.002,30.242-0.001,60.484-0.001,90.727c-29.01,0-58.02,0-87.029,0
					c0-225.585,0-451.171,0-676.756c-2.941,0-4.413,0-7.354,0c0-11.852,0-23.702,0-35.554c-3.923,0-5.884,0-9.807,0
					c0-67.02,0-134.04,0-201.06c-17.57,0-35.141,0-52.711,0c0,67.02,0,134.04,0,201.06c-3.432,0-5.147,0-8.578,0
					c0,152.024,0.01,304.049-0.001,456.073c-5.393,0-8.087,0.002-13.479,0.002c-0.01-133.226-0.001-266.452-0.001-399.678
					c-6.864,0-10.296,0-17.16,0c0-84.596,0-169.19,0-253.786c-8.991-2.857-17.979-5.726-26.97-8.583c0-32.284,0-64.567,0-96.852
					c-5.884,0-8.825,0-14.709,0c0,374.749,0,749.498,0,1124.247c-3.432,0-5.147,0-8.578,0c0-10.216,0-20.433,0-30.649
					c-39.634,0-79.267,0-118.9,0c-5.394,7.844-8.09,11.766-13.483,19.61c-27.375,0-54.75,0-82.125,0c-9.398,0-18.796,0-28.193,0
					c-7.846,0-11.768,0-19.613,0c0-86.364,0.002-172.728,0.002-259.091c-4.413,0-6.62,0-11.032,0c0-164.966,0-329.931,0-494.896
					c-7.845,0-11.767,0-19.611,0c0-21.935,0-43.869,0-65.804c-10.623,0-21.245,0-31.868,0c0-21.792-0.001-43.584-0.001-65.376
					c-3.923,0-5.884,0-9.807,0c0-24.521-0.001-49.04,0.001-73.561c-2.453,0-3.679,0-6.131,0c0-69.065-0.002-138.132-0.002-207.197
					c-8.335,0-12.502,0-20.836,0c0,71.927,0.001,143.853,0.001,215.779c-9.315,0-13.973,0-23.288,0c0,15.938,0,31.876,0,47.814
					c-10.786,0-16.18,0-26.966,0c-0.019,266.858-0.019,533.718,0,800.576c-7.845,0-11.769-0.002-19.613-0.002
					c0,13.929,0,27.857,0,41.786c-10.256,0-15.384,0-25.64,0c-7.396,7.396-11.094,11.095-18.489,18.491c-22.132,0-44.264,0-66.396,0
					c-12.597-12.601-25.195-25.199-37.793-37.799c0-5.558,0-8.338,0-13.896c-17.57,0-35.141,0-52.711,0
					c-0.001-21.251,0-42.502,0-63.753c-40.462,0-80.925,0-121.387,0c-0.001-10.217-0.001-20.434-0.001-30.65
					c-5.395,0-8.09,0-13.484,0c0-18.799,0-37.598,0-56.396c-3.924,0-5.886,0-9.81,0c0-8.826,0-13.24,0-22.066
					c-9.319,0-13.978,0-23.297,0c0,2.779,0,4.17,0,6.949c0,77.373-0.002,154.746-0.002,232.119
					c-11.444,0.002-22.888,0.002-34.332,0.002c-39.238,20.43-78.474,40.863-117.709,61.3c-18.8,0-37.601,0-56.401,0
					c0-86.364,0-172.727,0-259.091c-4.904,0-7.356,0-12.261,0c0.001-14.986,0.001-29.973,0.001-44.959c-4.575,0-6.864,0-11.439,0
					c0,40.865,0,81.732,0,122.598c-11.717,0-23.435,0-35.152,0c0,14.986,0,29.973,0,44.959c-8.173,0-12.261,0-20.434,0
					c0,9.154,0,13.731,0,22.885c-18.527,0-37.055-0.003-55.582,0c0-9.154,0-13.731,0-22.885c-12.288,0-24.576,0-36.864,0
					c-13.871,7.627-27.742,15.254-41.611,22.885c0,10.898,0,21.797,0,32.695c-50.138,18.516-100.27,37.051-150.405,55.574
					c-39.235,0-78.47,0-117.706,0c0,24.384,0,48.768,0,73.151c762.582,0,1525.163,0,2287.745,0c114.688,0,229.378,0,344.066,0
					c0-25.335,0-50.671,0-76.007C527.232,904.662,527.232,867.471,527.232,830.281z"/>
			</g>
		</g>
	</g>
</g>
<g>
	<circle fill="#FFFFFF" cx="259.169" cy="249.288" r="33.061"/>
	
		<rect x="98.765" y="221.177" transform="matrix(-1 5.164941e-05 -5.164941e-05 -1 311.6935 498.5808)" fill="#FFFFFF" width="114.15" height="56.235"/>
	
		<rect x="304.892" y="221.164" transform="matrix(-1 7.716020e-05 -7.716020e-05 -1 723.9557 498.5346)" fill="#FFFFFF" width="114.152" height="56.235"/>
	<rect x="391.373" y="251.514" fill="#D1D3D4" width="20.858" height="20.855"/>
	<rect x="391.372" y="226.187" fill="#D1D3D4" width="20.857" height="20.857"/>
	<rect x="364.716" y="251.515" fill="#D1D3D4" width="20.854" height="20.855"/>
	<rect x="364.715" y="226.189" fill="#D1D3D4" width="20.854" height="20.855"/>
	<rect x="338.057" y="251.517" fill="#D1D3D4" width="20.855" height="20.857"/>
	<rect x="338.055" y="226.19" fill="#D1D3D4" width="20.855" height="20.855"/>
	<rect x="311.397" y="251.518" fill="#D1D3D4" width="20.855" height="20.855"/>
	<rect x="311.396" y="226.191" fill="#D1D3D4" width="20.854" height="20.858"/>
	<rect x="185.401" y="251.526" fill="#D1D3D4" width="20.856" height="20.855"/>
	<rect x="185.4" y="226.201" fill="#D1D3D4" width="20.855" height="20.856"/>
	<rect x="158.741" y="251.528" fill="#D1D3D4" width="20.857" height="20.857"/>
	<rect x="158.742" y="226.202" fill="#D1D3D4" width="20.855" height="20.858"/>
	<rect x="132.082" y="251.529" fill="#D1D3D4" width="20.857" height="20.857"/>
	<rect x="132.082" y="226.205" fill="#D1D3D4" width="20.855" height="20.855"/>
	<rect x="105.423" y="251.532" fill="#D1D3D4" width="20.856" height="20.855"/>
	<rect x="105.421" y="226.208" fill="#D1D3D4" width="20.857" height="20.854"/>
</g>
<g>
	<polygon fill="#2E2119" points="102.285,1047.861 102.285,1031.166 113.787,1031.166 113.787,1033.691 105.898,1033.691 
		105.898,1037.938 112.523,1037.938 112.523,1040.316 105.898,1040.316 105.898,1045.314 114.127,1045.314 114.127,1047.861 	"/>
	<path fill="#2E2119" d="M124.351,1047.861v-7.375c0-1.24-0.194-2.137-1.698-2.137c-0.801,0-1.917,0.414-2.718,0.896v8.615h-3.495
		v-11.914h3.301l0.049,1.09l0.097,0.051c1.382-0.924,3.058-1.432,4.198-1.432c3.154,0,3.736,1.869,3.736,4.102v8.104H124.351z"/>
	<path fill="#2E2119" d="M135.715,1045.557c0.121-0.314,0.776-3.082,1.164-4.32c0.535-1.553,1.53-4.949,1.651-5.289h3.494
		c-0.874,2.451-3.227,9.486-4.101,11.914h-4.732c-0.85-2.428-3.229-9.463-4.078-11.914h3.642l1.722,5.531
		c0.268,0.85,0.826,3.252,1.117,4.078H135.715z"/>
	<path fill="#2E2119" d="M145.566,1034.49c-1.287,0-1.99-0.824-1.99-1.842c0-1.068,0.729-1.871,1.99-1.871
		c1.335,0,2.061,0.803,2.061,1.871C147.628,1033.666,146.901,1034.49,145.566,1034.49 M143.843,1035.947h3.47v11.914h-3.47V1035.947
		z"/>
	<path fill="#2E2119" d="M153.835,1038.059c1.309-1.287,3.203-2.428,4.538-2.428c0.486,0,0.678,0.293,0.678,0.803
		c0,0.896-0.581,2.717-1.09,3.422l-4.053-0.049v8.055h-3.471v-11.914h3.422c0,0.557-0.072,1.48-0.145,2.039L153.835,1038.059z"/>
	<path fill="#2E2119" d="M165.846,1048.105c-4.416,0-5.945-2.766-5.945-6.188c0-3.35,1.699-6.238,6.092-6.238
		c4.439,0,5.969,2.889,5.969,6.213S170.385,1048.105,165.846,1048.105 M165.992,1038.131c-1.99,0-2.525,1.916-2.525,3.787
		c0,2.109,0.412,3.736,2.525,3.736c1.965,0,2.378-1.773,2.378-3.736C168.37,1040.023,167.981,1038.131,165.992,1038.131"/>
	<path fill="#2E2119" d="M181.836,1047.861v-7.375c0-1.24-0.195-2.137-1.699-2.137c-0.801,0-1.918,0.414-2.719,0.896v8.615h-3.494
		v-11.914h3.3l0.049,1.09l0.097,0.051c1.383-0.924,3.059-1.432,4.199-1.432c3.154,0,3.736,1.869,3.736,4.102v8.104H181.836z"/>
	<path fill="#2E2119" d="M202.824,1047.861v-7.545c0-1.312-0.34-1.943-1.578-1.943c-0.752,0-1.867,0.365-2.547,0.826
		c0.072,0.51,0.098,1.117,0.098,1.553v7.109h-3.424c0-2.598-0.023-5.193-0.023-7.789c0-1.117-0.509-1.674-1.432-1.674
		c-0.801,0-1.795,0.365-2.621,0.871v8.592h-3.47v-11.914h3.253l0.071,1.188l0.097,0.049c1.36-1.02,2.985-1.504,4.125-1.504
		c1.36,0,2.284,0.484,2.889,1.553c1.165-0.896,3.033-1.553,4.296-1.553c3.179,0,3.761,1.967,3.761,4.197v7.984H202.824z"/>
	<path fill="#2E2119" d="M219.612,1041.457v1.236h-7.788c0,1.82,0.85,2.789,2.985,2.789c1.286,0,2.596-0.289,3.833-0.752
		l0.705,2.137c-1.578,0.873-3.398,1.188-5.049,1.188c-4.805,0-5.969-2.861-5.969-6.137c0-2.621,1.117-6.287,5.823-6.287
		C219.273,1035.631,219.612,1039.318,219.612,1041.457 M211.873,1040.557h4.586c-0.023-1.576-0.51-2.717-2.16-2.717
		C212.577,1037.84,211.994,1039.127,211.873,1040.557"/>
	<path fill="#2E2119" d="M229.78,1047.861v-7.375c0-1.24-0.194-2.137-1.699-2.137c-0.801,0-1.917,0.414-2.718,0.896v8.615h-3.494
		v-11.914h3.299l0.049,1.09l0.098,0.051c1.384-0.924,3.057-1.432,4.198-1.432c3.155,0,3.737,1.869,3.737,4.102v8.104H229.78z"/>
	<path fill="#2E2119" d="M240.019,1032.646v3.277h3.471v2.279h-3.471v5.389c0,1.26,0.364,1.842,1.602,1.842
		c0.437,0,1.189-0.119,2.062-0.314l0.436,2.258c-1.018,0.461-2.377,0.678-3.396,0.678c-3.324,0-4.125-1.648-4.125-3.541v-6.311
		h-1.675v-1.893l1.893-0.559c0.171-0.412,0.704-2.449,0.85-2.863L240.019,1032.646z"/>
	<path fill="#2E2119" d="M256.105,1045.557h1.554l0.169,1.939c-0.776,0.365-1.893,0.609-2.911,0.609
		c-1.044,0-1.796-0.244-1.919-1.434c0-0.023-0.022-0.023-0.048-0.049c-1.674,1.459-3.444,1.482-4.124,1.482
		c-2.961,0-3.689-2.086-3.689-3.471c0-2.477,1.918-3.689,4.418-3.834c0.921-0.072,2.329-0.121,3.25-0.195v-0.289
		c0-1.361-0.437-2.062-2.207-2.062c-1.165,0-2.67,0.24-3.785,0.604c-0.171-0.727-0.365-1.455-0.559-2.156
		c1.406-0.609,3.469-0.996,5.168-0.996c2.863,0,4.684,1.066,4.684,4.15V1045.557z M250.402,1042.717
		c-1.141,0.098-1.674,0.68-1.674,1.625c0,0.998,0.484,1.531,1.627,1.531c0.727,0,1.674-0.391,2.449-1.068v-2.283L250.402,1042.717z"
		/>
	<polygon fill="#2E2119" points="263.044,1047.861 259.598,1047.861 259.598,1030.486 263.068,1030.486 	"/>
	<path fill="#2E2119" d="M108.91,1068.57h-3.034l0.025,6.406h-3.616v-16.695h6.333c3.811,0,5.727,1.99,5.727,5.121
		C114.345,1065.805,112.842,1068.57,108.91,1068.57 M105.876,1060.805v5.316h2.353c1.287,0,2.476-0.68,2.476-2.645
		c0-1.896-1.116-2.672-2.596-2.672H105.876z"/>
	<path fill="#2E2119" d="M126.597,1068.57v1.238h-7.788c0,1.82,0.85,2.789,2.985,2.789c1.285,0,2.597-0.291,3.833-0.752l0.703,2.137
		c-1.578,0.873-3.396,1.189-5.047,1.189c-4.805,0-5.969-2.865-5.969-6.141c0-2.621,1.115-6.283,5.823-6.283
		C126.258,1062.748,126.597,1066.436,126.597,1068.57 M118.857,1067.674h4.586c-0.024-1.578-0.51-2.719-2.16-2.719
		C119.561,1064.955,118.978,1066.24,118.857,1067.674"/>
	<path fill="#2E2119" d="M132.25,1065.172c1.311-1.283,3.203-2.424,4.538-2.424c0.485,0,0.681,0.289,0.681,0.799
		c0,0.896-0.584,2.717-1.094,3.422l-4.051-0.049v8.057h-3.472v-11.914h3.423c0,0.557-0.073,1.479-0.146,2.037L132.25,1065.172z"/>
	<path fill="#2E2119" d="M140.475,1065.318H138.8v-1.893l1.7-0.486v-1.479c0-2.281,0.994-4.078,4.512-4.078
		c0.826,0,2.16,0.098,3.277,0.412l-0.412,2.354c-0.68-0.145-1.555-0.217-2.063-0.217c-1.237,0-1.942,0.412-1.942,1.578v1.527h3.424
		v2.281h-3.424c0,1.043-0.023,8.615-0.023,9.658h-3.373V1065.318z"/>
	<path fill="#2E2119" d="M154.257,1075.219c-4.416,0-5.945-2.766-5.945-6.188c0-3.35,1.698-6.234,6.091-6.234
		c4.441,0,5.969,2.885,5.969,6.209C160.371,1072.332,158.794,1075.219,154.257,1075.219 M154.402,1065.246
		c-1.99,0-2.523,1.918-2.523,3.785c0,2.111,0.412,3.736,2.523,3.736c1.966,0,2.379-1.77,2.379-3.736
		C156.781,1067.139,156.393,1065.246,154.402,1065.246"/>
	<path fill="#2E2119" d="M165.781,1065.172c1.311-1.283,3.204-2.424,4.539-2.424c0.486,0,0.678,0.289,0.678,0.799
		c0,0.896-0.582,2.717-1.09,3.422l-4.054-0.049v8.057h-3.47v-11.914h3.422c0,0.557-0.072,1.479-0.145,2.037L165.781,1065.172z"/>
	<path fill="#2E2119" d="M187.502,1074.977v-7.547c0-1.309-0.34-1.939-1.578-1.939c-0.752,0-1.867,0.363-2.547,0.822
		c0.072,0.51,0.098,1.117,0.098,1.553v7.111h-3.424c0-2.598-0.023-5.193-0.023-7.791c0-1.113-0.509-1.674-1.432-1.674
		c-0.801,0-1.795,0.365-2.62,0.875v8.59h-3.47v-11.914h3.25l0.073,1.189l0.097,0.049c1.36-1.021,2.985-1.504,4.125-1.504
		c1.36,0,2.283,0.482,2.889,1.553c1.165-0.9,3.033-1.553,4.296-1.553c3.179,0,3.761,1.965,3.761,4.197v7.982H187.502z"/>
	<path fill="#2E2119" d="M203.879,1072.672h1.553l0.17,1.941c-0.775,0.363-1.893,0.605-2.912,0.605
		c-1.045,0-1.797-0.242-1.917-1.432c0-0.021-0.025-0.021-0.049-0.047c-1.675,1.455-3.446,1.479-4.125,1.479
		c-2.961,0-3.688-2.086-3.688-3.471c0-2.473,1.916-3.688,4.416-3.834c0.924-0.072,2.33-0.119,3.252-0.191v-0.293
		c0-1.357-0.438-2.062-2.209-2.062c-1.164,0-2.668,0.242-3.785,0.607c-0.17-0.729-0.363-1.455-0.559-2.162
		c1.408-0.604,3.471-0.992,5.17-0.992c2.863,0,4.684,1.068,4.684,4.148V1072.672z M198.176,1069.83
		c-1.141,0.1-1.674,0.682-1.674,1.629c0,0.994,0.484,1.527,1.625,1.527c0.729,0,1.674-0.389,2.451-1.066v-2.281L198.176,1069.83z"/>
	<path fill="#2E2119" d="M215.308,1074.977v-7.377c0-1.238-0.194-2.135-1.699-2.135c-0.801,0-1.917,0.412-2.718,0.896v8.615h-3.494
		v-11.914h3.299l0.049,1.092l0.098,0.049c1.383-0.924,3.057-1.434,4.198-1.434c3.155,0,3.737,1.869,3.737,4.102v8.105H215.308z"/>
	<path fill="#2E2119" d="M227.171,1072.525c1.115,0,2.136-0.242,3.204-0.605l0.654,2.305c-1.189,0.605-2.862,0.947-4.488,0.947
		c-4.562,0-5.752-2.719-5.752-6.02c0-2.814,1.067-6.355,5.896-6.355c1.02,0,2.354,0.094,3.714,0.582
		c-0.171,0.799-0.34,1.6-0.534,2.426c-1.02-0.293-1.893-0.34-2.596-0.34c-1.942,0-2.961,1.334-2.961,3.541
		C224.309,1071.191,225.012,1072.525,227.171,1072.525"/>
	<path fill="#2E2119" d="M243.529,1068.57v1.238h-7.788c0,1.82,0.849,2.789,2.984,2.789c1.285,0,2.597-0.291,3.833-0.752
		l0.705,2.137c-1.578,0.873-3.398,1.189-5.049,1.189c-4.803,0-5.969-2.865-5.969-6.141c0-2.621,1.117-6.283,5.824-6.283
		C243.189,1062.748,243.529,1066.436,243.529,1068.57 M235.789,1067.674h4.587c-0.024-1.578-0.511-2.719-2.161-2.719
		C236.493,1064.955,235.91,1066.24,235.789,1067.674"/>
	<rect x="102.504" y="1085.395" fill="#2E2119" width="3.541" height="16.697"/>
	<path fill="#2E2119" d="M117.111,1102.092v-7.379c0-1.238-0.195-2.135-1.699-2.135c-0.801,0-1.917,0.412-2.718,0.896v8.617h-3.495
		v-11.916h3.301l0.049,1.092l0.097,0.051c1.383-0.924,3.058-1.434,4.198-1.434c3.154,0,3.738,1.867,3.738,4.1v8.107H117.111z"/>
	<path fill="#2E2119" d="M131.086,1090.639v-5.898h3.471v17.352h-3.229l-0.072-1.068c-0.025-0.023-0.047-0.049-0.072-0.049
		c-1.164,0.945-2.645,1.285-3.664,1.285c-3.714,0-4.732-2.717-4.732-5.871c0-3.689,1.358-6.504,5.145-6.504
		C128.709,1089.885,130.092,1090.053,131.086,1090.639 M131.086,1093.062c-0.559-0.338-1.625-0.654-2.402-0.654
		c-1.188,0-2.402,0.703-2.402,3.955c0,2.816,1.043,3.471,2.353,3.471c0.704,0,1.893-0.484,2.451-0.896V1093.062z"/>
	<path fill="#2E2119" d="M147.658,1095.684v1.238h-7.79c0,1.82,0.852,2.791,2.985,2.791c1.287,0,2.597-0.291,3.835-0.754
		l0.703,2.137c-1.577,0.873-3.398,1.189-5.049,1.189c-4.804,0-5.968-2.863-5.968-6.139c0-2.623,1.115-6.285,5.824-6.285
		C147.318,1089.861,147.658,1093.549,147.658,1095.684 M139.917,1094.787h4.587c-0.023-1.578-0.51-2.719-2.161-2.719
		C140.621,1092.068,140.039,1093.354,139.917,1094.787"/>
	<polygon fill="#2E2119" points="154.961,1097.672 152.436,1102.092 148.725,1102.092 152.825,1095.879 149.04,1090.176 
		152.85,1090.176 155.01,1094.203 157.193,1090.176 160.906,1090.176 157.047,1095.854 161.101,1102.092 157.314,1102.092 	"/>
	<path fill="#F4C61B" d="M72.341,1094.697c-1.936,0-3.503-1.566-3.503-3.5c0-1.936,1.567-3.504,3.503-3.504
		c1.933,0,3.503,1.568,3.503,3.504C75.844,1093.131,74.273,1094.697,72.341,1094.697"/>
	<path fill="#F4C61B" d="M75.616,1085.678c-1.356,0-2.456-1.1-2.456-2.457s1.1-2.455,2.456-2.455c1.356,0,2.454,1.098,2.454,2.455
		S76.973,1085.678,75.616,1085.678"/>
	<path fill="#F4C61B" d="M78.072,1078.93c-0.933,0-1.69-0.756-1.69-1.688c0-0.934,0.757-1.689,1.69-1.689
		c0.934,0,1.688,0.756,1.688,1.689C79.761,1078.174,79.006,1078.93,78.072,1078.93"/>
	<path fill="#F4C61B" d="M79.71,1074.475c-0.673,0-1.22-0.545-1.22-1.221c0-0.674,0.547-1.219,1.22-1.219
		c0.673,0,1.22,0.545,1.22,1.219C80.93,1073.93,80.383,1074.475,79.71,1074.475"/>
	<path fill="#7E90C8" d="M57.795,1080.184c-1.934,0-3.502-1.57-3.502-3.504c0-1.932,1.567-3.498,3.502-3.498
		c1.934,0,3.502,1.566,3.502,3.498C61.297,1078.613,59.729,1080.184,57.795,1080.184"/>
	<path fill="#7E90C8" d="M65.738,1075.789c-1.355,0-2.451-1.1-2.451-2.455c0-1.352,1.096-2.451,2.451-2.451
		c1.354,0,2.453,1.1,2.453,2.451C68.191,1074.689,67.093,1075.789,65.738,1075.789"/>
	<path fill="#7E90C8" d="M71.697,1072.508c-0.932,0-1.684-0.752-1.684-1.682s0.752-1.686,1.684-1.686
		c0.93,0,1.684,0.756,1.684,1.686S72.627,1072.508,71.697,1072.508"/>
	<path fill="#7E90C8" d="M75.668,1070.363c-0.668,0-1.211-0.541-1.211-1.211s0.543-1.213,1.211-1.213
		c0.672,0,1.214,0.543,1.214,1.213S76.34,1070.363,75.668,1070.363"/>
	<path fill="#0F9ACC" d="M57.769,1059.637c-1.933,0-3.501-1.566-3.501-3.504c0-1.932,1.568-3.498,3.501-3.498
		c1.934,0,3.503,1.566,3.503,3.498C61.271,1058.07,59.703,1059.637,57.769,1059.637"/>
	<path fill="#0F9ACC" d="M65.753,1061.832c-1.351,0-2.448-1.094-2.448-2.447c0-1.352,1.098-2.449,2.448-2.449
		c1.352,0,2.448,1.098,2.448,2.449C68.201,1060.738,67.104,1061.832,65.753,1061.832"/>
	<path fill="#0F9ACC" d="M71.74,1063.498c-0.924,0-1.676-0.75-1.676-1.676c0-0.928,0.752-1.678,1.676-1.678
		c0.928,0,1.678,0.75,1.678,1.678C73.418,1062.748,72.668,1063.498,71.74,1063.498"/>
	<path fill="#0F9ACC" d="M75.734,1064.65c-0.666,0-1.205-0.541-1.205-1.205c0-0.662,0.539-1.203,1.205-1.203
		c0.664,0,1.203,0.541,1.203,1.203C76.938,1064.109,76.398,1064.65,75.734,1064.65"/>
	<path fill="#3FBBA3" d="M72.281,1045.092c-1.934,0-3.504-1.57-3.504-3.504c0-1.936,1.57-3.502,3.504-3.502
		c1.933,0,3.502,1.566,3.502,3.502C75.783,1043.521,74.214,1045.092,72.281,1045.092"/>
	<path fill="#3FBBA3" d="M75.605,1051.984c-1.35,0-2.444-1.092-2.444-2.443c0-1.35,1.095-2.445,2.444-2.445s2.445,1.096,2.445,2.445
		C78.051,1050.893,76.955,1051.984,75.605,1051.984"/>
	<path fill="#3FBBA3" d="M78.1,1057.178c-0.924,0-1.674-0.748-1.674-1.672s0.75-1.672,1.674-1.672c0.922,0,1.67,0.748,1.67,1.672
		S79.021,1057.178,78.1,1057.178"/>
	<path fill="#3FBBA3" d="M79.761,1060.68c-0.661,0-1.196-0.535-1.196-1.195s0.535-1.197,1.196-1.197
		c0.661,0,1.196,0.537,1.196,1.197S80.422,1060.68,79.761,1060.68"/>
	<path fill="#F89624" d="M82.66,1114.391c-2.389,0-4.326-1.936-4.326-4.326c0-2.389,1.938-4.324,4.326-4.324
		c2.389,0,4.326,1.936,4.326,4.324C86.986,1112.455,85.049,1114.391,82.66,1114.391"/>
	<path fill="#F89624" d="M82.626,1102.068c-1.833,0-3.318-1.486-3.318-3.318c0-1.83,1.485-3.318,3.318-3.318
		s3.317,1.488,3.317,3.318C85.943,1100.582,84.459,1102.068,82.626,1102.068"/>
	<path fill="#F89624" d="M82.6,1092.684c-1.408,0-2.551-1.145-2.551-2.553c0-1.406,1.143-2.551,2.551-2.551
		c1.408,0,2.551,1.145,2.551,2.551C85.15,1091.539,84.008,1092.684,82.6,1092.684"/>
	<path fill="#F89624" d="M82.575,1083.932c-1.041,0-1.882-0.844-1.882-1.881c0-1.039,0.841-1.885,1.882-1.885
		c1.038,0,1.882,0.846,1.882,1.885C84.457,1083.088,83.613,1083.932,82.575,1083.932"/>
	<path fill="#F36F2D" d="M51.808,1101.652c-2.39,0-4.325-1.938-4.325-4.326c0-2.391,1.936-4.326,4.325-4.326
		c2.39,0,4.325,1.936,4.325,4.326C56.133,1099.715,54.197,1101.652,51.808,1101.652"/>
	<path fill="#F36F2D" d="M59.749,1092.582c-1.831,0-3.315-1.482-3.315-3.316c0-1.83,1.484-3.312,3.315-3.312
		c1.83,0,3.313,1.482,3.313,3.312C63.062,1091.1,61.579,1092.582,59.749,1092.582"/>
	<path fill="#F36F2D" d="M65.799,1085.672c-1.406,0-2.545-1.137-2.545-2.545c0-1.406,1.139-2.545,2.545-2.545
		c1.405,0,2.545,1.139,2.545,2.545C68.344,1084.535,67.204,1085.672,65.799,1085.672"/>
	<path fill="#F36F2D" d="M71.472,1079.244c-1.036,0-1.876-0.836-1.876-1.873c0-1.035,0.84-1.875,1.876-1.875
		c1.036,0,1.876,0.84,1.876,1.875C73.348,1078.408,72.508,1079.244,71.472,1079.244"/>
	<path fill="#3676BA" d="M38.996,1070.83c-2.39,0-4.326-1.938-4.326-4.328c0-2.387,1.937-4.326,4.326-4.326
		c2.389,0,4.325,1.939,4.325,4.326C43.321,1068.893,41.385,1070.83,38.996,1070.83"/>
	<path fill="#3676BA" d="M50.309,1069.725c-1.828,0-3.31-1.482-3.31-3.311s1.481-3.311,3.31-3.311c1.828,0,3.31,1.482,3.31,3.311
		S52.137,1069.725,50.309,1069.725"/>
	<path fill="#3676BA" d="M58.929,1068.881c-1.4,0-2.536-1.137-2.536-2.533c0-1.402,1.136-2.537,2.536-2.537
		c1.4,0,2.534,1.135,2.534,2.537C61.463,1067.744,60.329,1068.881,58.929,1068.881"/>
	<path fill="#3676BA" d="M67.01,1068.145c-1.029,0-1.863-0.832-1.863-1.863c0-1.027,0.834-1.863,1.863-1.863
		c1.029,0,1.862,0.836,1.862,1.863C68.872,1067.312,68.039,1068.145,67.01,1068.145"/>
	<path fill="#068D8C" d="M51.734,1039.979c-2.389,0-4.326-1.939-4.326-4.326c0-2.391,1.938-4.328,4.326-4.328
		c2.389,0,4.326,1.938,4.326,4.328C56.061,1038.039,54.123,1039.979,51.734,1039.979"/>
	<path fill="#068D8C" d="M59.77,1046.92c-1.825,0-3.305-1.479-3.305-3.305c0-1.824,1.479-3.305,3.305-3.305
		c1.826,0,3.307,1.48,3.307,3.305C63.076,1045.441,61.596,1046.92,59.77,1046.92"/>
	<path fill="#068D8C" d="M65.893,1052.213c-1.396,0-2.527-1.131-2.527-2.527s1.132-2.529,2.527-2.529
		c1.396,0,2.527,1.133,2.527,2.529S67.289,1052.213,65.893,1052.213"/>
	<path fill="#068D8C" d="M71.632,1057.227c-1.022,0-1.853-0.83-1.853-1.852c0-1.025,0.83-1.854,1.853-1.854
		c1.023,0,1.853,0.828,1.853,1.854C73.484,1056.396,72.655,1057.227,71.632,1057.227"/>
	<path fill="#2CB35F" d="M82.557,1027.166c-2.391,0-4.326-1.936-4.326-4.326c0-2.387,1.936-4.326,4.326-4.326
		c2.39,0,4.325,1.939,4.325,4.326C86.882,1025.23,84.946,1027.166,82.557,1027.166"/>
	<path fill="#2CB35F" d="M82.544,1037.457c-1.825,0-3.305-1.479-3.305-3.303s1.479-3.305,3.305-3.305
		c1.825,0,3.304,1.48,3.304,3.305S84.369,1037.457,82.544,1037.457"/>
	<path fill="#2CB35F" d="M82.533,1045.299c-1.395,0-2.524-1.129-2.524-2.523s1.13-2.527,2.524-2.527
		c1.396,0,2.526,1.133,2.526,2.527S83.929,1045.299,82.533,1045.299"/>
	<path fill="#2CB35F" d="M82.525,1052.707c-1.023,0-1.852-0.83-1.852-1.852s0.828-1.852,1.852-1.852c1.021,0,1.851,0.83,1.851,1.852
		S83.547,1052.707,82.525,1052.707"/>
</g>
<rect x="-1.415" y="975.059" fill="#C85B22" width="1600" height="10"/>
<polygon fill="#FFFFFF" points="668.251,931.726 668.251,890.059 644.585,866.393 644.585,917.726 604.585,917.726 604.585,907.726 
	569.918,907.726 569.918,830.281 525.918,830.281 525.918,975.059 723.251,975.059 723.251,931.726 "/>
<g>
	<g>
		<path fill-rule="evenodd" clip-rule="evenodd" fill="#8D3D0C" d="M534.382,932.41c-0.607,0-1.055,0-1.644,0c0,0.43,0,0.83,0,1.23
			c0,12.089,0.005,24.181-0.002,36.271c0,3.777-3.093,6.143-6.617,5.086c-2.044-0.617-3.314-2.417-3.314-4.725
			c0-15.073,0-30.141,0-45.214c0-6.303,0-12.612,0-18.915c0-0.371,0-0.747,0-1.161c-0.584,0-1.061,0-1.709,0
			c0,0.391,0,0.781,0,1.178c0,7.416,0.005,14.827-0.005,22.242c-0.005,2.684-1.583,4.309-4.023,4.183
			c-1.89-0.095-3.403-1.622-3.403-3.499c-0.015-9.078-0.038-18.153,0.002-27.227c0.019-4.652,4.191-9.318,8.852-9.995
			c0.95-0.147,1.926-0.209,2.893-0.209c5.508-0.027,11.015-0.029,16.523-0.012c5.881,0.022,10.203,3.591,11.309,9.369
			c0.167,0.876,0.167,1.792,0.167,2.69c0.015,8.07,0.011,16.14,0,24.214c0,0.656,0.011,1.328-0.136,1.955
			c-0.427,1.857-2.051,2.903-4.078,2.714c-1.698-0.151-2.969-1.507-3.109-3.323c-0.036-0.447-0.058-0.899-0.058-1.346
			c-0.003-7.211-0.003-14.415-0.003-21.621c0-0.41,0-0.818,0-1.288c-0.561,0-1.028,0-1.646,0c0,0.421,0,0.858,0,1.297
			c0,21.134,0,42.264,0,63.401c0,2.922-1.206,4.688-3.626,5.346c-3.258,0.877-6.22-1.273-6.367-4.625
			c-0.014-0.343-0.005-0.692-0.005-1.035c0-11.886,0-23.766,0-35.65C534.382,933.329,534.382,932.917,534.382,932.41z"/>
		<path fill-rule="evenodd" clip-rule="evenodd" fill="#8D3D0C" d="M533.176,889.82c-4.686,0.007-8.499-3.732-8.502-8.344
			c-0.007-4.854,3.804-8.74,8.502-8.682c4.685,0.055,8.509,3.885,8.521,8.533C541.701,885.975,537.847,889.813,533.176,889.82z"/>
	</g>
</g>
<g>
	<g>
		<path fill-rule="evenodd" clip-rule="evenodd" fill="#8D3D0C" d="M180.349,932.41c-0.607,0-1.055,0-1.645,0c0,0.43,0,0.83,0,1.23
			c0,12.089,0.005,24.181-0.002,36.271c0,3.777-3.093,6.143-6.617,5.086c-2.044-0.617-3.314-2.417-3.314-4.725
			c0-15.073,0-30.141,0-45.214c0-6.303,0-12.612,0-18.915c0-0.371,0-0.747,0-1.161c-0.584,0-1.061,0-1.709,0
			c0,0.391,0,0.781,0,1.178c0,7.416,0.005,14.827-0.005,22.242c-0.005,2.684-1.583,4.309-4.023,4.183
			c-1.89-0.095-3.403-1.622-3.403-3.499c-0.015-9.078-0.038-18.153,0.002-27.227c0.02-4.652,4.191-9.318,8.852-9.995
			c0.95-0.147,1.926-0.209,2.893-0.209c5.508-0.027,11.015-0.029,16.523-0.012c5.881,0.022,10.203,3.591,11.309,9.369
			c0.167,0.876,0.167,1.792,0.167,2.69c0.015,8.07,0.011,16.14,0,24.214c0,0.656,0.011,1.328-0.136,1.955
			c-0.427,1.857-2.051,2.903-4.078,2.714c-1.698-0.151-2.969-1.507-3.109-3.323c-0.036-0.447-0.058-0.899-0.058-1.346
			c-0.003-7.211-0.003-14.415-0.003-21.621c0-0.41,0-0.818,0-1.288c-0.561,0-1.028,0-1.646,0c0,0.421,0,0.858,0,1.297
			c0,21.134,0,42.264,0,63.401c0,2.922-1.206,4.688-3.626,5.346c-3.258,0.877-6.22-1.273-6.367-4.625
			c-0.014-0.343-0.005-0.692-0.005-1.035c0-11.886,0-23.766,0-35.65C180.349,933.329,180.349,932.917,180.349,932.41z"/>
		<path fill-rule="evenodd" clip-rule="evenodd" fill="#8D3D0C" d="M179.143,889.82c-4.686,0.007-8.499-3.732-8.502-8.344
			c-0.007-4.854,3.804-8.74,8.502-8.682c4.685,0.055,8.509,3.885,8.521,8.533C187.668,885.975,183.814,889.813,179.143,889.82z"/>
	</g>
</g>
<g>
	<path fill="#8D3D0C" d="M577.617,644.971c3.76-8.023,13.31-11.476,21.331-7.717c8.021,3.76,11.477,13.31,7.717,21.331
		c-3.759,8.022-13.309,11.477-21.331,7.718C577.312,662.543,573.857,652.992,577.617,644.971"/>
	<circle fill="#8D3D0C" cx="725.978" cy="668.45" r="16.04"/>
	<circle fill="#8D3D0C" cx="717.955" cy="778.136" r="16.04"/>
	<circle fill="#8D3D0C" cx="641.719" cy="724.104" r="8.02"/>
	<circle fill="#8D3D0C" cx="570.71" cy="710.675" r="8.02"/>
	<circle fill="#8D3D0C" cx="661.556" cy="592.776" r="8.02"/>
</g>
<g>
	<path fill="#8D3D0C" d="M587.089,574.017c6.6-5.91,7.158-16.051,1.25-22.65c-5.908-6.599-16.049-7.16-22.648-1.25
		c-6.602,5.908-7.16,16.049-1.252,22.649C570.347,579.365,580.488,579.926,587.089,574.017"/>
	<circle fill="#8D3D0C" cx="273.357" cy="412.052" r="16.04"/>
	<circle fill="#8D3D0C" cx="129.342" cy="589.07" r="16.04"/>
	<circle fill="#8D3D0C" cx="368.788" cy="449.045" r="16.041"/>
	<circle fill="#8D3D0C" cx="114.343" cy="469.058" r="8.02"/>
	<circle fill="#8D3D0C" cx="51.31" cy="559.718" r="8.02"/>
	<circle fill="#8D3D0C" cx="475.774" cy="570.643" r="8.02"/>
	<circle fill="#8D3D0C" cx="420.372" cy="514.062" r="8.02"/>
	<circle fill="#8D3D0C" cx="447.375" cy="414.053" r="8.02"/>
	<circle fill="#8D3D0C" cx="516.382" cy="511.061" r="8.02"/>
</g>
<line fill="none" stroke="#2BC0D2" stroke-width="2" stroke-miterlimit="10" x1="457.585" y1="249.059" x2="1325.585" y2="249.059"/>
<circle fill="#2BC0D2" cx="457.585" cy="249.059" r="5.332"/>
<line fill="none" stroke="#2BC0D2" stroke-width="2" stroke-miterlimit="10" x1="502.085" y1="414.051" x2="1325.585" y2="414.051"/>
<circle fill="#2BC0D2" cx="500.085" cy="414.051" r="5.332"/>
<polyline fill="none" stroke="#2BC0D2" stroke-width="2" stroke-miterlimit="10" points="1325.585,579.043 797.085,579.043 
	798.085,805.059 533.585,805.059 533.585,850.039 "/>
<circle fill="#2BC0D2" cx="566.919" cy="925.726" r="5.332"/>
<polyline fill="none" stroke="#2BC0D2" stroke-width="2" stroke-miterlimit="10" points="1325.585,744.035 803.585,744.035 
	803.585,925.726 566.919,925.726 "/>
<circle fill="#2BC0D2" cx="178.704" cy="850.039" r="5.332"/>
<circle fill="#2BC0D2" cx="533.176" cy="850.039" r="5.332"/>
<polyline fill="none" stroke="#2BC0D2" stroke-width="2" stroke-miterlimit="10" points="533.585,805.059 178.585,805.059 
	178.585,850.039 "/>
<rect x="902.168" y="257.57" fill="#8D3D0C" width="644.968" height="110.994"/>
<rect x="902.168" y="422.57" fill="#8D3D0C" width="644.968" height="110.994"/>
<rect x="902.168" y="587.562" fill="#8D3D0C" width="644.968" height="110.994"/>
<rect x="902.168" y="754.055" fill="#8D3D0C" width="644.968" height="110.994"/>
<g>
	<rect x="833.585" y="226.059" fill="none" width="490" height="14"/>
	<text transform="matrix(1 0 0 1 833.585 239)" fill="#2BC0D2" font-family="'Helvetica'" font-size="18">RECOMMENDATION 1 - WORDS WORDS WORDS</text>
</g>
<g>
	<rect x="833.585" y="393.059" fill="none" width="490" height="14"/>
	<text transform="matrix(1 0 0 1 833.585 406)" fill="#2BC0D2" font-family="'Helvetica'" font-size="18">RECOMMENDATION 1 - WORDS WORDS WORDS</text>
</g>
<g>
	<rect x="833.585" y="558.059" fill="none" width="490" height="14"/>
	<text transform="matrix(1 0 0 1 833.585 571)" fill="#2BC0D2" font-family="'Helvetica'" font-size="18">RECOMMENDATION 1 - WORDS WORDS WORDS</text>
</g>
<g>
	<rect x="833.585" y="723.059" fill="none" width="490" height="14"/>
	<text transform="matrix(1 0 0 1 833.585 736)" fill="#2BC0D2" font-family="'Helvetica'" font-size="18">RECOMMENDATION 1 - WORDS WORDS WORDS</text>
</g>
<rect x="919.585" y="269.059" fill="none" width="606" height="86"/>
<text transform="matrix(1 0 0 1 919.585 277.6865)"><tspan x="0" y="0" fill="#FFFFFF" font-family="'Helvetica'" font-size="12">WORD WORDS WORDS WORDS WORDS WORDS WORDS WORDS WORD WORDS WORDS WORDS </tspan><tspan x="0" y="14.4" fill="#FFFFFF" font-family="'Helvetica'" font-size="12">WORDS WORDS WORDS WORDS WORD WORDS WORDS WORDS WORDS WORDS WORDS WORDS </tspan><tspan x="0" y="28.8" fill="#FFFFFF" font-family="'Helvetica'" font-size="12">WORD WORDS WORDS WORDS WORDS WORDS WORDS WORDS WORD WORDS WORDS WORDS </tspan><tspan x="0" y="43.2" fill="#FFFFFF" font-family="'Helvetica'" font-size="12">WORDS WORDS WORDS WORDS WORD WORDS WORDS WORDS WORDS WORDS WORDS WORDS </tspan><tspan x="0" y="57.6" fill="#FFFFFF" font-family="'Helvetica'" font-size="12">WORD WORDS WORDS WORDS WORDS WORDS WORDS WORDS</tspan></text>
<rect x="919.585" y="434.059" fill="none" width="606" height="86"/>
<text transform="matrix(1 0 0 1 919.585 442.6865)"><tspan x="0" y="0" fill="#FFFFFF" font-family="'Helvetica'" font-size="12">WORD WORDS WORDS WORDS WORDS WORDS WORDS WORDS WORD WORDS WORDS WORDS </tspan><tspan x="0" y="14.4" fill="#FFFFFF" font-family="'Helvetica'" font-size="12">WORDS WORDS WORDS WORDS WORD WORDS WORDS WORDS WORDS WORDS WORDS WORDS </tspan><tspan x="0" y="28.8" fill="#FFFFFF" font-family="'Helvetica'" font-size="12">WORD WORDS WORDS WORDS WORDS WORDS WORDS WORDS WORD WORDS WORDS WORDS </tspan><tspan x="0" y="43.2" fill="#FFFFFF" font-family="'Helvetica'" font-size="12">WORDS WORDS WORDS WORDS WORD WORDS WORDS WORDS WORDS WORDS WORDS WORDS </tspan><tspan x="0" y="57.6" fill="#FFFFFF" font-family="'Helvetica'" font-size="12">WORD WORDS WORDS WORDS WORDS WORDS WORDS WORDS</tspan></text>
<rect x="919.585" y="600.059" fill="none" width="606" height="86"/>
<text transform="matrix(1 0 0 1 919.585 608.6865)"><tspan x="0" y="0" fill="#FFFFFF" font-family="'Helvetica'" font-size="12">WORD WORDS WORDS WORDS WORDS WORDS WORDS WORDS WORD WORDS WORDS WORDS </tspan><tspan x="0" y="14.4" fill="#FFFFFF" font-family="'Helvetica'" font-size="12">WORDS WORDS WORDS WORDS WORD WORDS WORDS WORDS WORDS WORDS WORDS WORDS </tspan><tspan x="0" y="28.8" fill="#FFFFFF" font-family="'Helvetica'" font-size="12">WORD WORDS WORDS WORDS WORDS WORDS WORDS WORDS WORD WORDS WORDS WORDS </tspan><tspan x="0" y="43.2" fill="#FFFFFF" font-family="'Helvetica'" font-size="12">WORDS WORDS WORDS WORDS WORD WORDS WORDS WORDS WORDS WORDS WORDS WORDS </tspan><tspan x="0" y="57.6" fill="#FFFFFF" font-family="'Helvetica'" font-size="12">WORD WORDS WORDS WORDS WORDS WORDS WORDS WORDS</tspan></text>
<rect x="919.585" y="764.059" fill="none" width="606" height="86"/>
<text transform="matrix(1 0 0 1 919.585 772.6865)"><tspan x="0" y="0" fill="#FFFFFF" font-family="'Helvetica'" font-size="12">WORD WORDS WORDS WORDS WORDS WORDS WORDS WORDS WORD WORDS WORDS WORDS </tspan><tspan x="0" y="14.4" fill="#FFFFFF" font-family="'Helvetica'" font-size="12">WORDS WORDS WORDS WORDS WORD WORDS WORDS WORDS WORDS WORDS WORDS WORDS </tspan><tspan x="0" y="28.8" fill="#FFFFFF" font-family="'Helvetica'" font-size="12">WORD WORDS WORDS WORDS WORDS WORDS WORDS WORDS WORD WORDS WORDS WORDS </tspan><tspan x="0" y="43.2" fill="#FFFFFF" font-family="'Helvetica'" font-size="12">WORDS WORDS WORDS WORDS WORD WORDS WORDS WORDS WORDS WORDS WORDS WORDS </tspan><tspan x="0" y="57.6" fill="#FFFFFF" font-family="'Helvetica'" font-size="12">WORD WORDS WORDS WORDS WORDS WORDS WORDS WORDS</tspan></text>
</svg>
