<?xml version="1.0" encoding="utf-8"?>
<!-- Generator: Adobe Illustrator 18.0.0, SVG Export Plug-In . SVG Version: 6.00 Build 0)  -->
<!DOCTYPE svg PUBLIC "-//W3C//DTD SVG 1.1//EN" "http://www.w3.org/Graphics/SVG/1.1/DTD/svg11.dtd">
<svg version="1.1" id="Layer_1" xmlns="http://www.w3.org/2000/svg" xmlns:xlink="http://www.w3.org/1999/xlink" x="0px" y="0px"
	 viewBox="0 0 1600 1150" enable-background="new 0 0 1600 1150" xml:space="preserve">
<g>
	<g>
		<path fill="#F5C714" d="M789.581,325.224c1.92,0,3.649,0.31,5.19,0.93c1.54,0.621,2.859,1.47,3.96,2.55
			c1.1,1.08,1.94,2.331,2.521,3.75c0.579,1.42,0.87,2.95,0.87,4.59c0,2.52-0.532,4.701-1.59,6.54c-1.06,1.84-2.79,3.24-5.19,4.2
			v0.12c1.16,0.321,2.12,0.81,2.88,1.47c0.76,0.66,1.38,1.44,1.86,2.34c0.479,0.9,0.829,1.89,1.05,2.97
			c0.22,1.08,0.369,2.16,0.45,3.24c0.039,0.681,0.079,1.48,0.12,2.4c0.038,0.921,0.109,1.86,0.21,2.82
			c0.099,0.96,0.26,1.87,0.479,2.73c0.221,0.86,0.551,1.59,0.991,2.19h-9.42c-0.52-1.359-0.84-2.979-0.96-4.86
			c-0.12-1.88-0.3-3.68-0.54-5.4c-0.32-2.24-1-3.879-2.04-4.92c-1.041-1.039-2.74-1.56-5.1-1.56h-9.42v16.74h-9.42v-42.84H789.581z
			 M786.221,344.603c2.16,0,3.78-0.48,4.86-1.44c1.08-0.96,1.62-2.52,1.62-4.68c0-2.079-0.54-3.59-1.62-4.53
			c-1.08-0.939-2.7-1.41-4.86-1.41h-10.319v12.06H786.221z"/>
		<path fill="#F5C714" d="M841.84,325.224v7.92h-22.62v9.18h20.761v7.32H819.22v10.5h23.101v7.92H809.8v-42.84H841.84z"/>
		<path fill="#F5C714" d="M870.04,325.224l16.02,42.84h-9.779l-3.24-9.54h-16.019l-3.36,9.54h-9.48l16.2-42.84H870.04z
			 M870.58,351.503l-5.4-15.72h-0.12l-5.579,15.72H870.58z"/>
		<path fill="#F5C714" d="M917.26,336.653c-0.56-0.9-1.26-1.689-2.101-2.37c-0.84-0.68-1.79-1.21-2.85-1.59
			c-1.06-0.379-2.17-0.57-3.33-0.57c-2.12,0-3.922,0.411-5.399,1.23c-1.48,0.82-2.681,1.92-3.601,3.3
			c-0.922,1.38-1.59,2.951-2.01,4.71c-0.42,1.761-0.63,3.58-0.63,5.46c0,1.8,0.21,3.551,0.63,5.25c0.42,1.701,1.088,3.231,2.01,4.59
			c0.92,1.36,2.12,2.451,3.601,3.27c1.478,0.82,3.279,1.23,5.399,1.23c2.88,0,5.13-0.879,6.75-2.64c1.62-1.76,2.61-4.08,2.97-6.96
			h9.12c-0.239,2.68-0.861,5.1-1.859,7.26c-1.002,2.16-2.32,4-3.96,5.52c-1.641,1.521-3.562,2.681-5.761,3.48
			c-2.2,0.8-4.619,1.2-7.26,1.2c-3.28,0-6.23-0.57-8.85-1.71c-2.62-1.14-4.83-2.71-6.63-4.71c-1.801-1.999-3.181-4.35-4.141-7.05
			c-0.96-2.7-1.439-5.61-1.439-8.73c0-3.199,0.479-6.169,1.439-8.91c0.96-2.739,2.34-5.13,4.141-7.17c1.8-2.04,4.01-3.64,6.63-4.8
			c2.619-1.16,5.569-1.74,8.85-1.74c2.359,0,4.59,0.34,6.69,1.02c2.1,0.681,3.979,1.67,5.64,2.97c1.659,1.3,3.03,2.91,4.11,4.83
			c1.08,1.92,1.76,4.12,2.04,6.6h-9.12C918.18,338.543,917.819,337.554,917.26,336.653z"/>
		<path fill="#F5C714" d="M930.88,333.144v-7.92h35.1v7.92h-12.84v34.92h-9.42v-34.92H930.88z"/>
	</g>
</g>
<rect x="-1.71" y="-0.71" fill="#C85B22" width="1599.5" height="981.796"/>
<g>
	<g>
		<path fill="#2BC0D2" d="M712.188,700.232h12.85c11.268,0,15.461,13.924,15.461,13.924h-28.311V700.232z"/>
		<path fill="#2BC0D2" d="M701.994,700.232h7.305v13.924h-22.745C686.554,714.156,690.725,700.232,701.994,700.232"/>
		<path fill="#2BC0D2" d="M673.14,739.54c-1.203,0.171-2.134,1.144-2.134,2.384c0,1.359,1.103,2.468,2.461,2.468h2.276
			c0.191,0,0.379-0.073,0.549-0.122c1.567,1.236,3.536,2.01,5.695,2.01h2.441c-0.432-1.19-0.68-2.452-0.68-3.791
			c0-6.117,4.963-11.084,11.082-11.084c6.109,0,11.076,4.967,11.076,11.084c0,1.339-0.25,2.601-0.682,3.791h20.948
			c-0.433-1.19-0.68-2.452-0.68-3.791c0-6.117,4.951-11.084,11.077-11.084c6.117,0,11.084,4.967,11.084,11.084
			c0,1.339-0.252,2.601-0.682,3.791h1.31c1.767,0,3.386-0.514,4.772-1.357h3.777c1.838,0,3.334-1.491,3.334-3.33
			c0-1.644-1.209-2.954-2.762-3.22c0.058-0.443,0.129-0.886,0.129-1.343v-10.961c0-5.101-4.145-9.248-9.251-9.248h-66.296
			c-5.113,0-9.242,4.147-9.242,9.248v10.961C672.745,737.91,672.901,738.754,673.14,739.54 M754.999,734.738
			c-0.534,0-0.965-1.926-0.965-4.285c0-2.369,0.431-4.294,0.965-4.294c0.529,0,0.953,1.925,0.953,4.294
			C755.952,732.812,755.528,734.738,754.999,734.738 M715.136,722.547c0-0.607,0.488-1.088,1.088-1.088h7.734
			c0.609,0,1.08,0.481,1.08,1.088v1.281c0,0.607-0.471,1.08-1.08,1.08h-7.734c-0.6,0-1.088-0.473-1.088-1.08V722.547z"/>
		<path fill="#2BC0D2" d="M736.571,733.445c-5.002,0-9.052,4.042-9.052,9.043c0,4.993,4.05,9.049,9.052,9.049
			c5.001,0,9.043-4.056,9.043-9.049C745.614,737.487,741.572,733.445,736.571,733.445 M736.571,746.627
			c-2.29,0-4.135-1.844-4.135-4.139c0-2.283,1.845-4.137,4.135-4.137c2.291,0,4.141,1.853,4.141,4.137
			C740.712,744.783,738.862,746.627,736.571,746.627"/>
		<path fill="#2BC0D2" d="M694.831,733.445c-5.009,0-9.045,4.042-9.045,9.043c0,4.993,4.036,9.049,9.045,9.049
			c4.994,0,9.045-4.056,9.045-9.049C703.876,737.487,699.825,733.445,694.831,733.445 M694.831,746.627
			c-2.297,0-4.135-1.844-4.135-4.139c0-2.283,1.838-4.137,4.135-4.137c2.283,0,4.135,1.853,4.135,4.137
			C698.966,744.783,697.114,746.627,694.831,746.627"/>
	</g>
</g>
<path opacity="0.6" fill="#FFFFFF" d="M570.834,753.566c12.031,0.417,17.206,44.979,17.206,44.979l14,93.521H-1.71V579.182
	c0,0,89.032-19.477,119.236-19.477C402.04,559.705,344.04,745.693,570.834,753.566z"/>
<polygon fill="#FFFFFF" points="581.125,766.721 -0.96,766.721 -0.96,753.566 570.834,753.566 "/>
<g>
	<polygon fill="#2BC0D2" points="120.5,406.721 111.499,589.739 154.503,589.739 147.503,405.722 	"/>
	<polygon fill="#FFFFFF" points="119.696,423.603 118.986,437.972 148.522,438.06 147.99,423.603 	"/>
	<polygon fill="#FFFFFF" points="117.981,456.161 117.301,470.471 149.854,470.411 149.321,456.161 	"/>
	<polygon fill="#FFFFFF" points="116.267,489.368 115.557,503.56 151.154,503.56 150.622,489.309 	"/>
	<polygon fill="#FFFFFF" points="114.61,523.545 113.843,537.736 152.515,537.678 151.923,523.486 	"/>
	<polygon fill="#FFFFFF" points="112.896,558.907 112.187,573.158 153.815,573.218 153.224,558.849 	"/>
</g>
<g>
	<polygon fill="#2BC0D2" points="196.845,427.509 187.845,610.527 230.848,610.527 223.849,426.51 	"/>
	<polygon fill="#FFFFFF" points="196.041,444.391 195.331,458.76 224.868,458.848 224.335,444.391 	"/>
	<polygon fill="#FFFFFF" points="194.327,476.949 193.645,491.26 226.198,491.199 225.667,476.949 	"/>
	<polygon fill="#FFFFFF" points="192.611,510.156 191.901,524.348 227.499,524.348 226.968,510.098 	"/>
	<polygon fill="#FFFFFF" points="190.956,544.334 190.188,558.525 228.859,558.467 228.268,544.275 	"/>
	<polygon fill="#FFFFFF" points="189.241,579.695 188.531,593.947 230.16,594.006 229.569,579.637 	"/>
</g>
<circle fill="#8D3D0C" cx="477.282" cy="357.153" r="53.247"/>
<rect x="372.246" y="346.457" fill="none" width="208.462" height="24.222"/>
<text transform="matrix(1 0 0 1 449.7397 364.7114)" fill="#2BC0D2" font-family="'Helvetica-Bold'" font-size="25.3895">NOx</text>
<circle fill="#8D3D0C" cx="526.914" cy="459.384" r="77.246"/>
<circle fill="#8D3D0C" cx="387.207" cy="393.781" r="47.713"/>
<rect x="282.171" y="383.085" fill="none" width="208.461" height="24.222"/>
<text transform="matrix(1 0 0 1 360.3652 401.3394)" fill="#2BC0D2" font-family="'Helvetica-Bold'" font-size="25.3895">SOx</text>
<circle fill="#8D3D0C" cx="653.462" cy="674.31" r="10.324"/>
<circle fill="#B6E2EA" cx="1156.106" cy="813.437" r="10.324"/>
<circle fill="#B6E2EA" cx="1166.431" cy="776.593" r="10.324"/>
<circle fill="#B6E2EA" cx="1156.107" cy="704.854" r="10.324"/>
<circle fill="#B6E2EA" cx="1281.878" cy="481.828" r="10.324"/>
<circle fill="#B6E2EA" cx="1251.187" cy="492.152" r="10.324"/>
<circle fill="#B6E2EA" cx="1121.076" cy="766.269" r="10.324"/>
<circle fill="#8D3D0C" cx="195.332" cy="353" r="10.324"/>
<circle fill="#8D3D0C" cx="187.845" cy="370.932" r="10.324"/>
<circle fill="#8D3D0C" cx="554.707" cy="586.822" r="10.324"/>
<circle fill="#8D3D0C" cx="274.103" cy="369.195" r="10.324"/>
<circle fill="#8D3D0C" cx="274.103" cy="405.722" r="10.324"/>
<circle fill="#8D3D0C" cx="230.848" cy="405.722" r="10.323"/>
<circle fill="#8D3D0C" cx="633.4" cy="600.265" r="10.323"/>
<circle fill="#8D3D0C" cx="148.522" cy="379.519" r="10.324"/>
<circle fill="#8D3D0C" cx="615.468" cy="650.644" r="17.932"/>
<circle fill="#B6E2EA" cx="1103.143" cy="702.566" r="17.932"/>
<circle fill="#B6E2EA" cx="1208.262" cy="492.152" r="17.932"/>
<circle fill="#8D3D0C" cx="210.1" cy="367.781" r="17.933"/>
<circle fill="#8D3D0C" cx="166.455" cy="365.104" r="17.932"/>
<circle fill="#8D3D0C" cx="256.171" cy="370.932" r="17.932"/>
<circle fill="#8D3D0C" cx="588.766" cy="566.033" r="17.932"/>
<circle fill="#8D3D0C" cx="248.78" cy="395.398" r="17.932"/>
<circle fill="#8D3D0C" cx="292.447" cy="377.466" r="17.933"/>
<circle fill="#8D3D0C" cx="656.868" cy="708.863" r="4.01"/>
<circle fill="#B6E2EA" cx="1166.431" cy="845.504" r="4.01"/>
<circle fill="#B6E2EA" cx="1247.177" cy="534.723" r="4.01"/>
<circle fill="#B6E2EA" cx="1313.507" cy="492.152" r="4.01"/>
<circle fill="#B6E2EA" cx="1137.765" cy="867.504" r="4.01"/>
<circle fill="#8D3D0C" cx="656.868" cy="736.639" r="4.01"/>
<circle fill-rule="evenodd" clip-rule="evenodd" fill="#B6E2EA" cx="1133.774" cy="577.711" r="74.489"/>
<circle fill="#8D3D0C" cx="639.159" cy="712.873" r="8.02"/>
<circle fill="#8D3D0C" cx="174.475" cy="381.306" r="8.021"/>
<circle fill="#8D3D0C" cx="284.427" cy="357.085" r="8.02"/>
<g>
	<path fill-rule="evenodd" clip-rule="evenodd" fill="#B6E2EA" d="M1604.618,225.244c20.034-6.505,34.422-0.369,43.601,18.1
		c0.515,1.037,2.284,1.824,3.584,2.042c15.021,2.513,25.293,10.812,29.723,25.372c4.47,14.691,0.681,27.599-10.504,38.105
		c-7.025,6.599-15.674,9.004-25.209,8.992c-45.403-0.059-90.808-0.014-136.211-0.059c-2.74-0.002-5.521-0.245-8.215-0.747
		c-13.934-2.602-24.504-14.662-25.13-28.507c-0.671-14.878,8.562-27.954,22.796-31.664c3.146-0.82,4.435-2.037,5.018-5.222
		c4.226-23.137,17.699-38.836,40.101-45.337c22.763-6.604,42.72-0.325,58.932,17.183
		C1603.591,224.029,1604.046,224.585,1604.618,225.244z"/>
</g>
<g>
	<circle fill-rule="evenodd" clip-rule="evenodd" fill="#FFFFFF" cx="1334.271" cy="324.909" r="84.202"/>
	<g>
		<polygon fill-rule="evenodd" clip-rule="evenodd" fill="#FFFFFF" points="1334.084,207.899 1334.084,207.635 1334.217,207.768 
			1334.349,207.635 1334.349,207.899 1352.537,226.086 1334.349,226.086 1334.084,226.086 1315.898,226.086 		"/>
		<polygon fill-rule="evenodd" clip-rule="evenodd" fill="#FFFFFF" points="1334.084,447.912 1334.084,448.176 1334.217,448.043 
			1334.349,448.176 1334.349,447.912 1352.537,429.726 1334.349,429.726 1334.084,429.726 1315.898,429.726 		"/>
	</g>
	<g>
		<polygon fill-rule="evenodd" clip-rule="evenodd" fill="#FFFFFF" points="1274.099,224.044 1273.967,223.815 1274.148,223.864 
			1274.196,223.683 1274.328,223.912 1299.173,230.568 1283.421,239.662 1283.19,239.794 1267.443,248.886 		"/>
		<polygon fill-rule="evenodd" clip-rule="evenodd" fill="#FFFFFF" points="1394.104,431.902 1394.237,432.13 1394.286,431.948 
			1394.466,431.998 1394.334,431.769 1400.991,406.925 1385.241,416.019 1385.011,416.152 1369.263,425.244 		"/>
	</g>
	<g>
		<polygon fill-rule="evenodd" clip-rule="evenodd" fill="#FFFFFF" points="1230.222,268.019 1229.991,267.886 1230.175,267.838 
			1230.124,267.657 1230.354,267.789 1255.198,261.132 1246.104,276.882 1245.972,277.112 1236.879,292.86 		"/>
		<polygon fill-rule="evenodd" clip-rule="evenodd" fill="#FFFFFF" points="1438.079,388.025 1438.308,388.158 1438.259,387.976 
			1438.438,387.928 1438.211,387.795 1431.556,362.951 1422.462,378.702 1422.328,378.932 1413.237,394.681 		"/>
	</g>
	<g>
		<polygon fill-rule="evenodd" clip-rule="evenodd" fill="#FFFFFF" points="1214.211,328.04 1213.945,328.039 1214.079,327.906 
			1213.945,327.774 1214.21,327.774 1232.397,309.586 1232.397,327.774 1232.397,328.04 1232.396,346.224 		"/>
		<polygon fill-rule="evenodd" clip-rule="evenodd" fill="#FFFFFF" points="1454.224,328.04 1454.486,328.04 1454.354,327.906 
			1454.486,327.774 1454.222,327.774 1436.037,309.586 1436.037,327.774 1436.037,328.04 1436.037,346.224 		"/>
	</g>
	<g>
		<polygon fill-rule="evenodd" clip-rule="evenodd" fill="#FFFFFF" points="1230.354,388.024 1230.126,388.156 1230.175,387.975 
			1229.991,387.927 1230.222,387.795 1236.879,362.95 1245.973,378.701 1246.105,378.931 1255.197,394.68 		"/>
		<polygon fill-rule="evenodd" clip-rule="evenodd" fill="#FFFFFF" points="1438.212,268.018 1438.44,267.886 1438.259,267.837 
			1438.308,267.657 1438.079,267.789 1413.235,261.13 1422.329,276.881 1422.463,277.111 1431.554,292.859 		"/>
	</g>
	<g>
		<polygon fill-rule="evenodd" clip-rule="evenodd" fill="#FFFFFF" points="1274.329,431.9 1274.197,432.13 1274.148,431.948 
			1273.968,431.998 1274.1,431.769 1267.441,406.924 1283.193,416.018 1283.424,416.15 1299.171,425.244 		"/>
		<polygon fill-rule="evenodd" clip-rule="evenodd" fill="#FFFFFF" points="1394.337,224.043 1394.469,223.815 1394.287,223.863 
			1394.237,223.683 1394.106,223.911 1369.262,230.567 1385.013,239.661 1385.244,239.792 1400.991,248.885 		"/>
	</g>
</g>
<g>
	<path fill-rule="evenodd" clip-rule="evenodd" fill="#B6E2EA" d="M1374.974,365.942c-20.033-6.505-34.421-0.369-43.6,18.1
		c-0.516,1.037-2.285,1.824-3.584,2.042c-15.021,2.513-25.293,10.811-29.723,25.372c-4.47,14.69-0.681,27.599,10.504,38.105
		c7.025,6.599,15.674,9.004,25.209,8.992c45.403-0.059,90.807-0.014,136.211-0.059c2.74-0.002,5.521-0.244,8.215-0.747
		c13.934-2.602,24.504-14.662,25.129-28.507c0.672-14.878-8.562-27.954-22.795-31.664c-3.146-0.82-4.436-2.037-5.018-5.222
		c-4.226-23.137-17.699-38.836-40.102-45.336c-22.763-6.604-42.721-0.325-58.932,17.183
		C1376.002,364.727,1375.547,365.283,1374.974,365.942z"/>
</g>
<g>
	<rect x="570.834" y="753.566" fill="#FFFFFF" width="1032.527" height="12.703"/>
	<rect x="853.685" y="577.711" fill="#FFFFFF" width="25.167" height="317.854"/>
	<rect x="1288.339" y="577.711" fill="#FFFFFF" width="25.168" height="317.854"/>
	<g>
		<path fill="none" stroke="#FFFFFF" stroke-width="2" stroke-miterlimit="10" d="M1503.404,751.959v4.32V751.959
			c-6.419-0.429-12.751-1.129-18.99-2.065v6.385v-6.385c-6.438-0.967-12.772-2.199-18.989-3.678v10.062v-10.062
			c-6.463-1.539-12.799-3.348-18.99-5.412v15.475v-15.475c-6.494-2.164-12.83-4.609-18.989-7.32v22.795v-22.795
			c-6.536-2.877-12.877-6.046-18.99-9.498v32.293v-32.293c-6.6-3.729-12.938-7.779-18.989-12.128v44.421v-44.421
			c-6.699-4.815-13.041-9.995-18.99-15.505v59.926v-59.926c-6.879-6.371-13.227-13.185-18.989-20.385v80.31v-80.31
			c-7.317-9.145-13.694-18.908-18.99-29.193v109.504V646.775"/>
		<path fill="none" stroke="#FFFFFF" stroke-width="2" stroke-miterlimit="10" d="M837.836,642.399
			c-1.001,2.092-2.054,4.16-3.142,6.212v107.668V648.611c-5.34,10.064-11.703,19.627-18.99,28.574v79.094v-79.094
			c-5.775,7.091-12.125,13.795-18.989,20.065v59.028v-59.028c-5.954,5.439-12.3,10.546-18.989,15.294v43.734v-43.734
			c-6.057,4.299-12.393,8.306-18.99,11.986v31.748v-31.748c-6.116,3.41-12.456,6.539-18.99,9.377v22.371v-22.371
			c-6.16,2.676-12.496,5.09-18.989,7.221v15.15v-15.15c-6.193,2.033-12.528,3.81-18.99,5.318v9.832v-9.832
			c-6.218,1.451-12.553,2.649-18.989,3.588v6.244v-6.244c-6.24,0.909-12.572,1.577-18.99,1.979v4.265v-4.265"/>
		<path fill="none" stroke="#FFFFFF" stroke-width="2" stroke-miterlimit="10" d="M1272.491,642.399
			c-1.002,2.092-2.054,4.16-3.143,6.212v107.668V648.611c-5.236,9.871-11.459,19.26-18.57,28.059v79.609V676.67
			c-5.652,6.991-11.862,13.611-18.572,19.812v59.797v-59.797c-5.825,5.385-12.026,10.455-18.569,15.176v44.621v-44.621
			c-5.92,4.269-12.123,8.248-18.572,11.924v32.697v-32.697c-5.982,3.409-12.178,6.558-18.57,9.414v23.283v-23.283
			c-6.023,2.693-12.22,5.127-18.569,7.296v15.987v-15.987c-6.057,2.069-12.252,3.896-18.573,5.46v10.527v-10.527
			c-6.078,1.504-12.274,2.764-18.569,3.775v6.752v-6.752c-6.1,0.981-12.295,1.719-18.571,2.215v4.537v-4.537
			c-6.118,0.483-12.31,0.744-18.571,0.745v3.792v-3.792c-0.014,0-0.029,0.001-0.045,0.001c-6.246,0-12.422-0.26-18.526-0.74v4.531
			v-4.531c-6.276-0.492-12.472-1.227-18.571-2.206v6.737v-6.737c-6.295-1.01-12.49-2.267-18.569-3.769v10.506v-10.506
			c-6.321-1.562-12.516-3.386-18.573-5.451v15.957v-15.957c-6.35-2.166-12.546-4.598-18.569-7.287v23.244v-23.244
			c-6.393-2.854-12.588-5.997-18.571-9.402v32.646v-32.646c-6.449-3.671-12.65-7.646-18.572-11.912v44.559v-44.559
			c-6.541-4.714-12.743-9.776-18.568-15.155v59.714v-59.714c-6.708-6.192-12.919-12.803-18.572-19.784v79.498v-79.498
			c-7.109-8.781-13.33-18.151-18.57-28.004v107.502V648.777"/>
	</g>
	<path fill="none" stroke="#FFFFFF" stroke-width="2" stroke-miterlimit="10" d="M1332.496,646.775
		c-8.411-13.369-20.182-67.594-20.182-67.594"/>
	<path fill="none" stroke="#FFFFFF" stroke-width="2" stroke-miterlimit="10" d="M1269.132,649.377
		c8.41-13.369,20.182-70.195,20.182-70.195"/>
	<path fill="none" stroke="#FFFFFF" stroke-width="2" stroke-miterlimit="10" d="M835.655,646.775
		c8.41-13.369,19.548-65.897,19.548-65.897"/>
	<path fill="none" stroke="#FFFFFF" stroke-width="2" stroke-miterlimit="10" d="M897.931,648.777
		c-8.412-13.368-20.008-67.899-20.008-67.899"/>
</g>
<rect x="1230.029" y="316.225" fill="none" width="208.461" height="23.362"/>
<text transform="matrix(1 0 0 1 1267.1572 334.4795)" fill="#2BC0D2" font-family="'Helvetica-Bold'" font-size="25.3895">SUNLIGHT</text>
<rect x="1029.534" y="554.027" fill="none" width="208.461" height="46.723"/>
<text transform="matrix(1 0 0 1 1085.9561 572.2822)"><tspan x="0" y="0" fill="#2BC0D2" font-family="'Helvetica-Bold'" font-size="25.3895">WATER</tspan><tspan x="1.395" y="27.698" fill="#2BC0D2" font-family="'Helvetica-Bold'" font-size="25.3895">VAPOR</tspan></text>
<rect x="422.683" y="448.371" fill="none" width="208.461" height="24.221"/>
<text transform="matrix(1 0 0 1 462.955 466.6255)" fill="#2BC0D2" font-family="'Helvetica-Bold'" font-size="25.3895">AMMONIA</text>
<path fill="#B6E2EA" d="M1567.111,881.251c0,5.973-14.626,10.815-32.669,10.815c-18.041,0-32.668-4.843-32.668-10.815
	c0,5.973-14.626,10.815-32.668,10.815c-18.035,0-32.657-4.84-32.668-10.809c-0.01,5.969-14.633,10.809-32.668,10.809
	c-18.042,0-32.668-4.843-32.668-10.815c0,5.973-14.626,10.815-32.669,10.815c-18.042,0-32.667-4.843-32.667-10.815
	c0,5.973-14.627,10.815-32.67,10.815c-18.041,0-32.667-4.843-32.667-10.815c0,5.973-14.626,10.815-32.669,10.815
	c-18.035,0-32.657-4.84-32.668-10.809c-0.01,5.969-14.631,10.809-32.668,10.809c-18.041,0-32.668-4.843-32.668-10.815
	c0,5.973-14.625,10.815-32.668,10.815c-18.042,0-32.668-4.843-32.668-10.815c0,5.973-14.626,10.815-32.669,10.815
	c-18.041,0-32.667-4.843-32.667-10.815c0,5.973-14.627,10.815-32.669,10.815c-18.036,0-32.657-4.84-32.667-10.809
	c-0.011,5.969-14.633,10.809-32.669,10.809c-18.042,0-32.668-4.843-32.668-10.815c0,5.973-14.626,10.815-32.669,10.815
	c-18.042,0-32.668-4.843-32.668-10.815c0,5.973-14.626,10.815-32.668,10.815c-18.042,0-32.668-4.843-32.668-10.815
	c0,5.973-14.626,10.815-32.668,10.815c-18.039,0-32.663-4.842-32.668-10.812c-0.006,5.971-14.629,10.812-32.668,10.812
	c-18.043,0-32.668-4.843-32.668-10.815c0,5.973-14.627,10.815-32.669,10.815c-18.042,0-32.668-4.843-32.668-10.815
	c0,5.973-14.626,10.815-32.669,10.815c-18.041,0-32.668-4.843-32.668-10.815c0,5.973-14.625,10.815-32.668,10.815
	c-18.039,0-32.663-4.842-32.668-10.812c-0.005,5.971-14.629,10.812-32.668,10.812c-18.042,0-32.668-4.843-32.668-10.815
	c0,5.973-14.626,10.815-32.668,10.815c-18.043,0-32.668-4.843-32.668-10.815c0,5.973-14.627,10.815-32.67,10.815
	c-18.041,0-32.667-4.843-32.667-10.815c0,5.973-14.626,10.815-32.669,10.815c-18.038,0-32.662-4.842-32.667-10.812
	c-0.005,5.971-14.629,10.812-32.669,10.812c-18.041,0-32.668-4.843-32.668-10.815c0,5.973-14.625,10.815-32.668,10.815
	c-18.042,0-32.668-4.843-32.668-10.815v99.835h1598.75v-89.042C1580.675,891.703,1567.111,887.002,1567.111,881.251z"/>
<rect x="35.973" y="39.606" fill="none" width="865.325" height="38.607"/>
<text transform="matrix(1 0 0 1 32.9726 74.1177)"><tspan x="0" y="0" fill="#FFFFFF" font-family="'Helvetica-Bold'" font-size="48">PM: </tspan><tspan x="101.32" y="0" fill="#F5C714" font-family="'Helvetica-Bold'" font-size="48">INDIRECT EMISSIONS </tspan></text>
<rect x="36.573" y="91.077" fill="none" width="863.957" height="71.132"/>
<text transform="matrix(1 0 0 1 36.5732 103.9287)"><tspan x="0" y="0" fill="#FFFFFF" font-family="'HelveticaNeue-Medium'" font-size="18">WORDS</tspan><tspan x="68.003" y="0" fill="#FFFFFF" font-family="'HelveticaNeue-Medium'" font-size="18"> </tspan><tspan x="72.794" y="0" fill="#FFFFFF" font-family="'HelveticaNeue-Medium'" font-size="18">WORDS</tspan><tspan x="140.797" y="0" fill="#FFFFFF" font-family="'HelveticaNeue-Medium'" font-size="18"> </tspan><tspan x="145.589" y="0" fill="#FFFFFF" font-family="'HelveticaNeue-Medium'" font-size="18">WORDS</tspan><tspan x="213.592" y="0" fill="#FFFFFF" font-family="'HelveticaNeue-Medium'" font-size="18"> </tspan><tspan x="218.384" y="0" fill="#FFFFFF" font-family="'HelveticaNeue-Medium'" font-size="18">WORDS</tspan><tspan x="286.387" y="0" fill="#FFFFFF" font-family="'HelveticaNeue-Medium'" font-size="18"> </tspan><tspan x="291.179" y="0" fill="#FFFFFF" font-family="'HelveticaNeue-Medium'" font-size="18">WORDS</tspan><tspan x="359.182" y="0" fill="#FFFFFF" font-family="'HelveticaNeue-Medium'" font-size="18"> </tspan><tspan x="363.973" y="0" fill="#FFFFFF" font-family="'HelveticaNeue-Medium'" font-size="18">WORDS</tspan><tspan x="431.976" y="0" fill="#FFFFFF" font-family="'HelveticaNeue-Medium'" font-size="18"> </tspan><tspan x="436.768" y="0" fill="#FFFFFF" font-family="'HelveticaNeue-Medium'" font-size="18">WORDS</tspan><tspan x="504.771" y="0" fill="#FFFFFF" font-family="'HelveticaNeue-Medium'" font-size="18"> </tspan><tspan x="509.562" y="0" fill="#FFFFFF" font-family="'HelveticaNeue-Medium'" font-size="18">WORDS</tspan><tspan x="577.565" y="0" fill="#FFFFFF" font-family="'HelveticaNeue-Medium'" font-size="18"> </tspan><tspan x="582.357" y="0" fill="#FFFFFF" font-family="'HelveticaNeue-Medium'" font-size="18">WORDS</tspan><tspan x="650.36" y="0" fill="#FFFFFF" font-family="'HelveticaNeue-Medium'" font-size="18"> </tspan><tspan x="655.152" y="0" fill="#FFFFFF" font-family="'HelveticaNeue-Medium'" font-size="18">WORDSWORDS</tspan><tspan x="791.159" y="0" fill="#FFFFFF" font-family="'HelveticaNeue-Medium'" font-size="18"> </tspan><tspan x="795.95" y="0" fill="#FFFFFF" font-family="'HelveticaNeue-Medium'" font-size="18">WORDS </tspan><tspan x="0" y="21.6" fill="#FFFFFF" font-family="'HelveticaNeue-Medium'" font-size="18">WORDS</tspan><tspan x="68.003" y="21.6" fill="#FFFFFF" font-family="'HelveticaNeue-Medium'" font-size="18"> </tspan><tspan x="73.327" y="21.6" fill="#FFFFFF" font-family="'HelveticaNeue-Medium'" font-size="18">WORDS</tspan><tspan x="141.33" y="21.6" fill="#FFFFFF" font-family="'HelveticaNeue-Medium'" font-size="18"> </tspan><tspan x="146.654" y="21.6" fill="#FFFFFF" font-family="'HelveticaNeue-Medium'" font-size="18">WORDSWORDS</tspan><tspan x="282.66" y="21.6" fill="#FFFFFF" font-family="'HelveticaNeue-Medium'" font-size="18"> </tspan><tspan x="287.984" y="21.6" fill="#FFFFFF" font-family="'HelveticaNeue-Medium'" font-size="18">WORDS</tspan><tspan x="355.987" y="21.6" fill="#FFFFFF" font-family="'HelveticaNeue-Medium'" font-size="18"> </tspan><tspan x="361.311" y="21.6" fill="#FFFFFF" font-family="'HelveticaNeue-Medium'" font-size="18">WORDS</tspan><tspan x="429.314" y="21.6" fill="#FFFFFF" font-family="'HelveticaNeue-Medium'" font-size="18"> </tspan><tspan x="434.638" y="21.6" fill="#FFFFFF" font-family="'HelveticaNeue-Medium'" font-size="18">WORDS</tspan><tspan x="502.641" y="21.6" fill="#FFFFFF" font-family="'HelveticaNeue-Medium'" font-size="18"> </tspan><tspan x="507.965" y="21.6" fill="#FFFFFF" font-family="'HelveticaNeue-Medium'" font-size="18">WORDSWORDS</tspan><tspan x="643.971" y="21.6" fill="#FFFFFF" font-family="'HelveticaNeue-Medium'" font-size="18"> </tspan><tspan x="649.295" y="21.6" fill="#FFFFFF" font-family="'HelveticaNeue-Medium'" font-size="18">WORDS</tspan><tspan x="717.298" y="21.6" fill="#FFFFFF" font-family="'HelveticaNeue-Medium'" font-size="18"> </tspan><tspan x="722.623" y="21.6" fill="#FFFFFF" font-family="'HelveticaNeue-Medium'" font-size="18">WORDS</tspan><tspan x="790.625" y="21.6" fill="#FFFFFF" font-family="'HelveticaNeue-Medium'" font-size="18"> </tspan><tspan x="795.95" y="21.6" fill="#FFFFFF" font-family="'HelveticaNeue-Medium'" font-size="18">WORDS </tspan><tspan x="0" y="43.2" fill="#FFFFFF" font-family="'HelveticaNeue-Medium'" font-size="18">WORDSWORDS WORDS WORDS WORDS WORDS</tspan></text>
<rect x="0.005" y="980.949" fill="#FFFFFF" width="1600" height="165.762"/>
<text transform="matrix(1 0 0 1 339.7119 1043.8511)"><tspan x="0" y="0" fill="#010101" font-family="'Helvetica'" font-size="18">Re</tspan><tspan x="23.01" y="0" fill="#010101" font-family="'Helvetica'" font-size="18">f</tspan><tspan x="27.849" y="0" fill="#010101" font-family="'Helvetica'" font-size="18">erences</tspan></text>
<g>
	<polygon fill="#2E2119" points="103.537,1043.617 103.537,1026.922 115.039,1026.922 115.039,1029.447 107.15,1029.447 
		107.15,1033.693 113.775,1033.693 113.775,1036.072 107.15,1036.072 107.15,1041.07 115.379,1041.07 115.379,1043.617 	"/>
	<path fill="#2E2119" d="M125.603,1043.617v-7.375c0-1.24-0.194-2.137-1.698-2.137c-0.801,0-1.917,0.414-2.718,0.896v8.615h-3.495
		v-11.914h3.301l0.049,1.09l0.097,0.051c1.382-0.924,3.058-1.432,4.198-1.432c3.154,0,3.736,1.869,3.736,4.102v8.104H125.603z"/>
	<path fill="#2E2119" d="M136.967,1041.312c0.121-0.314,0.776-3.082,1.164-4.32c0.535-1.553,1.53-4.949,1.651-5.289h3.494
		c-0.874,2.451-3.227,9.486-4.101,11.914h-4.732c-0.85-2.428-3.229-9.463-4.078-11.914h3.642l1.722,5.531
		c0.268,0.85,0.826,3.252,1.117,4.078H136.967z"/>
	<path fill="#2E2119" d="M146.818,1030.246c-1.287,0-1.99-0.824-1.99-1.842c0-1.068,0.729-1.871,1.99-1.871
		c1.335,0,2.062,0.803,2.062,1.871C148.88,1029.422,148.153,1030.246,146.818,1030.246 M145.095,1031.703h3.47v11.914h-3.47
		V1031.703z"/>
	<path fill="#2E2119" d="M155.087,1033.814c1.31-1.287,3.203-2.428,4.538-2.428c0.486,0,0.678,0.293,0.678,0.803
		c0,0.896-0.581,2.717-1.09,3.422l-4.053-0.049v8.055h-3.471v-11.914h3.422c0,0.557-0.072,1.48-0.145,2.039L155.087,1033.814z"/>
	<path fill="#2E2119" d="M167.098,1043.861c-4.416,0-5.945-2.766-5.945-6.188c0-3.35,1.699-6.238,6.092-6.238
		c4.439,0,5.969,2.889,5.969,6.213S171.637,1043.861,167.098,1043.861 M167.244,1033.887c-1.99,0-2.525,1.916-2.525,3.787
		c0,2.109,0.412,3.736,2.525,3.736c1.965,0,2.378-1.773,2.378-3.736C169.622,1035.779,169.233,1033.887,167.244,1033.887"/>
	<path fill="#2E2119" d="M183.088,1043.617v-7.375c0-1.24-0.195-2.137-1.699-2.137c-0.801,0-1.918,0.414-2.719,0.896v8.615h-3.494
		v-11.914h3.3l0.049,1.09l0.097,0.051c1.383-0.924,3.059-1.432,4.199-1.432c3.154,0,3.736,1.869,3.736,4.102v8.104H183.088z"/>
	<path fill="#2E2119" d="M204.076,1043.617v-7.545c0-1.312-0.34-1.943-1.578-1.943c-0.752,0-1.867,0.365-2.547,0.826
		c0.072,0.51,0.098,1.117,0.098,1.553v7.109h-3.424c0-2.598-0.023-5.193-0.023-7.789c0-1.117-0.509-1.674-1.432-1.674
		c-0.801,0-1.795,0.365-2.621,0.871v8.592h-3.47v-11.914h3.253l0.071,1.188l0.097,0.049c1.36-1.02,2.985-1.504,4.125-1.504
		c1.36,0,2.284,0.484,2.889,1.553c1.165-0.896,3.033-1.553,4.296-1.553c3.179,0,3.761,1.967,3.761,4.197v7.984H204.076z"/>
	<path fill="#2E2119" d="M220.864,1037.213v1.236h-7.788c0,1.82,0.85,2.789,2.985,2.789c1.286,0,2.596-0.289,3.833-0.752
		l0.705,2.137c-1.578,0.873-3.398,1.188-5.049,1.188c-4.805,0-5.969-2.861-5.969-6.137c0-2.621,1.117-6.287,5.823-6.287
		C220.525,1031.387,220.864,1035.074,220.864,1037.213 M213.125,1036.312h4.586c-0.023-1.576-0.51-2.717-2.16-2.717
		C213.829,1033.596,213.246,1034.883,213.125,1036.312"/>
	<path fill="#2E2119" d="M231.032,1043.617v-7.375c0-1.24-0.194-2.137-1.699-2.137c-0.801,0-1.917,0.414-2.718,0.896v8.615h-3.494
		v-11.914h3.299l0.049,1.09l0.098,0.051c1.384-0.924,3.057-1.432,4.198-1.432c3.155,0,3.737,1.869,3.737,4.102v8.104H231.032z"/>
	<path fill="#2E2119" d="M241.27,1028.402v3.277h3.471v2.279h-3.471v5.389c0,1.26,0.364,1.842,1.603,1.842
		c0.436,0,1.189-0.119,2.061-0.314l0.437,2.258c-1.019,0.461-2.377,0.678-3.396,0.678c-3.324,0-4.125-1.648-4.125-3.541v-6.311
		h-1.675v-1.893l1.893-0.559c0.171-0.412,0.704-2.449,0.85-2.863L241.27,1028.402z"/>
	<path fill="#2E2119" d="M257.357,1041.312h1.554l0.169,1.939c-0.776,0.365-1.892,0.609-2.911,0.609
		c-1.044,0-1.796-0.244-1.919-1.434c0-0.023-0.023-0.023-0.048-0.049c-1.674,1.459-3.444,1.482-4.124,1.482
		c-2.961,0-3.689-2.086-3.689-3.471c0-2.477,1.918-3.689,4.418-3.834c0.921-0.072,2.329-0.121,3.25-0.195v-0.289
		c0-1.361-0.436-2.062-2.207-2.062c-1.165,0-2.67,0.24-3.785,0.604c-0.171-0.727-0.365-1.455-0.559-2.156
		c1.406-0.609,3.469-0.996,5.168-0.996c2.863,0,4.684,1.066,4.684,4.15V1041.312z M251.654,1038.473
		c-1.141,0.098-1.674,0.68-1.674,1.625c0,0.998,0.484,1.531,1.627,1.531c0.727,0,1.674-0.391,2.449-1.068v-2.283L251.654,1038.473z"
		/>
	<polygon fill="#2E2119" points="264.296,1043.617 260.85,1043.617 260.85,1026.242 264.32,1026.242 	"/>
	<path fill="#2E2119" d="M110.162,1064.326h-3.034l0.025,6.406h-3.616v-16.695h6.333c3.811,0,5.727,1.99,5.727,5.121
		C115.597,1061.561,114.094,1064.326,110.162,1064.326 M107.128,1056.561v5.316h2.353c1.287,0,2.476-0.68,2.476-2.645
		c0-1.896-1.116-2.672-2.596-2.672H107.128z"/>
	<path fill="#2E2119" d="M127.849,1064.326v1.238h-7.788c0,1.82,0.85,2.789,2.985,2.789c1.285,0,2.597-0.291,3.833-0.752
		l0.703,2.137c-1.578,0.873-3.396,1.189-5.047,1.189c-4.805,0-5.969-2.865-5.969-6.141c0-2.621,1.115-6.283,5.823-6.283
		C127.51,1058.504,127.849,1062.191,127.849,1064.326 M120.109,1063.43h4.586c-0.024-1.578-0.51-2.719-2.16-2.719
		C120.812,1060.711,120.229,1061.996,120.109,1063.43"/>
	<path fill="#2E2119" d="M133.502,1060.928c1.311-1.283,3.203-2.424,4.538-2.424c0.485,0,0.681,0.289,0.681,0.799
		c0,0.896-0.584,2.717-1.094,3.422l-4.051-0.049v8.057h-3.472v-11.914h3.423c0,0.557-0.073,1.479-0.146,2.037L133.502,1060.928z"/>
	<path fill="#2E2119" d="M141.727,1061.074h-1.675v-1.893l1.7-0.486v-1.479c0-2.281,0.994-4.078,4.512-4.078
		c0.826,0,2.16,0.098,3.277,0.412l-0.412,2.354c-0.68-0.145-1.555-0.217-2.064-0.217c-1.237,0-1.942,0.412-1.942,1.578v1.527h3.424
		v2.281h-3.424c0,1.043-0.023,8.615-0.023,9.658h-3.373V1061.074z"/>
	<path fill="#2E2119" d="M155.509,1070.975c-4.416,0-5.945-2.766-5.945-6.188c0-3.35,1.698-6.234,6.091-6.234
		c4.44,0,5.969,2.885,5.969,6.209C161.623,1068.088,160.046,1070.975,155.509,1070.975 M155.654,1061.002
		c-1.99,0-2.523,1.918-2.523,3.785c0,2.111,0.412,3.736,2.523,3.736c1.966,0,2.379-1.77,2.379-3.736
		C158.033,1062.895,157.645,1061.002,155.654,1061.002"/>
	<path fill="#2E2119" d="M167.033,1060.928c1.311-1.283,3.204-2.424,4.539-2.424c0.486,0,0.678,0.289,0.678,0.799
		c0,0.896-0.582,2.717-1.09,3.422l-4.054-0.049v8.057h-3.47v-11.914h3.422c0,0.557-0.072,1.479-0.145,2.037L167.033,1060.928z"/>
	<path fill="#2E2119" d="M188.754,1070.732v-7.547c0-1.309-0.34-1.939-1.578-1.939c-0.752,0-1.867,0.363-2.547,0.822
		c0.072,0.51,0.098,1.117,0.098,1.553v7.111h-3.424c0-2.598-0.023-5.193-0.023-7.791c0-1.113-0.509-1.674-1.432-1.674
		c-0.801,0-1.795,0.365-2.62,0.875v8.59h-3.47v-11.914h3.25l0.073,1.189l0.097,0.049c1.36-1.021,2.985-1.504,4.125-1.504
		c1.36,0,2.283,0.482,2.889,1.553c1.165-0.9,3.033-1.553,4.296-1.553c3.179,0,3.761,1.965,3.761,4.197v7.982H188.754z"/>
	<path fill="#2E2119" d="M205.131,1068.428h1.553l0.17,1.941c-0.775,0.363-1.893,0.605-2.912,0.605
		c-1.045,0-1.797-0.242-1.917-1.432c0-0.021-0.024-0.021-0.049-0.047c-1.675,1.455-3.446,1.479-4.125,1.479
		c-2.961,0-3.689-2.086-3.689-3.471c0-2.473,1.916-3.688,4.416-3.834c0.924-0.072,2.33-0.119,3.252-0.191v-0.293
		c0-1.357-0.438-2.062-2.209-2.062c-1.164,0-2.668,0.242-3.785,0.607c-0.17-0.729-0.363-1.455-0.559-2.162
		c1.408-0.604,3.471-0.992,5.17-0.992c2.863,0,4.684,1.068,4.684,4.148V1068.428z M199.428,1065.586
		c-1.141,0.1-1.674,0.682-1.674,1.629c0,0.994,0.484,1.527,1.625,1.527c0.729,0,1.674-0.389,2.451-1.066v-2.281L199.428,1065.586z"
		/>
	<path fill="#2E2119" d="M216.559,1070.732v-7.377c0-1.238-0.194-2.135-1.699-2.135c-0.801,0-1.917,0.412-2.718,0.896v8.615h-3.494
		v-11.914h3.299l0.049,1.092l0.098,0.049c1.383-0.924,3.057-1.434,4.198-1.434c3.155,0,3.737,1.869,3.737,4.102v8.105H216.559z"/>
	<path fill="#2E2119" d="M228.423,1068.281c1.115,0,2.136-0.242,3.204-0.605l0.654,2.305c-1.189,0.605-2.862,0.947-4.488,0.947
		c-4.562,0-5.752-2.719-5.752-6.02c0-2.814,1.067-6.355,5.896-6.355c1.02,0,2.354,0.094,3.714,0.582
		c-0.171,0.799-0.34,1.6-0.534,2.426c-1.02-0.293-1.893-0.34-2.596-0.34c-1.942,0-2.961,1.334-2.961,3.541
		C225.561,1066.947,226.264,1068.281,228.423,1068.281"/>
	<path fill="#2E2119" d="M244.781,1064.326v1.238h-7.788c0,1.82,0.849,2.789,2.984,2.789c1.285,0,2.597-0.291,3.833-0.752
		l0.705,2.137c-1.578,0.873-3.398,1.189-5.049,1.189c-4.803,0-5.969-2.865-5.969-6.141c0-2.621,1.117-6.283,5.824-6.283
		C244.441,1058.504,244.781,1062.191,244.781,1064.326 M237.041,1063.43h4.587c-0.024-1.578-0.511-2.719-2.161-2.719
		C237.745,1060.711,237.162,1061.996,237.041,1063.43"/>
	<rect x="103.756" y="1081.15" fill="#2E2119" width="3.541" height="16.697"/>
	<path fill="#2E2119" d="M118.363,1097.848v-7.379c0-1.238-0.195-2.135-1.699-2.135c-0.801,0-1.917,0.412-2.718,0.896v8.617h-3.495
		v-11.916h3.301l0.049,1.092l0.097,0.051c1.383-0.924,3.058-1.434,4.198-1.434c3.154,0,3.738,1.867,3.738,4.1v8.107H118.363z"/>
	<path fill="#2E2119" d="M132.338,1086.395v-5.898h3.471v17.352h-3.229l-0.072-1.068c-0.024-0.023-0.047-0.049-0.072-0.049
		c-1.164,0.945-2.646,1.285-3.664,1.285c-3.714,0-4.732-2.717-4.732-5.871c0-3.689,1.358-6.504,5.145-6.504
		C129.961,1085.641,131.344,1085.809,132.338,1086.395 M132.338,1088.818c-0.559-0.338-1.625-0.654-2.402-0.654
		c-1.189,0-2.402,0.703-2.402,3.955c0,2.816,1.043,3.471,2.354,3.471c0.704,0,1.893-0.484,2.451-0.896V1088.818z"/>
	<path fill="#2E2119" d="M148.91,1091.439v1.238h-7.79c0,1.82,0.852,2.791,2.985,2.791c1.287,0,2.597-0.291,3.835-0.754l0.703,2.137
		c-1.577,0.873-3.397,1.189-5.049,1.189c-4.804,0-5.968-2.863-5.968-6.139c0-2.623,1.115-6.285,5.824-6.285
		C148.57,1085.617,148.91,1089.305,148.91,1091.439 M141.169,1090.543h4.587c-0.023-1.578-0.51-2.719-2.161-2.719
		C141.873,1087.824,141.291,1089.109,141.169,1090.543"/>
	<polygon fill="#2E2119" points="156.213,1093.428 153.688,1097.848 149.977,1097.848 154.077,1091.635 150.292,1085.932 
		154.102,1085.932 156.262,1089.959 158.445,1085.932 162.158,1085.932 158.299,1091.609 162.352,1097.848 158.566,1097.848 	"/>
	<path fill="#F4C61B" d="M73.593,1090.453c-1.935,0-3.503-1.566-3.503-3.5c0-1.936,1.567-3.504,3.503-3.504
		c1.933,0,3.503,1.568,3.503,3.504C77.096,1088.887,75.525,1090.453,73.593,1090.453"/>
	<path fill="#F4C61B" d="M76.868,1081.434c-1.356,0-2.456-1.1-2.456-2.457s1.1-2.455,2.456-2.455c1.356,0,2.454,1.098,2.454,2.455
		S78.225,1081.434,76.868,1081.434"/>
	<path fill="#F4C61B" d="M79.324,1074.686c-0.933,0-1.69-0.756-1.69-1.688c0-0.934,0.757-1.689,1.69-1.689
		c0.934,0,1.688,0.756,1.688,1.689C81.013,1073.93,80.258,1074.686,79.324,1074.686"/>
	<path fill="#F4C61B" d="M80.962,1070.23c-0.673,0-1.22-0.545-1.22-1.221c0-0.674,0.547-1.219,1.22-1.219
		c0.673,0,1.22,0.545,1.22,1.219C82.182,1069.686,81.635,1070.23,80.962,1070.23"/>
	<path fill="#7E90C8" d="M59.047,1075.939c-1.934,0-3.502-1.57-3.502-3.504c0-1.932,1.567-3.498,3.502-3.498
		c1.934,0,3.502,1.566,3.502,3.498C62.549,1074.369,60.98,1075.939,59.047,1075.939"/>
	<path fill="#7E90C8" d="M66.99,1071.545c-1.355,0-2.451-1.1-2.451-2.455c0-1.352,1.096-2.451,2.451-2.451
		c1.355,0,2.453,1.1,2.453,2.451C69.443,1070.445,68.345,1071.545,66.99,1071.545"/>
	<path fill="#7E90C8" d="M72.949,1068.264c-0.932,0-1.684-0.752-1.684-1.682s0.752-1.686,1.684-1.686
		c0.93,0,1.684,0.756,1.684,1.686S73.879,1068.264,72.949,1068.264"/>
	<path fill="#7E90C8" d="M76.92,1066.119c-0.668,0-1.211-0.541-1.211-1.211s0.543-1.213,1.211-1.213
		c0.672,0,1.214,0.543,1.214,1.213S77.592,1066.119,76.92,1066.119"/>
	<path fill="#0F9ACC" d="M59.021,1055.393c-1.933,0-3.501-1.566-3.501-3.504c0-1.932,1.568-3.498,3.501-3.498
		c1.935,0,3.503,1.566,3.503,3.498C62.523,1053.826,60.955,1055.393,59.021,1055.393"/>
	<path fill="#0F9ACC" d="M67.005,1057.588c-1.351,0-2.448-1.094-2.448-2.447c0-1.352,1.098-2.449,2.448-2.449
		c1.352,0,2.448,1.098,2.448,2.449C69.453,1056.494,68.356,1057.588,67.005,1057.588"/>
	<path fill="#0F9ACC" d="M72.992,1059.254c-0.924,0-1.676-0.75-1.676-1.676c0-0.928,0.752-1.678,1.676-1.678
		c0.928,0,1.678,0.75,1.678,1.678C74.67,1058.504,73.92,1059.254,72.992,1059.254"/>
	<path fill="#0F9ACC" d="M76.986,1060.406c-0.666,0-1.205-0.541-1.205-1.205c0-0.662,0.539-1.203,1.205-1.203
		c0.664,0,1.203,0.541,1.203,1.203C78.189,1059.865,77.65,1060.406,76.986,1060.406"/>
	<path fill="#3FBBA3" d="M73.533,1040.848c-1.934,0-3.504-1.57-3.504-3.504c0-1.936,1.57-3.502,3.504-3.502
		c1.933,0,3.502,1.566,3.502,3.502C77.035,1039.277,75.466,1040.848,73.533,1040.848"/>
	<path fill="#3FBBA3" d="M76.857,1047.74c-1.35,0-2.444-1.092-2.444-2.443c0-1.35,1.095-2.445,2.444-2.445s2.445,1.096,2.445,2.445
		C79.303,1046.648,78.207,1047.74,76.857,1047.74"/>
	<path fill="#3FBBA3" d="M79.352,1052.934c-0.924,0-1.674-0.748-1.674-1.672s0.75-1.672,1.674-1.672c0.922,0,1.67,0.748,1.67,1.672
		S80.273,1052.934,79.352,1052.934"/>
	<path fill="#3FBBA3" d="M81.013,1056.436c-0.661,0-1.196-0.535-1.196-1.195s0.535-1.197,1.196-1.197
		c0.661,0,1.196,0.537,1.196,1.197S81.674,1056.436,81.013,1056.436"/>
	<path fill="#F89624" d="M83.912,1110.146c-2.389,0-4.326-1.936-4.326-4.326c0-2.389,1.938-4.324,4.326-4.324
		c2.389,0,4.326,1.936,4.326,4.324C88.238,1108.211,86.301,1110.146,83.912,1110.146"/>
	<path fill="#F89624" d="M83.878,1097.824c-1.833,0-3.318-1.486-3.318-3.318c0-1.83,1.485-3.318,3.318-3.318
		s3.317,1.488,3.317,3.318C87.195,1096.338,85.711,1097.824,83.878,1097.824"/>
	<path fill="#F89624" d="M83.852,1088.439c-1.408,0-2.551-1.145-2.551-2.553c0-1.406,1.143-2.551,2.551-2.551
		c1.408,0,2.551,1.145,2.551,2.551C86.402,1087.295,85.26,1088.439,83.852,1088.439"/>
	<path fill="#F89624" d="M83.827,1079.688c-1.041,0-1.882-0.844-1.882-1.881c0-1.039,0.841-1.885,1.882-1.885
		c1.038,0,1.882,0.846,1.882,1.885C85.709,1078.844,84.865,1079.688,83.827,1079.688"/>
	<path fill="#F36F2D" d="M53.06,1097.408c-2.39,0-4.325-1.938-4.325-4.326c0-2.391,1.936-4.326,4.325-4.326
		c2.39,0,4.325,1.936,4.325,4.326C57.385,1095.471,55.449,1097.408,53.06,1097.408"/>
	<path fill="#F36F2D" d="M61.001,1088.338c-1.831,0-3.315-1.482-3.315-3.316c0-1.83,1.484-3.312,3.315-3.312
		c1.83,0,3.313,1.482,3.313,3.312C64.314,1086.855,62.831,1088.338,61.001,1088.338"/>
	<path fill="#F36F2D" d="M67.051,1081.428c-1.406,0-2.545-1.137-2.545-2.545c0-1.406,1.139-2.545,2.545-2.545
		c1.405,0,2.545,1.139,2.545,2.545C69.596,1080.291,68.456,1081.428,67.051,1081.428"/>
	<path fill="#F36F2D" d="M72.724,1075c-1.036,0-1.876-0.836-1.876-1.873c0-1.035,0.84-1.875,1.876-1.875
		c1.036,0,1.876,0.84,1.876,1.875C74.6,1074.164,73.76,1075,72.724,1075"/>
	<path fill="#3676BA" d="M40.248,1066.586c-2.39,0-4.326-1.938-4.326-4.328c0-2.387,1.937-4.326,4.326-4.326
		c2.389,0,4.325,1.939,4.325,4.326C44.573,1064.648,42.637,1066.586,40.248,1066.586"/>
	<path fill="#3676BA" d="M51.561,1065.48c-1.828,0-3.31-1.482-3.31-3.311s1.481-3.311,3.31-3.311c1.828,0,3.31,1.482,3.31,3.311
		S53.389,1065.48,51.561,1065.48"/>
	<path fill="#3676BA" d="M60.181,1064.637c-1.4,0-2.536-1.137-2.536-2.533c0-1.402,1.136-2.537,2.536-2.537
		c1.4,0,2.534,1.135,2.534,2.537C62.715,1063.5,61.581,1064.637,60.181,1064.637"/>
	<path fill="#3676BA" d="M68.262,1063.9c-1.029,0-1.863-0.832-1.863-1.863c0-1.027,0.834-1.863,1.863-1.863
		c1.029,0,1.862,0.836,1.862,1.863C70.124,1063.068,69.291,1063.9,68.262,1063.9"/>
	<path fill="#068D8C" d="M52.986,1035.734c-2.389,0-4.326-1.939-4.326-4.326c0-2.391,1.938-4.328,4.326-4.328
		c2.389,0,4.326,1.938,4.326,4.328C57.312,1033.795,55.375,1035.734,52.986,1035.734"/>
	<path fill="#068D8C" d="M61.021,1042.676c-1.825,0-3.305-1.479-3.305-3.305c0-1.824,1.479-3.305,3.305-3.305
		c1.826,0,3.307,1.48,3.307,3.305C64.328,1041.197,62.848,1042.676,61.021,1042.676"/>
	<path fill="#068D8C" d="M67.145,1047.969c-1.396,0-2.527-1.131-2.527-2.527s1.132-2.529,2.527-2.529
		c1.396,0,2.527,1.133,2.527,2.529S68.541,1047.969,67.145,1047.969"/>
	<path fill="#068D8C" d="M72.884,1052.982c-1.022,0-1.853-0.83-1.853-1.852c0-1.025,0.83-1.854,1.853-1.854
		c1.023,0,1.853,0.828,1.853,1.854C74.736,1052.152,73.907,1052.982,72.884,1052.982"/>
	<path fill="#2CB35F" d="M83.809,1022.922c-2.391,0-4.326-1.936-4.326-4.326c0-2.387,1.936-4.326,4.326-4.326
		c2.39,0,4.325,1.94,4.325,4.326C88.134,1020.986,86.198,1022.922,83.809,1022.922"/>
	<path fill="#2CB35F" d="M83.796,1033.213c-1.825,0-3.305-1.479-3.305-3.303s1.479-3.305,3.305-3.305
		c1.825,0,3.304,1.48,3.304,3.305S85.621,1033.213,83.796,1033.213"/>
	<path fill="#2CB35F" d="M83.785,1041.055c-1.395,0-2.524-1.129-2.524-2.523s1.13-2.527,2.524-2.527
		c1.396,0,2.526,1.133,2.526,2.527S85.181,1041.055,83.785,1041.055"/>
	<path fill="#2CB35F" d="M83.777,1048.463c-1.023,0-1.852-0.83-1.852-1.852s0.828-1.852,1.852-1.852c1.021,0,1.851,0.83,1.851,1.852
		S84.799,1048.463,83.777,1048.463"/>
</g>
<circle fill-rule="evenodd" clip-rule="evenodd" fill="#B6E2EA" cx="866.667" cy="346.556" r="157.256"/>
<path fill="none" stroke="#B6E2EA" stroke-width="14" stroke-miterlimit="10" d="M1023.924,381.537"/>
<path fill="none" stroke="#FFFFFF" stroke-width="14" stroke-miterlimit="10" d="M1023.924,381.536"/>
<circle fill-rule="evenodd" clip-rule="evenodd" fill="#FFFFFF" cx="866.667" cy="346.556" r="137.256"/>
<circle fill-rule="evenodd" clip-rule="evenodd" fill="#8D3D0C" cx="866.667" cy="346.556" r="123.256"/>
<rect x="760.429" y="321.397" fill="none" width="208.461" height="53.235"/>
<text transform="matrix(0.9 0 0 1 762.7519 343.686)"><tspan x="0" y="0" fill="#2BC0D2" font-family="'Helvetica-Bold'" font-size="31">PARTICULATE </tspan><tspan x="46.72" y="29" fill="#2BC0D2" font-family="'Helvetica-Bold'" font-size="31">MATTER</tspan></text>
</svg>
