<?xml version="1.0" encoding="utf-8"?>
<!-- Generator: Adobe Illustrator 18.0.0, SVG Export Plug-In . SVG Version: 6.00 Build 0)  -->
<!DOCTYPE svg PUBLIC "-//W3C//DTD SVG 1.1//EN" "http://www.w3.org/Graphics/SVG/1.1/DTD/svg11.dtd">
<svg version="1.1" id="Layer_1" xmlns="http://www.w3.org/2000/svg" xmlns:xlink="http://www.w3.org/1999/xlink" x="0px" y="0px"
	 viewBox="0 0 1600 1150" enable-background="new 0 0 1600 1150" xml:space="preserve">
<rect y="-1.234" fill="#C85B22" width="1599.5" height="981.796"/>
<g>
	<g>
		<path fill="#2BC0D2" d="M713.898,699.709h12.85c11.268,0,15.461,13.923,15.461,13.923h-28.311V699.709z"/>
		<path fill="#2BC0D2" d="M703.704,699.709h7.305v13.923h-22.745C688.264,713.633,692.435,699.709,703.704,699.709"/>
		<path fill="#2BC0D2" d="M674.85,739.017c-1.203,0.171-2.134,1.144-2.134,2.384c0,1.359,1.103,2.468,2.461,2.468h2.276
			c0.191,0,0.379-0.074,0.549-0.122c1.567,1.235,3.536,2.009,5.695,2.009h2.441c-0.432-1.19-0.68-2.452-0.68-3.791
			c0-6.117,4.963-11.083,11.082-11.083c6.109,0,11.076,4.966,11.076,11.083c0,1.339-0.25,2.601-0.682,3.791h20.948
			c-0.433-1.19-0.68-2.452-0.68-3.791c0-6.117,4.951-11.083,11.077-11.083c6.117,0,11.084,4.966,11.084,11.083
			c0,1.339-0.252,2.601-0.682,3.791h1.31c1.767,0,3.386-0.514,4.772-1.356h3.777c1.838,0,3.334-1.492,3.334-3.331
			c0-1.644-1.209-2.954-2.762-3.219c0.058-0.443,0.129-0.885,0.129-1.343v-10.962c0-5.1-4.144-9.248-9.251-9.248h-66.296
			c-5.113,0-9.242,4.148-9.242,9.248v10.962C674.455,737.387,674.611,738.231,674.85,739.017 M756.709,734.214
			c-0.534,0-0.965-1.925-0.965-4.285c0-2.368,0.431-4.294,0.965-4.294c0.529,0,0.953,1.925,0.953,4.294
			C757.662,732.29,757.238,734.214,756.709,734.214 M716.846,722.023c0-0.608,0.488-1.088,1.088-1.088h7.734
			c0.609,0,1.08,0.48,1.08,1.088v1.282c0,0.606-0.471,1.079-1.08,1.079h-7.734c-0.6,0-1.088-0.473-1.088-1.079V722.023z"/>
		<path fill="#2BC0D2" d="M738.281,732.922c-5.002,0-9.052,4.042-9.052,9.043c0,4.994,4.05,9.05,9.052,9.05
			c5.001,0,9.043-4.056,9.043-9.05C747.324,736.964,743.282,732.922,738.281,732.922 M738.281,746.104
			c-2.29,0-4.135-1.844-4.135-4.14c0-2.282,1.845-4.137,4.135-4.137c2.291,0,4.141,1.855,4.141,4.137
			C742.422,744.26,740.572,746.104,738.281,746.104"/>
		<path fill="#2BC0D2" d="M696.541,732.922c-5.009,0-9.045,4.042-9.045,9.043c0,4.994,4.036,9.05,9.045,9.05
			c4.994,0,9.045-4.056,9.045-9.05C705.586,736.964,701.535,732.922,696.541,732.922 M696.541,746.104
			c-2.297,0-4.135-1.844-4.135-4.14c0-2.282,1.838-4.137,4.135-4.137c2.283,0,4.135,1.855,4.135,4.137
			C700.676,744.26,698.824,746.104,696.541,746.104"/>
	</g>
</g>
<path opacity="0.6" fill="#FFFFFF" d="M572.544,753.042c12.031,0.418,17.206,44.979,17.206,44.979l14,93.521H0V578.659
	c0,0,89.032-19.477,119.236-19.477C403.75,559.181,345.75,745.169,572.544,753.042z"/>
<polygon fill="#FFFFFF" points="582.835,766.197 0.75,766.197 0.75,753.042 572.544,753.042 "/>
<g>
	<polygon fill="#2BC0D2" points="122.21,406.197 113.209,589.216 156.213,589.216 149.213,405.198 	"/>
	<polygon fill="#FFFFFF" points="121.406,423.079 120.696,437.448 150.232,437.536 149.7,423.079 	"/>
	<polygon fill="#FFFFFF" points="119.691,455.638 119.011,469.947 151.564,469.888 151.031,455.638 	"/>
	<polygon fill="#FFFFFF" points="117.977,488.845 117.267,503.036 152.864,503.036 152.332,488.785 	"/>
	<polygon fill="#FFFFFF" points="116.32,523.021 115.553,537.213 154.225,537.154 153.633,522.963 	"/>
	<polygon fill="#FFFFFF" points="114.605,558.384 113.896,572.635 155.525,572.694 154.934,558.325 	"/>
</g>
<g>
	<polygon fill="#2BC0D2" points="198.555,426.986 189.555,610.004 232.558,610.004 225.559,425.987 	"/>
	<polygon fill="#FFFFFF" points="197.751,443.868 197.041,458.237 226.578,458.325 226.045,443.868 	"/>
	<polygon fill="#FFFFFF" points="196.037,476.426 195.355,490.736 227.908,490.676 227.377,476.426 	"/>
	<polygon fill="#FFFFFF" points="194.321,509.633 193.611,523.825 229.209,523.825 228.678,509.574 	"/>
	<polygon fill="#FFFFFF" points="192.666,543.81 191.898,558.002 230.569,557.943 229.979,543.752 	"/>
	<polygon fill="#FFFFFF" points="190.951,579.172 190.241,593.423 231.87,593.483 231.279,579.114 	"/>
</g>
<circle fill="#8D3D0C" cx="478.992" cy="356.629" r="53.247"/>
<rect x="373.956" y="345.933" fill="none" width="208.462" height="24.222"/>
<text transform="matrix(1 0 0 1 451.4497 364.188)" fill="#2BC0D2" font-family="'Helvetica-Bold'" font-size="25.3895">NOx</text>
<circle fill="#8D3D0C" cx="528.624" cy="458.86" r="77.246"/>
<circle fill="#8D3D0C" cx="388.917" cy="393.257" r="47.713"/>
<rect x="283.881" y="382.561" fill="none" width="208.461" height="24.222"/>
<text transform="matrix(1 0 0 1 362.0752 400.8159)" fill="#2BC0D2" font-family="'Helvetica-Bold'" font-size="25.3895">SOx</text>
<circle fill="#8D3D0C" cx="655.172" cy="673.787" r="10.324"/>
<circle fill="#B6E2EA" cx="1157.816" cy="812.913" r="10.324"/>
<circle fill="#B6E2EA" cx="1168.141" cy="776.069" r="10.324"/>
<circle fill="#B6E2EA" cx="1157.817" cy="704.33" r="10.324"/>
<circle fill="#B6E2EA" cx="1283.588" cy="481.305" r="10.324"/>
<circle fill="#B6E2EA" cx="1252.897" cy="491.628" r="10.324"/>
<circle fill="#B6E2EA" cx="1122.786" cy="765.746" r="10.324"/>
<circle fill="#8D3D0C" cx="197.042" cy="352.476" r="10.324"/>
<circle fill="#8D3D0C" cx="189.555" cy="370.409" r="10.324"/>
<circle fill="#8D3D0C" cx="556.417" cy="586.298" r="10.324"/>
<circle fill="#8D3D0C" cx="275.813" cy="368.672" r="10.324"/>
<circle fill="#8D3D0C" cx="275.813" cy="405.198" r="10.324"/>
<circle fill="#8D3D0C" cx="232.558" cy="405.198" r="10.323"/>
<circle fill="#8D3D0C" cx="635.11" cy="599.741" r="10.323"/>
<circle fill="#8D3D0C" cx="150.232" cy="378.996" r="10.324"/>
<circle fill="#8D3D0C" cx="617.178" cy="650.12" r="17.932"/>
<circle fill="#B6E2EA" cx="1104.853" cy="702.042" r="17.932"/>
<circle fill="#B6E2EA" cx="1209.972" cy="491.628" r="17.932"/>
<circle fill="#8D3D0C" cx="211.81" cy="367.257" r="17.933"/>
<circle fill="#8D3D0C" cx="168.165" cy="364.581" r="17.932"/>
<circle fill="#8D3D0C" cx="257.881" cy="370.408" r="17.932"/>
<circle fill="#8D3D0C" cx="590.476" cy="565.51" r="17.932"/>
<circle fill="#8D3D0C" cx="250.49" cy="394.875" r="17.932"/>
<circle fill="#8D3D0C" cx="294.157" cy="376.942" r="17.933"/>
<circle fill="#8D3D0C" cx="658.578" cy="708.34" r="4.01"/>
<circle fill="#B6E2EA" cx="1168.141" cy="844.981" r="4.01"/>
<circle fill="#B6E2EA" cx="1248.887" cy="534.199" r="4.01"/>
<circle fill="#B6E2EA" cx="1315.217" cy="491.628" r="4.01"/>
<circle fill="#B6E2EA" cx="1139.475" cy="866.981" r="4.01"/>
<circle fill="#8D3D0C" cx="658.578" cy="736.115" r="4.01"/>
<circle fill-rule="evenodd" clip-rule="evenodd" fill="#B6E2EA" cx="1135.484" cy="577.188" r="74.489"/>
<circle fill="#8D3D0C" cx="640.869" cy="712.35" r="8.02"/>
<circle fill="#8D3D0C" cx="176.185" cy="380.783" r="8.021"/>
<circle fill="#8D3D0C" cx="286.137" cy="356.561" r="8.02"/>
<g>
	<path fill-rule="evenodd" clip-rule="evenodd" fill="#B6E2EA" d="M1606.328,224.721c20.034-6.505,34.422-0.369,43.601,18.1
		c0.515,1.037,2.284,1.824,3.584,2.042c15.021,2.513,25.293,10.811,29.723,25.372c4.47,14.69,0.681,27.599-10.504,38.105
		c-7.025,6.599-15.674,9.004-25.209,8.992c-45.403-0.059-90.807-0.014-136.211-0.059c-2.74-0.003-5.521-0.245-8.215-0.747
		c-13.934-2.602-24.504-14.662-25.129-28.507c-0.672-14.878,8.562-27.954,22.795-31.664c3.146-0.82,4.436-2.037,5.018-5.222
		c4.226-23.137,17.699-38.836,40.102-45.336c22.763-6.604,42.721-0.325,58.932,17.183
		C1605.301,223.505,1605.756,224.061,1606.328,224.721z"/>
</g>
<g>
	<circle fill-rule="evenodd" clip-rule="evenodd" fill="#FFFFFF" cx="1335.982" cy="324.385" r="84.203"/>
	<g>
		<polygon fill-rule="evenodd" clip-rule="evenodd" fill="#FFFFFF" points="1335.794,207.376 1335.794,207.112 1335.927,207.245 
			1336.059,207.112 1336.059,207.376 1354.247,225.562 1336.059,225.562 1335.794,225.562 1317.608,225.562 		"/>
		<polygon fill-rule="evenodd" clip-rule="evenodd" fill="#FFFFFF" points="1335.794,447.389 1335.794,447.653 1335.927,447.52 
			1336.059,447.653 1336.059,447.389 1354.247,429.202 1336.059,429.202 1335.794,429.202 1317.608,429.202 		"/>
	</g>
	<g>
		<polygon fill-rule="evenodd" clip-rule="evenodd" fill="#FFFFFF" points="1275.809,223.521 1275.677,223.292 1275.858,223.34 
			1275.906,223.16 1276.038,223.388 1300.883,230.044 1285.132,239.138 1284.901,239.27 1269.153,248.363 		"/>
		<polygon fill-rule="evenodd" clip-rule="evenodd" fill="#FFFFFF" points="1395.814,431.378 1395.947,431.607 1395.996,431.425 
			1396.176,431.474 1396.044,431.245 1402.702,406.402 1386.951,415.496 1386.721,415.628 1370.973,424.721 		"/>
	</g>
	<g>
		<polygon fill-rule="evenodd" clip-rule="evenodd" fill="#FFFFFF" points="1231.932,267.496 1231.702,267.363 1231.885,267.315 
			1231.834,267.134 1232.063,267.266 1256.908,260.608 1247.814,276.359 1247.682,276.589 1238.589,292.337 		"/>
		<polygon fill-rule="evenodd" clip-rule="evenodd" fill="#FFFFFF" points="1439.789,387.502 1440.018,387.634 1439.969,387.452 
			1440.149,387.404 1439.921,387.272 1433.266,362.428 1424.172,378.179 1424.038,378.409 1414.947,394.158 		"/>
	</g>
	<g>
		<polygon fill-rule="evenodd" clip-rule="evenodd" fill="#FFFFFF" points="1215.921,327.516 1215.655,327.516 1215.789,327.383 
			1215.655,327.251 1215.92,327.251 1234.107,309.063 1234.107,327.251 1234.107,327.516 1234.105,345.701 		"/>
		<polygon fill-rule="evenodd" clip-rule="evenodd" fill="#FFFFFF" points="1455.934,327.516 1456.196,327.516 1456.064,327.383 
			1456.196,327.251 1455.932,327.251 1437.747,309.062 1437.747,327.251 1437.747,327.516 1437.747,345.701 		"/>
	</g>
	<g>
		<polygon fill-rule="evenodd" clip-rule="evenodd" fill="#FFFFFF" points="1232.064,387.501 1231.836,387.633 1231.885,387.452 
			1231.702,387.404 1231.932,387.272 1238.589,362.426 1247.683,378.178 1247.815,378.408 1256.907,394.156 		"/>
		<polygon fill-rule="evenodd" clip-rule="evenodd" fill="#FFFFFF" points="1439.922,267.495 1440.15,267.363 1439.97,267.314 
			1440.018,267.133 1439.789,267.265 1414.945,260.606 1424.039,276.358 1424.173,276.587 1433.264,292.336 		"/>
	</g>
	<g>
		<polygon fill-rule="evenodd" clip-rule="evenodd" fill="#FFFFFF" points="1276.039,431.377 1275.907,431.606 1275.858,431.424 
			1275.678,431.474 1275.81,431.245 1269.151,406.4 1284.903,415.494 1285.134,415.626 1300.881,424.72 		"/>
		<polygon fill-rule="evenodd" clip-rule="evenodd" fill="#FFFFFF" points="1396.047,223.52 1396.179,223.292 1395.997,223.34 
			1395.947,223.16 1395.816,223.388 1370.972,230.044 1386.723,239.137 1386.954,239.269 1402.701,248.362 		"/>
	</g>
</g>
<g>
	<path fill-rule="evenodd" clip-rule="evenodd" fill="#B6E2EA" d="M1376.685,365.419c-20.034-6.505-34.422-0.369-43.601,18.1
		c-0.515,1.037-2.284,1.824-3.584,2.042c-15.021,2.513-25.293,10.812-29.723,25.372c-4.47,14.69-0.681,27.599,10.504,38.105
		c7.025,6.599,15.674,9.004,25.209,8.992c45.403-0.059,90.807-0.014,136.211-0.059c2.74-0.002,5.521-0.245,8.215-0.747
		c13.934-2.602,24.504-14.662,25.129-28.507c0.672-14.878-8.562-27.954-22.795-31.664c-3.146-0.82-4.436-2.037-5.018-5.222
		c-4.226-23.137-17.699-38.836-40.102-45.336c-22.763-6.604-42.721-0.325-58.932,17.183
		C1377.712,364.204,1377.257,364.759,1376.685,365.419z"/>
</g>
<g>
	<rect x="572.544" y="753.042" fill="#FFFFFF" width="1032.527" height="12.703"/>
	<rect x="855.395" y="577.188" fill="#FFFFFF" width="25.167" height="317.854"/>
	<rect x="1290.049" y="577.188" fill="#FFFFFF" width="25.168" height="317.854"/>
	<g>
		<path fill="none" stroke="#FFFFFF" stroke-width="2" stroke-miterlimit="10" d="M1505.114,751.435v4.32V751.435
			c-6.419-0.429-12.751-1.128-18.99-2.065v6.385v-6.385c-6.438-0.966-12.771-2.198-18.989-3.678v10.062v-10.062
			c-6.463-1.539-12.799-3.347-18.99-5.411v15.474v-15.474c-6.494-2.165-12.83-4.61-18.989-7.32v22.794v-22.794
			c-6.536-2.877-12.877-6.046-18.99-9.499v32.293v-32.293c-6.601-3.727-12.938-7.779-18.989-12.127v44.42v-44.42
			c-6.699-4.815-13.041-9.995-18.99-15.505v59.925V695.83c-6.879-6.371-13.227-13.185-18.989-20.385v80.311v-80.311
			c-7.317-9.144-13.695-18.908-18.99-29.193v109.504V646.252"/>
		<path fill="none" stroke="#FFFFFF" stroke-width="2" stroke-miterlimit="10" d="M839.546,641.876
			c-1.001,2.092-2.054,4.16-3.142,6.211v107.668V648.087c-5.34,10.065-11.702,19.628-18.99,28.575v79.093v-79.093
			c-5.775,7.091-12.125,13.795-18.989,20.065v59.028v-59.028c-5.954,5.439-12.3,10.545-18.989,15.294v43.734v-43.734
			c-6.057,4.299-12.392,8.306-18.99,11.986v31.748v-31.748c-6.116,3.411-12.456,6.54-18.99,9.378v22.37v-22.37
			c-6.16,2.676-12.496,5.089-18.989,7.22v15.15v-15.15c-6.193,2.034-12.528,3.809-18.99,5.318v9.832v-9.832
			c-6.218,1.451-12.553,2.65-18.989,3.588v6.244v-6.244c-6.24,0.909-12.572,1.577-18.99,1.979v4.264v-4.264"/>
		<path fill="none" stroke="#FFFFFF" stroke-width="2" stroke-miterlimit="10" d="M1274.201,641.876
			c-1.002,2.092-2.054,4.16-3.143,6.211v107.668V648.087c-5.236,9.872-11.458,19.261-18.57,28.059v79.609v-79.609
			c-5.652,6.991-11.862,13.611-18.572,19.812v59.796v-59.796c-5.825,5.385-12.025,10.456-18.569,15.176v44.621v-44.621
			c-5.92,4.27-12.123,8.248-18.572,11.924v32.697v-32.697c-5.982,3.409-12.178,6.558-18.57,9.414v23.282v-23.282
			c-6.022,2.692-12.22,5.127-18.569,7.296v15.987v-15.987c-6.057,2.069-12.252,3.896-18.573,5.46v10.527v-10.527
			c-6.078,1.504-12.274,2.763-18.569,3.775v6.751v-6.751c-6.1,0.981-12.295,1.719-18.571,2.215v4.537v-4.537
			c-6.118,0.483-12.31,0.744-18.571,0.745v3.791v-3.791c-0.015,0-0.029,0-0.045,0c-6.246,0-12.422-0.259-18.526-0.739v4.53v-4.53
			c-6.276-0.493-12.472-1.228-18.571-2.206v6.737v-6.737c-6.295-1.01-12.49-2.267-18.569-3.769v10.505V745.25
			c-6.321-1.562-12.516-3.386-18.572-5.452v15.957v-15.957c-6.35-2.165-12.547-4.598-18.57-7.287v23.244v-23.244
			c-6.393-2.854-12.588-5.997-18.571-9.403v32.646v-32.646c-6.449-3.67-12.65-7.646-18.571-11.911v44.558v-44.558
			c-6.542-4.714-12.744-9.777-18.569-15.156v59.713v-59.713c-6.708-6.192-12.919-12.803-18.572-19.784v79.498v-79.498
			c-7.109-8.781-13.33-18.151-18.57-28.003v107.501V648.254"/>
	</g>
	<path fill="none" stroke="#FFFFFF" stroke-width="2" stroke-miterlimit="10" d="M1334.206,646.252
		c-8.411-13.369-20.182-67.593-20.182-67.593"/>
	<path fill="none" stroke="#FFFFFF" stroke-width="2" stroke-miterlimit="10" d="M1270.842,648.853
		c8.411-13.369,20.182-70.194,20.182-70.194"/>
	<path fill="none" stroke="#FFFFFF" stroke-width="2" stroke-miterlimit="10" d="M837.365,646.252
		c8.41-13.369,19.548-65.897,19.548-65.897"/>
	<path fill="none" stroke="#FFFFFF" stroke-width="2" stroke-miterlimit="10" d="M899.641,648.254
		c-8.412-13.369-20.008-67.9-20.008-67.9"/>
</g>
<rect x="1231.739" y="315.701" fill="none" width="208.461" height="23.362"/>
<text transform="matrix(1 0 0 1 1268.8672 333.9561)" fill="#2BC0D2" font-family="'Helvetica-Bold'" font-size="25.3895">SUNLIGHT</text>
<rect x="1031.244" y="553.504" fill="none" width="208.461" height="46.723"/>
<text transform="matrix(1 0 0 1 1087.666 571.7588)"><tspan x="0" y="0" fill="#2BC0D2" font-family="'Helvetica-Bold'" font-size="25.3895">WATER</tspan><tspan x="1.395" y="27.698" fill="#2BC0D2" font-family="'Helvetica-Bold'" font-size="25.3895">VAPOR</tspan></text>
<rect x="424.393" y="447.847" fill="none" width="208.461" height="24.222"/>
<text transform="matrix(1 0 0 1 464.665 466.1021)" fill="#2BC0D2" font-family="'Helvetica-Bold'" font-size="25.3895">AMMONIA</text>
<path fill="#B6E2EA" d="M1568.821,880.727c0,5.973-14.626,10.815-32.669,10.815c-18.041,0-32.667-4.842-32.667-10.815
	c0,5.973-14.627,10.815-32.669,10.815c-18.035,0-32.657-4.839-32.668-10.809c-0.01,5.97-14.633,10.809-32.668,10.809
	c-18.042,0-32.668-4.842-32.668-10.815c0,5.973-14.626,10.815-32.669,10.815c-18.042,0-32.667-4.842-32.667-10.815
	c0,5.973-14.627,10.815-32.67,10.815c-18.041,0-32.667-4.842-32.667-10.815c0,5.973-14.626,10.815-32.669,10.815
	c-18.035,0-32.657-4.839-32.668-10.809c-0.01,5.97-14.631,10.809-32.668,10.809c-18.041,0-32.668-4.842-32.668-10.815
	c0,5.973-14.625,10.815-32.668,10.815c-18.042,0-32.668-4.842-32.668-10.815c0,5.973-14.626,10.815-32.669,10.815
	c-18.041,0-32.667-4.842-32.667-10.815c0,5.973-14.627,10.815-32.669,10.815c-18.036,0-32.657-4.839-32.667-10.809
	c-0.011,5.97-14.633,10.809-32.669,10.809c-18.042,0-32.668-4.842-32.668-10.815c0,5.973-14.626,10.815-32.669,10.815
	c-18.042,0-32.668-4.842-32.668-10.815c0,5.973-14.626,10.815-32.668,10.815s-32.668-4.842-32.668-10.815
	c0,5.973-14.626,10.815-32.668,10.815c-18.039,0-32.663-4.841-32.668-10.811c-0.006,5.971-14.629,10.811-32.668,10.811
	c-18.043,0-32.668-4.842-32.668-10.815c0,5.973-14.627,10.815-32.669,10.815s-32.668-4.842-32.668-10.815
	c0,5.973-14.626,10.815-32.669,10.815c-18.041,0-32.668-4.842-32.668-10.815c0,5.973-14.625,10.815-32.668,10.815
	c-18.039,0-32.663-4.841-32.668-10.811c-0.005,5.971-14.629,10.811-32.668,10.811c-18.042,0-32.668-4.842-32.668-10.815
	c0,5.973-14.626,10.815-32.668,10.815c-18.043,0-32.668-4.842-32.668-10.815c0,5.973-14.627,10.815-32.67,10.815
	c-18.041,0-32.667-4.842-32.667-10.815c0,5.973-14.626,10.815-32.669,10.815c-18.038,0-32.662-4.841-32.667-10.811
	c-0.005,5.971-14.629,10.811-32.669,10.811c-18.041,0-32.668-4.842-32.668-10.815c0,5.973-14.625,10.815-32.668,10.815
	c-18.042,0-32.668-4.842-32.668-10.815v99.835H1599.5v-89.042C1582.385,891.18,1568.821,886.479,1568.821,880.727z"/>
<g opacity="0.3">
	<path fill="#FFFFFF" d="M791.291,359.681c1.92,0,3.649,0.31,5.19,0.93c1.54,0.621,2.859,1.47,3.96,2.55
		c1.1,1.08,1.94,2.331,2.52,3.75c0.579,1.42,0.87,2.95,0.87,4.59c0,2.52-0.531,4.701-1.59,6.54c-1.06,1.84-2.79,3.24-5.19,4.2v0.12
		c1.16,0.321,2.12,0.81,2.88,1.47c0.76,0.66,1.38,1.44,1.86,2.34c0.479,0.9,0.829,1.89,1.05,2.97c0.22,1.08,0.369,2.16,0.45,3.24
		c0.039,0.681,0.079,1.48,0.12,2.4c0.039,0.921,0.109,1.86,0.21,2.82c0.099,0.96,0.26,1.87,0.479,2.73
		c0.22,0.86,0.55,1.59,0.99,2.19h-9.42c-0.521-1.359-0.84-2.979-0.96-4.86c-0.12-1.88-0.3-3.68-0.54-5.4
		c-0.32-2.24-1-3.879-2.04-4.92c-1.041-1.039-2.74-1.56-5.1-1.56h-9.42v16.74h-9.42v-42.84H791.291z M787.931,379.061
		c2.16,0,3.78-0.48,4.86-1.44c1.08-0.96,1.62-2.52,1.62-4.68c0-2.079-0.54-3.59-1.62-4.53c-1.08-0.939-2.7-1.41-4.86-1.41h-10.319
		v12.06H787.931z"/>
	<path fill="#FFFFFF" d="M843.55,359.681v7.92h-22.62v9.18h20.761v7.32H820.93v10.5h23.101v7.92h-32.52v-42.84H843.55z"/>
	<path fill="#FFFFFF" d="M871.75,359.681l16.019,42.84h-9.779l-3.24-9.54h-16.019l-3.36,9.54h-9.481l16.2-42.84H871.75z
		 M872.29,385.961l-5.4-15.72h-0.12l-5.579,15.72H872.29z"/>
	<path fill="#FFFFFF" d="M918.97,371.111c-0.561-0.9-1.26-1.689-2.101-2.37c-0.84-0.68-1.79-1.21-2.85-1.59
		c-1.06-0.379-2.17-0.57-3.33-0.57c-2.12,0-3.921,0.411-5.4,1.23c-1.48,0.82-2.681,1.92-3.6,3.3c-0.921,1.38-1.59,2.951-2.01,4.71
		c-0.42,1.761-0.63,3.581-0.63,5.46c0,1.8,0.21,3.551,0.63,5.25c0.42,1.701,1.089,3.231,2.01,4.59c0.92,1.36,2.12,2.451,3.6,3.27
		c1.479,0.82,3.279,1.23,5.4,1.23c2.88,0,5.13-0.879,6.75-2.64c1.62-1.76,2.61-4.08,2.97-6.96h9.12c-0.239,2.68-0.86,5.1-1.859,7.26
		c-1.001,2.16-2.32,4.001-3.96,5.52c-1.641,1.521-3.561,2.681-5.761,3.48c-2.2,0.8-4.619,1.2-7.26,1.2c-3.28,0-6.231-0.57-8.85-1.71
		c-2.62-1.14-4.83-2.71-6.63-4.71c-1.801-2-3.181-4.35-4.141-7.05c-0.96-2.7-1.439-5.61-1.439-8.73c0-3.199,0.479-6.169,1.439-8.91
		c0.96-2.739,2.34-5.13,4.141-7.17c1.8-2.04,4.01-3.64,6.63-4.8c2.619-1.16,5.569-1.74,8.85-1.74c2.359,0,4.59,0.34,6.69,1.02
		c2.1,0.681,3.979,1.67,5.64,2.97c1.659,1.3,3.03,2.91,4.11,4.83c1.08,1.92,1.76,4.12,2.04,6.6h-9.12
		C919.89,373.001,919.529,372.011,918.97,371.111z"/>
	<path fill="#FFFFFF" d="M932.59,367.601v-7.92h35.1v7.92h-12.84v34.92h-9.42v-34.92H932.59z"/>
</g>
<g>
	<g>
		<path fill="#F5C714" d="M791.291,359.681c1.92,0,3.649,0.31,5.19,0.93c1.54,0.621,2.859,1.47,3.96,2.55
			c1.1,1.08,1.94,2.331,2.52,3.75c0.579,1.42,0.87,2.95,0.87,4.59c0,2.52-0.531,4.701-1.59,6.54c-1.06,1.84-2.79,3.24-5.19,4.2v0.12
			c1.16,0.321,2.12,0.81,2.88,1.47c0.76,0.66,1.38,1.44,1.86,2.34c0.479,0.9,0.829,1.89,1.05,2.97c0.22,1.08,0.369,2.16,0.45,3.24
			c0.039,0.681,0.079,1.48,0.12,2.4c0.039,0.921,0.109,1.86,0.21,2.82c0.099,0.96,0.26,1.87,0.479,2.73
			c0.22,0.86,0.55,1.59,0.99,2.19h-9.42c-0.521-1.359-0.84-2.979-0.96-4.86c-0.12-1.88-0.3-3.68-0.54-5.4
			c-0.32-2.24-1-3.879-2.04-4.92c-1.041-1.039-2.74-1.56-5.1-1.56h-9.42v16.74h-9.42v-42.84H791.291z M787.931,379.061
			c2.16,0,3.78-0.48,4.86-1.44c1.08-0.96,1.62-2.52,1.62-4.68c0-2.079-0.54-3.59-1.62-4.53c-1.08-0.939-2.7-1.41-4.86-1.41h-10.319
			v12.06H787.931z"/>
		<path fill="#F5C714" d="M843.55,359.681v7.92h-22.62v9.18h20.761v7.32H820.93v10.5h23.101v7.92h-32.52v-42.84H843.55z"/>
		<path fill="#F5C714" d="M871.75,359.681l16.019,42.84h-9.779l-3.24-9.54h-16.019l-3.36,9.54h-9.481l16.2-42.84H871.75z
			 M872.29,385.961l-5.4-15.72h-0.12l-5.579,15.72H872.29z"/>
		<path fill="#F5C714" d="M918.97,371.111c-0.561-0.9-1.26-1.689-2.101-2.37c-0.84-0.68-1.79-1.21-2.85-1.59
			c-1.06-0.379-2.17-0.57-3.33-0.57c-2.12,0-3.921,0.411-5.4,1.23c-1.48,0.82-2.681,1.92-3.6,3.3c-0.921,1.38-1.59,2.951-2.01,4.71
			c-0.42,1.761-0.63,3.581-0.63,5.46c0,1.8,0.21,3.551,0.63,5.25c0.42,1.701,1.089,3.231,2.01,4.59c0.92,1.36,2.12,2.451,3.6,3.27
			c1.479,0.82,3.279,1.23,5.4,1.23c2.88,0,5.13-0.879,6.75-2.64c1.62-1.76,2.61-4.08,2.97-6.96h9.12
			c-0.239,2.68-0.86,5.1-1.859,7.26c-1.001,2.16-2.32,4.001-3.96,5.52c-1.641,1.521-3.561,2.681-5.761,3.48
			c-2.2,0.8-4.619,1.2-7.26,1.2c-3.28,0-6.231-0.57-8.85-1.71c-2.62-1.14-4.83-2.71-6.63-4.71c-1.801-2-3.181-4.35-4.141-7.05
			c-0.96-2.7-1.439-5.61-1.439-8.73c0-3.199,0.479-6.169,1.439-8.91c0.96-2.739,2.34-5.13,4.141-7.17c1.8-2.04,4.01-3.64,6.63-4.8
			c2.619-1.16,5.569-1.74,8.85-1.74c2.359,0,4.59,0.34,6.69,1.02c2.1,0.681,3.979,1.67,5.64,2.97c1.659,1.3,3.03,2.91,4.11,4.83
			c1.08,1.92,1.76,4.12,2.04,6.6h-9.12C919.89,373.001,919.529,372.011,918.97,371.111z"/>
		<path fill="#F5C714" d="M932.59,367.601v-7.92h35.1v7.92h-12.84v34.92h-9.42v-34.92H932.59z"/>
	</g>
</g>
<rect x="37.683" y="39.083" fill="none" width="865.325" height="38.607"/>
<text transform="matrix(1 0 0 1 34.6826 73.5942)"><tspan x="0" y="0" fill="#FFFFFF" font-family="'Helvetica-Bold'" font-size="48">PM: </tspan><tspan x="101.32" y="0" fill="#F5C714" font-family="'Helvetica-Bold'" font-size="48">INDIRECT EMISSIONS </tspan></text>
<rect x="38.283" y="90.553" fill="none" width="863.957" height="71.132"/>
<text transform="matrix(1 0 0 1 38.2832 103.4053)"><tspan x="0" y="0" fill="#FFFFFF" font-family="'HelveticaNeue-Medium'" font-size="18">WORDS</tspan><tspan x="68.003" y="0" fill="#FFFFFF" font-family="'HelveticaNeue-Medium'" font-size="18"> </tspan><tspan x="72.794" y="0" fill="#FFFFFF" font-family="'HelveticaNeue-Medium'" font-size="18">WORDS</tspan><tspan x="140.797" y="0" fill="#FFFFFF" font-family="'HelveticaNeue-Medium'" font-size="18"> </tspan><tspan x="145.589" y="0" fill="#FFFFFF" font-family="'HelveticaNeue-Medium'" font-size="18">WORDS</tspan><tspan x="213.592" y="0" fill="#FFFFFF" font-family="'HelveticaNeue-Medium'" font-size="18"> </tspan><tspan x="218.384" y="0" fill="#FFFFFF" font-family="'HelveticaNeue-Medium'" font-size="18">WORDS</tspan><tspan x="286.387" y="0" fill="#FFFFFF" font-family="'HelveticaNeue-Medium'" font-size="18"> </tspan><tspan x="291.179" y="0" fill="#FFFFFF" font-family="'HelveticaNeue-Medium'" font-size="18">WORDS</tspan><tspan x="359.182" y="0" fill="#FFFFFF" font-family="'HelveticaNeue-Medium'" font-size="18"> </tspan><tspan x="363.973" y="0" fill="#FFFFFF" font-family="'HelveticaNeue-Medium'" font-size="18">WORDS</tspan><tspan x="431.976" y="0" fill="#FFFFFF" font-family="'HelveticaNeue-Medium'" font-size="18"> </tspan><tspan x="436.768" y="0" fill="#FFFFFF" font-family="'HelveticaNeue-Medium'" font-size="18">WORDS</tspan><tspan x="504.771" y="0" fill="#FFFFFF" font-family="'HelveticaNeue-Medium'" font-size="18"> </tspan><tspan x="509.562" y="0" fill="#FFFFFF" font-family="'HelveticaNeue-Medium'" font-size="18">WORDS</tspan><tspan x="577.565" y="0" fill="#FFFFFF" font-family="'HelveticaNeue-Medium'" font-size="18"> </tspan><tspan x="582.357" y="0" fill="#FFFFFF" font-family="'HelveticaNeue-Medium'" font-size="18">WORDS</tspan><tspan x="650.36" y="0" fill="#FFFFFF" font-family="'HelveticaNeue-Medium'" font-size="18"> </tspan><tspan x="655.152" y="0" fill="#FFFFFF" font-family="'HelveticaNeue-Medium'" font-size="18">WORDSWORDS</tspan><tspan x="791.159" y="0" fill="#FFFFFF" font-family="'HelveticaNeue-Medium'" font-size="18"> </tspan><tspan x="795.95" y="0" fill="#FFFFFF" font-family="'HelveticaNeue-Medium'" font-size="18">WORDS </tspan><tspan x="0" y="21.6" fill="#FFFFFF" font-family="'HelveticaNeue-Medium'" font-size="18">WORDS</tspan><tspan x="68.003" y="21.6" fill="#FFFFFF" font-family="'HelveticaNeue-Medium'" font-size="18"> </tspan><tspan x="73.327" y="21.6" fill="#FFFFFF" font-family="'HelveticaNeue-Medium'" font-size="18">WORDS</tspan><tspan x="141.33" y="21.6" fill="#FFFFFF" font-family="'HelveticaNeue-Medium'" font-size="18"> </tspan><tspan x="146.654" y="21.6" fill="#FFFFFF" font-family="'HelveticaNeue-Medium'" font-size="18">WORDSWORDS</tspan><tspan x="282.66" y="21.6" fill="#FFFFFF" font-family="'HelveticaNeue-Medium'" font-size="18"> </tspan><tspan x="287.984" y="21.6" fill="#FFFFFF" font-family="'HelveticaNeue-Medium'" font-size="18">WORDS</tspan><tspan x="355.987" y="21.6" fill="#FFFFFF" font-family="'HelveticaNeue-Medium'" font-size="18"> </tspan><tspan x="361.311" y="21.6" fill="#FFFFFF" font-family="'HelveticaNeue-Medium'" font-size="18">WORDS</tspan><tspan x="429.314" y="21.6" fill="#FFFFFF" font-family="'HelveticaNeue-Medium'" font-size="18"> </tspan><tspan x="434.638" y="21.6" fill="#FFFFFF" font-family="'HelveticaNeue-Medium'" font-size="18">WORDS</tspan><tspan x="502.641" y="21.6" fill="#FFFFFF" font-family="'HelveticaNeue-Medium'" font-size="18"> </tspan><tspan x="507.965" y="21.6" fill="#FFFFFF" font-family="'HelveticaNeue-Medium'" font-size="18">WORDSWORDS</tspan><tspan x="643.971" y="21.6" fill="#FFFFFF" font-family="'HelveticaNeue-Medium'" font-size="18"> </tspan><tspan x="649.295" y="21.6" fill="#FFFFFF" font-family="'HelveticaNeue-Medium'" font-size="18">WORDS</tspan><tspan x="717.298" y="21.6" fill="#FFFFFF" font-family="'HelveticaNeue-Medium'" font-size="18"> </tspan><tspan x="722.623" y="21.6" fill="#FFFFFF" font-family="'HelveticaNeue-Medium'" font-size="18">WORDS</tspan><tspan x="790.625" y="21.6" fill="#FFFFFF" font-family="'HelveticaNeue-Medium'" font-size="18"> </tspan><tspan x="795.95" y="21.6" fill="#FFFFFF" font-family="'HelveticaNeue-Medium'" font-size="18">WORDS </tspan><tspan x="0" y="43.2" fill="#FFFFFF" font-family="'HelveticaNeue-Medium'" font-size="18">WORDSWORDS WORDS WORDS WORDS WORDS</tspan></text>
<rect x="1.715" y="980.426" fill="#FFFFFF" width="1600" height="165.762"/>
<text transform="matrix(1 0 0 1 341.4219 1043.3276)"><tspan x="0" y="0" fill="#010101" font-family="'Helvetica'" font-size="18">Re</tspan><tspan x="23.01" y="0" fill="#010101" font-family="'Helvetica'" font-size="18">f</tspan><tspan x="27.849" y="0" fill="#010101" font-family="'Helvetica'" font-size="18">erences</tspan></text>
<g>
	<polygon fill="#2E2119" points="105.247,1043.094 105.247,1026.399 116.749,1026.399 116.749,1028.924 108.86,1028.924 
		108.86,1033.17 115.485,1033.17 115.485,1035.549 108.86,1035.549 108.86,1040.547 117.089,1040.547 117.089,1043.094 	"/>
	<path fill="#2E2119" d="M127.312,1043.094v-7.375c0-1.24-0.194-2.137-1.698-2.137c-0.801,0-1.917,0.414-2.718,0.896v8.615h-3.495
		v-11.914h3.301l0.049,1.09l0.097,0.051c1.382-0.924,3.058-1.432,4.198-1.432c3.154,0,3.736,1.869,3.736,4.102v8.104H127.312z"/>
	<path fill="#2E2119" d="M138.677,1040.79c0.121-0.314,0.776-3.082,1.164-4.32c0.535-1.553,1.53-4.949,1.651-5.289h3.494
		c-0.874,2.451-3.227,9.486-4.101,11.914h-4.732c-0.85-2.428-3.229-9.463-4.078-11.914h3.642l1.722,5.531
		c0.268,0.85,0.826,3.252,1.117,4.078H138.677z"/>
	<path fill="#2E2119" d="M148.528,1029.723c-1.287,0-1.99-0.824-1.99-1.842c0-1.068,0.729-1.871,1.99-1.871
		c1.335,0,2.061,0.803,2.061,1.871C150.59,1028.899,149.863,1029.723,148.528,1029.723 M146.805,1031.18h3.47v11.914h-3.47V1031.18z
		"/>
	<path fill="#2E2119" d="M156.797,1033.292c1.309-1.287,3.203-2.428,4.538-2.428c0.486,0,0.678,0.293,0.678,0.803
		c0,0.896-0.581,2.717-1.09,3.422l-4.053-0.049v8.055h-3.471v-11.914h3.422c0,0.557-0.072,1.48-0.145,2.039L156.797,1033.292z"/>
	<path fill="#2E2119" d="M168.808,1043.338c-4.416,0-5.945-2.766-5.945-6.188c0-3.35,1.699-6.238,6.092-6.238
		c4.439,0,5.969,2.889,5.969,6.213S173.347,1043.338,168.808,1043.338 M168.954,1033.364c-1.99,0-2.525,1.916-2.525,3.787
		c0,2.109,0.412,3.736,2.525,3.736c1.965,0,2.378-1.773,2.378-3.736C171.332,1035.256,170.943,1033.364,168.954,1033.364"/>
	<path fill="#2E2119" d="M184.798,1043.094v-7.375c0-1.24-0.195-2.137-1.699-2.137c-0.801,0-1.918,0.414-2.719,0.896v8.615h-3.494
		v-11.914h3.3l0.049,1.09l0.097,0.051c1.383-0.924,3.059-1.432,4.199-1.432c3.154,0,3.736,1.869,3.736,4.102v8.104H184.798z"/>
	<path fill="#2E2119" d="M205.786,1043.094v-7.545c0-1.312-0.34-1.943-1.578-1.943c-0.752,0-1.867,0.365-2.547,0.826
		c0.072,0.51,0.098,1.117,0.098,1.553v7.109h-3.424c0-2.598-0.024-5.193-0.024-7.789c0-1.117-0.509-1.674-1.432-1.674
		c-0.801,0-1.795,0.365-2.621,0.871v8.592h-3.47v-11.914h3.253l0.071,1.188l0.097,0.049c1.36-1.02,2.985-1.504,4.125-1.504
		c1.36,0,2.284,0.484,2.889,1.553c1.165-0.896,3.033-1.553,4.296-1.553c3.179,0,3.761,1.967,3.761,4.197v7.984H205.786z"/>
	<path fill="#2E2119" d="M222.574,1036.69v1.236h-7.788c0,1.82,0.85,2.789,2.985,2.789c1.286,0,2.596-0.289,3.833-0.752l0.705,2.137
		c-1.578,0.873-3.398,1.188-5.049,1.188c-4.805,0-5.969-2.861-5.969-6.137c0-2.621,1.117-6.287,5.823-6.287
		C222.235,1030.864,222.574,1034.551,222.574,1036.69 M214.835,1035.79h4.586c-0.023-1.576-0.51-2.717-2.16-2.717
		C215.539,1033.073,214.956,1034.36,214.835,1035.79"/>
	<path fill="#2E2119" d="M232.742,1043.094v-7.375c0-1.24-0.194-2.137-1.699-2.137c-0.801,0-1.917,0.414-2.718,0.896v8.615h-3.494
		v-11.914h3.299l0.049,1.09l0.098,0.051c1.384-0.924,3.057-1.432,4.198-1.432c3.155,0,3.737,1.869,3.737,4.102v8.104H232.742z"/>
	<path fill="#2E2119" d="M242.98,1027.879v3.277h3.471v2.279h-3.471v5.389c0,1.26,0.364,1.842,1.602,1.842
		c0.437,0,1.19-0.119,2.062-0.314l0.437,2.258c-1.019,0.461-2.377,0.678-3.396,0.678c-3.324,0-4.125-1.648-4.125-3.541v-6.311
		h-1.675v-1.893l1.893-0.559c0.171-0.412,0.704-2.449,0.85-2.863L242.98,1027.879z"/>
	<path fill="#2E2119" d="M259.067,1040.79h1.554l0.169,1.939c-0.776,0.365-1.893,0.609-2.911,0.609
		c-1.044,0-1.796-0.244-1.919-1.434c0-0.023-0.023-0.023-0.048-0.049c-1.674,1.459-3.444,1.482-4.124,1.482
		c-2.961,0-3.689-2.086-3.689-3.471c0-2.477,1.918-3.689,4.418-3.834c0.921-0.072,2.329-0.121,3.25-0.195v-0.289
		c0-1.361-0.437-2.062-2.207-2.062c-1.165,0-2.67,0.24-3.785,0.604c-0.171-0.727-0.365-1.455-0.559-2.156
		c1.406-0.609,3.469-0.996,5.168-0.996c2.863,0,4.684,1.066,4.684,4.15V1040.79z M253.364,1037.95
		c-1.141,0.098-1.674,0.68-1.674,1.625c0,0.998,0.484,1.531,1.627,1.531c0.728,0,1.674-0.391,2.449-1.068v-2.283L253.364,1037.95z"
		/>
	<polygon fill="#2E2119" points="266.006,1043.094 262.56,1043.094 262.56,1025.719 266.03,1025.719 	"/>
	<path fill="#2E2119" d="M111.872,1063.803h-3.034l0.025,6.406h-3.616v-16.695h6.333c3.811,0,5.727,1.99,5.727,5.121
		C117.307,1061.038,115.804,1063.803,111.872,1063.803 M108.838,1056.038v5.316h2.353c1.287,0,2.476-0.68,2.476-2.645
		c0-1.896-1.116-2.672-2.596-2.672H108.838z"/>
	<path fill="#2E2119" d="M129.559,1063.803v1.238h-7.788c0,1.82,0.85,2.789,2.985,2.789c1.285,0,2.597-0.291,3.833-0.752
		l0.703,2.137c-1.578,0.873-3.397,1.189-5.047,1.189c-4.805,0-5.969-2.865-5.969-6.141c0-2.621,1.115-6.283,5.823-6.283
		C129.22,1057.981,129.559,1061.668,129.559,1063.803 M121.819,1062.907h4.586c-0.024-1.578-0.51-2.719-2.16-2.719
		C122.522,1060.188,121.939,1061.473,121.819,1062.907"/>
	<path fill="#2E2119" d="M135.212,1060.405c1.311-1.283,3.203-2.424,4.538-2.424c0.485,0,0.681,0.289,0.681,0.799
		c0,0.896-0.584,2.717-1.094,3.422l-4.051-0.049v8.057h-3.472v-11.914h3.423c0,0.557-0.073,1.479-0.146,2.037L135.212,1060.405z"/>
	<path fill="#2E2119" d="M143.436,1060.551h-1.675v-1.893l1.7-0.486v-1.479c0-2.281,0.994-4.078,4.512-4.078
		c0.826,0,2.16,0.098,3.277,0.412l-0.412,2.354c-0.68-0.145-1.555-0.217-2.063-0.217c-1.237,0-1.942,0.412-1.942,1.578v1.527h3.424
		v2.281h-3.424c0,1.043-0.023,8.615-0.023,9.658h-3.373V1060.551z"/>
	<path fill="#2E2119" d="M157.219,1070.452c-4.416,0-5.945-2.766-5.945-6.188c0-3.35,1.698-6.234,6.091-6.234
		c4.44,0,5.969,2.885,5.969,6.209C163.333,1067.565,161.756,1070.452,157.219,1070.452 M157.364,1060.479
		c-1.99,0-2.523,1.918-2.523,3.785c0,2.111,0.412,3.736,2.523,3.736c1.966,0,2.379-1.77,2.379-3.736
		C159.743,1062.372,159.355,1060.479,157.364,1060.479"/>
	<path fill="#2E2119" d="M168.743,1060.405c1.311-1.283,3.204-2.424,4.539-2.424c0.486,0,0.678,0.289,0.678,0.799
		c0,0.896-0.582,2.717-1.09,3.422l-4.054-0.049v8.057h-3.47v-11.914h3.422c0,0.557-0.072,1.479-0.146,2.037L168.743,1060.405z"/>
	<path fill="#2E2119" d="M190.464,1070.209v-7.547c0-1.309-0.34-1.939-1.578-1.939c-0.752,0-1.867,0.363-2.547,0.822
		c0.072,0.51,0.098,1.117,0.098,1.553v7.111h-3.424c0-2.598-0.023-5.193-0.023-7.791c0-1.113-0.509-1.674-1.432-1.674
		c-0.801,0-1.795,0.365-2.62,0.875v8.59h-3.47v-11.914h3.25l0.073,1.189l0.097,0.049c1.36-1.021,2.985-1.504,4.125-1.504
		c1.36,0,2.283,0.482,2.889,1.553c1.165-0.9,3.033-1.553,4.296-1.553c3.179,0,3.761,1.965,3.761,4.197v7.982H190.464z"/>
	<path fill="#2E2119" d="M206.841,1067.905h1.553l0.17,1.941c-0.775,0.363-1.893,0.605-2.912,0.605
		c-1.045,0-1.797-0.242-1.917-1.432c0-0.021-0.024-0.021-0.049-0.047c-1.675,1.455-3.446,1.479-4.125,1.479
		c-2.961,0-3.688-2.086-3.688-3.471c0-2.473,1.916-3.688,4.416-3.834c0.924-0.072,2.33-0.119,3.252-0.191v-0.293
		c0-1.357-0.438-2.062-2.209-2.062c-1.164,0-2.668,0.242-3.785,0.607c-0.17-0.729-0.363-1.455-0.559-2.162
		c1.408-0.604,3.471-0.992,5.17-0.992c2.863,0,4.684,1.068,4.684,4.148V1067.905z M201.138,1065.063
		c-1.141,0.1-1.674,0.682-1.674,1.629c0,0.994,0.484,1.527,1.625,1.527c0.729,0,1.674-0.389,2.451-1.066v-2.281L201.138,1065.063z"
		/>
	<path fill="#2E2119" d="M218.27,1070.209v-7.377c0-1.238-0.194-2.135-1.699-2.135c-0.801,0-1.917,0.412-2.718,0.896v8.615h-3.494
		v-11.914h3.299l0.049,1.092l0.098,0.049c1.383-0.924,3.057-1.434,4.198-1.434c3.155,0,3.737,1.869,3.737,4.102v8.105H218.27z"/>
	<path fill="#2E2119" d="M230.133,1067.758c1.115,0,2.136-0.242,3.204-0.605l0.654,2.305c-1.189,0.605-2.862,0.947-4.488,0.947
		c-4.562,0-5.752-2.719-5.752-6.02c0-2.814,1.067-6.355,5.896-6.355c1.02,0,2.354,0.094,3.714,0.582
		c-0.171,0.799-0.34,1.6-0.534,2.426c-1.02-0.293-1.893-0.34-2.596-0.34c-1.942,0-2.961,1.334-2.961,3.541
		C227.27,1066.424,227.974,1067.758,230.133,1067.758"/>
	<path fill="#2E2119" d="M246.491,1063.803v1.238h-7.788c0,1.82,0.849,2.789,2.984,2.789c1.285,0,2.597-0.291,3.833-0.752
		l0.705,2.137c-1.578,0.873-3.398,1.189-5.049,1.189c-4.803,0-5.969-2.865-5.969-6.141c0-2.621,1.117-6.283,5.824-6.283
		C246.151,1057.981,246.491,1061.668,246.491,1063.803 M238.751,1062.907h4.587c-0.024-1.578-0.511-2.719-2.161-2.719
		C239.455,1060.188,238.872,1061.473,238.751,1062.907"/>
	<rect x="105.466" y="1080.627" fill="#2E2119" width="3.541" height="16.697"/>
	<path fill="#2E2119" d="M120.073,1097.325v-7.379c0-1.238-0.195-2.135-1.699-2.135c-0.801,0-1.917,0.412-2.718,0.896v8.617h-3.495
		v-11.916h3.301l0.049,1.092l0.097,0.051c1.383-0.924,3.058-1.434,4.198-1.434c3.154,0,3.738,1.867,3.738,4.1v8.107H120.073z"/>
	<path fill="#2E2119" d="M134.048,1085.872v-5.898h3.471v17.352h-3.229l-0.072-1.068c-0.024-0.023-0.047-0.049-0.072-0.049
		c-1.164,0.945-2.645,1.285-3.664,1.285c-3.714,0-4.732-2.717-4.732-5.871c0-3.689,1.358-6.504,5.145-6.504
		C131.671,1085.118,133.054,1085.286,134.048,1085.872 M134.048,1088.295c-0.559-0.338-1.625-0.654-2.402-0.654
		c-1.188,0-2.402,0.703-2.402,3.955c0,2.816,1.043,3.471,2.354,3.471c0.704,0,1.893-0.484,2.451-0.896V1088.295z"/>
	<path fill="#2E2119" d="M150.62,1090.917v1.238h-7.79c0,1.82,0.852,2.791,2.985,2.791c1.287,0,2.597-0.291,3.835-0.754l0.703,2.137
		c-1.577,0.873-3.397,1.189-5.049,1.189c-4.804,0-5.968-2.863-5.968-6.139c0-2.623,1.115-6.285,5.824-6.285
		C150.28,1085.094,150.62,1088.782,150.62,1090.917 M142.879,1090.02h4.587c-0.023-1.578-0.51-2.719-2.161-2.719
		C143.583,1087.301,143.001,1088.586,142.879,1090.02"/>
	<polygon fill="#2E2119" points="157.923,1092.905 155.398,1097.325 151.686,1097.325 155.787,1091.112 152.002,1085.409 
		155.811,1085.409 157.972,1089.436 160.155,1085.409 163.868,1085.409 160.009,1091.086 164.062,1097.325 160.276,1097.325 	"/>
	<path fill="#F4C61B" d="M75.303,1089.93c-1.935,0-3.503-1.566-3.503-3.5c0-1.936,1.567-3.504,3.503-3.504
		c1.933,0,3.503,1.568,3.503,3.504C78.806,1088.364,77.235,1089.93,75.303,1089.93"/>
	<path fill="#F4C61B" d="M78.578,1080.911c-1.356,0-2.456-1.1-2.456-2.457s1.1-2.455,2.456-2.455c1.356,0,2.454,1.098,2.454,2.455
		S79.935,1080.911,78.578,1080.911"/>
	<path fill="#F4C61B" d="M81.034,1074.163c-0.933,0-1.689-0.756-1.689-1.688c0-0.934,0.757-1.689,1.689-1.689
		c0.934,0,1.688,0.756,1.688,1.689C82.723,1073.407,81.968,1074.163,81.034,1074.163"/>
	<path fill="#F4C61B" d="M82.672,1069.708c-0.673,0-1.22-0.545-1.22-1.221c0-0.674,0.547-1.219,1.22-1.219
		c0.673,0,1.22,0.545,1.22,1.219C83.892,1069.163,83.345,1069.708,82.672,1069.708"/>
	<path fill="#7E90C8" d="M60.757,1075.417c-1.935,0-3.502-1.57-3.502-3.504c0-1.932,1.567-3.498,3.502-3.498
		c1.934,0,3.502,1.566,3.502,3.498C64.259,1073.846,62.69,1075.417,60.757,1075.417"/>
	<path fill="#7E90C8" d="M68.7,1071.022c-1.355,0-2.451-1.1-2.451-2.455c0-1.352,1.096-2.451,2.451-2.451
		c1.354,0,2.453,1.1,2.453,2.451C71.153,1069.922,70.055,1071.022,68.7,1071.022"/>
	<path fill="#7E90C8" d="M74.659,1067.741c-0.932,0-1.684-0.752-1.684-1.682s0.752-1.686,1.684-1.686
		c0.93,0,1.684,0.756,1.684,1.686S75.589,1067.741,74.659,1067.741"/>
	<path fill="#7E90C8" d="M78.63,1065.596c-0.668,0-1.211-0.541-1.211-1.211s0.543-1.213,1.211-1.213
		c0.672,0,1.214,0.543,1.214,1.213S79.302,1065.596,78.63,1065.596"/>
	<path fill="#0F9ACC" d="M60.73,1054.87c-1.933,0-3.501-1.566-3.501-3.504c0-1.932,1.568-3.498,3.501-3.498
		c1.935,0,3.503,1.566,3.503,3.498C64.233,1053.303,62.665,1054.87,60.73,1054.87"/>
	<path fill="#0F9ACC" d="M68.715,1057.065c-1.35,0-2.448-1.094-2.448-2.447c0-1.352,1.098-2.449,2.448-2.449
		c1.352,0,2.448,1.098,2.448,2.449C71.163,1055.971,70.066,1057.065,68.715,1057.065"/>
	<path fill="#0F9ACC" d="M74.702,1058.731c-0.924,0-1.676-0.75-1.676-1.676c0-0.928,0.752-1.678,1.676-1.678
		c0.928,0,1.678,0.75,1.678,1.678C76.38,1057.981,75.63,1058.731,74.702,1058.731"/>
	<path fill="#0F9ACC" d="M78.696,1059.883c-0.666,0-1.205-0.541-1.205-1.205c0-0.662,0.539-1.203,1.205-1.203
		c0.664,0,1.203,0.541,1.203,1.203C79.899,1059.342,79.36,1059.883,78.696,1059.883"/>
	<path fill="#3FBBA3" d="M75.243,1040.325c-1.934,0-3.504-1.57-3.504-3.504c0-1.936,1.57-3.502,3.504-3.502
		c1.933,0,3.502,1.566,3.502,3.502C78.745,1038.754,77.176,1040.325,75.243,1040.325"/>
	<path fill="#3FBBA3" d="M78.567,1047.217c-1.35,0-2.444-1.092-2.444-2.443c0-1.35,1.095-2.445,2.444-2.445s2.445,1.096,2.445,2.445
		C81.013,1046.125,79.917,1047.217,78.567,1047.217"/>
	<path fill="#3FBBA3" d="M81.062,1052.411c-0.924,0-1.674-0.748-1.674-1.672s0.75-1.672,1.674-1.672c0.922,0,1.67,0.748,1.67,1.672
		S81.983,1052.411,81.062,1052.411"/>
	<path fill="#3FBBA3" d="M82.723,1055.913c-0.661,0-1.196-0.535-1.196-1.195s0.535-1.197,1.196-1.197
		c0.661,0,1.196,0.537,1.196,1.197S83.384,1055.913,82.723,1055.913"/>
	<path fill="#F89624" d="M85.622,1109.624c-2.389,0-4.326-1.936-4.326-4.326c0-2.389,1.938-4.324,4.326-4.324
		c2.389,0,4.326,1.936,4.326,4.324C89.948,1107.688,88.011,1109.624,85.622,1109.624"/>
	<path fill="#F89624" d="M85.588,1097.301c-1.833,0-3.318-1.486-3.318-3.318c0-1.83,1.485-3.318,3.318-3.318
		s3.317,1.488,3.317,3.318C88.905,1095.815,87.421,1097.301,85.588,1097.301"/>
	<path fill="#F89624" d="M85.562,1087.917c-1.408,0-2.551-1.145-2.551-2.553c0-1.406,1.143-2.551,2.551-2.551
		s2.551,1.145,2.551,2.551C88.112,1086.772,86.97,1087.917,85.562,1087.917"/>
	<path fill="#F89624" d="M85.537,1079.165c-1.041,0-1.882-0.844-1.882-1.881c0-1.039,0.841-1.885,1.882-1.885
		c1.038,0,1.882,0.846,1.882,1.885C87.419,1078.321,86.575,1079.165,85.537,1079.165"/>
	<path fill="#F36F2D" d="M54.77,1096.885c-2.39,0-4.325-1.938-4.325-4.326c0-2.391,1.936-4.326,4.325-4.326
		c2.39,0,4.325,1.936,4.325,4.326C59.095,1094.948,57.159,1096.885,54.77,1096.885"/>
	<path fill="#F36F2D" d="M62.711,1087.815c-1.831,0-3.315-1.482-3.315-3.316c0-1.83,1.484-3.312,3.315-3.312
		c1.83,0,3.313,1.482,3.313,3.312C66.024,1086.333,64.541,1087.815,62.711,1087.815"/>
	<path fill="#F36F2D" d="M68.761,1080.905c-1.406,0-2.545-1.137-2.545-2.545c0-1.406,1.139-2.545,2.545-2.545
		c1.405,0,2.545,1.139,2.545,2.545C71.306,1079.768,70.166,1080.905,68.761,1080.905"/>
	<path fill="#F36F2D" d="M74.434,1074.477c-1.036,0-1.876-0.836-1.876-1.873c0-1.035,0.84-1.875,1.876-1.875s1.876,0.84,1.876,1.875
		C76.31,1073.641,75.47,1074.477,74.434,1074.477"/>
	<path fill="#3676BA" d="M41.958,1066.063c-2.39,0-4.326-1.938-4.326-4.328c0-2.387,1.937-4.326,4.326-4.326
		c2.389,0,4.325,1.939,4.325,4.326C46.283,1064.125,44.347,1066.063,41.958,1066.063"/>
	<path fill="#3676BA" d="M53.271,1064.958c-1.828,0-3.31-1.482-3.31-3.311s1.482-3.311,3.31-3.311s3.31,1.482,3.31,3.311
		S55.099,1064.958,53.271,1064.958"/>
	<path fill="#3676BA" d="M61.891,1064.114c-1.4,0-2.536-1.137-2.536-2.533c0-1.402,1.136-2.537,2.536-2.537
		c1.4,0,2.534,1.135,2.534,2.537C64.425,1062.977,63.291,1064.114,61.891,1064.114"/>
	<path fill="#3676BA" d="M69.972,1063.377c-1.029,0-1.863-0.832-1.863-1.863c0-1.027,0.834-1.863,1.863-1.863
		c1.029,0,1.862,0.836,1.862,1.863C71.834,1062.545,71.001,1063.377,69.972,1063.377"/>
	<path fill="#068D8C" d="M54.696,1035.211c-2.389,0-4.326-1.939-4.326-4.326c0-2.391,1.938-4.328,4.326-4.328
		c2.389,0,4.326,1.938,4.326,4.328C59.022,1033.272,57.085,1035.211,54.696,1035.211"/>
	<path fill="#068D8C" d="M62.731,1042.153c-1.825,0-3.305-1.479-3.305-3.305c0-1.824,1.479-3.305,3.305-3.305
		c1.826,0,3.307,1.48,3.307,3.305C66.038,1040.674,64.558,1042.153,62.731,1042.153"/>
	<path fill="#068D8C" d="M68.854,1047.446c-1.396,0-2.527-1.131-2.527-2.527s1.132-2.529,2.527-2.529
		c1.396,0,2.527,1.133,2.527,2.529S70.251,1047.446,68.854,1047.446"/>
	<path fill="#068D8C" d="M74.594,1052.459c-1.023,0-1.853-0.83-1.853-1.852c0-1.025,0.83-1.854,1.853-1.854
		c1.023,0,1.852,0.828,1.852,1.854C76.446,1051.629,75.617,1052.459,74.594,1052.459"/>
	<path fill="#2CB35F" d="M85.519,1022.399c-2.391,0-4.326-1.936-4.326-4.326c0-2.387,1.936-4.326,4.326-4.326
		c2.39,0,4.325,1.939,4.325,4.326C89.844,1020.463,87.908,1022.399,85.519,1022.399"/>
	<path fill="#2CB35F" d="M85.506,1032.69c-1.825,0-3.305-1.479-3.305-3.303s1.479-3.305,3.305-3.305c1.825,0,3.304,1.48,3.304,3.305
		S87.331,1032.69,85.506,1032.69"/>
	<path fill="#2CB35F" d="M85.495,1040.532c-1.395,0-2.524-1.129-2.524-2.523s1.13-2.527,2.524-2.527
		c1.396,0,2.526,1.133,2.526,2.527S86.891,1040.532,85.495,1040.532"/>
	<path fill="#2CB35F" d="M85.487,1047.94c-1.023,0-1.852-0.83-1.852-1.852s0.828-1.852,1.852-1.852c1.021,0,1.851,0.83,1.851,1.852
		S86.509,1047.94,85.487,1047.94"/>
</g>
</svg>
