<?xml version="1.0" encoding="utf-8"?>
<!-- Generator: Adobe Illustrator 18.0.0, SVG Export Plug-In . SVG Version: 6.00 Build 0)  -->
<!DOCTYPE svg PUBLIC "-//W3C//DTD SVG 1.1//EN" "http://www.w3.org/Graphics/SVG/1.1/DTD/svg11.dtd">
<svg version="1.1" id="Layer_1" xmlns="http://www.w3.org/2000/svg" xmlns:xlink="http://www.w3.org/1999/xlink" x="0px" y="0px"
	 viewBox="0 0 1600 1150" enable-background="new 0 0 1600 1150" xml:space="preserve">
<rect fill="#C85B22" width="1600" height="1147.034"/>
<path fill="#FFFFFF" d="M295.807,654.519C73.154,803.288,13.26,1104.384,162.029,1327.036
	c148.768,222.652,449.864,282.547,672.517,133.778c222.652-148.769,282.547-449.866,133.778-672.518
	C819.556,565.644,518.459,505.75,295.807,654.519z M812.559,1427.908c-204.479,136.627-480.998,81.621-617.625-122.858
	c-136.625-204.479-81.62-481,122.859-617.626c204.479-136.626,481-81.62,617.625,122.859
	C1072.045,1014.762,1017.039,1291.282,812.559,1427.908z"/>
<g>
	<defs>
		<path id="SVGID_1_" d="M797.352,670.358c211.694,127.673,279.807,402.788,152.133,614.482
			C821.81,1496.539,546.7,1564.65,335.003,1436.974C123.307,1309.3,55.194,1034.187,182.868,822.493
			C310.543,610.797,585.659,542.684,797.352,670.358z"/>
	</defs>
	<clipPath id="SVGID_2_">
		<use xlink:href="#SVGID_1_"  overflow="visible"/>
	</clipPath>
	<g clip-path="url(#SVGID_2_)">
		<path fill-rule="evenodd" clip-rule="evenodd" fill="#FFFFFF" d="M694.936,902.414c0.634-5.256,1.886-10.525,1.723-15.754
			c-0.156-5.016-1.588-10.032-2.808-14.966c-1.303-5.259-2.898-10.457-4.628-15.592c-0.439-1.307-1.801-3.173-2.872-3.265
			c-10.726-0.938-21.497-2.595-32.198,0.168c-2.072,0.533-4.115,1.29-6.066,2.172c-6.985,3.157-12.391,0.44-13.872-7.272
			c-0.748-3.892-1.354-7.863-1.429-11.81c-0.029-1.592,1.533-3.21,2.372-4.82c1.218,0.887,2.836,1.524,3.577,2.713
			c1.974,3.167,2.782,7.202,7.057,8.463c0.785,0.232,1.938,1.22,2.166,1.015c2.586-2.313,5.287-4.59,7.357-7.33
			c0.711-0.943,0.356-3.839-0.566-4.659c-3.066-2.724-6.35-5.517-10.051-7.131c-3.474-1.515-3.512-3.423-2.584-6.178
			c1.054-3.125,1.688-6.559,3.441-9.242c4.577-6.992,2.35-13.943,1.622-21.348c-0.833-8.494-2.903-16.262-6.986-23.548
			c-1.897-3.39-4.62-6.305-6.797-9.551c-2.654-3.958-4.84-8.26-7.74-12.016c-4.474-5.797-9.17-10.221-18.032-7.344
			c-4.281,1.388-9.842-1.15-14.82-1.942c-0.479-0.078-0.909-0.463-1.386-0.537c-3.162-0.49-7.221,0.072-9.234-1.701
			c-1.78-1.568-1.288-5.719-1.804-8.73c-1.235-7.214-5.271-9.36-12.133-6.532c-1.46,0.604-3.022,0.955-5.592,1.746
			c1.031-4.709,1.57-8.54,2.838-12.112c0.38-1.072,3.577-2.408,4.141-1.953c5.273,4.233,11.485,2.345,17.258,3.183
			c5.675,0.825,11.28,2.141,16.939,3.096c1.76,0.296,3.603,0.114,5.409,0.153c-0.023-2.496-0.043-4.996-0.086-7.491
			c-0.002-0.114-0.221-0.242-0.356-0.337c-7.38-5.117-13.322-12.354-23.783-12.327c-11.084,0.031-10.552-1.909-10.586-9.567
			c-0.009-1.62-2.946-3.32-4.684-4.809c-1.665-1.428-3.525-2.633-5.296-3.935c1.271-1.505,2.644-2.938,3.784-4.542
			c0.93-1.308,2.437-2.977,2.21-4.217c-1.07-5.815-1.962-11.671-6.908-16.068c-5.186-4.611-9.801-9.862-14.802-15.872
			c3.222,0.859,6.616,1.331,9.63,2.668c5.053,2.235,9.8,5.153,14.809,7.496c1.565,0.732,3.615,0.921,5.356,0.698
			c8.171-1.053,9.759,0.76,7.308,8.953c2.567,2.557,5.265,3.783,9.273,2.784c8.735-2.186,13.425,0.264,16.586,8.413
			c1.934,4.98,3.291,10.179,4.904,15.278c-7.445,3.046-7.683,4.265-2.344,10.479c1.044,1.216,2.418,2.773,2.41,4.168
			c-0.053,9.666,6.8,12.815,14.173,15.533c1.677,0.619,3.464,0.934,5.998,1.599c0.149-2.532,0.261-4.738,0.416-6.944
			c0.396-5.693,0.224-11.506,1.366-17.048c1.411-6.839-0.4-11.229-6.868-13.642c-2.315-0.862-4.908-1.512-2.202-5.204
			c1.729-2.36,1.471-5.53-1.077-8.143c-2.034-2.082-3.802-4.566-5.157-7.148c-2.938-5.599-5.18-7.017-11.464-6.406
			c-7.386,0.719-7.514,0.488-9.525-6.72c-0.925-3.32-2.381-6.52-3.896-9.627c-0.56-1.159-1.974-1.903-3.195-3.014
			c-3.214,10.402-13.467,12.426-22.571,6.988c-5.197-3.106-11.247-6.214-17.115-7.595c-8.896-2.094-18.433-2.938-27.529-2.218
			c-7.347,0.582-14.441,4.272-21.656,6.56c-4.068,1.289-8.098,3.005-12.267,3.522c-1.408,0.173-3.701-2.48-4.733-4.321
			c-5.212-9.318-5.178-8.866,5.628-12.43c21.575-7.109,43.898-7.469,66.336-6.975c9.165,0.201,18.349-0.879,27.527-0.923
			c6.251-0.031,12.523,0.579,18.759,1.176c7.737,0.746,15.511,1.43,23.16,2.764c14.441,2.514,28.832,5.349,43.193,8.294
			c8.082,1.657,16.194,3.384,24.058,5.825c9.911,3.073,19.699,6.616,29.336,10.473c16.259,6.502,32.794,12.388,47.833,21.668
			c17.448,10.771,35.28,20.926,52.564,31.942c8.904,5.673,17.297,12.262,25.357,19.106c11.811,10.033,23.362,20.41,34.548,31.136
			c7.257,6.96,13.971,14.552,20.386,22.314c8.331,10.077,16.609,20.268,24.027,31.021c9.781,14.175,19.33,28.584,27.814,43.554
			c8.079,14.255,14.911,29.242,21.772,44.148c2.613,5.679,3.904,11.99,5.501,18.09c0.364,1.39-0.259,3.201-0.854,4.642
			c-1.832,4.444-0.965,6.708,3.635,7.517c3.969,0.703,4.116,3.941,4.839,6.62c4.406,16.342,9.156,32.614,12.838,49.119
			c5.859,26.27,8.863,52.968,8.779,79.895c-0.055,18.2-0.725,36.419-1.816,54.589c-0.543,9.007-2.418,17.962-4.112,26.86
			c-2.746,14.431-5.461,28.886-8.911,43.155c-2.521,10.396-5.77,20.672-9.472,30.715c-5.019,13.612-10.333,27.156-16.357,40.347
			c-5.084,11.135-11.16,21.843-17.175,32.524c-5.432,9.646-10.971,19.279-17.2,28.416c-7.907,11.595-16.348,22.846-24.952,33.944
			c-6.769,8.73-13.593,17.531-21.354,25.352c-12.413,12.513-25.379,24.513-38.58,36.198c-8.879,7.863-18.324,15.143-27.957,22.069
			c-9.094,6.541-18.561,12.623-28.231,18.288c-12.652,7.407-25.374,14.806-38.596,21.098c-14.02,6.666-28.381,12.887-43.104,17.748
			c-19.86,6.557-40,12.553-60.397,17.102c-25.226,5.629-50.948,8.65-76.877,8.828c-14.991,0.107-30.017,0.299-44.963-0.6
			c-13.343-0.803-26.644-2.754-39.883-4.744c-11.111-1.676-22.231-3.635-33.114-6.395c-12.287-3.111-24.363-7.115-36.443-11.01
			c-9.251-2.98-18.439-6.193-27.506-9.682c-7.076-2.719-14.057-5.76-20.847-9.125c-13.348-6.613-26.742-13.178-39.729-20.457
			c-14.865-8.336-28.196-18.925-41.849-29.127c-11.149-8.335-21.73-17.242-32.376-26.112c-5.304-4.425-10.417-9.188-14.995-14.352
			c-12.822-14.456-25.897-28.747-37.775-43.961c-10.857-13.907-20.443-28.824-30.226-43.536c-2.699-4.058-4.823-8.817-5.839-13.554
			c-0.629-2.916,1.332-6.387,2.128-9.611c0.526,0.076,1.051,0.153,1.574,0.232c2.064,4.408,4.612,8.664,6.035,13.269
			c1.124,3.644,2.957,5.624,6.441,6.731c8.654,2.746,16.175,14.692,15.16,23.758c-0.53,4.724,0.869,8.98,4.008,12.396
			c6.02,6.553,12.216,12.944,18.535,19.205c1.245,1.235,3.375,1.576,5.098,2.329c0.549-1.907,1.679-3.854,1.55-5.715
			c-0.612-8.824-5.842-15.438-10.834-22.268c-2.963-4.052-4.855-8.876-7.349-13.289c-1.525-2.701-3.575-5.138-4.837-7.943
			c-1.208-2.688-3.071-6.221-2.213-8.44c1.601-4.157,0.266-7.332-0.753-10.988c-0.615-2.207-1.175-5.544-0.033-6.802
			c1.106-1.22,4.43-0.44,6.779-0.509c2.754-0.08,5.545,0.104,8.261-0.268c2.792-0.384,5.51-1.3,8.261-1.977
			c8.871-2.196,13.299,2.448,11.047,11.603c-0.231,0.939-0.579,1.847-1.203,3.812c2.243,0.182,4.095,0.334,5.948,0.488
			c-0.082-2.062,0.083-4.176-0.318-6.179c-0.402-2.013-1.489-3.876-2.06-5.867c-1.215-4.233-1.055-9.037-5.584-11.789
			c-0.671-0.407-0.763-2.027-0.843-3.108c-0.326-4.354-2.966-6.062-7.039-4.521c-3.715,1.406-7.643,2.37-11.148,4.17
			c-5.17,2.657-9.326,0.266-13.446-2.107c-1.138-0.656-1.492-2.673-2.205-4.064c1.565-0.69,3.074-1.673,4.71-2.005
			c3.626-0.729,7.752-0.253,10.894-1.827c8.997-4.51,17.27-2.84,25.584,1.399c0.892,0.454,1.729,1.299,2.64,1.368
			c2.949,0.224,5.92,0.169,8.884,0.227c-1.25-2.864-2.329-5.822-3.838-8.544c-0.573-1.031-2.092-1.598-3.262-2.22
			c-3.673-1.951-4.374-4.066-1.201-7.355c0.95-0.984,0.754-3.354,0.607-5.049c-0.252-2.893-0.999-5.739-1.264-8.631
			c-0.066-0.721,0.755-1.881,1.455-2.188c0.457-0.203,1.813,0.583,2.116,1.23c3.89,8.297,13.192,10.921,18.574,17.722
			c1.076,1.355,4.405,1.757,6.361,1.267c1.099-0.275,1.845-3.225,2.165-5.073c0.814-4.7,1.273-9.462,1.918-14.188
			c0.646-4.737,2.325-8.762,6.284-11.984c1.496-1.219,1.367-4.332,2.191-6.5c0.824-2.155,1.915-4.213,2.889-6.312
			c1.812,1.041,4.064,1.701,5.361,3.19c4.637,5.332,8.396,11.567,13.598,16.218c3.115,2.782,4.987,5.365,5.759,9.242
			c1.333,6.692,0.212,9.391-6.026,12.267c-3.007,1.387-3.92,3.099-4.481,6.594c-1.939,12.113-7.538,22.201-19.826,26.714
			c-4.847,1.781-4.422,4.543-2.86,8.101c0.866,1.973,1.826,3.905,2.768,5.842c3.799,7.811,1.833,13.938-6.288,17.592
			c-4.86,2.188-9.508,3.87-12.131,9.285c-1.744,3.595-5.837,2.051-8.467,0.617c-4.689-2.56-8.949-5.9-13.5-8.731
			c-1.117-0.691-2.92-1.241-3.971-0.804c-1.041,0.434-2.068,2.141-2.184,3.376c-1.141,12.125-3.553,24.313,1.001,36.285
			c0.176,0.462,0.395,1.027,0.28,1.46c-3.159,11.69,4.991,19.369,10.69,27.273c7.584,10.516,16.587,20.045,25.355,29.663
			c17.634,19.338,39.07,33.87,61.977,45.955c11.561,6.1,24.181,10.655,37.856,10.481c2.953-0.034,4.033-0.737,4.627-3.611
			c0.429-2.081,2.377-3.81,3.05-5.888c0.857-2.656,2.158-5.812,1.438-8.204c-2.566-8.531,1.761-11.314,8.741-11.713
			c4.479-0.253,8.078-0.203,11.138-4.576c2.466-3.528,10.786-2.668,14.345,0.228c4.611,3.75,9.489,7.177,14.017,11.02
			c4.405,3.738,9.654,4.251,14.538,2.859c13.144-3.743,25.058,1.726,37.406,3.997c2.254,0.413,4.414,1.432,6.673,1.699
			c7.015,0.837,12.836,2.741,16.586,9.853c1.538,2.921,6.697,3.748,9.831,6.043c6.869,5.032,14.159,6.313,22.766,6.315
			c10.712,0.002,21.39,3.177,32.146,4.458c10.325,1.23,20.725,1.842,31.101,2.627c8.236,0.627,16.479,1.316,24.728,1.588
			c8.347,0.273,13.573-0.688,18.657-8.473c3.242-4.958,7.018-9.585,10.722-14.221c2.874-3.594,3.781-12.942,0.526-17.058
			c-6.195-7.827-9.588-17.882-18.567-23.549c-0.802-0.503-1.211-1.963-1.399-3.049c-1.698-9.954-8.764-16.153-18.504-16.127
			c-4.977,0.017-8.207-3.231-8.788-8.858c-0.677-6.584-0.922-13.253-2.193-19.717c-0.601-3.066-2.606-6.339-4.93-8.483
			c-4.467-4.118-9.562-7.576-14.5-11.17c-6.337-4.61-13.81-5.591-21.294-5.656c-4.085-0.035-7.284-0.563-10.176-3.815
			c-1.801-2.024-4.555-3.735-7.181-4.389c-10.163-2.526-14.812-9.725-17.481-19.025c-4.763-16.595-9.757-33.124-14.433-49.741
			c-1.706-6.059-1.736-12.794-4.404-18.314c-3.474-7.183-8.634-13.599-13.413-20.093c-3.017-4.096-6.539-7.853-10.054-11.549
			c-3.828-4.021-8.542-2.833-10.472,2.347c-4.259,11.424-8.545,22.835-12.897,34.225c-2.343,6.138-5.633,8.194-12.267,7.703
			c-8.046-0.594-16.083-1.306-24.124-2c-0.641-0.057-1.407-0.181-1.871-0.565c-5.709-4.757-10.955-2.41-15.847,1.256
			c-6.326,4.744-13.044,1.957-19.205,0.646c-19.499-4.152-38.82-9.142-58.206-13.823c-0.95-0.229-1.86-0.632-2.565-0.873
			c0.091-2.859,0.18-5.557,0.308-9.51c2.118,0.292,4.653,0.516,7.129,1.01c5.316,1.061,10.555,2.761,15.915,3.283
			c8.028,0.785,16.144,0.615,24.194,1.213c2.825,0.212,6.148,0.768,8.244,2.425c8.086,6.398,17.212,7.505,26.377,4.577
			c10.14-3.241,19.692-0.934,29.471,0.65c0.659,0.104,1.32,0.188,1.971,0.326c7.612,1.603,10.548-0.194,13.042-7.444
			c4.368-12.714,4.087-25.974,4.837-39.111c0.554-9.696,1.139-19.397,1.412-29.104c0.184-6.451-0.094-12.916-0.291-19.371
			c-0.098-3.288-0.808-3.859-7.059-6.998c1.534-8.032-2.646-17.016-8.921-21.53c-5.162-3.714-8.743,0.19-12.842,1.571
			c-1.995,0.67-3.73,2.164-5.515,3.386c-3.177,2.171-5.878,3.36-10.368,2.014c-5.461-1.644-11.047,0.228-8.352,8.547
			c1.987,6.13,1.707,11.999-0.5,18.022c-1.946,5.308-3.519,6.192-8.218,3.186c-4.192-2.68-8.055-4.418-11.358,1.088
			c-0.08,0.133-0.236,0.231-0.371,0.328c-3.65,2.615-23.737,1.938-28.115-1.573c1.676-1.496,3.02-3.385,4.841-4.218
			c11.287-5.169,22.805-9.851,33.939-15.315c2.332-1.143,4.409-4.743,4.777-7.461c0.484-3.547,1.876-4.911,5.007-5.667
			c4.134-0.996,8.492-1.714,12.199-3.632c3.045-1.575,5.946-4.314,7.743-7.256c5.707-9.345,11.255-18.835,16.137-28.633
			c4.699-9.426,13.086-12.757,22.243-14.741c6.71-1.456,13.692-1.611,20.496-2.703c1.69-0.269,3.573-1.606,4.642-3.01
			c2.161-2.828,3.602-6.226,5.833-8.989c0.702-0.869,3.232-1.062,4.488-0.531c2.958,1.258,5.55,3.361,8.475,4.713
			c6.572,3.04,13.158,6.093,19.931,8.625c3.994,1.492,8.065,1.036,12.49-0.119c4.665-1.214,10.046-0.415,14.994,0.324
			c11.994,1.787,23.883,4.297,35.895,5.94c3.052,0.417,5.466-2.03,5.074-5.874c-0.416-4.089-0.703-8.193-1.137-13.425
			c1.648,0.881,2.971,1.317,3.955,2.154c5.485,4.666,11.927,4.192,18.381,3.478c1.079-0.119,3.025-1.145,2.967-1.482
			c-0.728-4.287-1.446-8.633-2.869-12.717c-0.452-1.303-2.994-2.699-4.535-2.653c-5.441,0.161-10.879,0.789-16.279,1.53
			c-2.407,0.331-5.983-0.465-4.832,5.114c-2.86-1.729-4.685-2.543-6.172-3.773c-6.345-5.245-12.799-10.391-18.755-16.056
			c-2.024-1.923-3.234-5.144-3.895-7.985c-2.235-9.607-2.259-19.689-7.158-28.729c-1.661-3.064-1.969-6.935-2.546-10.494
			c-1.553-9.63-3.671-19.259-4.037-28.948c-0.183-4.879,2.371-10.188,4.759-14.739c2.337-4.462,7.533-2.598,10.914-1.845
			c6.972,1.552,13.343,1.894,20.291-0.544c4.668-1.641,9.819-0.055,13.756,3.649c0.117,0.111,0.167,0.299,0.289,0.403
			c3.465,2.978,7.535,6.423,11.931,4.18c4.745-2.423,2.275-7.675,1.857-11.787c-0.379-3.716-1.138-7.396-1.727-11.091
			c0.573-0.177,1.148-0.358,1.724-0.536c0.759,0.723,1.439,1.556,2.292,2.14c2.593,1.787,5.038,4.13,7.927,5.062
			c5.385,1.734,11.39,1.454,14.268,8.2c0.829,1.941,5,2.46,7.646,3.614c1.958,0.854,4.458,1.185,5.801,2.616
			c5.098,5.411,10.92,7.827,18.523,7.6c9.191-0.273,18.422,0.618,27.631,1.086c0.653,0.036,1.276,0.724,2.812,1.648
			c-6.739,2.976-13.028,5.048-18.547,8.39c-5.541,3.359-10.335,7.958-15.317,12.182c-0.162,0.134,1.424,3.113,1.837,3.028
			c6.476-1.323,12.068,0.462,17.313,4.164c0.464,0.327,1.829-0.188,2.5-0.682c1.318-0.978,2.418-2.243,3.648-3.343
			c4.686-4.18,7.395-3.827,10.679,1.362c2.897,4.575,6.827,6.13,12.022,4.596c2.698-0.797,5.345-1.779,7.991-2.742
			c3.571-1.297,6.542-3.005,4.074-8.306c3.152-0.497,5.871-0.843,8.553-1.363c9.939-1.918,20.121-3.08,29.724-6.089
			c8.684-2.722,16.107-8.257,21.765-15.798c6.507-8.673,13.782-16.831,19.675-25.896c6.156-9.463,14.626-17.582,17.005-29.488
			c0.631-3.16,4.657-6.119,7.783-8.164c2.771-1.812,3.94-3.449,3.642-6.728c-0.485-5.262-0.469-10.571-0.8-15.85
			c-0.274-4.339-0.446-8.505,2.516-12.276c1.158-1.472,2.026-3.746,1.864-5.549c-0.263-2.893-1.487-5.699-2.309-8.544
			c-1.618,2.112-4.056,4.004-4.693,6.376c-1.571,5.849-1.656,12.137-3.539,17.854c-3.523,10.69-4.804,22.139-11.574,31.789
			c-6.293,8.97-13.359,17.113-20.874,25.068c-6.761,7.156-12.324,15.484-18.081,23.531c-3.911,5.469-8.781,8.852-15.537,8.858
			c-1.675-0.001-3.354-1.275-5.033-1.961c0.854-1.453,1.445-3.173,2.612-4.289c2.148-2.054,4.781-3.6,6.922-5.653
			c1.135-1.094,1.667-2.814,2.471-4.251c-1.723-0.79-3.793-2.627-5.109-2.189c-6.042,2.004-13.186,2.272-16.108,9.894
			c-0.701,1.828-3.675,3.336-5.89,3.927c-6.052,1.621-12.238,2.758-18.407,3.88c-1.283,0.232-2.727-0.432-4.1-0.683
			c0.509-1.277,0.726-2.803,1.573-3.789c3.405-3.948,3.288-4.838-1.17-7.352c-3.69-2.076-7.206-4.478-10.954-6.426
			c-6.281-3.268-11.695,0.428-17.456,2.248c-6.092,1.93-12.399,3.303-18.704,4.366c-3.006,0.509-6.052-0.273-6.045-4.69
			c0.005-1.534-0.729-3.367-1.735-4.546c-2.116-2.485-4.685-4.83-7.655-0.953c-2.051,2.677-4.335,1.799-5.93,0.059
			c-1.052-1.146-1.787-3.69-1.231-5.002c1.775-4.187,4.587-7.555,9.487-8.658c3.22-0.728,6.291-2.086,9.475-2.992
			c4.93-1.404,9.808-2.183,13.468,3.089C693.896,902.562,694.415,902.49,694.936,902.414z M964.598,905.122
			c3.649-1.541,6.698-1.686,9.233,1.407c2.137,2.604,4.031,2.145,5.332-0.608c0.818-1.733,1.555-3.792,1.411-5.632
			c-0.302-3.782-1.388-7.495-1.856-11.273c-1.489-11.961-8.527-21.531-13.845-31.765c-7.999-15.398-15.552-31.41-32.456-39.549
			c-2.732-1.314-5.682-2.492-8.647-2.934c-5.308-0.793-10.211-1.631-14.315-5.833c-2.625-2.688-6.521-5.714-9.867-5.738
			c-4.815-0.035-8.115-2.157-11.839-4.174c-1.721-0.935-3.576-1.775-5.473-2.208c-3.414-0.779-5.48,1.577-4.204,4.833
			c0.574,1.468,1.758,2.793,2.924,3.913c5.71,5.478,11.753,10.638,17.135,16.414c1.761,1.89,3.335,5.906,2.495,7.895
			c-2.353,5.564-10.968,6.151-15.609,1.904c-2.792-2.557-5.805-4.911-8.927-7.05c-3.238-2.22-5.449-1.061-6.97,2.502
			c-1.001,2.355-2.382,4.657-4.044,6.596c-3.91,4.56-4.091,9.975-0.894,14.064c3.407,4.361,6.212,9.195,9.265,13.834
			c2.239,3.404,1.015,5.455-2.526,6.829c-8.813,3.425-8.122,6.487-3.578,12.532c7.021,9.337,5.509,22.309,13.84,30.936
			c0.299,0.31,0.373,0.95,0.368,1.434c-0.058,5.217,0.073,10.449-0.296,15.646c-0.392,5.557-2.464,11.252-1.698,16.585
			c1.962,13.66,8.662,25.556,16.514,36.723c0.899,1.277,3.088,2.267,4.71,2.316c7.61,0.221,14.71,1.165,22.131,4.05
			c6.165,2.396,9.64,4.997,11.607,11.012c0.633,1.929,3.351,3.627,5.485,4.39c0.884,0.314,3.073-1.874,4.099-3.326
			c3.437-4.861,3.956-10.219,3.068-16.131c-0.559-3.737,0.399-7.737,0.907-11.59c0.683-5.203,2.024-10.352,2.285-15.565
			c0.298-5.9-0.602-11.857-0.393-17.77c0.175-5.087,1.523-10.128,1.733-15.212c0.395-9.63,2.532-11.32,11.909-8.624
			c0.292,0.082,0.633,0.004,0.937-0.001C967.418,912.087,967.418,912.087,964.598,905.122z M740.997,904.951
			c2.565,1.032,3.895,1.781,5.32,2.106c11.452,2.598,22.753,1.407,33.81-1.987c1.835-0.561,3.106-3.061,4.556-4.734
			c1.85-2.138,3.228-4.951,5.496-6.413c7.707-4.968,9.034-11.872,3.02-18.714c-1.852-2.107-4.079-3.889-5.861-6.046
			c-3.336-4.03-7.798-7.793-9.302-12.472c-1.364-4.24-3.286-6.274-6.958-7.089c-6.947-1.539-12.099-3.999-11.156-12.748
			c0.394-3.639-4.257-6.46-6.958-4.808c-3.508,2.142-6.981,4.478-9.991,7.251c-2.734,2.519-3.451,5.916-1.553,9.506
			c0.847,1.603,1.461,3.327,2.302,4.937c3.811,7.287,4.882,16.419,13.99,20.19c1.191,0.495,2.483,3.384,2.081,4.63
			c-1.657,5.12-3.383,10.413-6.305,14.832c-1.112,1.678-5.698,0.729-8.361,1.809c-2.351,0.956-4.861,2.707-6.061,4.811
			C738.438,901.11,740.473,903.733,740.997,904.951z M639.987,1289.344c-0.253,0.177-0.505,0.354-0.756,0.537
			c-4.035-1.885-7.971-4.03-12.144-5.535c-1.721-0.621-5.081-0.576-5.683,0.403c-1.096,1.786-1.429,4.721-0.794,6.779
			c3.307,10.733,6.824,21.421,10.719,31.951c1.056,2.857,3.278,5.63,5.67,7.565c4.661,3.765,11.033,4.78,14.943,10.147
			c4.757,6.528,12.339,7.689,19.879,8.48c2.042,0.213,4.016,1.108,6.014,1.701c1.883,0.559,4.211,2.087,5.527,1.463
			c1.731-0.818,3.308-3.153,3.827-5.135c2.01-7.657-0.984-14.047-6.358-19.255c-8.256-8.009-16.86-15.649-25.198-23.572
			C650.308,1299.814,645.195,1294.528,639.987,1289.344z M824.735,792.174c-1.353,0.482-2.248,1.079-3.142,1.076
			c-4.739-0.025-6.327,3.749-7.186,7.044c-0.331,1.27,2.958,3.522,4.66,5.265c0.45,0.459,1.097,0.904,1.708,0.997
			c4.688,0.709,9.925,5.127,13.988,0.956c7.668-7.88,16.598-9.12,26.738-8.118c7.101,0.701,11.627-4.396,10.269-9.893
			c-1.736-7.027-1.04-7.845,5.966-9.669c0.967-0.251,1.986-0.389,2.889-0.785c3.15-1.383,4.096-4.919,2.179-8.445
			c-1.603-2.946-3.52-4.695-7.146-2.32c-4.911,3.218-10.136,2.438-15.204,0.209c-5.508-2.418-12.966-1.444-16.858,1.903
			c-5.342,4.592-10.723,9.195-16.487,13.215C823.723,785.967,821.271,787.83,824.735,792.174z M791.834,820.328
			c-0.812-0.077-1.625-0.154-2.435-0.231c-0.81,1.341-1.935,2.589-2.369,4.043c-1.165,3.906-1.947,7.921-3.052,11.844
			c-0.879,3.115-3.406,6.512-2.738,9.164c1.484,5.912,3.893,11.812,7.07,17.019c3.627,5.939,15.671,9.366,21.99,6.987
			c3.146-1.184,5.273-3.492,4.207-7.392c-0.747-2.733-1.425-5.482-2.038-8.248c-0.779-3.512-2.928-5.261-6.391-4.27
			c-10.097,2.893-13.498-4.674-12.698-13.224C793.863,830.883,792.415,825.565,791.834,820.328z M702.106,779.966
			c-0.104,0.115-0.204,0.232-0.307,0.347c-0.712-0.428-1.455-0.816-2.133-1.297c-3.904-2.767-7.901-2.615-11.528,0.227
			c-3.417,2.677-3.266,6.167-1.3,9.816c0.524,0.974,0.236,2.382,0.751,3.366c1.126,2.15,2.089,5.342,3.895,6.008
			c6.543,2.418,13.35,4.216,20.177,5.686c1.913,0.412,5.829-0.742,6.071-1.803c0.634-2.775,0.852-6.873-0.754-8.698
			C712.564,788.588,707.132,784.454,702.106,779.966z M744.788,808.356c1.513,1.033,2.47,2.252,3.39,2.221
			c6.477-0.208,13.023-0.211,19.385-1.257c3.015-0.495,3.694-3.721,2.532-6.908c-3.315-9.115-10.28-13.784-19.33-15.511
			c-1.101-0.211-3.664,2.533-3.975,4.2c-0.334,1.788,0.815,4.192,1.996,5.849c2.368,3.323,3.833,5.976-1.413,7.911
			C746.372,805.23,745.838,806.875,744.788,808.356z M653.403,753.673c-2.245,0.4-5.373,0.137-7.272,1.54
			c-1.693,1.25-3.332,4.79-2.73,6.543c2.435,7.088,6.954,12.935,14.861,14.079c2.396,0.348,5.77-1.684,7.702-3.619
			c2.519-2.522,0.024-4.664-1.989-6.552c-1.527-1.432-2.791-3.141-4.177-4.722C657.976,758.865,656.152,756.795,653.403,753.673z
			 M216.429,1272.591c0.992,0.749,1.995,1.483,2.97,2.256c1.207,0.953,3.31,1.835,3.436,2.93c0.78,6.79,6.406,8.109,11.001,10.729
			C236.29,1284.31,224.126,1272.144,216.429,1272.591z"/>
		<path fill-rule="evenodd" clip-rule="evenodd" fill="#FFFFFF" d="M166.695,857.273c2.903,10.47,2.903,10.47,9.884,10.379
			c-7.364,10.052-14.615,19.945-21.864,29.842c0.805,0.291,1.608,0.582,2.412,0.876c0.02,2.243,0.59,4.662-0.051,6.696
			c-1.677,5.327-3.965,10.457-5.825,15.729c-0.533,1.506-0.447,3.237-0.624,4.865c-0.143,1.311,0.205,3.433-0.455,3.809
			c-6.771,3.879-4.429,11.29-6.807,16.818c-0.95,2.212-1.964,4.396-3.111,6.951c0.631,2.175,1.841,5.109,2.274,8.154
			c0.627,4.399,0.693,8.337-5.548,9.546c-3.733,0.721-3.819,8.326-0.681,11.699c1.485,1.604,4.156,3.908,3.776,5.086
			c-0.901,2.814-2.911,6.829-5.167,7.345c-5.517,1.268-7.142,5.476-9.668,9.256c-0.563,0.846-1.449,1.478-3.118,1.797
			c0.998-7.276,1.655-14.623,3.067-21.819c3.054-15.578,6.067-31.189,9.988-46.561c1.515-5.934,2.544-12.585,8.823-16.635
			c4.044-2.614,3.622-9.157,2.328-14.033c-0.79-2.985,1.017-6.923,2.333-10.157c4.472-10.995,9.197-21.885,13.938-32.768
			C163.485,862.114,164.872,860.3,166.695,857.273z"/>
		<path fill-rule="evenodd" clip-rule="evenodd" fill="#FFFFFF" d="M137.999,1013.063c3.083,4.018,3.241,7.289-0.134,10.97
			c-2.2,2.397-4.987,5.9,1.051,7.821c0.609,0.191,1.297,2.392,0.911,2.966c-0.739,1.105-2.328,2.513-3.375,2.377
			c-3.22-0.419-6.968-1.974-6.203-5.684c1.253-6.041,3.754-11.83,5.829-17.686C136.217,1013.435,137.225,1013.352,137.999,1013.063z
			"/>
		<path fill-rule="evenodd" clip-rule="evenodd" fill="#FFFFFF" d="M181.892,831.331c1.727,6.694,6.729,6.912,11.582,7.062
			c6.32,0.195,8.507,4.029,5.248,10.801c-2.763-7.337-9.7-7.817-15.34-10.323C178.998,836.927,178.435,835.337,181.892,831.331z"/>
		<path fill-rule="evenodd" clip-rule="evenodd" fill="#C85B22" d="M964.598,905.122c2.82,6.965,2.82,6.965-0.046,10.831
			c-0.304,0.005-0.645,0.083-0.937,0.001c-9.376-2.696-11.514-1.006-11.909,8.624c-0.21,5.084-1.558,10.125-1.733,15.212
			c-0.209,5.913,0.691,11.87,0.393,17.77c-0.261,5.214-1.602,10.363-2.285,15.565c-0.508,3.853-1.466,7.853-0.907,11.59
			c0.888,5.912,0.369,11.271-3.068,16.131c-1.026,1.452-3.215,3.64-4.099,3.326c-2.134-0.763-4.852-2.461-5.485-4.39
			c-1.967-6.015-5.442-8.616-11.607-11.012c-7.421-2.885-14.521-3.829-22.131-4.05c-1.622-0.049-3.811-1.039-4.71-2.316
			c-7.852-11.167-14.551-23.063-16.514-36.723c-0.766-5.333,1.307-11.028,1.698-16.585c0.369-5.197,0.238-10.429,0.296-15.646
			c0.005-0.484-0.069-1.123-0.368-1.434c-8.331-8.627-6.819-21.599-13.84-30.936c-4.543-6.045-5.235-9.108,3.578-12.532
			c3.541-1.373,4.765-3.425,2.526-6.829c-3.053-4.64-5.857-9.473-9.265-13.834c-3.197-4.088-3.015-9.504,0.894-14.064
			c1.662-1.939,3.043-4.241,4.044-6.596c1.521-3.563,3.732-4.722,6.97-2.502c3.122,2.14,6.136,4.494,8.927,7.05
			c4.641,4.247,13.256,3.66,15.609-1.904c0.84-1.988-0.734-6.005-2.495-7.895c-5.383-5.776-11.426-10.936-17.135-16.414
			c-1.167-1.12-2.351-2.445-2.924-3.913c-1.277-3.255,0.79-5.611,4.204-4.833c1.896,0.434,3.752,1.273,5.473,2.208
			c3.724,2.017,7.023,4.139,11.839,4.174c3.346,0.024,7.241,3.05,9.867,5.738c4.104,4.202,9.007,5.04,14.315,5.833
			c2.966,0.441,5.915,1.62,8.647,2.934c16.903,8.139,24.457,24.151,32.456,39.549c5.318,10.234,12.356,19.804,13.845,31.765
			c0.468,3.778,1.554,7.491,1.856,11.273c0.144,1.84-0.593,3.899-1.411,5.632c-1.301,2.753-3.195,3.213-5.332,0.608
			C971.296,903.436,968.247,903.581,964.598,905.122z"/>
		<path fill-rule="evenodd" clip-rule="evenodd" fill="#C85B22" d="M740.997,904.951c-0.524-1.217-2.56-3.841-1.931-4.94
			c1.2-2.104,3.71-3.856,6.061-4.811c2.663-1.08,7.249-0.131,8.361-1.809c2.922-4.419,4.647-9.712,6.305-14.832
			c0.403-1.246-0.889-4.135-2.081-4.63c-9.108-3.771-10.179-12.903-13.99-20.19c-0.841-1.609-1.455-3.333-2.302-4.937
			c-1.898-3.59-1.182-6.987,1.553-9.506c3.01-2.773,6.483-5.109,9.991-7.251c2.701-1.651,7.352,1.169,6.958,4.808
			c-0.943,8.749,4.209,11.209,11.156,12.748c3.672,0.814,5.594,2.849,6.958,7.089c1.504,4.679,5.967,8.442,9.302,12.472
			c1.782,2.157,4.009,3.939,5.861,6.046c6.014,6.842,4.687,13.746-3.02,18.714c-2.267,1.462-3.645,4.275-5.496,6.413
			c-1.45,1.673-2.721,4.173-4.556,4.734c-11.057,3.394-22.358,4.585-33.81,1.987C744.892,906.732,743.562,905.983,740.997,904.951z"
			/>
		<path fill-rule="evenodd" clip-rule="evenodd" fill="#C85B22" d="M824.735,792.174c-3.464-4.344-1.012-6.207,2.374-8.567
			c5.765-4.02,11.145-8.623,16.487-13.215c3.892-3.348,11.35-4.321,16.858-1.903c5.068,2.229,10.293,3.009,15.204-0.209
			c3.627-2.375,5.544-0.625,7.146,2.32c1.917,3.526,0.972,7.062-2.179,8.445c-0.903,0.396-1.921,0.533-2.889,0.785
			c-7.006,1.824-7.703,2.642-5.966,9.669c1.358,5.498-3.168,10.594-10.269,9.893c-10.141-1.002-19.07,0.238-26.738,8.118
			c-4.062,4.172-9.3-0.247-13.988-0.956c-0.611-0.093-1.258-0.538-1.708-0.997c-1.703-1.743-4.991-3.995-4.66-5.265
			c0.859-3.295,2.447-7.069,7.186-7.044C822.487,793.252,823.382,792.656,824.735,792.174z"/>
		<path fill-rule="evenodd" clip-rule="evenodd" fill="#C85B22" d="M791.834,820.328c0.581,5.236,2.029,10.555,1.548,15.692
			c-0.8,8.55,2.601,16.117,12.698,13.224c3.463-0.991,5.612,0.758,6.391,4.27c0.612,2.765,1.291,5.514,2.038,8.248
			c1.066,3.9-1.061,6.208-4.207,7.392c-6.319,2.379-18.363-1.048-21.99-6.987c-3.177-5.208-5.586-11.107-7.07-17.019
			c-0.667-2.651,1.859-6.048,2.738-9.164c1.104-3.923,1.887-7.938,3.052-11.844c0.434-1.453,1.558-2.701,2.369-4.043
			C790.209,820.174,791.021,820.251,791.834,820.328z"/>
		<path fill-rule="evenodd" clip-rule="evenodd" fill="#C85B22" d="M702.106,779.966c5.026,4.488,10.458,8.623,14.872,13.652
			c1.606,1.825,1.389,5.922,0.754,8.698c-0.242,1.061-4.158,2.215-6.071,1.803c-6.828-1.47-13.634-3.268-20.177-5.686
			c-1.806-0.666-2.769-3.858-3.895-6.008c-0.515-0.984-0.227-2.393-0.751-3.366c-1.966-3.649-2.117-7.14,1.3-9.816
			c3.627-2.842,7.624-2.994,11.528-0.227c0.677,0.48,1.421,0.869,2.133,1.297C701.902,780.198,702.002,780.081,702.106,779.966z"/>
		<path fill-rule="evenodd" clip-rule="evenodd" fill="#C85B22" d="M744.788,808.356c1.051-1.481,1.584-3.126,2.585-3.496
			c5.247-1.935,3.781-4.587,1.413-7.911c-1.182-1.656-2.33-4.061-1.996-5.849c0.31-1.667,2.874-4.411,3.975-4.2
			c9.05,1.727,16.015,6.396,19.33,15.511c1.163,3.188,0.483,6.413-2.532,6.908c-6.362,1.047-12.908,1.05-19.385,1.257
			C747.257,810.607,746.3,809.388,744.788,808.356z"/>
		<path fill-rule="evenodd" clip-rule="evenodd" fill="#C85B22" d="M653.403,753.673c2.749,3.122,4.573,5.192,6.393,7.269
			c1.386,1.581,2.65,3.29,4.177,4.722c2.014,1.888,4.509,4.029,1.989,6.552c-1.932,1.936-5.305,3.967-7.702,3.619
			c-7.907-1.144-12.426-6.991-14.861-14.079c-0.601-1.753,1.038-5.293,2.73-6.543C648.029,753.81,651.158,754.073,653.403,753.673z"
			/>
	</g>
</g>
<g>
	<g>
		<path fill="#BCBEC0" d="M113.857,921.858c-1.343-10.211-2.359-20.465-3.043-30.741c-21.17-7.977-42.34-15.953-63.512-23.926
			c-3.701,10.167-7.185,20.347-10.498,30.648C62.489,905.847,88.172,913.856,113.857,921.858z"/>
		<path fill="#E6E7E8" d="M87.015,957.556c-0.87,3.953-1.285,5.939-2.079,9.927c-24.273-4.829-48.547-9.657-72.821-14.485
			c0.913-4.587,1.391-6.871,2.391-11.419C38.676,946.904,62.846,952.229,87.015,957.556z"/>
		<path fill="#D1D3D4" d="M14.506,941.579c24.17,5.325,48.34,10.65,72.509,15.977c-0.87,3.953-1.285,5.939-2.079,9.927
			c8.457,1.682,12.684,2.523,21.14,4.206c0.759-3.814,1.156-5.713,1.988-9.493c1.746-7.939,2.7-11.872,4.762-19.659
			c-30.864-8.201-61.728-16.403-92.592-24.604C17.754,927.299,16.606,932.03,14.506,941.579z"/>
		<path fill="#D1D3D4" d="M57.517,922.269c1.143-4.149,1.735-6.214,2.956-10.323c-17.724-5.291-35.447-10.581-53.171-15.872
			c1.484-4.992,2.252-7.475,3.839-12.413c10.562,3.409,15.843,5.114,26.405,8.523c3.028-1.855,4.544-2.765,7.583-4.551
			c21.192,7.122,42.383,14.247,63.574,21.37c0.619-1.848,0.933-2.771,1.568-4.609c-10.258-3.563-15.387-5.343-25.645-8.906
			c2.149-6.212,3.271-9.294,5.605-15.401c3.877,1.487,5.815,2.23,9.692,3.717c2.573-6.732,3.915-10.065,6.713-16.664
			c0.125,8.707,0.284,13.038,0.788,21.648c2.987,1.132,4.48,1.699,7.466,2.831c-0.812,15.468-1.085,30.806-0.818,46.292
			C95.22,932.702,76.369,927.483,57.517,922.269z"/>
		<path fill="#BCBEC0" d="M115.697,829.508c-1.468,2.846-2.192,4.275-3.618,7.15c-9.797-4.868-14.696-7.302-24.493-12.17
			c1.503-3.028,2.266-4.535,3.812-7.533C101.118,821.976,105.977,824.487,115.697,829.508z"/>
		<path fill="#BCBEC0" d="M69.056,866.234c11.882,4.695,23.765,9.388,35.647,14.082c2.474-6.283,3.762-9.397,6.434-15.561
			c2.051,0.891,3.075,1.336,5.126,2.228c2.641-6.095,4.01-9.113,6.842-15.087c-2.02-0.96-3.029-1.439-5.049-2.398
			c-11.541-5.481-23.081-10.964-34.623-16.445C78.268,843.946,73.473,855.016,69.056,866.234z"/>
		<path fill="#D1D3D4" d="M39.611,725.459c-1.414-0.903-2.12-1.355-3.533-2.258c-7.697,12.293-15.042,24.714-22.109,37.379
			c1.472,0.804,2.208,1.207,3.68,2.011c-2.766,5.068-4.121,7.621-6.776,12.766c26.073,13.469,52.147,26.937,78.22,40.408
			c0.68-1.317,1.023-1.975,1.71-3.287c3.888,2.043,5.833,3.064,9.721,5.107c0.723-1.378,1.087-2.065,1.819-3.436
			c18.603,9.948,37.206,19.893,55.809,29.841c2.966-5.552,4.493-8.297,7.634-13.725c-18.256-10.57-36.515-21.135-54.771-31.704
			c-3.801-2.2-5.702-3.3-9.503-5.5c6.31-10.905,13.002-21.59,20.07-32.021c-24.31-16.44-48.619-32.88-72.928-49.322
			C44.967,717.16,43.159,719.909,39.611,725.459z"/>
		<path fill="#E6E7E8" d="M307.62,670.174c-7.883,5.241-15.611,10.714-23.166,16.418c-13.069-17.309-26.138-34.618-39.209-51.925
			c8.68-6.409,17.432-12.611,26.355-18.678C283.607,634.051,295.613,652.112,307.62,670.174z"/>
		<path fill="#A7A9AC" d="M350.501,645.818c-7.898,4.14-11.798,6.303-19.487,10.806c-18.295-31.266-36.59-62.531-54.886-93.796
			c9.461-5.541,14.258-8.201,23.975-13.295C316.904,581.627,333.701,613.724,350.501,645.818z"/>
		<path fill="#E6E7E8" d="M344.121,585.467c-6.716,3.168-10.046,4.81-16.642,8.208c-35.419-68.868-70.841-137.734-106.261-206.601
			c6.781-3.494,10.196-5.199,17.066-8.524c1.955,3.045,2.929,4.569,4.876,7.619c2.33-1.124,3.497-1.68,5.837-2.784
			C280.705,450.746,312.411,518.107,344.121,585.467z"/>
		<path fill="#E6E7E8" d="M170.694,794.256c-2.115,11.931-3.754,23.947-4.91,36.009c-21.425-12.402-42.849-24.805-64.274-37.204
			c6.31-10.905,13.002-21.59,20.07-32.021C137.95,772.113,154.321,783.185,170.694,794.256z"/>
		<path fill="#D1D3D4" d="M426.456,508.903c-8.416-12.297-17.028-24.412-25.875-36.402c-1.49-5.222-2.235-7.832-3.725-13.054
			c-4.717,1.35-7.067,2.048-11.751,3.488c-1.451-4.733-2.177-7.1-3.628-11.833c-5.654,1.739-8.47,2.64-14.075,4.506
			c2.163,6.517,3.245,9.775,5.408,16.293c13.504,13.275,26.56,26.869,39.257,40.918
			C417.797,511.179,420.675,510.396,426.456,508.903z"/>
		<path fill="#A7A9AC" d="M557.362,536.373c-0.212-9.38-0.318-14.07-0.531-23.45c2.069-0.045,3.104-0.062,5.175-0.087
			c-0.06-4.551-0.09-6.826-0.15-11.377c3.338-0.041,5.009-0.049,8.356-0.04c0.017-10.62,0.026-15.931,0.043-26.551
			c5.14,0.014,7.712,0.049,12.868,0.176c-0.103,4.391-0.154,6.586-0.257,10.977c10.009,0.246,20.012,0.755,29.994,1.522
			c-0.53,7.006-0.795,10.508-1.325,17.515c2.468,0.189,3.704,0.291,6.174,0.508c0.276-3.182,0.414-4.772,0.69-7.954
			c2.848,0.251,4.273,0.384,7.125,0.671c-0.45,4.529-0.674,6.793-1.125,11.322c4.247,0.427,6.372,0.662,10.626,1.172
			c-1.898,15.955-3.793,31.911-5.69,47.866c-18.436-1.989-36.759-3.185-55.298-3.601c0.07-7.506,0.104-11.259,0.174-18.765
			C567.456,536.208,564.085,536.227,557.362,536.373z"/>
		<path fill="#D1D3D4" d="M574.069,551.75c2.898,0.03,4.348,0.056,7.252,0.128c-0.031,1.317-0.046,1.975-0.077,3.292
			c3.037,0.075,4.556,0.126,7.599,0.246c0.371-9.675,0.744-19.35,1.115-29.024c0.858,0.034,1.287,0.052,2.145,0.089
			c5.212-6.326,7.896-9.458,13.422-15.65c4.892,6.889,7.264,10.361,11.854,17.353c0.755,0.069,1.132,0.104,1.888,0.175
			c-0.616,6.598-0.923,9.897-1.539,16.495c-1.672-0.158-2.51-0.234-4.181-0.378c-0.844,9.904-1.266,14.856-2.109,24.76
			c-3.283-0.284-4.922-0.412-8.2-0.641c-0.164,2.39-0.246,3.585-0.41,5.975c-2.502-0.175-3.751-0.253-6.249-0.396
			c-0.067,1.196-0.1,1.794-0.167,2.99c-9.056-0.516-13.573-0.667-22.574-0.761C573.93,566.541,573.977,561.61,574.069,551.75z"/>
		<path fill="#E6E7E8" d="M402.892,570.456c2.832,8.398,4.249,12.599,7.082,20.996l0,0c9.862-3.336,14.845-4.88,24.9-7.704
			c2.131,7.613,3.198,11.419,5.33,19.031c11.888-3.338,23.906-6.218,36.018-8.622c-15.526-78.331-31.051-156.663-46.57-234.996
			c9.009-1.789,13.535-2.614,22.624-4.116c-0.494-2.994-0.741-4.489-1.235-7.483c-14.225,2.469-28.338,5.239-42.44,8.329
			c17.118,75.407,34.23,150.815,51.353,226.222c-4.097,0.932-6.139,1.419-10.208,2.438c-5.831-23.373-11.663-46.746-17.491-70.119
			c-1.643,0.411-2.465,0.62-4.104,1.043c-0.677-2.629-1.016-3.943-1.692-6.572c-5.775,1.491-8.65,2.273-14.373,3.911
			c-3.434-12.029-6.864-24.06-10.296-36.09c-1.446-5.068-2.17-7.603-3.616-12.67c-9.53,2.727-14.262,4.185-23.654,7.281
			c4.91,14.303,9.807,28.611,14.694,42.922c-1.905,0.608-2.855,0.916-4.754,1.541C390.602,534.017,396.747,552.237,402.892,570.456
			L402.892,570.456z"/>
		<path fill="#A7A9AC" d="M156.804,784.861c0.703-1.038,1.055-1.555,1.763-2.587c-8.036-5.508-12.054-8.263-20.09-13.771
			c1.087-1.584,1.635-2.374,2.735-3.946c11.236,7.854,22.471,15.707,33.705,23.563c-1.708,2.44-2.552,3.668-4.223,6.137
			C165.138,790.498,162.36,788.619,156.804,784.861z"/>
		<path fill="#A7A9AC" d="M303.421,663.856c3.434-2.282,5.162-3.405,8.644-5.613c-7.804-12.303-15.608-24.607-23.41-36.911
			c-3.798,2.41-5.684,3.634-9.43,6.124C287.288,639.591,295.353,651.724,303.421,663.856z"/>
		<path fill="#BCBEC0" d="M117.22,728.211c2.496-3.357,3.758-5.023,6.312-8.329c1.138,0.878,1.707,1.318,2.845,2.196
			c2.439-3.156,3.672-4.723,6.165-7.831c1.621,1.297,2.431,1.946,4.052,3.243c1.602-1.997,2.409-2.992,4.033-4.969
			c3.644,2.986,5.466,4.479,9.11,7.465c0.596-0.726,0.894-1.088,1.493-1.811c7.589,6.277,15.182,12.549,22.771,18.826
			c-0.22,0.266-0.331,0.398-0.551,0.664c-3.143-2.589-4.714-3.884-7.856-6.473c-0.641,0.776-0.96,1.165-1.597,1.944
			c-5.104-4.165-7.656-6.246-12.76-10.411c-6.284,8.002-9.335,12.081-15.247,20.391C128.473,737.165,124.719,734.185,117.22,728.211
			z"/>
		<path fill="#E6E7E8" d="M128.56,752.529c-3.229-2.281-4.843-3.421-8.072-5.702c1.534-2.168,2.308-3.247,3.866-5.395
			c1.601,1.16,2.4,1.741,4.001,2.9c1.544-2.128,2.322-3.188,3.89-5.295c1.587,1.179,2.378,1.769,3.965,2.947
			c5.843-7.852,8.851-11.704,15.026-19.259c5.105,4.165,7.656,6.246,12.76,10.411c0.637-0.779,0.956-1.168,1.597-1.944
			c3.143,2.589,4.714,3.884,7.856,6.473c-6.091,7.38-9.056,11.147-14.812,18.828c-2.397-1.794-3.596-2.691-5.994-4.485
			c-0.994,1.325-1.488,1.99-2.471,3.324c-4.438-3.266-6.655-4.899-11.093-8.165c-0.734,0.996-1.101,1.495-1.829,2.496
			c-1.744-1.268-2.615-1.902-4.359-3.17C131.143,748.894,130.276,750.102,128.56,752.529z"/>
		<path fill="#D1D3D4" d="M120.488,746.827c-2.348-1.659-3.522-2.488-5.87-4.147c0.59-0.835,0.887-1.252,1.481-2.084
			c-4.681-3.338-7.021-5.007-11.702-8.346c0.513-0.718,0.77-1.077,1.285-1.792c-1.459-1.049-2.188-1.574-3.646-2.623
			c0.682-0.947,1.025-1.419,1.711-2.363c0.743,0.54,1.113,0.81,1.856,1.35c1.368-1.879,2.057-2.816,3.443-4.681
			c7.68,5.704,15.361,11.405,23.042,17.107c-1.504,2.024-2.251,3.041-3.733,5.084c-1.601-1.16-2.4-1.741-4.001-2.9
			C122.795,743.58,122.021,744.659,120.488,746.827z"/>
		<path fill="#A7A9AC" d="M112.892,724.996c3.894-5.238,5.877-7.826,9.912-12.939c2.823,2.224,4.234,3.337,7.057,5.562
			c-1.401,1.776-2.099,2.668-3.483,4.46c-1.138-0.878-1.707-1.318-2.845-2.196c-2.554,3.306-3.817,4.972-6.312,8.329
			C115.489,726.926,114.623,726.282,112.892,724.996z"/>
		<path fill="#E6E7E8" d="M177.401,732.938c-2.867-2.421-4.302-3.63-7.169-6.051c2.528-2.989,3.806-4.471,6.387-7.409
			c-18.46-16.189-36.921-32.377-55.38-48.566c1.737-1.977,2.61-2.961,4.368-4.917c9.066,8.129,18.132,16.256,27.196,24.387
			c2.008-2.235,3.019-3.346,5.056-5.553c15.221,14.02,30.441,28.04,45.661,42.06c-4.105,4.449-6.127,6.707-10.103,11.287
			c-4.707-4.078-7.06-6.119-11.767-10.197C179.938,729.952,179.088,730.943,177.401,732.938z"/>
		<path fill="#D1D3D4" d="M171.043,725.929c2.21-2.6,3.325-3.89,5.576-6.451c-18.46-16.189-36.921-32.377-55.38-48.566
			c-2.567,2.922-3.841,4.394-6.363,7.361C133.598,694.158,152.321,710.042,171.043,725.929z"/>
		<path fill="#D1D3D4" d="M212.531,717.38c-1.86,1.911-2.783,2.874-4.618,4.811c-12.959-12.25-25.916-24.502-38.875-36.751
			c2.032-2.146,3.055-3.213,5.115-5.33C186.946,692.533,199.737,704.958,212.531,717.38z"/>
		<path fill="#E6E7E8" d="M207.864,728.806c0.255-5.496,0.424-8.254,0.846-13.794c-12.768-12.353-25.536-24.707-38.307-37.057
			c3.847-3.969,5.794-5.928,9.735-9.796c4.535,4.611,6.803,6.917,11.337,11.527c0.883-0.867,1.326-1.299,2.213-2.16
			c5.51,5.667,8.265,8.5,13.775,14.167c2.351-2.282,3.535-3.414,5.92-5.657c6.826,7.246,13.654,14.492,20.48,21.739
			c-0.282,2.574-0.413,3.858-0.657,6.423c-5.333,5.118-7.953,7.728-13.095,13.053C215.23,727.802,212.779,728.112,207.864,728.806z"
			/>
		<path fill="#BCBEC0" d="M212.447,678.45c-3.76,3.476-5.62,5.237-9.296,8.806c1.725,1.774,2.588,2.662,4.314,4.436
			c2.351-2.282,3.535-3.414,5.92-5.657c6.826,7.246,13.654,14.492,20.48,21.739c1.226-1.153,1.843-1.727,3.079-2.869
			C228.776,696.088,220.613,687.268,212.447,678.45z"/>
		<path fill="#D1D3D4" d="M88.314,476.402c13.506-10.88,27.244-21.355,41.309-31.502c2.935,4.132,4.403,6.198,7.338,10.33
			c1.045-0.742,1.568-1.111,2.616-1.849c9.957,14.144,19.914,28.288,29.871,42.433c1.517-1.067,2.277-1.599,3.801-2.657
			c3.823,5.509,5.734,8.264,9.558,13.773c1.381-0.958,2.073-1.436,3.46-2.385c3.113,4.545,4.667,6.818,7.78,11.363
			c3.031-2.075,4.553-3.104,7.612-5.137c33.92,51.027,67.837,102.058,101.761,153.083c-6.179,4.108-9.229,6.222-15.246,10.564
			c-9.231-12.783-18.46-25.567-27.689-38.353c-1.061,0.766-1.59,1.149-2.647,1.921c-2.427-3.318-3.64-4.978-6.067-8.295
			c-1.532,1.12-2.294,1.684-3.816,2.816c-1.111,0.827-1.666,1.242-2.771,2.076c-24.256-32.12-48.508-64.243-72.763-96.364
			c-2.407,1.816-3.605,2.731-5.992,4.575c-3.932-5.085-5.897-7.628-9.829-12.713c-3.973,3.069-5.944,4.622-9.861,7.765
			c-3.999-4.978-5.999-7.468-9.999-12.446c-1.233,0.99-1.85,1.487-3.078,2.484c-4.432-5.452-6.647-8.178-11.079-13.63
			c-0.787,0.639-1.181,0.96-1.966,1.602C109.854,502.704,99.085,489.552,88.314,476.402z"/>
		<path fill="#E6E7E8" d="M306.626,668.679c3.505-2.33,5.269-3.475,8.825-5.728c0.683-2.346,1.034-3.521,1.753-5.869
			c9.254-5.589,18.56-10.935,28.05-16.114c-3.897-7.354-5.845-11.032-9.741-18.387c-2.779,1.475-4.162,2.224-6.917,3.741
			c0.664,1.206,0.997,1.81,1.661,3.017c-1.492,0.822-2.237,1.236-3.722,2.07c-9.429-16.795-18.858-33.59-28.286-50.385
			c-0.414,0.233-0.622,0.351-1.036,0.584c-1.089-1.93-1.633-2.895-2.722-4.825c-1.951,1.102-2.923,1.658-4.863,2.779
			c-0.928-1.607-1.394-2.411-2.322-4.019c-2.585,1.494-3.871,2.25-6.436,3.777c2.113,3.55,3.17,5.326,5.284,8.876
			c-2.585,1.54-3.873,2.318-6.436,3.893c10.548,17.179,21.09,34.36,31.637,51.54c-3.246,1.993-4.86,3.004-8.066,5.059
			c2.756,4.301,4.135,6.453,6.892,10.754c-2.719,1.743-4.071,2.625-6.761,4.413C304.703,665.785,305.344,666.75,306.626,668.679z"/>
		<path fill="#D1D3D4" d="M248.997,383.385c1.072-0.506,1.609-0.757,2.684-1.259c1.391,2.985,2.087,4.477,3.478,7.462
			c1.739-0.812,2.609-1.215,4.354-2.016c3.716,8.112,5.572,12.167,9.288,20.279c-1.41,0.647-2.113,0.973-3.519,1.628
			c6.895,14.844,13.792,29.686,20.688,44.529c-1.223,0.569-1.834,0.856-3.055,1.432C271.61,431.421,260.303,407.403,248.997,383.385
			z"/>
		<path fill="#A7A9AC" d="M380.269,602.567c3.846-1.58,5.778-2.353,9.66-3.853c-7.265-18.841-14.531-37.682-21.797-56.523
			c-4.354,1.684-6.521,2.547-10.834,4.319C364.955,565.195,372.612,583.881,380.269,602.567z"/>
		<path fill="#E6E7E8" d="M394.215,597.08c-4.829,1.816-7.229,2.755-12.004,4.694c-1.648-4.07-2.472-6.105-4.12-10.176
			c4.88-1.981,7.334-2.941,12.269-4.797C391.902,590.912,392.673,592.968,394.215,597.08z"/>
		<path fill="#D1D3D4" d="M374.145,581.854c4.981-2.022,7.486-3.002,12.523-4.896c1.477,3.937,2.216,5.905,3.692,9.842
			c-4.935,1.856-7.389,2.816-12.269,4.797C376.513,587.7,375.724,585.752,374.145,581.854z"/>
		<path fill="#BCBEC0" d="M365.956,561.625c4.421-1.795,6.642-2.668,11.106-4.367c3.097,8.162,4.646,12.242,7.743,20.404
			c-4.284,1.63-6.416,2.468-10.659,4.191C370.869,573.762,369.232,569.717,365.956,561.625z"/>
		<path fill="#A7A9AC" d="M409.974,591.453c-7.072,2.393-10.583,3.653-17.546,6.303c-6.182-16.3-12.369-32.599-18.555-48.897
			c7.694-2.928,11.571-4.321,19.386-6.965C398.832,558.412,404.403,574.932,409.974,591.453z"/>
		<path fill="#D1D3D4" d="M475.236,411.49c-6.096,0.879-9.137,1.354-15.197,2.374c-3.695-21.984-7.39-43.969-11.086-65.953
			c5.702-0.959,8.559-1.409,14.29-2.256c1.434,9.717,2.153,14.573,3.588,24.289c0.945-0.14,1.418-0.208,2.364-0.345
			C471.209,383.564,473.222,397.527,475.236,411.49z"/>
		<path fill="#BCBEC0" d="M459.019,582.328c-3.722,0.854-5.577,1.298-9.276,2.224c-3.108-12.462-6.217-24.922-9.326-37.383
			c3.987-0.998,5.987-1.478,9.999-2.399C453.282,557.29,456.15,569.809,459.019,582.328z"/>
		<path fill="#A7A9AC" d="M535.104,546.232c-4.576,0.299-6.859,0.475-11.415,0.875c-0.871-9.864-1.305-14.795-2.176-24.659
			c4.773-0.419,7.165-0.602,11.959-0.916C534.125,531.413,534.451,536.352,535.104,546.232z"/>
		<path fill="#BCBEC0" d="M508.813,587.85c5.246-0.666,7.877-0.962,13.156-1.484c-1.911-19.271-3.821-38.541-5.731-57.812
			c-5.918,0.585-8.869,0.918-14.75,1.664C503.93,549.429,506.372,568.64,508.813,587.85z"/>
		<path fill="#E6E7E8" d="M506.069,566.264c1.99-0.252,2.986-0.375,4.981-0.608c0.964,8.249,1.448,12.373,2.412,20.622
			c3.916-0.457,5.879-0.666,9.813-1.043c-1.283-13.314-2.561-26.628-3.842-39.943c2.537-0.243,3.808-0.357,6.352-0.568
			c-0.267-3.183-0.401-4.775-0.668-7.958c3.1-0.258,4.651-0.376,7.76-0.589c-0.17-2.47-0.254-3.704-0.424-6.174
			c5.661-0.387,8.499-0.544,14.188-0.78c0.127,2.991,0.19,4.488,0.316,7.479c0.365,8.616,0.548,12.924,0.914,21.54
			c-6.925,0.288-10.378,0.491-17.259,1.015c0.748,9.754,1.496,19.507,2.244,29.261c-1.119,0.085-1.679,0.128-2.796,0.22
			c0.148,1.791,0.222,2.687,0.37,4.478c-8.304,0.682-12.438,1.115-20.661,2.159C508.533,585.672,507.305,575.967,506.069,566.264z"
			/>
		<path fill="#D1D3D4" d="M658.024,562.908c-7.286-1.294-10.925-1.872-18.196-2.896c0.714-5.1,1.07-7.651,1.784-12.751
			c7.455,1.05,11.188,1.644,18.658,2.97C659.371,555.302,658.922,557.838,658.024,562.908z"/>
		<path fill="#E6E7E8" d="M629.336,558.644c10.839,1.3,16.272,2.097,27.148,3.994c0.581-3.343,0.872-5.016,1.454-8.359
			c3.86,0.673,5.791,1.03,9.654,1.778c-0.645,3.332-0.968,4.997-1.613,8.329c1.027,0.199,1.54,0.299,2.567,0.503
			c-0.662,3.327-0.992,4.991-1.654,8.318c-3.03-0.602-4.544-0.892-7.572-1.447c-0.646,3.534-0.97,5.301-1.616,8.835
			c-12.168-2.23-24.418-4.006-36.719-5.323c-2.226-3.008-3.356-4.508-5.649-7.491c0.391-4.213,0.587-6.317,0.978-10.53
			C621.517,557.74,624.122,558.019,629.336,558.644z"/>
		<path fill="#BCBEC0" d="M641.611,547.261c0,0,3.244-27.434,3.772-26.931c0.528,0.503,12.159,1.851,12.159,1.851
			c-1.171,7.19-1.758,10.785-2.929,17.975c2.888,0.472,4.333,0.719,7.222,1.232c-0.626,3.538-0.94,5.306-1.566,8.843
			C652.799,548.905,649.066,548.312,641.611,547.261z"/>
		<g>
			<path fill="#FFFFFF" d="M666.892,573.206c-3.03-0.602-4.544-0.892-7.572-1.447c-0.646,3.534-0.97,5.301-1.616,8.835
				c-12.168-2.23-24.418-4.006-36.719-5.323c-2.226-3.008-3.356-4.508-5.649-7.491c0.852-9.182,1.278-13.772,2.13-22.954
				c-1.568-0.147-2.352-0.218-3.919-0.353c-0.417,4.893-0.625,7.338-1.042,12.231c-0.427,5.012-0.64,7.518-1.067,12.529
				c-3.283-0.284-4.922-0.412-8.2-0.641c-0.164,2.39-0.246,3.585-0.41,5.975c-2.502-0.175-3.751-0.253-6.249-0.396
				c-0.067,1.196-0.1,1.794-0.167,2.99c-9.056-0.516-13.573-0.667-22.574-0.761c0.125-13.375,0.25-26.749,0.374-40.123
				c-10.999-0.115-16.479-0.026-27.387,0.43c0.367,8.616,0.552,12.924,0.919,21.54c-6.875,0.288-10.303,0.49-17.133,1.01
				c0.476,6.211,0.714,9.316,1.19,15.527c0.421,5.494,0.633,8.241,1.054,13.734c-1.119,0.085-1.679,0.128-2.796,0.22
				c0.148,1.791,0.222,2.687,0.37,4.478c-8.304,0.682-12.438,1.115-20.661,2.159c-7.851-61.791-15.71-123.582-23.556-185.373
				c-9.756,1.238-14.613,1.947-24.279,3.545c-3.219-19.501-6.441-39.001-9.659-58.502c-9.089,1.502-13.615,2.327-22.624,4.116
				c15.519,78.333,31.044,156.665,46.57,234.996c-11.906,2.363-23.722,5.184-35.412,8.452
				c-11.942-38.021-24.155-75.952-36.635-113.799c-5.312,1.53-7.959,2.327-13.227,3.977c7.71,24.675,15.412,49.353,23.121,74.028
				c-8.024,2.514-12.009,3.852-19.906,6.681c2.981,8.347,4.472,12.519,7.453,20.866c-9.586,3.434-14.33,5.273-23.708,9.182
				c-21.153-50.869-42.303-101.739-63.454-152.609c-1.055,0.44-1.582,0.661-2.635,1.105c-1.347-3.201-2.022-4.803-3.369-8.004
				c-1.423,0.6-2.133,0.902-3.552,1.511c-6.433-15.05-12.874-30.098-19.306-45.148c-8.184,3.508-12.246,5.325-20.31,9.08
				c6.895,14.844,13.792,29.686,20.688,44.529c-1.223,0.569-1.834,0.856-3.055,1.432c15.813,33.589,31.622,67.181,47.435,100.77
				c-1.6,0.754-2.398,1.136-3.992,1.903c-14.087-29.326-28.177-58.651-42.263-87.978c-2.381,1.146-3.568,1.725-5.937,2.894
				c-9.132-18.53-18.264-37.06-27.395-55.59c-4.443,1.259-6.664,1.906-11.098,3.239c-4.315-8.419-6.472-12.628-10.787-21.047
				c-2.282,1.171-3.421,1.761-5.692,2.952c42.437,81.08,84.875,162.159,127.316,243.236c-0.838,0.439-1.257,0.659-2.092,1.102
				c-1.402-2.646-2.103-3.969-3.505-6.614c-9.756,5.328-19.314,10.832-28.822,16.592c-0.268,2.424-0.394,3.635-0.63,6.053
				c-7.684,4.867-11.468,7.391-18.911,12.618c-2.555,1.794-3.825,2.703-6.351,4.539c-1.757,1.277-2.63,1.92-4.373,3.218
				c-12.602-16.911-25.201-33.823-37.8-50.736c-1.111,0.827-1.666,1.243-2.771,2.077c-24.273-32.149-48.548-64.297-72.823-96.445
				c-2.407,1.816-3.605,2.731-5.992,4.575c-3.932-5.085-5.897-7.628-9.829-12.713c-3.973,3.069-5.944,4.622-9.861,7.765
				c-3.999-4.978-5.999-7.468-9.999-12.446c-1.233,0.99-1.85,1.487-3.078,2.484c-4.532-5.576-6.798-8.363-11.33-13.939
				c-0.788,0.64-1.18,0.96-1.965,1.602c-10.687-13.047-21.371-26.097-32.055-39.147c-2.86,2.339-4.284,3.517-7.116,5.892
				c11.291,13.454,22.582,26.908,33.875,40.359c-2.946,2.47-4.411,3.716-7.324,6.226c3.051,3.536,4.577,5.305,7.628,8.841
				c-3.317,2.858-4.966,4.3-8.24,7.211c43.344,48.664,86.687,97.33,130.031,145.996c-1.711,1.522-2.562,2.286-4.256,3.828
				c2.749,3.017,4.124,4.525,6.874,7.542c-2.169,1.974-3.247,2.971-5.387,4.978c-0.307,2.764-0.449,4.144-0.713,6.897
				c-5.438,5.21-8.109,7.869-13.349,13.294c-5.641,0.525-8.474,0.836-14.16,1.549c-0.998-0.92-1.498-1.381-2.496-2.301
				c-4.173,4.517-6.226,6.81-10.264,11.462c-4.707-4.078-7.06-6.119-11.767-10.197c-8.008,9.227-15.684,18.739-23.013,28.514
				c-2.397-1.794-3.596-2.691-5.994-4.485c-0.994,1.325-1.488,1.99-2.471,3.324c-4.438-3.266-6.655-4.899-11.093-8.165
				c-0.734,0.996-1.101,1.495-1.829,2.496c-1.744-1.268-2.615-1.902-4.359-3.17c-1.748,2.401-2.615,3.609-4.331,6.036
				c0.555,0.392,0.831,0.588,1.386,0.979c15.437,10.902,30.873,21.805,46.309,32.709c-2.255,3.19-3.368,4.797-5.562,8.038
				c-2.115,11.931-3.754,23.947-4.91,36.009c-3.141,5.428-4.668,8.173-7.634,13.725c-18.602-9.948-37.206-19.893-55.809-29.841
				c-0.732,1.371-1.096,2.058-1.819,3.436c-3.888-2.042-5.832-3.064-9.721-5.107c-0.688,1.312-1.031,1.969-1.71,3.287
				c8.868,4.581,17.737,9.161,26.605,13.744c-1.973,3.825-2.941,5.749-4.837,9.625c3.944,1.933,5.916,2.899,9.86,4.833
				c-1.079,2.204-1.611,3.311-2.664,5.531c2.02,0.959,3.029,1.439,5.049,2.398c-2.832,5.974-4.201,8.992-6.842,15.087
				c-2.051-0.891-3.075-1.336-5.126-2.228c-1.771,4.088-2.637,6.146-4.322,10.286c0.168,5.519,0.29,8.269,0.611,13.748
				c2.987,1.132,4.48,1.699,7.466,2.831c-0.812,15.468-1.085,30.806-0.818,46.292c-2.939,11.227-5.59,22.423-7.997,33.776
				c7.008,1.394,10.512,2.091,17.52,3.485c52.608-245.11,287.776-402.241,534.359-357.042c1.449-7.282,2.172-10.923,3.621-18.205
				C663.702,589.239,664.766,583.894,666.892,573.206z"/>
		</g>
	</g>
</g>
<rect x="-1.476" y="981.292" fill="#FFFFFF" width="1600" height="165.762"/>
<text transform="matrix(1 0 0 1 338.2314 1044.1929)"><tspan x="0" y="0" fill="#010101" font-family="'Helvetica'" font-size="18">Re</tspan><tspan x="23.01" y="0" fill="#010101" font-family="'Helvetica'" font-size="18">f</tspan><tspan x="27.849" y="0" fill="#010101" font-family="'Helvetica'" font-size="18">erences</tspan></text>
<g>
	<polygon fill="#2E2119" points="102.057,1043.96 102.057,1027.265 113.559,1027.265 113.559,1029.79 105.67,1029.79 
		105.67,1034.036 112.295,1034.036 112.295,1036.415 105.67,1036.415 105.67,1041.413 113.898,1041.413 113.898,1043.96 	"/>
	<path fill="#2E2119" d="M124.122,1043.96v-7.375c0-1.24-0.194-2.137-1.698-2.137c-0.801,0-1.917,0.414-2.718,0.896v8.615h-3.495
		v-11.914h3.301l0.049,1.09l0.097,0.051c1.382-0.924,3.058-1.432,4.198-1.432c3.154,0,3.736,1.869,3.736,4.102v8.104H124.122z"/>
	<path fill="#2E2119" d="M135.486,1041.655c0.121-0.314,0.776-3.082,1.164-4.32c0.535-1.553,1.53-4.949,1.651-5.289h3.494
		c-0.874,2.451-3.227,9.486-4.101,11.914h-4.732c-0.85-2.428-3.229-9.463-4.078-11.914h3.642l1.722,5.531
		c0.268,0.85,0.826,3.252,1.117,4.078H135.486z"/>
	<path fill="#2E2119" d="M145.338,1030.589c-1.287,0-1.99-0.824-1.99-1.842c0-1.068,0.729-1.871,1.99-1.871
		c1.335,0,2.062,0.803,2.062,1.871C147.399,1029.765,146.673,1030.589,145.338,1030.589 M143.614,1032.046h3.47v11.914h-3.47
		V1032.046z"/>
	<path fill="#2E2119" d="M153.606,1034.157c1.31-1.287,3.203-2.428,4.538-2.428c0.486,0,0.678,0.293,0.678,0.803
		c0,0.896-0.581,2.717-1.09,3.422l-4.053-0.049v8.055h-3.471v-11.914h3.422c0,0.557-0.072,1.48-0.145,2.039L153.606,1034.157z"/>
	<path fill="#2E2119" d="M165.617,1044.204c-4.416,0-5.945-2.766-5.945-6.188c0-3.35,1.699-6.238,6.092-6.238
		c4.439,0,5.969,2.889,5.969,6.213S170.156,1044.204,165.617,1044.204 M165.764,1034.229c-1.99,0-2.525,1.916-2.525,3.787
		c0,2.109,0.412,3.736,2.525,3.736c1.965,0,2.378-1.773,2.378-3.736C168.142,1036.122,167.753,1034.229,165.764,1034.229"/>
	<path fill="#2E2119" d="M181.607,1043.96v-7.375c0-1.24-0.195-2.137-1.699-2.137c-0.801,0-1.918,0.414-2.719,0.896v8.615h-3.494
		v-11.914h3.3l0.049,1.09l0.097,0.051c1.383-0.924,3.059-1.432,4.199-1.432c3.154,0,3.736,1.869,3.736,4.102v8.104H181.607z"/>
	<path fill="#2E2119" d="M202.596,1043.96v-7.545c0-1.312-0.34-1.943-1.578-1.943c-0.752,0-1.867,0.365-2.547,0.826
		c0.072,0.51,0.098,1.117,0.098,1.553v7.109h-3.424c0-2.598-0.023-5.193-0.023-7.789c0-1.117-0.509-1.674-1.432-1.674
		c-0.801,0-1.795,0.365-2.621,0.871v8.592h-3.47v-11.914h3.253l0.071,1.188l0.097,0.049c1.36-1.02,2.985-1.504,4.125-1.504
		c1.36,0,2.284,0.484,2.889,1.553c1.165-0.896,3.033-1.553,4.296-1.553c3.179,0,3.761,1.967,3.761,4.197v7.984H202.596z"/>
	<path fill="#2E2119" d="M219.384,1037.556v1.236h-7.788c0,1.82,0.85,2.789,2.985,2.789c1.286,0,2.596-0.289,3.833-0.752
		l0.705,2.137c-1.578,0.873-3.398,1.188-5.049,1.188c-4.805,0-5.969-2.861-5.969-6.137c0-2.621,1.117-6.287,5.823-6.287
		C219.045,1031.729,219.384,1035.417,219.384,1037.556 M211.645,1036.655h4.586c-0.023-1.576-0.51-2.717-2.16-2.717
		C212.349,1033.938,211.766,1035.226,211.645,1036.655"/>
	<path fill="#2E2119" d="M229.552,1043.96v-7.375c0-1.24-0.194-2.137-1.699-2.137c-0.801,0-1.917,0.414-2.718,0.896v8.615h-3.494
		v-11.914h3.299l0.049,1.09l0.098,0.051c1.384-0.924,3.057-1.432,4.198-1.432c3.155,0,3.737,1.869,3.737,4.102v8.104H229.552z"/>
	<path fill="#2E2119" d="M239.79,1028.745v3.277h3.471v2.279h-3.471v5.389c0,1.26,0.364,1.842,1.603,1.842
		c0.436,0,1.189-0.119,2.061-0.314l0.437,2.258c-1.018,0.461-2.377,0.678-3.396,0.678c-3.324,0-4.125-1.648-4.125-3.541v-6.311
		h-1.675v-1.893l1.893-0.559c0.171-0.412,0.704-2.449,0.85-2.863L239.79,1028.745z"/>
	<path fill="#2E2119" d="M255.877,1041.655h1.554l0.169,1.939c-0.776,0.365-1.893,0.609-2.911,0.609
		c-1.044,0-1.796-0.244-1.919-1.434c0-0.023-0.022-0.023-0.048-0.049c-1.674,1.459-3.444,1.482-4.124,1.482
		c-2.961,0-3.689-2.086-3.689-3.471c0-2.477,1.918-3.689,4.418-3.834c0.921-0.072,2.329-0.121,3.25-0.195v-0.289
		c0-1.361-0.437-2.062-2.207-2.062c-1.165,0-2.67,0.24-3.785,0.604c-0.171-0.727-0.365-1.455-0.559-2.156
		c1.406-0.609,3.469-0.996,5.168-0.996c2.863,0,4.684,1.066,4.684,4.15V1041.655z M250.174,1038.815
		c-1.141,0.098-1.674,0.68-1.674,1.625c0,0.998,0.484,1.531,1.627,1.531c0.727,0,1.674-0.391,2.449-1.068v-2.283L250.174,1038.815z"
		/>
	<polygon fill="#2E2119" points="262.815,1043.96 259.369,1043.96 259.369,1026.585 262.84,1026.585 	"/>
	<path fill="#2E2119" d="M108.682,1064.669h-3.034l0.025,6.406h-3.616v-16.695h6.333c3.811,0,5.727,1.99,5.727,5.121
		C114.116,1061.903,112.613,1064.669,108.682,1064.669 M105.647,1056.903v5.316H108c1.287,0,2.476-0.68,2.476-2.645
		c0-1.896-1.116-2.672-2.596-2.672H105.647z"/>
	<path fill="#2E2119" d="M126.368,1064.669v1.238h-7.788c0,1.82,0.85,2.789,2.985,2.789c1.285,0,2.597-0.291,3.833-0.752
		l0.703,2.137c-1.578,0.873-3.396,1.189-5.047,1.189c-4.805,0-5.969-2.865-5.969-6.141c0-2.621,1.115-6.283,5.823-6.283
		C126.029,1058.847,126.368,1062.534,126.368,1064.669 M118.629,1063.772h4.586c-0.024-1.578-0.51-2.719-2.16-2.719
		C119.332,1061.054,118.749,1062.339,118.629,1063.772"/>
	<path fill="#2E2119" d="M132.021,1061.271c1.311-1.283,3.203-2.424,4.538-2.424c0.485,0,0.681,0.289,0.681,0.799
		c0,0.896-0.584,2.717-1.094,3.422l-4.051-0.049v8.057h-3.472v-11.914h3.423c0,0.557-0.073,1.479-0.146,2.037L132.021,1061.271z"/>
	<path fill="#2E2119" d="M140.246,1061.417h-1.675v-1.893l1.7-0.486v-1.479c0-2.281,0.994-4.078,4.512-4.078
		c0.826,0,2.16,0.098,3.277,0.412l-0.412,2.354c-0.68-0.145-1.555-0.217-2.063-0.217c-1.237,0-1.942,0.412-1.942,1.578v1.527h3.424
		v2.281h-3.424c0,1.043-0.023,8.615-0.023,9.658h-3.373V1061.417z"/>
	<path fill="#2E2119" d="M154.028,1071.317c-4.416,0-5.945-2.766-5.945-6.188c0-3.35,1.698-6.234,6.091-6.234
		c4.441,0,5.969,2.885,5.969,6.209C160.143,1068.431,158.565,1071.317,154.028,1071.317 M154.174,1061.345
		c-1.99,0-2.523,1.918-2.523,3.785c0,2.111,0.412,3.736,2.523,3.736c1.966,0,2.379-1.77,2.379-3.736
		C156.553,1063.237,156.164,1061.345,154.174,1061.345"/>
	<path fill="#2E2119" d="M165.553,1061.271c1.311-1.283,3.204-2.424,4.539-2.424c0.486,0,0.678,0.289,0.678,0.799
		c0,0.896-0.582,2.717-1.09,3.422l-4.054-0.049v8.057h-3.47v-11.914h3.422c0,0.557-0.072,1.479-0.145,2.037L165.553,1061.271z"/>
	<path fill="#2E2119" d="M187.273,1071.075v-7.547c0-1.309-0.34-1.939-1.578-1.939c-0.752,0-1.867,0.363-2.547,0.822
		c0.072,0.51,0.098,1.117,0.098,1.553v7.111h-3.424c0-2.598-0.023-5.193-0.023-7.791c0-1.113-0.509-1.674-1.432-1.674
		c-0.801,0-1.795,0.365-2.62,0.875v8.59h-3.47v-11.914h3.25l0.073,1.189l0.097,0.049c1.36-1.021,2.985-1.504,4.125-1.504
		c1.36,0,2.283,0.482,2.889,1.553c1.165-0.9,3.033-1.553,4.296-1.553c3.179,0,3.761,1.965,3.761,4.197v7.982H187.273z"/>
	<path fill="#2E2119" d="M203.65,1068.771h1.553l0.17,1.941c-0.775,0.363-1.893,0.605-2.912,0.605c-1.045,0-1.797-0.242-1.917-1.432
		c0-0.021-0.024-0.021-0.049-0.047c-1.675,1.455-3.446,1.479-4.125,1.479c-2.961,0-3.689-2.086-3.689-3.471
		c0-2.473,1.916-3.688,4.416-3.834c0.924-0.072,2.33-0.119,3.252-0.191v-0.293c0-1.357-0.438-2.062-2.209-2.062
		c-1.164,0-2.668,0.242-3.785,0.607c-0.17-0.729-0.363-1.455-0.559-2.162c1.408-0.604,3.471-0.992,5.17-0.992
		c2.863,0,4.684,1.068,4.684,4.148V1068.771z M197.947,1065.929c-1.141,0.1-1.674,0.682-1.674,1.629
		c0,0.994,0.484,1.527,1.625,1.527c0.729,0,1.674-0.389,2.451-1.066v-2.281L197.947,1065.929z"/>
	<path fill="#2E2119" d="M215.079,1071.075v-7.377c0-1.238-0.194-2.135-1.699-2.135c-0.801,0-1.917,0.412-2.718,0.896v8.615h-3.494
		v-11.914h3.299l0.049,1.092l0.098,0.049c1.383-0.924,3.057-1.434,4.198-1.434c3.155,0,3.737,1.869,3.737,4.102v8.105H215.079z"/>
	<path fill="#2E2119" d="M226.942,1068.624c1.115,0,2.136-0.242,3.204-0.605l0.654,2.305c-1.189,0.605-2.862,0.947-4.488,0.947
		c-4.562,0-5.752-2.719-5.752-6.02c0-2.814,1.067-6.355,5.896-6.355c1.02,0,2.354,0.094,3.714,0.582
		c-0.171,0.799-0.34,1.6-0.534,2.426c-1.02-0.293-1.893-0.34-2.596-0.34c-1.942,0-2.961,1.334-2.961,3.541
		C224.08,1067.29,224.783,1068.624,226.942,1068.624"/>
	<path fill="#2E2119" d="M243.301,1064.669v1.238h-7.788c0,1.82,0.849,2.789,2.984,2.789c1.285,0,2.597-0.291,3.833-0.752
		l0.705,2.137c-1.578,0.873-3.398,1.189-5.049,1.189c-4.803,0-5.969-2.865-5.969-6.141c0-2.621,1.117-6.283,5.824-6.283
		C242.961,1058.847,243.301,1062.534,243.301,1064.669 M235.561,1063.772h4.587c-0.024-1.578-0.511-2.719-2.161-2.719
		C236.265,1061.054,235.682,1062.339,235.561,1063.772"/>
	<rect x="102.275" y="1081.493" fill="#2E2119" width="3.541" height="16.697"/>
	<path fill="#2E2119" d="M116.883,1098.19v-7.379c0-1.238-0.195-2.135-1.699-2.135c-0.801,0-1.917,0.412-2.718,0.896v8.617h-3.495
		v-11.916h3.301l0.049,1.092l0.097,0.051c1.383-0.924,3.058-1.434,4.198-1.434c3.154,0,3.738,1.867,3.738,4.1v8.107H116.883z"/>
	<path fill="#2E2119" d="M130.857,1086.737v-5.898h3.471v17.352H131.1l-0.072-1.068c-0.024-0.023-0.047-0.049-0.072-0.049
		c-1.164,0.945-2.645,1.285-3.664,1.285c-3.714,0-4.732-2.717-4.732-5.871c0-3.689,1.358-6.504,5.145-6.504
		C128.48,1085.983,129.863,1086.151,130.857,1086.737 M130.857,1089.161c-0.559-0.338-1.625-0.654-2.402-0.654
		c-1.188,0-2.402,0.703-2.402,3.955c0,2.816,1.043,3.471,2.354,3.471c0.704,0,1.893-0.484,2.451-0.896V1089.161z"/>
	<path fill="#2E2119" d="M147.43,1091.782v1.238h-7.79c0,1.82,0.852,2.791,2.985,2.791c1.287,0,2.597-0.291,3.835-0.754l0.703,2.137
		c-1.577,0.873-3.398,1.189-5.049,1.189c-4.804,0-5.968-2.863-5.968-6.139c0-2.623,1.115-6.285,5.824-6.285
		C147.09,1085.96,147.43,1089.647,147.43,1091.782 M139.688,1090.886h4.587c-0.023-1.578-0.51-2.719-2.161-2.719
		C140.393,1088.167,139.811,1089.452,139.688,1090.886"/>
	<polygon fill="#2E2119" points="154.732,1093.771 152.208,1098.19 148.496,1098.19 152.597,1091.978 148.811,1086.274 
		152.621,1086.274 154.781,1090.302 156.965,1086.274 160.678,1086.274 156.818,1091.952 160.872,1098.19 157.086,1098.19 	"/>
	<path fill="#F4C61B" d="M72.112,1090.796c-1.935,0-3.503-1.566-3.503-3.5c0-1.936,1.567-3.504,3.503-3.504
		c1.933,0,3.503,1.568,3.503,3.504C75.615,1089.229,74.045,1090.796,72.112,1090.796"/>
	<path fill="#F4C61B" d="M75.388,1081.776c-1.356,0-2.456-1.1-2.456-2.457s1.1-2.455,2.456-2.455s2.454,1.098,2.454,2.455
		S76.744,1081.776,75.388,1081.776"/>
	<path fill="#F4C61B" d="M77.844,1075.028c-0.933,0-1.69-0.756-1.69-1.688c0-0.934,0.757-1.689,1.69-1.689
		c0.933,0,1.688,0.756,1.688,1.689C79.532,1074.272,78.777,1075.028,77.844,1075.028"/>
	<path fill="#F4C61B" d="M79.481,1070.573c-0.673,0-1.22-0.545-1.22-1.221c0-0.674,0.547-1.219,1.22-1.219
		c0.673,0,1.22,0.545,1.22,1.219C80.701,1070.028,80.154,1070.573,79.481,1070.573"/>
	<path fill="#7E90C8" d="M57.566,1076.282c-1.935,0-3.502-1.57-3.502-3.504c0-1.932,1.567-3.498,3.502-3.498
		c1.934,0,3.502,1.566,3.502,3.498C61.068,1074.712,59.5,1076.282,57.566,1076.282"/>
	<path fill="#7E90C8" d="M65.51,1071.888c-1.356,0-2.451-1.1-2.451-2.455c0-1.352,1.096-2.451,2.451-2.451
		c1.354,0,2.453,1.1,2.453,2.451C67.963,1070.788,66.864,1071.888,65.51,1071.888"/>
	<path fill="#7E90C8" d="M71.469,1068.606c-0.932,0-1.684-0.752-1.684-1.682s0.752-1.686,1.684-1.686
		c0.93,0,1.683,0.756,1.683,1.686S72.398,1068.606,71.469,1068.606"/>
	<path fill="#7E90C8" d="M75.439,1066.462c-0.668,0-1.211-0.541-1.211-1.211s0.543-1.213,1.211-1.213
		c0.672,0,1.214,0.543,1.214,1.213S76.111,1066.462,75.439,1066.462"/>
	<path fill="#0F9ACC" d="M57.54,1055.735c-1.933,0-3.501-1.566-3.501-3.504c0-1.932,1.568-3.498,3.501-3.498
		c1.935,0,3.503,1.566,3.503,3.498C61.043,1054.169,59.475,1055.735,57.54,1055.735"/>
	<path fill="#0F9ACC" d="M65.524,1057.931c-1.351,0-2.448-1.094-2.448-2.447c0-1.352,1.098-2.449,2.448-2.449
		c1.352,0,2.448,1.098,2.448,2.449C67.973,1056.837,66.876,1057.931,65.524,1057.931"/>
	<path fill="#0F9ACC" d="M71.512,1059.597c-0.924,0-1.676-0.75-1.676-1.676c0-0.928,0.752-1.678,1.676-1.678
		c0.928,0,1.678,0.75,1.678,1.678C73.189,1058.847,72.439,1059.597,71.512,1059.597"/>
	<path fill="#0F9ACC" d="M75.506,1060.749c-0.666,0-1.205-0.541-1.205-1.205c0-0.662,0.539-1.203,1.205-1.203
		c0.664,0,1.203,0.541,1.203,1.203C76.709,1060.208,76.17,1060.749,75.506,1060.749"/>
	<path fill="#3FBBA3" d="M72.053,1041.19c-1.934,0-3.504-1.57-3.504-3.504c0-1.936,1.57-3.502,3.504-3.502
		c1.933,0,3.502,1.566,3.502,3.502C75.555,1039.62,73.985,1041.19,72.053,1041.19"/>
	<path fill="#3FBBA3" d="M75.377,1048.083c-1.35,0-2.444-1.092-2.444-2.443c0-1.35,1.095-2.445,2.444-2.445
		c1.35,0,2.445,1.096,2.445,2.445C77.822,1046.991,76.727,1048.083,75.377,1048.083"/>
	<path fill="#3FBBA3" d="M77.871,1053.276c-0.924,0-1.674-0.748-1.674-1.672s0.75-1.672,1.674-1.672c0.922,0,1.67,0.748,1.67,1.672
		S78.793,1053.276,77.871,1053.276"/>
	<path fill="#3FBBA3" d="M79.532,1056.778c-0.661,0-1.196-0.535-1.196-1.195s0.535-1.197,1.196-1.197
		c0.661,0,1.196,0.537,1.196,1.197S80.193,1056.778,79.532,1056.778"/>
	<path fill="#F89624" d="M82.432,1110.489c-2.389,0-4.326-1.936-4.326-4.326c0-2.389,1.938-4.324,4.326-4.324
		c2.389,0,4.326,1.936,4.326,4.324C86.758,1108.554,84.82,1110.489,82.432,1110.489"/>
	<path fill="#F89624" d="M82.397,1098.167c-1.833,0-3.318-1.486-3.318-3.318c0-1.83,1.485-3.318,3.318-3.318
		s3.317,1.488,3.317,3.318C85.715,1096.681,84.23,1098.167,82.397,1098.167"/>
	<path fill="#F89624" d="M82.371,1088.782c-1.408,0-2.551-1.145-2.551-2.553c0-1.406,1.143-2.551,2.551-2.551
		c1.408,0,2.551,1.145,2.551,2.551C84.922,1087.638,83.779,1088.782,82.371,1088.782"/>
	<path fill="#F89624" d="M82.347,1080.03c-1.041,0-1.882-0.844-1.882-1.881c0-1.039,0.841-1.885,1.882-1.885
		c1.038,0,1.882,0.846,1.882,1.885C84.229,1079.187,83.385,1080.03,82.347,1080.03"/>
	<path fill="#F36F2D" d="M51.579,1097.751c-2.39,0-4.325-1.938-4.325-4.326c0-2.391,1.936-4.326,4.325-4.326
		c2.39,0,4.325,1.936,4.325,4.326C55.904,1095.813,53.969,1097.751,51.579,1097.751"/>
	<path fill="#F36F2D" d="M59.521,1088.681c-1.831,0-3.315-1.482-3.315-3.316c0-1.83,1.484-3.312,3.315-3.312
		c1.83,0,3.313,1.482,3.313,3.312C62.834,1087.198,61.351,1088.681,59.521,1088.681"/>
	<path fill="#F36F2D" d="M65.57,1081.771c-1.406,0-2.545-1.137-2.545-2.545c0-1.406,1.139-2.545,2.545-2.545
		c1.405,0,2.545,1.139,2.545,2.545C68.115,1080.634,66.976,1081.771,65.57,1081.771"/>
	<path fill="#F36F2D" d="M71.243,1075.343c-1.036,0-1.876-0.836-1.876-1.873c0-1.035,0.84-1.875,1.876-1.875
		c1.036,0,1.876,0.84,1.876,1.875C73.119,1074.507,72.279,1075.343,71.243,1075.343"/>
	<path fill="#3676BA" d="M38.768,1066.929c-2.39,0-4.326-1.938-4.326-4.328c0-2.387,1.937-4.326,4.326-4.326
		c2.389,0,4.325,1.939,4.325,4.326C43.093,1064.991,41.156,1066.929,38.768,1066.929"/>
	<path fill="#3676BA" d="M50.08,1065.823c-1.828,0-3.31-1.482-3.31-3.311s1.481-3.311,3.31-3.311c1.828,0,3.309,1.482,3.309,3.311
		S51.908,1065.823,50.08,1065.823"/>
	<path fill="#3676BA" d="M58.7,1064.979c-1.4,0-2.536-1.137-2.536-2.533c0-1.402,1.136-2.537,2.536-2.537
		c1.4,0,2.534,1.135,2.534,2.537C61.234,1063.843,60.101,1064.979,58.7,1064.979"/>
	<path fill="#3676BA" d="M66.781,1064.243c-1.029,0-1.863-0.832-1.863-1.863c0-1.027,0.834-1.863,1.863-1.863
		c1.029,0,1.862,0.836,1.862,1.863C68.644,1063.411,67.811,1064.243,66.781,1064.243"/>
	<path fill="#068D8C" d="M51.506,1036.077c-2.389,0-4.326-1.939-4.326-4.326c0-2.391,1.938-4.328,4.326-4.328
		c2.389,0,4.326,1.938,4.326,4.328C55.832,1034.138,53.895,1036.077,51.506,1036.077"/>
	<path fill="#068D8C" d="M59.541,1043.019c-1.825,0-3.305-1.479-3.305-3.305c0-1.824,1.479-3.305,3.305-3.305
		c1.826,0,3.307,1.48,3.307,3.305C62.848,1041.54,61.367,1043.019,59.541,1043.019"/>
	<path fill="#068D8C" d="M65.664,1048.312c-1.396,0-2.527-1.131-2.527-2.527s1.132-2.529,2.527-2.529
		c1.396,0,2.527,1.133,2.527,2.529S67.061,1048.312,65.664,1048.312"/>
	<path fill="#068D8C" d="M71.403,1053.325c-1.022,0-1.853-0.83-1.853-1.852c0-1.025,0.83-1.854,1.853-1.854
		c1.024,0,1.853,0.828,1.853,1.854C73.256,1052.495,72.427,1053.325,71.403,1053.325"/>
	<path fill="#2CB35F" d="M82.328,1023.265c-2.391,0-4.326-1.935-4.326-4.326c0-2.387,1.936-4.326,4.326-4.326
		c2.39,0,4.325,1.94,4.325,4.326C86.653,1021.329,84.718,1023.265,82.328,1023.265"/>
	<path fill="#2CB35F" d="M82.315,1033.556c-1.825,0-3.305-1.479-3.305-3.303s1.479-3.305,3.305-3.305s3.304,1.48,3.304,3.305
		S84.141,1033.556,82.315,1033.556"/>
	<path fill="#2CB35F" d="M82.305,1041.397c-1.395,0-2.524-1.129-2.524-2.523s1.13-2.527,2.524-2.527
		c1.396,0,2.526,1.133,2.526,2.527S83.7,1041.397,82.305,1041.397"/>
	<path fill="#2CB35F" d="M82.297,1048.806c-1.023,0-1.852-0.83-1.852-1.852s0.828-1.852,1.852-1.852c1.021,0,1.851,0.83,1.851,1.852
		S83.318,1048.806,82.297,1048.806"/>
</g>
<rect x="35.457" y="39.102" fill="none" width="865.325" height="38.607"/>
<text transform="matrix(1 0 0 1 32.457 73.6128)"><tspan x="0" y="0" fill="#FFFFFF" font-family="'Helvetica-Bold'" font-size="48">PM: </tspan><tspan x="101.32" y="0" fill="#F5C714" font-family="'Helvetica-Bold'" font-size="48">PARTICULATE MATTER</tspan></text>
<rect x="36.058" y="90.572" fill="none" width="863.957" height="71.132"/>
<text transform="matrix(1 0 0 1 36.0576 103.4238)"><tspan x="0" y="0" fill="#FFFFFF" font-family="'HelveticaNeue-Medium'" font-size="18">PARTILCUATE</tspan><tspan x="122.704" y="0" fill="#FFFFFF" font-family="'HelveticaNeue-Medium'" font-size="18" letter-spacing="3"> </tspan><tspan x="130.758" y="0" fill="#FFFFFF" font-family="'HelveticaNeue-Medium'" font-size="18">MATTER</tspan><tspan x="204.125" y="0" fill="#FFFFFF" font-family="'HelveticaNeue-Medium'" font-size="18" letter-spacing="3"> </tspan><tspan x="212.18" y="0" fill="#FFFFFF" font-family="'HelveticaNeue-Medium'" font-size="18">IS</tspan><tspan x="228.848" y="0" fill="#FFFFFF" font-family="'HelveticaNeue-Medium'" font-size="18" letter-spacing="3"> </tspan><tspan x="236.902" y="0" fill="#FFFFFF" font-family="'HelveticaNeue-Medium'" font-size="18">A</tspan><tspan x="248.908" y="0" fill="#FFFFFF" font-family="'HelveticaNeue-Medium'" font-size="18" letter-spacing="3"> </tspan><tspan x="256.962" y="0" fill="#FFFFFF" font-family="'HelveticaNeue-Medium'" font-size="18">BROAD</tspan><tspan x="320.987" y="0" fill="#FFFFFF" font-family="'HelveticaNeue-Medium'" font-size="18" letter-spacing="3"> </tspan><tspan x="329.042" y="0" fill="#FFFFFF" font-family="'HelveticaNeue-Medium'" font-size="18">TERM</tspan><tspan x="379.729" y="0" fill="#FFFFFF" font-family="'HelveticaNeue-Medium'" font-size="18" letter-spacing="3"> </tspan><tspan x="387.784" y="0" fill="#FFFFFF" font-family="'HelveticaNeue-Medium'" font-size="18">REFERRING</tspan><tspan x="490.814" y="0" fill="#FFFFFF" font-family="'HelveticaNeue-Medium'" font-size="18" letter-spacing="3"> </tspan><tspan x="498.868" y="0" fill="#FFFFFF" font-family="'HelveticaNeue-Medium'" font-size="18">TO</tspan><tspan x="523.222" y="0" fill="#FFFFFF" font-family="'HelveticaNeue-Medium'" font-size="18" letter-spacing="3"> </tspan><tspan x="531.276" y="0" fill="#FFFFFF" font-family="'HelveticaNeue-Medium'" font-size="18">A</tspan><tspan x="543.282" y="0" fill="#FFFFFF" font-family="'HelveticaNeue-Medium'" font-size="18" letter-spacing="3"> </tspan><tspan x="551.336" y="0" fill="#FFFFFF" font-family="'HelveticaNeue-Medium'" font-size="18">FAMILY</tspan><tspan x="617.018" y="0" fill="#FFFFFF" font-family="'HelveticaNeue-Medium'" font-size="18" letter-spacing="3"> </tspan><tspan x="625.072" y="0" fill="#FFFFFF" font-family="'HelveticaNeue-Medium'" font-size="18">OF</tspan><tspan x="649.426" y="0" fill="#FFFFFF" font-family="'HelveticaNeue-Medium'" font-size="18" letter-spacing="3"> </tspan><tspan x="657.48" y="0" fill="#FFFFFF" font-family="'HelveticaNeue-Medium'" font-size="18">SOLID</tspan><tspan x="711.155" y="0" fill="#FFFFFF" font-family="'HelveticaNeue-Medium'" font-size="18" letter-spacing="3"> </tspan><tspan x="719.209" y="0" fill="#FFFFFF" font-family="'HelveticaNeue-Medium'" font-size="18">PARTICLES</tspan><tspan x="817.903" y="0" fill="#FFFFFF" font-family="'HelveticaNeue-Medium'" font-size="18" letter-spacing="3"> </tspan><tspan x="825.957" y="0" fill="#FFFFFF" font-family="'HelveticaNeue-Medium'" font-size="18">AND </tspan><tspan x="0" y="21.6" fill="#FFFFFF" font-family="'HelveticaNeue-Medium'" font-size="18">LIQUID</tspan><tspan x="60.011" y="21.6" fill="#FFFFFF" font-family="'HelveticaNeue-Medium'" font-size="18" letter-spacing="1"> </tspan><tspan x="66.811" y="21.6" fill="#FFFFFF" font-family="'HelveticaNeue-Medium'" font-size="18">DROPLETS</tspan><tspan x="162.173" y="21.6" fill="#FFFFFF" font-family="'HelveticaNeue-Medium'" font-size="18" letter-spacing="1"> </tspan><tspan x="168.973" y="21.6" fill="#FFFFFF" font-family="'HelveticaNeue-Medium'" font-size="18">IN</tspan><tspan x="186.973" y="21.6" fill="#FFFFFF" font-family="'HelveticaNeue-Medium'" font-size="18" letter-spacing="1"> </tspan><tspan x="193.773" y="21.6" fill="#FFFFFF" font-family="'HelveticaNeue-Medium'" font-size="18">THE</tspan><tspan x="228.782" y="21.6" fill="#FFFFFF" font-family="'HelveticaNeue-Medium'" font-size="18" letter-spacing="1"> </tspan><tspan x="235.582" y="21.6" fill="#FFFFFF" font-family="'HelveticaNeue-Medium'" font-size="18">AIR.</tspan><tspan x="270.268" y="21.6" fill="#FFFFFF" font-family="'HelveticaNeue-Medium'" font-size="18" letter-spacing="1"> </tspan><tspan x="277.067" y="21.6" fill="#FFFFFF" font-family="'HelveticaNeue-Medium'" font-size="18">THESE</tspan><tspan x="335.081" y="21.6" fill="#FFFFFF" font-family="'HelveticaNeue-Medium'" font-size="18" letter-spacing="1"> </tspan><tspan x="341.88" y="21.6" fill="#FFFFFF" font-family="'HelveticaNeue-Medium'" font-size="18">POLLUTANTS</tspan><tspan x="459.239" y="21.6" fill="#FFFFFF" font-family="'HelveticaNeue-Medium'" font-size="18" letter-spacing="1"> </tspan><tspan x="466.039" y="21.6" fill="#FFFFFF" font-family="'HelveticaNeue-Medium'" font-size="18">COME</tspan><tspan x="520.056" y="21.6" fill="#FFFFFF" font-family="'HelveticaNeue-Medium'" font-size="18" letter-spacing="1"> </tspan><tspan x="526.856" y="21.6" fill="#FFFFFF" font-family="'HelveticaNeue-Medium'" font-size="18">FROM</tspan><tspan x="579.883" y="21.6" fill="#FFFFFF" font-family="'HelveticaNeue-Medium'" font-size="18" letter-spacing="1"> </tspan><tspan x="586.683" y="21.6" fill="#FFFFFF" font-family="'HelveticaNeue-Medium'" font-size="18">A</tspan><tspan x="598.689" y="21.6" fill="#FFFFFF" font-family="'HelveticaNeue-Medium'" font-size="18" letter-spacing="1"> </tspan><tspan x="605.489" y="21.6" fill="#FFFFFF" font-family="'HelveticaNeue-Medium'" font-size="18">BROAD</tspan><tspan x="669.514" y="21.6" fill="#FFFFFF" font-family="'HelveticaNeue-Medium'" font-size="18" letter-spacing="1"> </tspan><tspan x="676.313" y="21.6" fill="#FFFFFF" font-family="'HelveticaNeue-Medium'" font-size="18">RANGE</tspan><tspan x="738.988" y="21.6" fill="#FFFFFF" font-family="'HelveticaNeue-Medium'" font-size="18" letter-spacing="1"> </tspan><tspan x="745.789" y="21.6" fill="#FFFFFF" font-family="'HelveticaNeue-Medium'" font-size="18">OF</tspan><tspan x="770.142" y="21.6" fill="#FFFFFF" font-family="'HelveticaNeue-Medium'" font-size="18" letter-spacing="1"> </tspan><tspan x="776.942" y="21.6" fill="#FFFFFF" font-family="'HelveticaNeue-Medium'" font-size="18">SOURCES </tspan><tspan x="0" y="43.2" fill="#FFFFFF" font-family="'HelveticaNeue-Medium'" font-size="18">AND CAN HAVE DAMAGING EFFECTS ON HUMAN HEALTH. </tspan></text>
<rect x="36.058" y="198.751" fill="none" width="222.265" height="54.375"/>
<text transform="matrix(1 0 0 1 36.0576 208.8164)"><tspan x="0" y="0" fill="#F5C714" font-family="'Helvetica-Bold'" font-size="14">WHERE DOES IT COME FROM?</tspan><tspan x="0" y="16.8" fill="#FFFFFF" font-family="'Helvetica'" font-size="14">PM can be linked to both </tspan><tspan x="157.985" y="16.8" fill="#2BC0D2" font-family="'Helvetica'" font-size="14">direct </tspan><tspan x="0" y="33.6" fill="#FFFFFF" font-family="'Helvetica'" font-size="14">and </tspan><tspan x="27.248" y="33.6" fill="#2BC0D2" font-family="'Helvetica'" font-size="14">indirect </tspan><tspan x="76.269" y="33.6" fill="#FFFFFF" font-family="'Helvetica'" font-size="14">sources.</tspan></text>
<polygon opacity="0.3" fill="#FFFFFF" points="252.622,184.793 271.483,184.793 295.622,221.716 270.483,257.126 252.622,257.126 
	277.415,221.46 "/>
<rect x="324.319" y="197.751" fill="none" width="222.265" height="54.375"/>
<text transform="matrix(1 0 0 1 324.3193 207.8164)"><tspan x="0" y="0" fill="#F5C714" font-family="'Helvetica-Bold'" font-size="14">WHAT ARE THE RISKS?</tspan><tspan x="0" y="16.8" fill="#FFFFFF" font-family="'Helvetica'" font-size="14">PM exposure can have serious </tspan><tspan x="0" y="33.6" fill="#FFFFFF" font-family="'Helvetica'" font-size="14">health impacts</tspan></text>
<polygon opacity="0.3" fill="#FFFFFF" points="540.884,185.793 559.745,185.793 583.884,222.716 558.745,258.126 540.884,258.126 
	565.677,222.46 "/>
<rect x="612.581" y="196.751" fill="none" width="222.265" height="54.375"/>
<text transform="matrix(1 0 0 1 612.5811 206.8164)"><tspan x="0" y="0" fill="#F5C714" font-family="'Helvetica-Bold'" font-size="14">WHAT INFLUENCES IT?</tspan><tspan x="0" y="16.8" fill="#FFFFFF" font-family="'Helvetica'" font-size="14">Variations in temperature and </tspan><tspan x="0" y="33.6" fill="#FFFFFF" font-family="'Helvetica'" font-size="14">topography can impact PM</tspan></text>
<polygon opacity="0.3" fill="#FFFFFF" points="829.021,185.793 847.882,185.793 872.021,222.716 846.882,258.126 829.021,258.126 
	853.813,222.46 "/>
<rect x="900.718" y="197.751" fill="none" width="222.266" height="54.375"/>
<text transform="matrix(1 0 0 1 900.7183 207.8164)"><tspan x="0" y="0" fill="#F5C714" font-family="'Helvetica-Bold'" font-size="14">HOW DO WE MEASURE IT? </tspan><tspan x="0" y="16.8" fill="#FFFFFF" font-family="'Helvetica'" font-size="14">PM concentrations are monitored </tspan><tspan x="0" y="33.6" fill="#FFFFFF" font-family="'Helvetica'" font-size="14">on the ground and by satellite</tspan></text>
<polygon opacity="0.3" fill="#FFFFFF" points="1426.882,185.793 1135.882,185.793 1131,185.793 1117.021,185.793 1141.813,222.46 
	1117.021,258.126 1132.333,258.126 1134.882,258.126 1425.882,258.126 1451.021,222.716 "/>
<rect x="1188.718" y="197.751" fill="none" width="222.266" height="58.375"/>
<text transform="matrix(1 0 0 1 1188.7178 207.8164)"><tspan x="0" y="0" fill="#F5C714" font-family="'Helvetica-Bold'" font-size="14">WHAT CAN WE DO ABOUT IT?</tspan><tspan x="0" y="16.8" fill="#FFFFFF" font-family="'Helvetica'" font-size="14">Future changes can improve the </tspan><tspan x="0" y="33.6" fill="#FFFFFF" font-family="'Helvetica'" font-size="14">impacts of PM</tspan></text>
<path fill="none" stroke="#D1D3D4" stroke-width="3" stroke-miterlimit="10" d="M845.023,661.568
	C1155.172,547.927,1678.746,548,1193.152,984.614"/>
<g>
	<circle fill="#FFFFFF" cx="1375.851" cy="669.05" r="33.061"/>
	
		<rect x="1359.954" y="735.701" transform="matrix(0.3985 0.9172 -0.9172 0.3985 1552.8633 -840.2202)" fill="#FFFFFF" width="114.151" height="56.236"/>
	
		<rect x="1277.807" y="546.649" transform="matrix(0.3985 0.9172 -0.9172 0.3985 1330.0588 -878.5903)" fill="#FFFFFF" width="114.152" height="56.236"/>
	
		<rect x="1320.195" y="522.759" transform="matrix(0.3985 0.9171 -0.9171 0.3985 1289.317 -899.691)" fill="#D1D3D4" width="20.857" height="20.856"/>
	
		<rect x="1296.967" y="532.852" transform="matrix(0.3986 0.9171 -0.9171 0.3986 1284.5901 -872.3173)" fill="#D1D3D4" width="20.856" height="20.856"/>
	
		<rect x="1330.819" y="547.21" transform="matrix(0.3985 0.9172 -0.9172 0.3985 1318.1754 -894.7296)" fill="#D1D3D4" width="20.856" height="20.856"/>
	
		<rect x="1307.592" y="557.302" transform="matrix(0.3985 0.9172 -0.9172 0.3985 1313.4534 -867.3561)" fill="#D1D3D4" width="20.856" height="20.856"/>
	
		<rect x="1341.443" y="571.66" transform="matrix(0.3985 0.9172 -0.9172 0.3985 1346.9829 -889.7673)" fill="#D1D3D4" width="20.856" height="20.856"/>
	
		<rect x="1318.216" y="581.753" transform="matrix(0.3985 0.9172 -0.9172 0.3985 1342.2539 -862.3937)" fill="#D1D3D4" width="20.856" height="20.856"/>
	
		<rect x="1352.068" y="596.111" transform="matrix(0.3986 0.9171 -0.9171 0.3986 1375.7542 -884.8054)" fill="#D1D3D4" width="20.855" height="20.857"/>
	
		<rect x="1328.84" y="606.204" transform="matrix(0.3985 0.9172 -0.9172 0.3985 1371.0809 -857.4313)" fill="#D1D3D4" width="20.856" height="20.856"/>
	
		<rect x="1402.279" y="711.669" transform="matrix(0.3985 0.9172 -0.9172 0.3985 1511.9989 -861.3508)" fill="#D1D3D4" width="20.856" height="20.855"/>
	
		<rect x="1379.051" y="721.761" transform="matrix(0.3985 0.9172 -0.9172 0.3985 1507.2844 -833.9769)" fill="#D1D3D4" width="20.856" height="20.856"/>
	
		<rect x="1412.903" y="736.12" transform="matrix(0.3985 0.9172 -0.9172 0.3985 1540.838 -856.3862)" fill="#D1D3D4" width="20.857" height="20.856"/>
	
		<rect x="1389.676" y="746.212" transform="matrix(0.3985 0.9172 -0.9172 0.3985 1536.1033 -829.0146)" fill="#D1D3D4" width="20.856" height="20.856"/>
	
		<rect x="1423.528" y="760.57" transform="matrix(0.3985 0.9172 -0.9172 0.3985 1569.5875 -851.4296)" fill="#D1D3D4" width="20.856" height="20.856"/>
	
		<rect x="1400.301" y="770.663" transform="matrix(0.3985 0.9172 -0.9172 0.3985 1564.9355 -824.0502)" fill="#D1D3D4" width="20.855" height="20.856"/>
	
		<rect x="1434.152" y="785.021" transform="matrix(0.3985 0.9171 -0.9171 0.3985 1598.3973 -846.4681)" fill="#D1D3D4" width="20.856" height="20.856"/>
	
		<rect x="1410.925" y="795.114" transform="matrix(0.3985 0.9172 -0.9172 0.3985 1593.7513 -819.0875)" fill="#D1D3D4" width="20.855" height="20.855"/>
</g>
<g>
	<g>
		<path fill="#FFFFFF" d="M1316.572,695.21c5.051,11.622,14.43,20.016,25.427,24.138l3.3-8.807
			c-8.692-3.258-16.107-9.893-20.099-19.08c-3.818-8.789-3.792-18.276-0.674-26.592l-8.807-3.3
			C1311.775,672.09,1311.741,684.091,1316.572,695.21z"/>
	</g>
	<g>
		<path fill="#FFFFFF" d="M1316.572,695.21c5.051,11.622,14.43,20.016,25.427,24.138l3.3-8.807
			c-8.692-3.258-16.107-9.893-20.099-19.08c-3.818-8.789-3.792-18.276-0.674-26.592l-8.807-3.3
			C1311.775,672.09,1311.741,684.091,1316.572,695.21z"/>
	</g>
	<g>
		<path fill="#FFFFFF" d="M1294.577,705.488c7.672,17.657,21.922,30.409,38.629,36.671l5.014-13.38
			c-13.206-4.95-24.471-15.031-30.535-28.987c-5.802-13.353-5.762-27.766-1.025-40.4l-13.379-5.014
			C1287.289,670.363,1287.236,688.596,1294.577,705.488z"/>
	</g>
	<g>
		<path fill="#FFFFFF" d="M1264.847,718.037c11.233,25.853,32.098,44.525,56.561,53.694l7.34-19.59
			c-19.335-7.248-35.83-22.008-44.709-42.443c-8.496-19.551-8.436-40.654-1.501-59.154l-19.591-7.341
			C1254.175,666.606,1254.099,693.303,1264.847,718.037z"/>
	</g>
</g>
<path fill="none" stroke="#D1D3D4" stroke-width="3" stroke-miterlimit="10" d="M623,975.173
	c763.384-1329.035,89.928-372.243,105.927-372.243"/>
<g>
	<g>
		<defs>
			<path id="SVGID_3_" d="M1114.891,740.576c-58.247-112.064-148.339-199.782-257.714-262.001
				c38.919-42.83,81.477-81.184,127.768-115.899c121.673,81.649,219.691,191.008,281.306,324.385
				C1213.834,699.773,1163.585,717.362,1114.891,740.576z"/>
		</defs>
		<clipPath id="SVGID_4_">
			<use xlink:href="#SVGID_3_"  overflow="visible"/>
		</clipPath>
		<path clip-path="url(#SVGID_4_)" fill="#D1D3D4" d="M1112.579,626.24c-7.178-8.727-15.504-15.475-27.467-18.658
			c12.636-23.159,5.096-50.758-12.434-69.093c-20.889-21.848-53.764-32.303-83.347-25.326c-0.378-12.24-7.476-23.153-17.063-30.363
			c-19.744-14.848-52.172-17.848-70.835,0.472c-17.319,17.001-8.301,42.846,9.468,55.385c10.375,7.322,23.048,11.132,35.752,10.852
			c-8.226,24.215,2.014,50.682,19.799,67.795c18.135,17.45,43.917,25.882,68.868,22.395c-0.521,10.006,2.693,19.838,8.731,27.802
			c13.124,17.312,37.878,23.523,57.229,13.166C1121.474,669.858,1125.991,642.548,1112.579,626.24z"/>
	</g>
</g>
<g>
	<g>
		<defs>
			<path id="SVGID_5_" d="M1018.213,649.84c-78.848-98.668-184.19-167.291-303.548-207.169
				c29.889-49.555,64.222-95.42,102.92-138.436c135.17,56.538,252.519,144.883,338.767,263.809
				C1107.387,590.657,1061.491,617.64,1018.213,649.84z"/>
		</defs>
		<clipPath id="SVGID_6_">
			<use xlink:href="#SVGID_5_"  overflow="visible"/>
		</clipPath>
		<path clip-path="url(#SVGID_6_)" fill="#FFFFFF" d="M993.815,538.113c-8.732-7.172-18.206-12.179-30.558-12.989
			c7.916-25.166-4.83-50.786-25.572-65.38c-24.712-17.386-59.008-21.29-86.671-8.715c-2.735-11.934-11.821-21.271-22.617-26.488
			c-22.237-10.745-54.64-7.413-69.404,14.17c-13.704,20.033,0.15,43.643,20.007,52.505c11.596,5.176,24.765,6.462,37.177,3.729
			c-3.377,25.354,11.78,49.331,32.546,62.684c21.164,13.608,48.103,16.898,71.899,8.642c1.425,9.917,6.479,18.94,13.947,25.585
			c16.229,14.443,41.721,15.75,58.695,1.843C1010.979,579.185,1010.138,551.519,993.815,538.113z"/>
	</g>
</g>
<g>
	<g>
		<defs>
			<path id="SVGID_7_" d="M1099.99,881.038c-25.639-88.919-76.62-164.028-145.731-225.088
				c34.222-24.837,70.145-45.933,108.332-64.079c74.996,76.703,128.583,168.498,153.433,273.138
				C1176.645,866.498,1138.273,871.675,1099.99,881.038z"/>
		</defs>
		<clipPath id="SVGID_8_">
			<use xlink:href="#SVGID_7_"  overflow="visible"/>
		</clipPath>
		<path clip-path="url(#SVGID_8_)" fill="#FFFFFF" d="M1115.121,798.979c-3.465-7.644-9.684-13.796-16.894-17.366
			c12.397-14.691,11.374-36.646,1.257-51.207c-12.406-17.858-32.148-30.922-55.852-30.335c1.413-7.627-0.972-16.517-7.738-24.208
			c-12.001-13.642-34.689-20.314-50.695-10.061c-14.745,9.445-12.228,29.418-1.365,40.974c6.502,6.917,15.108,11.408,23.961,13.005
			c-9.378,16.146-6.232,37.624,4.197,51.362c10.961,14.438,26.297,24.83,45.933,26.114c-1.799,6.69-1.179,14.192,2.16,21.152
			c6.875,14.335,23.611,22.333,38.97,17.811C1115.013,831.523,1121.861,813.846,1115.121,798.979z"/>
	</g>
</g>
<circle fill="#FFFFFF" cx="918.605" cy="335.758" r="33.061"/>
<line fill="none" stroke="#C85B22" stroke-width="14" stroke-miterlimit="10" x1="918.605" y1="312.167" x2="918.605" y2="358.833"/>
<line fill="none" stroke="#C85B22" stroke-width="14" stroke-miterlimit="10" x1="895.272" y1="335.5" x2="941.938" y2="335.5"/>
<g>
	<path fill="#FFFFFF" d="M1603.266,876.352c0,0,4.828,20.989,0,39.065c0,0-6.643-10.788-1.509-36.732L1603.266,876.352z"/>
	<line fill="#FFFFFF" x1="1598.306" y1="963.884" x2="1598.306" y2="910.755"/>
	<path fill="#FFFFFF" d="M1598.306,875.771c0,0,4.828,20.99,0,39.064c0,0-6.647-10.787-1.513-36.734L1598.306,875.771z"/>
	<line fill="#FFFFFF" x1="1595.281" y1="963.672" x2="1595.281" y2="910.539"/>
	<path fill="#FFFFFF" d="M1595.281,875.552c0,0,4.83,20.991,0,39.065c0,0-6.641-10.788-1.508-36.733L1595.281,875.552z"/>
</g>
</svg>
