<?xml version="1.0" encoding="utf-8"?>
<!-- Generator: Adobe Illustrator 18.0.0, SVG Export Plug-In . SVG Version: 6.00 Build 0)  -->
<!DOCTYPE svg PUBLIC "-//W3C//DTD SVG 1.1//EN" "http://www.w3.org/Graphics/SVG/1.1/DTD/svg11.dtd">
<svg version="1.1" id="Layer_1" xmlns="http://www.w3.org/2000/svg" xmlns:xlink="http://www.w3.org/1999/xlink" x="0px" y="0px"
	 viewBox="0 0 1600 1150" enable-background="new 0 0 1600 1150" xml:space="preserve">
<g>
	<rect x="1.673" y="0.088" fill-rule="evenodd" clip-rule="evenodd" fill="#C85B22" width="1600" height="1147.628"/>
	<path opacity="0.6" fill="#FFFFFF" d="M292.524,511.751c-13.76-7.128-34.109,18.822-52,4c-34.029-28.191-60.57-102.436-90-104
		c-15.381-0.818-35.156,31.885-50,36c-11.604,3.217-36.867,0.588-48-4c-15.094-6.221-34.094-38.329-50-42c-14.063-3.246-56,14-56,14
		l-30,354l52,238l440-26.525l120-197.475l-21.363-25.312c0,0-35.955-19.246-86.637-62.688c-28-24-41.906-86.014-68-98
		C334.442,589.445,310.192,520.903,292.524,511.751z"/>
	<path opacity="0.6" fill="#FFFFFF" d="M1084.524,757.752c0,0,85.383-27.478,106-48c9.355-9.314,11.934-39.46,22-48
		c4.346-3.69,17.328-2.733,22-6c12.049-8.43,26.971-35.084,34-48c16.732-30.746,30.336-120.406,64-130
		c11.349-3.234,14.199,27.927,26,28c24.005,0.148,54.464-51.279,78-56c13.081-2.624,38.752,13.576,52,12
		c11.102-1.321,28.884-21.195,40-20c25.258,2.715,79.148,63.724,79.148,63.724l48.852,506.276l-194,6l-278,8L1084.524,757.752z"/>
	<g>
		<circle fill-rule="evenodd" clip-rule="evenodd" fill="#FFFFFF" cx="1334.524" cy="197.751" r="68.39"/>
		<g>
			<polygon fill-rule="evenodd" clip-rule="evenodd" fill="#FFFFFF" points="1334.37,102.716 1334.37,102.502 1334.479,102.609 
				1334.586,102.502 1334.586,102.716 1349.358,117.488 1334.586,117.488 1334.37,117.488 1319.601,117.488 			"/>
			<polygon fill-rule="evenodd" clip-rule="evenodd" fill="#FFFFFF" points="1334.37,297.654 1334.37,297.869 1334.479,297.761 
				1334.586,297.869 1334.586,297.654 1349.358,282.882 1334.586,282.882 1334.37,282.882 1319.601,282.882 			"/>
		</g>
		<g>
			<polygon fill-rule="evenodd" clip-rule="evenodd" fill="#FFFFFF" points="1285.652,115.83 1285.544,115.642 1285.692,115.682 
				1285.731,115.536 1285.838,115.721 1306.017,121.127 1293.224,128.513 1293.037,128.621 1280.247,136.005 			"/>
			<polygon fill-rule="evenodd" clip-rule="evenodd" fill="#FFFFFF" points="1383.121,284.65 1383.229,284.836 1383.268,284.689 
				1383.414,284.728 1383.307,284.543 1388.716,264.365 1375.923,271.75 1375.734,271.859 1362.942,279.244 			"/>
		</g>
		<g>
			<polygon fill-rule="evenodd" clip-rule="evenodd" fill="#FFFFFF" points="1250.016,151.544 1249.827,151.437 1249.978,151.398 
				1249.936,151.251 1250.122,151.359 1270.3,145.951 1262.916,158.744 1262.807,158.931 1255.423,171.721 			"/>
			<polygon fill-rule="evenodd" clip-rule="evenodd" fill="#FFFFFF" points="1418.837,249.014 1419.021,249.122 1418.982,248.974 
				1419.13,248.935 1418.942,248.828 1413.538,228.649 1406.152,241.442 1406.043,241.628 1398.658,254.419 			"/>
		</g>
		<g>
			<polygon fill-rule="evenodd" clip-rule="evenodd" fill="#FFFFFF" points="1237.011,200.294 1236.794,200.294 1236.904,200.185 
				1236.794,200.079 1237.009,200.079 1251.783,185.306 1251.783,200.079 1251.783,200.294 1251.781,215.063 			"/>
			<polygon fill-rule="evenodd" clip-rule="evenodd" fill="#FFFFFF" points="1431.949,200.294 1432.162,200.294 1432.055,200.185 
				1432.162,200.079 1431.948,200.079 1417.176,185.306 1417.176,200.079 1417.176,200.294 1417.176,215.063 			"/>
		</g>
		<g>
			<polygon fill-rule="evenodd" clip-rule="evenodd" fill="#FFFFFF" points="1250.122,249.013 1249.937,249.121 1249.978,248.973 
				1249.827,248.935 1250.016,248.828 1255.423,228.648 1262.808,241.441 1262.916,241.628 1270.3,254.419 			"/>
			<polygon fill-rule="evenodd" clip-rule="evenodd" fill="#FFFFFF" points="1418.945,151.544 1419.132,151.437 1418.984,151.398 
				1419.021,151.251 1418.837,151.358 1398.658,145.95 1406.043,158.744 1406.153,158.929 1413.537,171.72 			"/>
		</g>
		<g>
			<polygon fill-rule="evenodd" clip-rule="evenodd" fill="#FFFFFF" points="1285.841,284.65 1285.733,284.836 1285.692,284.688 
				1285.544,284.728 1285.653,284.543 1280.243,264.363 1293.038,271.75 1293.226,271.857 1306.016,279.243 			"/>
			<polygon fill-rule="evenodd" clip-rule="evenodd" fill="#FFFFFF" points="1383.31,115.828 1383.417,115.642 1383.269,115.681 
				1383.229,115.536 1383.122,115.72 1362.942,121.127 1375.736,128.513 1375.924,128.62 1388.716,136.005 			"/>
		</g>
	</g>
	<circle fill="#C85B22" cx="805.09" cy="1106.736" r="447.245"/>
	<g>
		<defs>
			<circle id="SVGID_15_" cx="804.546" cy="1109.189" r="447.623"/>
		</defs>
		<clipPath id="SVGID_2_">
			<use xlink:href="#SVGID_15_"  overflow="visible"/>
		</clipPath>
		<g clip-path="url(#SVGID_2_)">
			<path fill-rule="evenodd" clip-rule="evenodd" fill="#FFFFFF" d="M606.548,1125.095c-4.165,3.268-8.775,6.107-12.356,9.92
				c-3.438,3.658-5.973,8.217-8.599,12.568c-2.797,4.639-5.344,9.443-7.752,14.297c-0.614,1.236-0.972,3.518-0.277,4.34
				c6.92,8.248,13.365,17.035,22.886,22.648c1.843,1.09,3.824,1.998,5.826,2.754c7.171,2.707,9.073,8.451,4.667,14.951
				c-2.225,3.281-4.604,6.518-7.34,9.361c-1.105,1.146-3.356,1.186-5.085,1.73c-0.236-1.488-0.929-3.084-0.613-4.447
				c0.845-3.637,3.126-7.061,0.996-10.975c-0.392-0.719-0.51-2.232-0.814-2.25c-3.465-0.193-6.983-0.492-10.386-0.02
				c-1.168,0.166-2.966,2.465-2.895,3.697c0.243,4.094,0.589,8.391,2.066,12.148c1.385,3.527,0.062,4.902-2.542,6.195
				c-2.954,1.465-5.831,3.445-8.968,4.102c-8.181,1.709-11.521,8.197-16.242,13.949c-5.416,6.594-9.446,13.553-11.712,21.59
				c-1.054,3.738-1.19,7.725-1.945,11.561c-0.923,4.676-2.419,9.262-3.023,13.969c-0.935,7.264-0.743,13.713,7.558,17.943
				c4.008,2.045,6.146,7.773,9.106,11.854c0.283,0.393,0.315,0.969,0.602,1.359c1.889,2.582,5.155,5.055,5.326,7.73
				c0.149,2.369-3.134,4.957-4.9,7.449c-4.227,5.977-2.891,10.346,3.962,13.199c1.458,0.605,2.811,1.463,5.188,2.721
				c-4.059,2.602-7.148,4.928-10.572,6.559c-1.025,0.488-4.232-0.828-4.309-1.549c-0.734-6.721-6.461-9.779-9.951-14.453
				c-3.43-4.598-6.462-9.49-9.789-14.168c-1.035-1.453-2.467-2.627-3.718-3.932c-1.748,1.781-3.5,3.562-5.234,5.357
				c-0.08,0.082-0.017,0.326,0.014,0.49c1.601,8.836,0.685,18.156,8.102,25.533c7.858,7.814,6.111,8.811,0.72,14.25
				c-1.14,1.152-0.265,4.432-0.09,6.713c0.17,2.188,0.632,4.355,0.964,6.527c-1.964,0.166-3.947,0.209-5.888,0.537
				c-1.582,0.268-3.828,0.381-4.545,1.418c-3.354,4.869-6.863,9.641-6.476,16.246c0.406,6.928-0.044,13.904-0.756,21.691
				c-1.672-2.887-3.737-5.621-4.925-8.697c-1.991-5.152-3.285-10.572-5.17-15.771c-0.59-1.625-1.905-3.207-3.294-4.281
				c-6.522-5.033-6.364-7.438,1.162-11.498c-0.008-3.623-1.047-6.398-4.587-8.525c-7.724-4.631-9.308-9.68-5.78-17.676
				c2.153-4.891,4.871-9.527,7.336-14.271c7.419,3.109,8.448,2.416,9.066-5.754c0.122-1.598,0.252-3.67,1.244-4.65
				c6.872-6.797,4.253-13.869,0.962-21.004c-0.749-1.625-1.79-3.111-3.111-5.373c-1.896,1.686-3.535,3.166-5.204,4.617
				c-4.304,3.746-8.293,7.979-13.021,11.088c-5.833,3.838-7.656,8.225-4.79,14.504c1.027,2.246,2.401,4.539-2.123,5.236
				c-2.892,0.445-4.951,2.869-4.995,6.52c-0.036,2.91-0.541,5.916-1.41,8.701c-1.881,6.035-1.297,8.623,3.578,12.637
				c5.73,4.713,5.657,4.967,1.982,11.486c-1.693,3.002-2.925,6.293-4.053,9.562c-0.424,1.215,0.049,2.74,0.128,4.391
				c9.628-5.082,18.309,0.736,20.902,11.02c1.479,5.871,3.558,12.346,6.73,17.471c4.81,7.771,10.956,15.113,17.897,21.035
				c5.606,4.783,13.232,7.191,19.953,10.676c3.787,1.965,7.851,3.602,11.162,6.184c1.12,0.873,0.863,4.369,0.292,6.4
				c-2.902,10.275-2.607,9.932-12.769,4.809c-20.282-10.229-36.323-25.758-51.838-41.973c-6.339-6.623-13.596-12.354-20.118-18.812
				c-4.441-4.398-8.443-9.266-12.432-14.096c-4.944-6-9.957-11.98-14.422-18.332c-8.435-11.988-16.605-24.168-24.678-36.406
				c-4.543-6.887-9.058-13.844-12.894-21.131c-4.835-9.182-9.251-18.607-13.338-28.148c-6.899-16.094-14.429-31.949-18.502-49.146
				c-4.722-19.953-10.149-39.744-14.58-59.754c-2.286-10.309-3.561-20.902-4.42-31.441c-1.257-15.445-2.087-30.951-2.415-46.445
				c-0.209-10.053,0.412-20.168,1.364-30.193c1.234-13.016,2.588-26.076,4.944-38.924c3.109-16.939,6.545-33.881,11.133-50.465
				c4.366-15.793,10.133-31.221,15.821-46.613c2.168-5.861,5.717-11.238,8.902-16.682c0.724-1.24,2.444-2.08,3.885-2.678
				c4.437-1.848,5.426-4.061,2.745-7.885c-2.31-3.305-0.124-5.697,1.258-8.104c8.441-14.67,16.588-29.535,25.654-43.811
				c14.434-22.719,31.188-43.721,50.287-62.701c12.908-12.83,26.266-25.24,39.885-37.316c6.753-5.984,14.411-10.99,21.901-16.086
				c12.144-8.262,24.287-16.562,36.815-24.213c9.135-5.57,18.698-10.537,28.416-15.021c13.174-6.076,26.51-11.896,40.097-16.963
				c11.47-4.279,23.337-7.555,35.143-10.854c10.662-2.981,21.39-5.875,32.256-7.932c13.791-2.607,27.714-4.594,41.646-6.357
				c10.96-1.387,22.009-2.785,33.025-2.828c17.626-0.068,35.279,0.613,52.877,1.685c11.837,0.717,23.664,2.25,35.372,4.162
				c11.058,1.807,22.052,4.199,32.894,7.031c14.185,3.709,28.411,7.473,42.21,12.373c14.628,5.199,29.182,10.955,43.028,17.93
				c18.682,9.406,37.163,19.408,54.801,30.613c21.817,13.857,42.143,29.91,60.604,48.119c10.675,10.523,21.437,21.014,31.37,32.217
				c8.867,10.004,16.893,20.787,24.847,31.557c6.671,9.041,13.148,18.289,18.895,27.935c6.486,10.889,12.193,22.258,17.98,33.555
				c4.438,8.65,8.66,17.418,12.605,26.295c3.082,6.926,5.866,14.014,8.289,21.195c4.762,14.113,9.591,28.227,13.627,42.557
				c4.617,16.406,6.557,33.32,8.998,50.187c1.987,13.777,3.17,27.557,4.427,41.357c0.622,6.879,0.868,13.863,0.456,20.752
				c-1.155,19.289-2.018,38.639-4.374,57.797c-2.157,17.51-5.925,34.836-9.413,52.156c-0.961,4.777-2.824,9.646-5.454,13.713
				c-1.617,2.506-5.459,3.574-8.301,5.291c-0.318-0.426-0.635-0.852-0.949-1.277c1.658-4.576,2.864-9.387,5.115-13.648
				c1.781-3.373,1.886-6.068,0.204-9.314c-4.178-8.062-1.049-21.828,6.082-27.52c3.714-2.967,5.735-6.965,5.931-11.6
				c0.376-8.891,0.515-17.791,0.474-26.686c-0.007-1.754-1.272-3.502-1.959-5.252c-1.736,0.961-3.912,1.537-5.136,2.945
				c-5.808,6.672-6.786,15.047-8.084,23.406c-0.769,4.961-2.843,9.709-4.202,14.592c-0.832,2.988-1.104,6.162-2.195,9.039
				c-1.045,2.754-2.227,6.57-4.403,7.533c-4.073,1.807-5.372,4.996-7.237,8.301c-1.126,1.996-3.09,4.752-4.787,4.832
				c-1.644,0.082-3.443-2.82-5.152-4.432c-2.005-1.893-3.849-3.996-6.03-5.652c-2.245-1.703-4.815-2.977-7.24-4.445
				c-7.825-4.719-7.672-11.135,0.392-16.016c0.828-0.5,1.717-0.896,3.548-1.844c-1.457-1.713-2.659-3.131-3.86-4.551
				c-1.4,1.518-3.013,2.893-4.144,4.594c-1.139,1.709-1.69,3.793-2.694,5.605c-2.134,3.852-5.644,7.135-4.386,12.285
				c0.187,0.762-0.895,1.973-1.603,2.793c-2.849,3.311-2.189,6.385,1.779,8.176c3.621,1.631,7.08,3.729,10.832,4.934
				c5.535,1.777,6.783,6.406,8.018,10.998c0.341,1.268-0.836,2.943-1.315,4.432c-1.595-0.617-3.356-0.99-4.748-1.912
				c-3.078-2.049-5.661-5.303-8.995-6.412c-9.551-3.172-14.219-10.203-17.102-19.08c-0.31-0.951-0.305-2.141-0.9-2.834
				c-1.924-2.242-4.064-4.307-6.121-6.443c-1.142,2.91-2.469,5.766-3.327,8.758c-0.324,1.133,0.35,2.607,0.737,3.875
				c1.218,3.977,0.218,5.969-4.353,6.051c-1.366,0.025-2.903,1.838-3.999,3.141c-1.867,2.223-3.351,4.766-5.209,6.998
				c-0.463,0.555-1.863,0.795-2.575,0.518c-0.468-0.18-0.869-1.695-0.625-2.367c3.115-8.617-1.608-17.051-0.603-25.664
				c0.197-1.719-1.873-4.357-3.602-5.393c-0.974-0.584-3.587,0.975-5.121,2.055c-3.898,2.748-7.589,5.791-11.389,8.676
				c-3.805,2.895-7.838,4.553-12.916,4.031c-1.919-0.195-4.031,2.098-6.146,3.047c-2.107,0.941-4.332,1.625-6.506,2.42
				c-0.544-2.018-1.669-4.076-1.535-6.047c0.492-7.049,2.244-14.115,1.854-21.082c-0.234-4.17,0.267-7.32,2.463-10.607
				c3.789-5.676,6.489-6.789,12.935-4.412c3.107,1.146,4.964,0.58,7.831-1.494c9.938-7.195,21.03-10.369,32.908-4.871
				c4.687,2.168,6.34-0.084,7.752-3.705c0.78-2.008,1.469-4.053,2.172-6.09c2.837-8.207,8.56-11.15,16.886-7.99
				c4.982,1.889,9.461,3.986,15.145,2.012c3.774-1.309,5.577,2.676,6.422,5.551c1.506,5.125,2.156,10.5,3.373,15.719
				c0.301,1.279,1.186,2.943,2.238,3.377c1.044,0.43,2.978-0.051,3.933-0.844c9.381-7.766,19.704-14.68,24.952-26.363
				c0.199-0.451,0.443-1.008,0.834-1.232c10.5-6.031,10.166-17.225,11.724-26.844c2.074-12.799,2.445-25.902,3.047-38.904
				c1.205-26.143-3.677-51.576-11.329-76.318c-3.861-12.488-9.563-24.633-19.356-34.18c-2.112-2.064-3.374-2.33-5.825-0.719
				c-1.775,1.168-4.374,1.014-6.321,2.006c-2.482,1.273-5.636,2.584-6.817,4.785c-4.218,7.848-9.245,6.756-14.462,2.102
				c-3.348-2.988-5.857-5.568-11.112-4.639c-4.238,0.75-9.514-5.742-9.982-10.305c-0.609-5.914-1.637-11.785-2.119-17.703
				c-0.473-5.76-3.82-9.834-8.258-12.303c-11.941-6.647-16.5-18.939-23.624-29.275c-1.301-1.887-2.107-4.133-3.518-5.922
				c-4.367-5.551-7.137-11.014-4.761-18.693c0.979-3.152-2.085-7.387-2.679-11.225c-1.298-8.416-5.547-14.477-11.632-20.564
				c-7.574-7.576-12.879-17.371-19.579-25.883c-6.43-8.172-13.353-15.957-20.134-23.85c-5.38-6.268-10.721-12.584-16.362-18.607
				c-5.709-6.098-10.084-9.111-19.185-7.201c-5.797,1.213-11.74,1.815-17.637,2.473c-4.573,0.51-11.825,6.479-12.435,11.689
				c-1.152,9.916-5.864,19.424-3.523,29.781c0.213,0.922-0.531,2.244-1.165,3.145c-5.839,8.24-5.228,17.619,1.679,24.488
				c3.533,3.508,3.521,8.088-0.049,12.477c-4.177,5.135-8.718,10.025-12.391,15.494c-1.743,2.592-2.641,6.324-2.512,9.484
				c0.246,6.07,1.404,12.119,2.353,18.152c1.222,7.74,5.811,13.719,11.059,19.057c2.863,2.914,4.752,5.549,4.496,9.893
				c-0.156,2.705,0.581,5.861,1.976,8.182c5.399,8.973,3.599,17.35-1.092,25.814c-8.367,15.102-16.523,30.32-24.967,45.377
				c-3.078,5.49-7.819,10.275-9.837,16.064c-2.622,7.535-3.51,15.721-4.723,23.693c-0.763,5.027-0.928,10.176-1.058,15.273
				c-0.136,5.553,4.036,8.045,9.064,5.746c11.09-5.066,22.188-10.104,33.32-15.08c5.997-2.684,9.777-1.812,14.12,3.227
				c5.272,6.109,10.45,12.297,15.646,18.473c0.41,0.494,0.866,1.123,0.92,1.723c0.675,7.4,6.044,9.451,12.096,10.318
				c7.827,1.117,10.607,7.84,14.036,13.123c10.851,16.723,20.983,33.912,31.382,50.932c0.511,0.834,0.87,1.762,1.195,2.432
				c-2.086,1.957-4.055,3.801-6.94,6.506c-1.291-1.703-2.927-3.654-4.327-5.756c-3.009-4.508-5.512-9.416-8.932-13.574
				c-5.121-6.23-10.98-11.85-16.249-17.965c-1.848-2.146-3.806-4.891-4.115-7.545c-1.192-10.24-6.863-17.477-15.415-21.887
				c-9.462-4.879-14.585-13.266-20.381-21.299c-0.392-0.541-0.801-1.066-1.161-1.625c-4.251-6.516-7.598-7.322-14.485-3.959
				c-12.08,5.902-21.258,15.477-31.078,24.236c-7.247,6.465-14.521,12.91-21.577,19.58c-4.691,4.432-9.067,9.199-13.492,13.904
				c-2.256,2.395-2.158,3.301,0.042,9.939c-6.763,4.594-10.16,13.902-8.916,21.531c1.025,6.277,6.317,6.047,10.192,7.971
				c1.885,0.938,4.168,1.107,6.294,1.506c3.781,0.711,6.533,1.779,8.755,5.906c2.699,5.023,7.972,7.652,11.948-0.139
				c2.93-5.738,7.278-9.691,13.098-12.389c5.129-2.377,6.867-1.891,8.065,3.559c1.067,4.857,2.57,8.818,8.801,7.262
				c0.15-0.037,0.329,0.004,0.495,0.029c4.429,0.732,18.152,15.416,18.767,20.994c-2.243-0.127-4.53,0.258-6.407-0.441
				c-11.634-4.324-23.092-9.16-34.827-13.168c-2.456-0.842-6.471,0.234-8.652,1.896c-2.853,2.166-4.801,2.146-7.548,0.467
				c-3.628-2.219-7.219-4.793-11.194-6.057c-3.269-1.039-7.256-1.154-10.605-0.346c-10.643,2.574-21.278,5.361-31.657,8.836
				c-9.989,3.344-18.275-0.232-26.152-5.303c-5.774-3.715-10.822-8.543-16.403-12.582c-1.385-1.004-3.663-1.391-5.411-1.154
				c-3.527,0.473-6.948,1.855-10.479,2.232c-1.112,0.117-3.038-1.535-3.549-2.799c-1.202-2.98-1.548-6.301-2.661-9.326
				c-2.497-6.795-4.996-13.611-7.993-20.191c-1.767-3.879-4.972-6.436-8.915-8.748c-4.158-2.439-7.397-6.811-10.372-10.83
				c-7.22-9.746-13.85-19.928-21.185-29.584c-1.86-2.453-5.297-2.43-7.739,0.566c-2.598,3.184-5.297,6.289-8.69,10.297
				c-0.541-1.789-1.169-3.033-1.273-4.32c-0.58-7.178-5.469-11.396-10.536-15.455c-0.849-0.68-2.95-1.33-3.147-1.051
				c-2.517,3.547-5.083,7.127-6.965,11.021c-0.602,1.24,0.208,4.025,1.332,5.082c3.959,3.734,8.249,7.137,12.592,10.43
				c1.936,1.469,3.901,4.561,7.032-0.199c0.801,3.244,1.517,5.111,1.698,7.033c0.776,8.195,1.703,16.398,1.908,24.615
				c0.071,2.791-1.351,5.924-2.894,8.4c-5.213,8.373-12.324,15.52-15.252,25.377c-0.992,3.34-3.511,6.295-5.62,9.219
				c-5.712,7.908-11.022,16.215-17.615,23.324c-3.321,3.58-8.878,5.527-13.787,7.057c-4.81,1.504-7.164-3.49-9.022-6.412
				c-3.832-6.027-8.096-10.773-14.731-13.963c-4.461-2.141-6.982-6.904-7.147-12.307c-0.004-0.162,0.094-0.33,0.08-0.49
				c-0.344-4.557-0.786-9.869-5.48-11.391c-5.069-1.643-7.037,3.816-9.65,7.021c-2.359,2.895-4.426,6.033-6.621,9.062
				c-0.53-0.281-1.066-0.559-1.597-0.84c-0.026-1.047,0.082-2.117-0.108-3.133c-0.57-3.098-0.643-6.484-2.027-9.186
				c-2.581-5.035-7.025-9.082-4.291-15.887c0.787-1.959-1.796-5.275-2.853-7.963c-0.779-1.988-2.31-3.99-2.252-5.951
				c0.224-7.432-2.186-13.256-7.724-18.473c-6.692-6.305-12.589-13.463-18.769-20.305c-0.438-0.488-0.391-1.414-0.822-3.154
				c6.868,2.66,12.78,5.643,19.048,7.182c6.293,1.543,12.935,1.682,19.443,2.217c0.209,0.02,1.195-3.207,0.842-3.439
				c-5.514-3.645-8.206-8.861-9.297-15.188c-0.098-0.559-1.426-1.16-2.249-1.285c-1.626-0.24-3.297-0.123-4.944-0.215
				c-6.269-0.359-7.935-2.523-6.588-8.516c1.187-5.283-0.493-9.162-5.25-11.75c-2.473-1.344-5.039-2.52-7.591-3.711
				c-3.441-1.607-6.749-2.5-8.753,2.992c-2.58-1.877-4.748-3.555-7.011-5.084c-8.387-5.672-16.407-12.049-25.324-16.711
				c-8.064-4.217-17.228-5.551-26.56-4.221c-10.735,1.531-21.647,2.156-32.226,4.398c-11.043,2.34-22.773,2.09-32.875,8.828
				c-2.682,1.787-7.62,1.033-11.276,0.27c-3.239-0.678-5.226-0.348-7.332,2.182c-3.38,4.064-7.144,7.807-10.642,11.773
				c-2.875,3.262-5.699,6.33-10.46,6.9c-1.859,0.223-4.083,1.217-5.241,2.607c-1.86,2.23-2.979,5.08-4.409,7.674
				c2.637-0.35,5.7,0.035,7.827-1.191c5.247-3.023,9.753-7.41,15.125-10.121c10.052-5.068,19.053-12.258,30.666-14.295
				c10.791-1.893,21.543-2.654,32.483-2.967c9.841-0.279,19.664-2.234,29.424-3.854c6.634-1.102,12.469-0.051,17.25,4.723
				c1.184,1.186,1.47,3.273,2.172,4.945c-1.632,0.424-3.266,1.221-4.88,1.186c-2.97-0.066-5.925-0.834-8.893-0.898
				c-1.576-0.029-3.168,0.812-4.752,1.26c0.66,1.777,0.825,4.539,2.064,5.16c5.691,2.855,10.932,7.717,18.387,4.393
				c1.787-0.797,4.958,0.24,6.941,1.389c5.426,3.133,10.604,6.703,15.759,10.271c1.072,0.744,1.622,2.234,2.416,3.383
				c-1.263,0.543-2.494,1.469-3.79,1.566c-5.2,0.385-5.748,1.096-4.372,6.027c1.141,4.076,1.928,8.26,3.2,12.289
				c2.133,6.752,8.573,7.967,13.934,10.752c5.672,2.943,11.104,6.432,16.313,10.139c2.485,1.766,4.085,4.473,0.959,7.59
				c-1.089,1.082-1.866,2.896-1.989,4.441c-0.262,3.254-0.102,6.729,4.74,6.088c3.343-0.443,4.337,1.793,4.235,4.152
				c-0.067,1.553-1.349,3.871-2.668,4.406c-4.216,1.705-8.587,2.098-12.831-0.586c-2.791-1.764-5.922-2.973-8.812-4.586
				c-4.481-2.492-8.481-5.391-7.342-11.707C607.388,1125.724,606.972,1125.41,606.548,1125.095z M417.784,932.5
				c-3.67-1.49-5.929-3.543-5.534-7.523c0.33-3.353-1.334-4.367-4.201-3.342c-1.804,0.648-3.781,1.584-4.98,2.986
				c-2.459,2.887-4.318,6.281-6.66,9.283c-7.406,9.51-9.193,21.254-12.672,32.252c-5.23,16.543-11.211,33.207-5.015,50.914
				c1.004,2.859,2.256,5.779,4.041,8.189c3.193,4.312,6.065,8.373,5.997,14.246c-0.045,3.758,0.571,8.65,2.918,11.033
				c3.383,3.432,4.213,7.264,5.422,11.324c0.556,1.879,1.273,3.783,2.309,5.432c1.863,2.965,4.99,2.76,6.39-0.445
				c0.631-1.445,0.732-3.219,0.699-4.834c-0.164-7.912-0.789-15.834-0.511-23.725c0.09-2.58,1.819-6.533,3.818-7.346
				c5.598-2.271,12.103,3.406,12.385,9.691c0.165,3.781,0.631,7.576,1.326,11.297c0.72,3.857,3.102,4.602,6.697,3.158
				c2.373-0.957,4.978-1.607,7.523-1.803c5.989-0.461,9.947-4.162,10.577-9.312c0.675-5.494,2.108-10.895,3.231-16.334
				c0.824-3.99,3.141-4.574,6.615-3.043c8.653,3.811,10.33,1.156,11.391-6.33c1.641-11.566,11.881-19.672,12.088-31.662
				c0.01-0.432,0.409-0.935,0.755-1.273c3.728-3.65,7.337-7.441,11.271-10.855c4.207-3.652,9.699-6.213,12.929-10.525
				c8.272-11.047,11.946-24.195,14.292-37.644c0.266-1.539-0.583-3.787-1.694-4.969c-5.225-5.537-9.577-11.225-12.784-18.514
				c-2.667-6.053-3.283-10.35-0.423-15.994c0.916-1.81,0.196-4.933-0.772-6.98c-0.405-0.848-3.498-0.848-5.252-0.549
				c-5.867,1.008-10.02,4.43-13.575,9.238c-2.248,3.037-5.753,5.189-8.838,7.555c-4.161,3.195-8.749,5.889-12.621,9.391
				c-4.385,3.959-7.959,8.809-12.288,12.842c-3.721,3.473-8.237,6.084-11.982,9.531c-7.089,6.529-9.797,6.213-14.518-2.324
				c-0.149-0.264-0.446-0.449-0.664-0.66C420.715,925.58,420.715,925.58,417.784,932.5z M575.774,1090.73
				c-1.086-2.543-1.496-4.012-2.274-5.25c-6.263-9.936-15.095-17.084-25.312-22.502c-1.694-0.902-4.359-0.033-6.569,0.125
				c-2.819,0.203-5.784,1.217-8.42,0.648c-8.962-1.936-14.783,2.008-15.369,11.098c-0.18,2.799,0.135,5.633-0.131,8.42
				c-0.489,5.209,0.004,11.023-2.24,15.396c-2.035,3.963-2.115,6.76-0.093,9.932c3.825,6,5.728,11.385-1.128,16.904
				c-2.851,2.293-1.557,7.578,1.521,8.318c3.996,0.967,8.104,1.771,12.193,1.938c3.714,0.152,6.621-1.742,7.819-5.623
				c0.534-1.732,1.319-3.385,1.863-5.119c2.456-7.848,8.157-15.061,4.382-24.168c-0.49-1.191,0.639-4.148,1.805-4.744
				c4.791-2.449,9.755-4.971,14.944-6.031c1.972-0.4,4.545,3.514,7.191,4.635c2.337,0.986,5.351,1.521,7.687,0.883
				C574.866,1095.255,575.282,1091.962,575.774,1090.73z M919.003,890.347c0.305,0.055,0.609,0.107,0.916,0.156
				c1.521,4.186,2.787,8.486,4.672,12.5c0.779,1.656,3.186,4,4.305,3.734c2.038-0.488,4.349-2.328,5.355-4.234
				c5.252-9.928,10.322-19.971,15.013-30.172c1.275-2.766,1.664-6.299,1.341-9.359c-0.633-5.957-4.42-11.18-3.391-17.74
				c1.254-7.98-3.287-14.162-8.061-20.055c-1.292-1.594-2.056-3.623-3.049-5.453c-0.936-1.729-1.503-4.455-2.874-4.943
				c-1.803-0.647-4.569-0.109-6.338,0.924c-6.836,3.994-9.235,10.629-9.117,18.111c0.174,11.502,0.855,22.988,1.148,34.484
				C919.11,875.648,918.987,883,919.003,890.347z M436.817,1111.265c1.295,0.613,2.35,0.826,2.979,1.459
				c3.334,3.369,7.125,1.822,10.064,0.102c1.131-0.664,0.398-4.582,0.426-7.02c0.008-0.641-0.135-1.414-0.503-1.912
				c-2.814-3.816-3.392-10.643-9.215-10.566c-10.993,0.15-18.185-5.287-24.647-13.166c-4.526-5.516-11.331-5.113-14.259-0.266
				c-3.74,6.197-4.811,6.283-11.053,2.619c-0.865-0.508-1.681-1.129-2.6-1.488c-3.205-1.25-6.375,0.582-7.512,4.432
				c-0.951,3.215-0.83,5.809,3.413,6.693c5.745,1.197,8.891,5.443,10.898,10.604c2.185,5.605,8.147,10.189,13.266,10.574
				c7.024,0.531,14.084,1.08,21.003,2.314C433.143,1116.369,436.192,1116.785,436.817,1111.265z M479.988,1114.621
				c0.518,0.629,1.04,1.258,1.558,1.885c1.522-0.375,3.199-0.463,4.533-1.184c3.587-1.938,6.977-4.225,10.533-6.217
				c2.824-1.58,7.013-2.197,8.416-4.543c3.132-5.23,5.6-11.105,7.035-17.033c1.635-6.764-4.459-17.705-10.609-20.49
				c-3.061-1.387-6.199-1.26-8.2,2.252c-1.406,2.461-2.868,4.885-4.393,7.271c-1.931,3.035-1.65,5.791,1.5,7.539
				c9.186,5.094,6.24,12.85-0.371,18.33C486.017,1105.722,483.281,1110.507,479.988,1114.621z M514.894,1206.609
				c0.155-0.008,0.308-0.02,0.464-0.029c0.199,0.807,0.451,1.607,0.591,2.426c0.804,4.717,3.735,7.436,8.31,7.99
				c4.31,0.523,6.671-2.051,7.862-6.021c0.317-1.059,1.518-1.852,1.849-2.912c0.723-2.316,2.299-5.254,1.495-7.002
				c-2.919-6.336-6.459-12.42-10.248-18.287c-1.06-1.645-4.648-3.598-5.567-3.018c-2.412,1.514-5.462,4.258-5.617,6.684
				C513.597,1193.117,514.514,1199.88,514.894,1206.609z M504.789,1156.353c-0.34-1.799-0.154-3.338-0.827-3.967
				c-4.726-4.434-9.357-9.061-14.597-12.82c-2.481-1.781-5.243,0.02-6.673,3.096c-4.103,8.789-2.478,17.016,2.699,24.637
				c0.629,0.928,4.383,0.801,5.779-0.16c1.502-1.027,2.389-3.539,2.725-5.547c0.677-4.023,1.517-6.936,6.594-4.594
				C501.458,1157.443,502.999,1156.658,504.789,1156.353z M530.741,1259.638c1.871,1.307,3.897,3.703,6.23,4.055
				c2.083,0.312,5.744-1.031,6.559-2.697c3.29-6.732,4.229-14.062-0.553-20.463c-1.449-1.941-5.271-2.889-8.006-2.887
				c-3.566,0.002-3.315,3.281-3.227,6.039c0.068,2.092-0.245,4.195-0.385,6.293C531.179,1252.734,531.006,1255.486,530.741,1259.638
				z M1206.66,1201.695c-0.172-1.23-0.362-2.459-0.507-3.695c-0.179-1.527-1.042-3.637-0.356-4.5
				c4.249-5.354,1.205-10.264-0.192-15.367C1200.901,1179.365,1200.901,1196.568,1206.66,1201.695z"/>
			<path fill-rule="evenodd" clip-rule="evenodd" fill="#C85B22" d="M417.784,932.5c2.931-6.92,2.931-6.92,7.69-7.625
				c0.218,0.211,0.515,0.396,0.664,0.66c4.722,8.537,7.43,8.853,14.518,2.324c3.744-3.447,8.261-6.059,11.982-9.531
				c4.329-4.033,7.903-8.883,12.288-12.842c3.872-3.502,8.46-6.195,12.621-9.391c3.085-2.365,6.59-4.518,8.838-7.555
				c3.555-4.809,7.708-8.23,13.575-9.238c1.754-0.299,4.847-0.299,5.252,0.549c0.969,2.047,1.689,5.17,0.772,6.98
				c-2.86,5.645-2.244,9.942,0.423,15.994c3.207,7.289,7.56,12.977,12.784,18.514c1.111,1.182,1.96,3.43,1.694,4.969
				c-2.346,13.449-6.02,26.598-14.292,37.644c-3.23,4.312-8.722,6.873-12.929,10.525c-3.935,3.414-7.544,7.205-11.271,10.855
				c-0.346,0.338-0.745,0.842-0.755,1.273c-0.207,11.99-10.447,20.096-12.088,31.662c-1.061,7.486-2.737,10.141-11.391,6.33
				c-3.475-1.531-5.791-0.947-6.615,3.043c-1.123,5.439-2.557,10.84-3.231,16.334c-0.63,5.15-4.588,8.852-10.577,9.312
				c-2.545,0.195-5.15,0.846-7.523,1.803c-3.596,1.443-5.978,0.699-6.697-3.158c-0.695-3.721-1.161-7.516-1.326-11.297
				c-0.281-6.285-6.787-11.963-12.385-9.691c-1.999,0.812-3.729,4.766-3.818,7.346c-0.278,7.891,0.347,15.812,0.511,23.725
				c0.032,1.615-0.068,3.389-0.699,4.834c-1.399,3.205-4.526,3.41-6.39,0.445c-1.035-1.648-1.753-3.553-2.309-5.432
				c-1.209-4.061-2.039-7.893-5.422-11.324c-2.347-2.383-2.963-7.275-2.918-11.033c0.068-5.873-2.804-9.934-5.997-14.246
				c-1.785-2.41-3.037-5.33-4.041-8.189c-6.196-17.707-0.216-34.371,5.015-50.914c3.478-10.998,5.266-22.742,12.672-32.252
				c2.342-3.002,4.201-6.396,6.66-9.283c1.198-1.402,3.176-2.338,4.98-2.986c2.867-1.025,4.531-0.012,4.201,3.342
				C411.855,928.956,414.114,931.009,417.784,932.5z"/>
			<path fill-rule="evenodd" clip-rule="evenodd" fill="#C85B22" d="M575.774,1090.73c-0.492,1.232-0.908,4.525-2.131,4.859
				c-2.336,0.639-5.35,0.104-7.687-0.883c-2.646-1.121-5.22-5.035-7.191-4.635c-5.189,1.061-10.153,3.582-14.944,6.031
				c-1.166,0.596-2.295,3.553-1.805,4.744c3.775,9.107-1.926,16.32-4.382,24.168c-0.544,1.734-1.329,3.387-1.863,5.119
				c-1.198,3.881-4.105,5.775-7.819,5.623c-4.09-0.166-8.197-0.971-12.193-1.938c-3.078-0.74-4.372-6.025-1.521-8.318
				c6.855-5.52,4.953-10.904,1.128-16.904c-2.022-3.172-1.942-5.969,0.093-9.932c2.244-4.373,1.751-10.188,2.24-15.396
				c0.266-2.787-0.049-5.621,0.131-8.42c0.586-9.09,6.407-13.033,15.369-11.098c2.636,0.568,5.601-0.445,8.42-0.648
				c2.21-0.158,4.875-1.027,6.569-0.125c10.218,5.418,19.05,12.566,25.312,22.502
				C574.278,1086.718,574.688,1088.187,575.774,1090.73z"/>
			<path fill-rule="evenodd" clip-rule="evenodd" fill="#C85B22" d="M919.003,890.347c-0.016-7.348,0.107-14.699-0.081-22.047
				c-0.293-11.496-0.974-22.982-1.148-34.484c-0.118-7.482,2.281-14.117,9.117-18.111c1.769-1.033,4.535-1.57,6.338-0.924
				c1.371,0.488,1.938,3.215,2.874,4.943c0.993,1.83,1.757,3.859,3.049,5.453c4.773,5.893,9.315,12.074,8.061,20.055
				c-1.029,6.561,2.758,11.783,3.391,17.74c0.323,3.06-0.065,6.594-1.341,9.359c-4.69,10.201-9.761,20.244-15.013,30.172
				c-1.006,1.906-3.316,3.746-5.355,4.234c-1.119,0.266-3.525-2.078-4.305-3.734c-1.885-4.014-3.15-8.314-4.672-12.5
				C919.612,890.455,919.308,890.402,919.003,890.347z"/>
			<path fill-rule="evenodd" clip-rule="evenodd" fill="#C85B22" d="M436.817,1111.265c-0.625,5.52-3.675,5.104-7.738,4.379
				c-6.919-1.234-13.979-1.783-21.003-2.314c-5.119-0.385-11.081-4.969-13.266-10.574c-2.008-5.16-5.153-9.406-10.898-10.604
				c-4.243-0.885-4.364-3.479-3.413-6.693c1.137-3.85,4.307-5.682,7.512-4.432c0.919,0.359,1.734,0.98,2.6,1.488
				c6.242,3.664,7.312,3.578,11.053-2.619c2.928-4.848,9.732-5.25,14.259,0.266c6.462,7.879,13.653,13.316,24.647,13.166
				c5.823-0.076,6.401,6.75,9.215,10.566c0.368,0.498,0.511,1.271,0.503,1.912c-0.027,2.438,0.705,6.355-0.426,7.02
				c-2.939,1.721-6.729,3.268-10.064-0.102C439.167,1112.091,438.112,1111.878,436.817,1111.265z"/>
			<path fill-rule="evenodd" clip-rule="evenodd" fill="#C85B22" d="M479.988,1114.621c3.293-4.113,6.028-8.898,10.001-12.189
				c6.611-5.48,9.557-13.236,0.371-18.33c-3.15-1.748-3.431-4.504-1.5-7.539c1.525-2.387,2.987-4.811,4.393-7.271
				c2.001-3.512,5.14-3.639,8.2-2.252c6.15,2.785,12.244,13.727,10.609,20.49c-1.436,5.928-3.903,11.803-7.035,17.033
				c-1.403,2.346-5.592,2.963-8.416,4.543c-3.557,1.992-6.946,4.279-10.533,6.217c-1.334,0.721-3.011,0.809-4.533,1.184
				C481.028,1115.878,480.507,1115.25,479.988,1114.621z"/>
			<path fill-rule="evenodd" clip-rule="evenodd" fill="#C85B22" d="M504.789,1156.353c-1.79,0.305-3.331,1.09-4.3,0.645
				c-5.077-2.342-5.917,0.57-6.594,4.594c-0.336,2.008-1.223,4.52-2.725,5.547c-1.397,0.961-5.15,1.088-5.779,0.16
				c-5.178-7.621-6.802-15.848-2.699-24.637c1.43-3.076,4.191-4.877,6.673-3.096c5.239,3.76,9.871,8.387,14.597,12.82
				C504.635,1153.015,504.449,1154.554,504.789,1156.353z"/>
		</g>
	</g>
	<path fill="none" stroke="#8D3D0C" stroke-width="7" stroke-miterlimit="10" stroke-dasharray="15,15" d="M314.421,518.254
		c132.967-110.405,303.791-176.796,490.125-176.796c185.139,0,354.968,65.537,487.562,174.672"/>
	<g>
		<polygon fill="#2BC0D2" points="856.894,601.519 814.768,790.025 859.438,797.726 885.118,605.317 		"/>
		<polygon fill="#FFFFFF" points="853.034,618.912 849.72,633.711 880.39,639.091 882.426,623.978 		"/>
		<polygon fill="#FFFFFF" points="845.423,652.425 842.151,667.169 875.977,672.937 877.977,658.039 		"/>
		<polygon fill="#FFFFFF" points="837.692,686.615 834.415,701.228 871.394,707.603 873.392,692.705 		"/>
		<polygon fill="#FFFFFF" points="829.851,721.82 826.515,736.424 866.698,743.289 868.624,728.441 		"/>
		<polygon fill="#FFFFFF" points="821.737,758.248 818.45,772.923 861.683,780.44 863.64,765.408 		"/>
	</g>
	<g>
		<polygon fill="#2BC0D2" points="930.806,585.968 888.679,774.474 933.351,782.175 959.031,589.766 		"/>
		<polygon fill="#FFFFFF" points="926.947,603.361 923.633,618.16 954.302,623.541 956.338,608.427 		"/>
		<polygon fill="#FFFFFF" points="919.335,636.875 916.063,651.619 949.89,657.386 951.89,642.488 		"/>
		<polygon fill="#FFFFFF" points="911.604,671.064 908.327,685.677 945.306,692.052 947.304,677.154 		"/>
		<polygon fill="#FFFFFF" points="903.763,706.269 900.427,720.873 940.61,727.738 942.536,712.89 		"/>
		<polygon fill="#FFFFFF" points="895.649,742.697 892.362,757.373 935.595,764.889 937.552,749.857 		"/>
	</g>
	<g>
		<polyline fill="#D1D3D4" points="737.957,673.882 672.831,644.685 654.167,667.153 651.28,653.107 640.724,655.277 
			645.446,678.261 626.192,696.857 639.768,694.066 654.138,763.976 734.435,747.47 720.194,678.202 		"/>
		
			<rect x="688.875" y="713.207" transform="matrix(-0.9795 0.2014 -0.2014 -0.9795 1529.6913 1313.0905)" fill="#FFFFFF" width="18.355" height="42.299"/>
		
			<rect x="657.147" y="691.105" transform="matrix(-0.9795 0.2013 -0.2013 -0.9795 1459.3783 1255.7643)" fill="#FFFFFF" width="17.353" height="21.996"/>
	</g>
	<path fill="#2BC0D2" d="M660.041,628.856c0.987,4.806-2.105,9.501-6.911,10.489c-4.805,0.987-9.498-2.107-10.486-6.913
		c-0.987-4.804,2.104-9.499,6.908-10.487C654.36,620.956,659.054,624.052,660.041,628.856z"/>
	<circle fill="#2BC0D2" cx="671.545" cy="586.755" r="19.745"/>
	<circle fill="#2BC0D2" cx="878.523" cy="573.751" r="19.745"/>
	<circle fill="#2BC0D2" cx="574.523" cy="613.751" r="19.745"/>
	<circle fill="#2BC0D2" cx="540.523" cy="699.751" r="19.745"/>
	<circle fill="#2BC0D2" cx="1094.523" cy="443.751" r="19.745"/>
	<circle fill="#2BC0D2" cx="1070.523" cy="587.751" r="19.745"/>
	<circle fill="#2BC0D2" cx="646.523" cy="608.106" r="15.875"/>
	<circle fill="#2BC0D2" cx="508.524" cy="553.75" r="15.874"/>
	<circle fill="#2BC0D2" cx="899.315" cy="553.512" r="15.875"/>
	<circle fill="#2BC0D2" cx="948.524" cy="535.751" r="15.875"/>
	<circle fill="#2BC0D2" cx="613.737" cy="563.532" r="14.644"/>
	<circle fill="#2BC0D2" cx="540.534" cy="512.853" r="14.644"/>
	<path fill="#2BC0D2" d="M649.249,548.757c0.814,3.961-1.738,7.832-5.697,8.645c-3.961,0.814-7.83-1.737-8.646-5.697
		c-0.815-3.96,1.736-7.831,5.699-8.646C644.561,542.247,648.435,544.797,649.249,548.757z"/>
	<circle fill="#2BC0D2" cx="580.632" cy="511.57" r="7.321"/>
	<circle fill="#2BC0D2" cx="781.05" cy="484.58" r="7.322"/>
	<circle fill="#2BC0D2" cx="873.064" cy="550.656" r="7.321"/>
	<path fill="#2BC0D2" d="M861.13,537.636c0,4.044-3.279,7.322-7.32,7.322c-4.047,0-7.322-3.278-7.322-7.322
		c0-4.043,3.275-7.32,7.322-7.32C857.851,530.316,861.13,533.593,861.13,537.636z"/>
	<circle fill="#2BC0D2" cx="880.386" cy="524.619" r="7.322"/>
	<circle fill="#2BC0D2" cx="893.087" cy="524.619" r="7.322"/>
	<circle fill="#2BC0D2" cx="848.109" cy="509.976" r="7.321"/>
	<circle fill="#2BC0D2" cx="653.2" cy="511.1" r="6.805"/>
	<circle fill="#2BC0D2" cx="700.935" cy="493.789" r="6.805"/>
	<circle fill="#2BC0D2" cx="1002.517" cy="540.199" r="6.805"/>
	<circle fill="#2BC0D2" cx="908.524" cy="499.751" r="6.805"/>
	<circle fill="#2BC0D2" cx="944.524" cy="461.751" r="6.805"/>
	<circle fill="#2BC0D2" cx="932.524" cy="371.751" r="6.805"/>
	<circle fill="#2BC0D2" cx="850.524" cy="369.751" r="6.805"/>
	<circle fill="#2BC0D2" cx="982.524" cy="387.751" r="6.805"/>
	<circle fill="#2BC0D2" cx="958.524" cy="409.751" r="6.805"/>
	<circle fill="#2BC0D2" cx="892.524" cy="387.751" r="6.805"/>
	<path fill="#2BC0D2" d="M728.524,448.556"/>
	<circle fill="#2BC0D2" cx="809.72" cy="489.751" r="6.805"/>
	<circle fill="#2BC0D2" cx="837.72" cy="463.751" r="6.805"/>
	<circle fill="#2BC0D2" cx="1026.523" cy="482.556" r="6.806"/>
	<circle fill="#2BC0D2" cx="1175.329" cy="461.751" r="6.805"/>
	<circle fill="#2BC0D2" cx="1026.524" cy="591.751" r="6.805"/>
	<circle fill="#2BC0D2" cx="1038.523" cy="536.947" r="6.806"/>
	<circle fill="#2BC0D2" cx="1026.322" cy="425.31" r="6.806"/>
	<circle fill="#2BC0D2" cx="1046.524" cy="440.556" r="6.805"/>
	<circle fill="#2BC0D2" cx="1060.135" cy="421.326" r="6.806"/>
	<circle fill="#2BC0D2" cx="774.322" cy="365.31" r="6.806"/>
	<circle fill="#2BC0D2" cx="794.524" cy="380.556" r="6.805"/>
	<circle fill="#2BC0D2" cx="808.135" cy="361.326" r="6.806"/>
	<circle fill="#2BC0D2" cx="469.33" cy="683.751" r="6.806"/>
	<circle fill="#2BC0D2" cx="478.524" cy="649.751" r="6.805"/>
	<circle fill="#2BC0D2" cx="520.135" cy="637.326" r="6.806"/>
	<circle fill="#2BC0D2" cx="1238.524" cy="531.75" r="6.805"/>
	<circle fill="#2BC0D2" cx="821.33" cy="570.947" r="6.805"/>
	<circle fill="#2BC0D2" cx="824.524" cy="600.947" r="6.805"/>
	<circle fill="#2BC0D2" cx="760.524" cy="614.947" r="6.805"/>
	<circle fill="#2BC0D2" cx="788.524" cy="588.947" r="6.805"/>
	<circle fill="#2BC0D2" cx="1220.524" cy="565.751" r="6.805"/>
	<circle fill="#2BC0D2" cx="1126.524" cy="627.751" r="6.805"/>
	<circle fill="#2BC0D2" cx="1171.72" cy="627.751" r="6.805"/>
	<circle fill="#2BC0D2" cx="1211.72" cy="621.751" r="6.805"/>
	<circle fill="#2BC0D2" cx="1251.72" cy="577.751" r="6.805"/>
	<circle fill="#2BC0D2" cx="728.155" cy="597.459" r="6.805"/>
	<path fill="#2BC0D2" d="M1093.329,631.752c0,3.758-3.047,6.805-6.803,6.805c-3.761,0-6.808-3.047-6.808-6.805
		c0-3.76,3.047-6.805,6.808-6.805C1090.282,624.947,1093.329,627.992,1093.329,631.752z"/>
	<circle fill="#2BC0D2" cx="990.524" cy="611.751" r="6.805"/>
	<circle fill="#2BC0D2" cx="986.524" cy="673.751" r="6.805"/>
	<path fill="#2BC0D2" d="M1107.329,549.752c0,3.758-3.047,6.805-6.803,6.805c-3.761,0-6.808-3.047-6.808-6.805
		c0-3.76,3.047-6.805,6.808-6.805C1104.282,542.947,1107.329,545.992,1107.329,549.752z"/>
	<circle fill="#2BC0D2" cx="1116.524" cy="679.751" r="6.805"/>
	<circle fill="#2BC0D2" cx="1088.524" cy="726.947" r="6.805"/>
	<circle fill="#2BC0D2" cx="1052.524" cy="693.751" r="6.805"/>
	<circle fill="#2BC0D2" cx="1080.524" cy="667.751" r="6.805"/>
	<circle fill="#2BC0D2" cx="1177.33" cy="546.556" r="6.805"/>
	<circle fill="#2BC0D2" cx="1180.524" cy="576.556" r="6.805"/>
	<circle fill="#2BC0D2" cx="1204.524" cy="521.751" r="6.805"/>
	<circle fill="#2BC0D2" cx="1232.524" cy="495.751" r="6.805"/>
	<circle fill="#2BC0D2" cx="1172.155" cy="504.265" r="6.805"/>
	<circle fill="#2BC0D2" cx="1113.42" cy="497.783" r="6.806"/>
	<circle fill="#2BC0D2" cx="1127.031" cy="528.277" r="6.806"/>
	<circle fill="#2BC0D2" cx="621.472" cy="525.714" r="7.926"/>
	<path fill="#2BC0D2" d="M576.222,535.015c0.881,4.288-1.879,8.478-6.17,9.359c-4.285,0.881-8.476-1.88-9.356-6.167
		c-0.881-4.289,1.88-8.479,6.165-9.36C571.149,527.966,575.341,530.726,576.222,535.015z"/>
	<circle fill="#2BC0D2" cx="458.886" cy="537.728" r="7.926"/>
	<circle fill="#2BC0D2" cx="357.056" cy="533.872" r="7.926"/>
	<circle fill="#2BC0D2" cx="501.156" cy="512.341" r="7.925"/>
	<circle fill="#2BC0D2" cx="454.524" cy="469.751" r="7.928"/>
	<circle fill="#2BC0D2" cx="409.869" cy="559.951" r="7.927"/>
	<circle fill="#2BC0D2" cx="452.93" cy="621.987" r="7.928"/>
	<circle fill="#2BC0D2" cx="500.121" cy="611.514" r="7.927"/>
	<circle fill="#2BC0D2" cx="426.524" cy="515.751" r="7.927"/>
	<circle fill="#2BC0D2" cx="631.813" cy="493.576" r="7.926"/>
	<circle fill="#2BC0D2" cx="558.524" cy="453.751" r="7.926"/>
	<circle fill="#2BC0D2" cx="628.524" cy="437.751" r="7.926"/>
	<circle fill="#2BC0D2" cx="1134.524" cy="475.751" r="7.926"/>
	<circle fill="#2BC0D2" cx="876.524" cy="483.751" r="7.926"/>
	<circle fill="#2BC0D2" cx="644.524" cy="379.751" r="7.926"/>
	<circle fill="#2BC0D2" cx="682.524" cy="389.751" r="7.926"/>
	<circle fill="#2BC0D2" cx="720.524" cy="367.751" r="7.926"/>
	<circle fill="#2BC0D2" cx="592.524" cy="449.751" r="7.926"/>
	<circle fill="#2BC0D2" cx="520.524" cy="441.751" r="7.926"/>
	<circle fill="#2BC0D2" cx="530.761" cy="479.347" r="7.926"/>
	<circle fill="#2BC0D2" cx="376.524" cy="581.751" r="7.926"/>
	<circle fill="#2BC0D2" cx="428.927" cy="661.988" r="7.926"/>
	<circle fill="#2BC0D2" cx="536.524" cy="583.751" r="7.926"/>
	<circle fill="#2BC0D2" cx="612.524" cy="657.751" r="7.926"/>
	<circle fill="#2BC0D2" cx="588.524" cy="691.751" r="7.926"/>
	<circle fill="#2BC0D2" cx="562.524" cy="661.751" r="7.926"/>
	<circle fill="#2BC0D2" cx="496.524" cy="465.751" r="7.926"/>
	<circle fill="#2BC0D2" cx="384.524" cy="495.751" r="7.926"/>
	<circle fill="#2BC0D2" cx="484.524" cy="429.751" r="7.926"/>
	<circle fill="#2BC0D2" cx="606.191" cy="490.75" r="7.927"/>
	<circle fill="#2BC0D2" cx="760.524" cy="547.751" r="7.926"/>
	<circle fill="#2BC0D2" cx="679.757" cy="535.115" r="13.019"/>
	<circle fill="#2BC0D2" cx="733.772" cy="522.373" r="13.019"/>
	<circle fill="#2BC0D2" cx="1030.524" cy="641.751" r="13.019"/>
	<circle fill="#2BC0D2" cx="1130.524" cy="585.751" r="13.019"/>
	<circle fill="#2BC0D2" cx="1164.524" cy="679.751" r="13.019"/>
	<circle fill="#2BC0D2" cx="987.543" cy="427.751" r="13.019"/>
	<circle fill="#2BC0D2" cx="989.498" cy="515.259" r="13.019"/>
	<circle fill="#2BC0D2" cx="940.523" cy="547.751" r="13.019"/>
	<circle fill="#2BC0D2" cx="970.523" cy="531.751" r="13.019"/>
	<circle fill="#2BC0D2" cx="944.523" cy="505.751" r="13.019"/>
	<circle fill="#2BC0D2" cx="978.523" cy="473.751" r="13.019"/>
	<circle fill="#2BC0D2" cx="744.27" cy="471.589" r="13.018"/>
	<path fill="#2BC0D2" d="M669.276,469.128c1.446,7.043-3.086,13.927-10.13,15.375c-7.046,1.447-13.928-3.089-15.372-10.132
		c-1.45-7.042,3.086-13.925,10.13-15.373C660.946,457.551,667.828,462.086,669.276,469.128z"/>
	<path fill="#2BC0D2" d="M633.276,411.128c1.446,7.043-3.086,13.927-10.13,15.375c-7.046,1.447-13.928-3.089-15.372-10.132
		c-1.45-7.042,3.086-13.925,10.13-15.373C624.946,399.551,631.828,404.086,633.276,411.128z"/>
	<path fill="#2BC0D2" d="M430.028,606.509c1.447,7.043-3.088,13.925-10.129,15.372c-7.044,1.448-13.928-3.087-15.375-10.13
		c-1.448-7.043,3.088-13.925,10.132-15.373C421.695,594.931,428.58,599.466,430.028,606.509z"/>
	<path fill="#2BC0D2" d="M478.655,572.378c1.447,7.043-3.09,13.926-10.131,15.373c-7.043,1.447-13.926-3.088-15.373-10.131
		c-1.449-7.042,3.088-13.924,10.131-15.372C470.321,560.8,477.206,565.336,478.655,572.378z"/>
	<circle fill="#2BC0D2" cx="576.524" cy="409.75" r="13.019"/>
	<path fill="#2BC0D2" d="M866.825,562.292c0,7.19-5.83,13.02-13.016,13.02c-7.193,0-13.021-5.829-13.021-13.02
		c0-7.189,5.828-13.018,13.021-13.018C860.995,549.275,866.825,555.103,866.825,562.292z"/>
	<circle fill="#2BC0D2" cx="886.082" cy="537.636" r="13.019"/>
	<circle fill="#2BC0D2" cx="1076.596" cy="503.996" r="13.019"/>
	<circle fill="#2BC0D2" cx="641.051" cy="580.576" r="13.018"/>
	<circle fill="#2BC0D2" cx="804.783" cy="540.199" r="13.019"/>
	<circle fill="none" cx="804.545" cy="1109.189" r="797.734"/>
	<text transform="matrix(0.9006 -0.4346 0.4346 0.9006 438.3701 399.9268)"><tspan x="0" y="0" fill="#8D3D0C" font-family="'Helvetica-Bold'" font-size="46.8571">W</tspan><tspan x="46.182" y="0.185" fill="#8D3D0C" font-family="'Helvetica-Bold'" font-size="46.8571" rotate="2.959">A</tspan><tspan x="81.963" y="2.08" fill="#8D3D0C" font-family="'Helvetica-Bold'" font-size="46.8571" rotate="5.55">R</tspan><tspan x="117.568" y="5.523" fill="#8D3D0C" font-family="'Helvetica-Bold'" font-size="46.8571" rotate="8.327">M</tspan><tspan x="158.202" y="11.742" fill="#8D3D0C" font-family="'Helvetica-Bold'" font-size="46.8571" rotate="10.361"> </tspan><tspan x="173.094" y="14.328" fill="#8D3D0C" font-family="'Helvetica-Bold'" font-size="46.8571" rotate="12.208">A</tspan><tspan x="208.119" y="22.005" fill="#8D3D0C" font-family="'Helvetica-Bold'" font-size="46.8571" rotate="14.61">L</tspan><tspan x="237.746" y="29.685" fill="#8D3D0C" font-family="'Helvetica-Bold'" font-size="46.8571" rotate="17.098">O</tspan><tspan x="274.454" y="41.111" fill="#8D3D0C" font-family="'Helvetica-Bold'" font-size="46.8571" rotate="19.577">F</tspan><tspan x="303.346" y="51.428" fill="#8D3D0C" font-family="'Helvetica-Bold'" font-size="46.8571" rotate="21.768">T</tspan><tspan x="331.816" y="62.949" fill="#8D3D0C" font-family="'Helvetica-Bold'" font-size="46.8571" rotate="23.396"> </tspan><tspan x="345.753" y="68.957" fill="#8D3D0C" font-family="'Helvetica-Bold'" font-size="46.8571" rotate="24.831">A</tspan><tspan x="378.153" y="84.299" fill="#8D3D0C" font-family="'Helvetica-Bold'" font-size="46.8571" rotate="26.996">I</tspan><tspan x="391.679" y="91.042" fill="#8D3D0C" font-family="'Helvetica-Bold'" font-size="46.8571" rotate="28.803">R</tspan><tspan x="423.094" y="108.541" fill="#8D3D0C" font-family="'Helvetica-Bold'" font-size="46.8571" rotate="30.623"> </tspan><tspan x="436.141" y="116.141" fill="#8D3D0C" font-family="'Helvetica-Bold'" font-size="46.8571" rotate="32.355">S</tspan><tspan x="464.229" y="133.984" fill="#8D3D0C" font-family="'Helvetica-Bold'" font-size="46.8571" rotate="34.746">E</tspan><tspan x="491.559" y="152.96" fill="#8D3D0C" font-family="'Helvetica-Bold'" font-size="46.8571" rotate="37.238">A</tspan><tspan x="520.026" y="174.717" fill="#8D3D0C" font-family="'Helvetica-Bold'" font-size="46.8571" rotate="39.639">L</tspan><tspan x="543.616" y="194.278" fill="#8D3D0C" font-family="'Helvetica-Bold'" font-size="46.8571" rotate="41.951">S</tspan><tspan x="568.301" y="216.697" fill="#8D3D0C" font-family="'Helvetica-Bold'" font-size="46.8571" rotate="43.705"> </tspan><tspan x="579.286" y="227.226" fill="#8D3D0C" font-family="'Helvetica-Bold'" font-size="46.8571" rotate="44.807">I</tspan><tspan x="590.096" y="237.774" fill="#8D3D0C" font-family="'Helvetica-Bold'" font-size="46.8571" rotate="46.653">N</tspan><tspan x="614.602" y="264.03" fill="#8D3D0C" font-family="'Helvetica-Bold'" font-size="46.8571" rotate="48.497"> </tspan><tspan x="624.721" y="275.305" fill="#8D3D0C" font-family="'Helvetica-Bold'" font-size="46.8571" rotate="50.25">P</tspan><tspan x="645.986" y="300.803" fill="#8D3D0C" font-family="'Helvetica-Bold'" font-size="46.8571" rotate="52.925">M</tspan></text>
	<circle fill="none" cx="804.546" cy="1109.189" r="674.721"/>
	<text transform="matrix(0.9881 -0.154 0.154 0.9881 683.667 445.063)"><tspan x="0" y="0" opacity="0.7" fill="#2BC0D2" font-family="'Helvetica-Bold'" font-size="45.3029">C</tspan><tspan x="34.574" y="0.017" opacity="0.7" fill="#2BC0D2" font-family="'Helvetica-Bold'" font-size="45.3029" rotate="3.041">O</tspan><tspan x="71.627" y="2.037" opacity="0.7" fill="#2BC0D2" font-family="'Helvetica-Bold'" font-size="45.3029" rotate="6.167">O</tspan><tspan x="108.445" y="5.948" opacity="0.7" fill="#2BC0D2" font-family="'Helvetica-Bold'" font-size="45.3029" rotate="9.785">L</tspan><tspan x="137.824" y="10.934" opacity="0.7" fill="#2BC0D2" font-family="'Helvetica-Bold'" font-size="45.3029" rotate="10.798"> </tspan><tspan x="152.156" y="13.519" opacity="0.7" fill="#2BC0D2" font-family="'Helvetica-Bold'" font-size="45.3029" rotate="12.865">A</tspan><tspan x="185.94" y="21.46" opacity="0.7" fill="#2BC0D2" font-family="'Helvetica-Bold'" font-size="45.3029" rotate="14.946">I</tspan><tspan x="200.066" y="25.077" opacity="0.7" fill="#2BC0D2" font-family="'Helvetica-Bold'" font-size="45.3029" rotate="17.037">R</tspan></text>
	<path opacity="0.1" fill="#FFFFFF" d="M1267.331,212.904L718.524,345.751l1.176,0.349c27.861-3.064,56.169-4.642,84.846-4.642
		c185.139,0,354.968,65.537,487.562,174.672l42.416-249.99L1267.331,212.904z"/>
	<rect x="1.449" y="981.441" fill="#FFFFFF" width="1600" height="165.762"/>
	<text transform="matrix(1 0 0 1 341.1562 1044.3423)"><tspan x="0" y="0" fill="#010101" font-family="'Helvetica'" font-size="18">Re</tspan><tspan x="23.01" y="0" fill="#010101" font-family="'Helvetica'" font-size="18">f</tspan><tspan x="27.849" y="0" fill="#010101" font-family="'Helvetica'" font-size="18">erences</tspan></text>
	<g>
		<polygon fill="#2E2119" points="104.981,1044.109 104.981,1027.414 116.483,1027.414 116.483,1029.939 108.595,1029.939 
			108.595,1034.185 115.22,1034.185 115.22,1036.564 108.595,1036.564 108.595,1041.562 116.823,1041.562 116.823,1044.109 		"/>
		<path fill="#2E2119" d="M127.047,1044.109v-7.375c0-1.24-0.194-2.137-1.698-2.137c-0.801,0-1.917,0.414-2.718,0.896v8.615h-3.495
			v-11.914h3.301l0.049,1.09l0.097,0.051c1.382-0.924,3.058-1.432,4.198-1.432c3.154,0,3.736,1.869,3.736,4.102v8.104H127.047z"/>
		<path fill="#2E2119" d="M138.411,1041.804c0.121-0.314,0.776-3.082,1.164-4.32c0.535-1.553,1.529-4.949,1.651-5.289h3.493
			c-0.873,2.451-3.227,9.486-4.1,11.914h-4.732c-0.85-2.428-3.229-9.463-4.078-11.914h3.641l1.723,5.531
			c0.268,0.85,0.826,3.252,1.117,4.078H138.411z"/>
		<path fill="#2E2119" d="M148.263,1030.738c-1.287,0-1.99-0.824-1.99-1.842c0-1.068,0.729-1.871,1.99-1.871
			c1.335,0,2.062,0.803,2.062,1.871C150.324,1029.914,149.598,1030.738,148.263,1030.738 M146.538,1032.195h3.471v11.914h-3.471
			V1032.195z"/>
		<path fill="#2E2119" d="M156.53,1034.306c1.311-1.287,3.204-2.428,4.539-2.428c0.486,0,0.678,0.293,0.678,0.803
			c0,0.896-0.581,2.717-1.09,3.422l-4.053-0.049v8.055h-3.471v-11.914h3.422c0,0.557-0.072,1.48-0.145,2.039L156.53,1034.306z"/>
		<path fill="#2E2119" d="M168.542,1044.353c-4.416,0-5.945-2.766-5.945-6.188c0-3.35,1.699-6.238,6.092-6.238
			c4.439,0,5.969,2.889,5.969,6.213S173.081,1044.353,168.542,1044.353 M168.688,1034.378c-1.99,0-2.525,1.916-2.525,3.787
			c0,2.109,0.412,3.736,2.525,3.736c1.965,0,2.379-1.773,2.379-3.736C171.067,1036.271,170.678,1034.378,168.688,1034.378"/>
		<path fill="#2E2119" d="M184.532,1044.109v-7.375c0-1.24-0.195-2.137-1.699-2.137c-0.801,0-1.918,0.414-2.719,0.896v8.615h-3.494
			v-11.914h3.299l0.049,1.09l0.098,0.051c1.383-0.924,3.059-1.432,4.199-1.432c3.154,0,3.736,1.869,3.736,4.102v8.104H184.532z"/>
		<path fill="#2E2119" d="M205.52,1044.109v-7.545c0-1.312-0.34-1.943-1.578-1.943c-0.752,0-1.867,0.365-2.547,0.826
			c0.072,0.51,0.098,1.117,0.098,1.553v7.109h-3.424c0-2.598-0.023-5.193-0.023-7.789c0-1.117-0.509-1.674-1.432-1.674
			c-0.801,0-1.795,0.365-2.621,0.871v8.592h-3.469v-11.914h3.252l0.071,1.188l0.097,0.049c1.359-1.02,2.985-1.504,4.125-1.504
			c1.36,0,2.283,0.484,2.889,1.553c1.164-0.896,3.033-1.553,4.296-1.553c3.179,0,3.761,1.967,3.761,4.197v7.984H205.52z"/>
		<path fill="#2E2119" d="M222.308,1037.705v1.236h-7.787c0,1.82,0.85,2.789,2.985,2.789c1.286,0,2.595-0.289,3.833-0.752
			l0.705,2.137c-1.578,0.873-3.398,1.188-5.049,1.188c-4.805,0-5.969-2.861-5.969-6.137c0-2.621,1.117-6.287,5.822-6.287
			C221.97,1031.878,222.308,1035.566,222.308,1037.705 M214.569,1036.804h4.586c-0.023-1.576-0.51-2.717-2.16-2.717
			C215.274,1034.087,214.69,1035.375,214.569,1036.804"/>
		<path fill="#2E2119" d="M232.476,1044.109v-7.375c0-1.24-0.193-2.137-1.699-2.137c-0.801,0-1.916,0.414-2.717,0.896v8.615h-3.494
			v-11.914h3.299l0.049,1.09l0.098,0.051c1.384-0.924,3.057-1.432,4.198-1.432c3.155,0,3.737,1.869,3.737,4.102v8.104H232.476z"/>
		<path fill="#2E2119" d="M242.715,1028.894v3.277h3.47v2.279h-3.47v5.389c0,1.26,0.364,1.842,1.603,1.842
			c0.436,0,1.189-0.119,2.061-0.314l0.438,2.258c-1.019,0.461-2.377,0.678-3.396,0.678c-3.324,0-4.125-1.648-4.125-3.541v-6.311
			h-1.676v-1.893l1.893-0.559c0.172-0.412,0.705-2.449,0.85-2.863L242.715,1028.894z"/>
		<path fill="#2E2119" d="M258.802,1041.804h1.554l0.169,1.939c-0.776,0.365-1.893,0.609-2.912,0.609
			c-1.043,0-1.795-0.244-1.918-1.434c0-0.023-0.023-0.023-0.048-0.049c-1.675,1.459-3.444,1.482-4.124,1.482
			c-2.961,0-3.689-2.086-3.689-3.471c0-2.477,1.918-3.689,4.418-3.834c0.92-0.072,2.329-0.121,3.25-0.195v-0.289
			c0-1.361-0.437-2.062-2.207-2.062c-1.165,0-2.67,0.24-3.785,0.604c-0.171-0.727-0.365-1.455-0.559-2.156
			c1.406-0.609,3.469-0.996,5.168-0.996c2.863,0,4.684,1.066,4.684,4.15V1041.804z M253.099,1038.964
			c-1.141,0.098-1.674,0.68-1.674,1.625c0,0.998,0.484,1.531,1.627,1.531c0.728,0,1.674-0.391,2.449-1.068v-2.283L253.099,1038.964z
			"/>
		<polygon fill="#2E2119" points="265.74,1044.109 262.294,1044.109 262.294,1026.734 265.765,1026.734 		"/>
		<path fill="#2E2119" d="M111.606,1064.818h-3.034l0.025,6.406h-3.616v-16.695h6.333c3.811,0,5.727,1.99,5.727,5.121
			C117.041,1062.052,115.538,1064.818,111.606,1064.818 M108.572,1057.052v5.316h2.353c1.287,0,2.477-0.68,2.477-2.645
			c0-1.896-1.117-2.672-2.598-2.672H108.572z"/>
		<path fill="#2E2119" d="M129.293,1064.818v1.238h-7.788c0,1.82,0.85,2.789,2.984,2.789c1.287,0,2.598-0.291,3.834-0.752
			l0.703,2.137c-1.578,0.873-3.396,1.189-5.047,1.189c-4.805,0-5.969-2.865-5.969-6.141c0-2.621,1.115-6.283,5.823-6.283
			C128.954,1058.996,129.293,1062.683,129.293,1064.818 M121.554,1063.921h4.586c-0.025-1.578-0.51-2.719-2.16-2.719
			C122.257,1061.203,121.674,1062.488,121.554,1063.921"/>
		<path fill="#2E2119" d="M134.946,1061.419c1.311-1.283,3.203-2.424,4.538-2.424c0.485,0,0.681,0.289,0.681,0.799
			c0,0.896-0.584,2.717-1.094,3.422l-4.051-0.049v8.057h-3.473v-11.914h3.424c0,0.557-0.072,1.479-0.146,2.037L134.946,1061.419z"/>
		<path fill="#2E2119" d="M143.171,1061.566h-1.675v-1.893l1.7-0.486v-1.479c0-2.281,0.994-4.078,4.512-4.078
			c0.826,0,2.16,0.098,3.277,0.412l-0.412,2.354c-0.68-0.145-1.555-0.217-2.063-0.217c-1.237,0-1.942,0.412-1.942,1.578v1.527h3.424
			v2.281h-3.424c0,1.043-0.023,8.615-0.023,9.658h-3.373V1061.566z"/>
		<path fill="#2E2119" d="M156.953,1071.466c-4.416,0-5.946-2.766-5.946-6.188c0-3.35,1.699-6.234,6.092-6.234
			c4.439,0,5.969,2.885,5.969,6.209C163.067,1068.58,161.489,1071.466,156.953,1071.466 M157.099,1061.494
			c-1.99,0-2.523,1.918-2.523,3.785c0,2.111,0.412,3.736,2.523,3.736c1.966,0,2.379-1.77,2.379-3.736
			C159.477,1063.386,159.089,1061.494,157.099,1061.494"/>
		<path fill="#2E2119" d="M168.477,1061.419c1.311-1.283,3.203-2.424,4.539-2.424c0.486,0,0.678,0.289,0.678,0.799
			c0,0.896-0.582,2.717-1.09,3.422l-4.054-0.049v8.057h-3.47v-11.914h3.422c0,0.557-0.072,1.479-0.145,2.037L168.477,1061.419z"/>
		<path fill="#2E2119" d="M190.198,1071.224v-7.547c0-1.309-0.34-1.939-1.578-1.939c-0.752,0-1.867,0.363-2.547,0.822
			c0.072,0.51,0.098,1.117,0.098,1.553v7.111h-3.424c0-2.598-0.023-5.193-0.023-7.791c0-1.113-0.509-1.674-1.432-1.674
			c-0.801,0-1.795,0.365-2.621,0.875v8.59h-3.469v-11.914h3.25l0.074,1.189l0.096,0.049c1.361-1.021,2.986-1.504,4.125-1.504
			c1.361,0,2.283,0.482,2.889,1.553c1.166-0.9,3.033-1.553,4.296-1.553c3.179,0,3.761,1.965,3.761,4.197v7.982H190.198z"/>
		<path fill="#2E2119" d="M206.575,1068.919h1.553l0.17,1.941c-0.775,0.363-1.893,0.605-2.912,0.605
			c-1.045,0-1.797-0.242-1.918-1.432c0-0.021-0.023-0.021-0.049-0.047c-1.674,1.455-3.445,1.479-4.125,1.479
			c-2.96,0-3.688-2.086-3.688-3.471c0-2.473,1.916-3.688,4.416-3.834c0.924-0.072,2.33-0.119,3.252-0.191v-0.293
			c0-1.357-0.438-2.062-2.209-2.062c-1.164,0-2.668,0.242-3.785,0.607c-0.17-0.729-0.363-1.455-0.559-2.162
			c1.408-0.604,3.471-0.992,5.17-0.992c2.863,0,4.684,1.068,4.684,4.148V1068.919z M200.872,1066.078
			c-1.141,0.1-1.674,0.682-1.674,1.629c0,0.994,0.484,1.527,1.625,1.527c0.729,0,1.674-0.389,2.451-1.066v-2.281L200.872,1066.078z"
			/>
		<path fill="#2E2119" d="M218.003,1071.224v-7.377c0-1.238-0.193-2.135-1.699-2.135c-0.801,0-1.916,0.412-2.717,0.896v8.615h-3.494
			v-11.914h3.299l0.049,1.092l0.098,0.049c1.383-0.924,3.057-1.434,4.198-1.434c3.155,0,3.737,1.869,3.737,4.102v8.105H218.003z"/>
		<path fill="#2E2119" d="M229.866,1068.773c1.117,0,2.137-0.242,3.205-0.605l0.654,2.305c-1.19,0.605-2.862,0.947-4.488,0.947
			c-4.562,0-5.752-2.719-5.752-6.02c0-2.814,1.066-6.355,5.896-6.355c1.02,0,2.354,0.094,3.713,0.582
			c-0.17,0.799-0.34,1.6-0.533,2.426c-1.019-0.293-1.893-0.34-2.596-0.34c-1.941,0-2.961,1.334-2.961,3.541
			C227.005,1067.439,227.708,1068.773,229.866,1068.773"/>
		<path fill="#2E2119" d="M246.226,1064.818v1.238h-7.789c0,1.82,0.85,2.789,2.985,2.789c1.284,0,2.597-0.291,3.833-0.752
			l0.705,2.137c-1.578,0.873-3.399,1.189-5.049,1.189c-4.803,0-5.969-2.865-5.969-6.141c0-2.621,1.117-6.283,5.824-6.283
			C245.886,1058.996,246.226,1062.683,246.226,1064.818 M238.485,1063.921h4.587c-0.024-1.578-0.511-2.719-2.161-2.719
			C239.19,1061.203,238.606,1062.488,238.485,1063.921"/>
		<rect x="105.2" y="1081.642" fill="#2E2119" width="3.541" height="16.697"/>
		<path fill="#2E2119" d="M119.808,1098.339v-7.379c0-1.238-0.195-2.135-1.699-2.135c-0.801,0-1.916,0.412-2.718,0.896v8.617h-3.495
			v-11.916h3.301l0.049,1.092l0.097,0.051c1.382-0.924,3.058-1.434,4.198-1.434c3.154,0,3.738,1.867,3.738,4.1v8.107H119.808z"/>
		<path fill="#2E2119" d="M133.782,1086.886v-5.898h3.471v17.352h-3.229l-0.072-1.068c-0.025-0.023-0.047-0.049-0.072-0.049
			c-1.164,0.945-2.646,1.285-3.664,1.285c-3.714,0-4.732-2.717-4.732-5.871c0-3.689,1.358-6.504,5.145-6.504
			C131.405,1086.132,132.788,1086.3,133.782,1086.886 M133.782,1089.31c-0.559-0.338-1.625-0.654-2.402-0.654
			c-1.188,0-2.402,0.703-2.402,3.955c0,2.816,1.043,3.471,2.354,3.471c0.703,0,1.893-0.484,2.451-0.896V1089.31z"/>
		<path fill="#2E2119" d="M150.354,1091.931v1.238h-7.79c0,1.82,0.85,2.791,2.985,2.791c1.287,0,2.597-0.291,3.836-0.754
			l0.701,2.137c-1.576,0.873-3.396,1.189-5.049,1.189c-4.803,0-5.967-2.863-5.967-6.139c0-2.623,1.115-6.285,5.824-6.285
			C150.015,1086.109,150.354,1089.796,150.354,1091.931 M142.613,1091.035h4.587c-0.023-1.578-0.51-2.719-2.162-2.719
			C143.317,1088.316,142.735,1089.601,142.613,1091.035"/>
		<polygon fill="#2E2119" points="157.657,1093.919 155.132,1098.339 151.421,1098.339 155.52,1092.126 151.736,1086.423 
			155.546,1086.423 157.706,1090.451 159.89,1086.423 163.602,1086.423 159.743,1092.101 163.797,1098.339 160.011,1098.339 		"/>
		<path fill="#F4C61B" d="M75.037,1090.945c-1.937,0-3.503-1.566-3.503-3.5c0-1.936,1.566-3.504,3.503-3.504
			c1.933,0,3.503,1.568,3.503,3.504C78.54,1089.378,76.97,1090.945,75.037,1090.945"/>
		<path fill="#F4C61B" d="M78.312,1081.925c-1.355,0-2.455-1.1-2.455-2.457s1.1-2.455,2.455-2.455c1.357,0,2.455,1.098,2.455,2.455
			S79.669,1081.925,78.312,1081.925"/>
		<path fill="#F4C61B" d="M80.769,1075.177c-0.934,0-1.689-0.756-1.689-1.688c0-0.934,0.756-1.689,1.689-1.689
			c0.934,0,1.688,0.756,1.688,1.689C82.457,1074.421,81.702,1075.177,80.769,1075.177"/>
		<path fill="#F4C61B" d="M82.405,1070.722c-0.672,0-1.219-0.545-1.219-1.221c0-0.674,0.547-1.219,1.219-1.219
			c0.674,0,1.221,0.545,1.221,1.219C83.626,1070.177,83.079,1070.722,82.405,1070.722"/>
		<path fill="#7E90C8" d="M60.491,1076.431c-1.936,0-3.502-1.57-3.502-3.504c0-1.932,1.566-3.498,3.502-3.498
			c1.934,0,3.502,1.566,3.502,3.498C63.993,1074.861,62.425,1076.431,60.491,1076.431"/>
		<path fill="#7E90C8" d="M68.435,1072.037c-1.355,0-2.451-1.1-2.451-2.455c0-1.352,1.096-2.451,2.451-2.451
			c1.354,0,2.453,1.1,2.453,2.451C70.888,1070.937,69.789,1072.037,68.435,1072.037"/>
		<path fill="#7E90C8" d="M74.394,1068.755c-0.932,0-1.684-0.752-1.684-1.682s0.752-1.686,1.684-1.686
			c0.93,0,1.684,0.756,1.684,1.686S75.323,1068.755,74.394,1068.755"/>
		<path fill="#7E90C8" d="M78.364,1066.611c-0.668,0-1.211-0.541-1.211-1.211s0.543-1.213,1.211-1.213
			c0.672,0,1.213,0.543,1.213,1.213S79.036,1066.611,78.364,1066.611"/>
		<path fill="#0F9ACC" d="M60.465,1055.884c-1.933,0-3.501-1.566-3.501-3.504c0-1.932,1.568-3.498,3.501-3.498
			c1.935,0,3.503,1.566,3.503,3.498C63.968,1054.318,62.399,1055.884,60.465,1055.884"/>
		<path fill="#0F9ACC" d="M68.449,1058.08c-1.351,0-2.448-1.094-2.448-2.447c0-1.352,1.098-2.449,2.448-2.449
			c1.353,0,2.448,1.098,2.448,2.449C70.897,1056.986,69.802,1058.08,68.449,1058.08"/>
		<path fill="#0F9ACC" d="M74.437,1059.746c-0.924,0-1.676-0.75-1.676-1.676c0-0.928,0.752-1.678,1.676-1.678
			c0.928,0,1.678,0.75,1.678,1.678C76.114,1058.996,75.364,1059.746,74.437,1059.746"/>
		<path fill="#0F9ACC" d="M78.431,1060.898c-0.666,0-1.205-0.541-1.205-1.205c0-0.662,0.539-1.203,1.205-1.203
			c0.664,0,1.203,0.541,1.203,1.203C79.634,1060.357,79.095,1060.898,78.431,1060.898"/>
		<path fill="#3FBBA3" d="M74.978,1041.339c-1.934,0-3.504-1.57-3.504-3.504c0-1.936,1.57-3.502,3.504-3.502
			c1.932,0,3.502,1.566,3.502,3.502C78.479,1039.769,76.909,1041.339,74.978,1041.339"/>
		<path fill="#3FBBA3" d="M78.302,1048.232c-1.35,0-2.443-1.092-2.443-2.443c0-1.35,1.094-2.445,2.443-2.445
			c1.35,0,2.445,1.096,2.445,2.445C80.747,1047.14,79.651,1048.232,78.302,1048.232"/>
		<path fill="#3FBBA3" d="M80.796,1053.425c-0.924,0-1.674-0.748-1.674-1.672s0.75-1.672,1.674-1.672c0.922,0,1.67,0.748,1.67,1.672
			S81.718,1053.425,80.796,1053.425"/>
		<path fill="#3FBBA3" d="M82.457,1056.927c-0.661,0-1.196-0.535-1.196-1.195s0.535-1.197,1.196-1.197
			c0.661,0,1.196,0.537,1.196,1.197S83.118,1056.927,82.457,1056.927"/>
		<path fill="#F89624" d="M85.356,1110.638c-2.389,0-4.326-1.936-4.326-4.326c0-2.389,1.938-4.324,4.326-4.324
			c2.389,0,4.326,1.936,4.326,4.324C89.683,1108.703,87.745,1110.638,85.356,1110.638"/>
		<path fill="#F89624" d="M85.321,1098.316c-1.832,0-3.318-1.486-3.318-3.318c0-1.83,1.486-3.318,3.318-3.318
			c1.834,0,3.318,1.488,3.318,3.318C88.64,1096.83,87.155,1098.316,85.321,1098.316"/>
		<path fill="#F89624" d="M85.296,1088.931c-1.408,0-2.551-1.145-2.551-2.553c0-1.406,1.143-2.551,2.551-2.551
			c1.408,0,2.551,1.145,2.551,2.551C87.847,1087.787,86.704,1088.931,85.296,1088.931"/>
		<path fill="#F89624" d="M85.271,1080.179c-1.041,0-1.882-0.844-1.882-1.881c0-1.039,0.841-1.885,1.882-1.885
			c1.038,0,1.882,0.846,1.882,1.885C87.153,1079.335,86.31,1080.179,85.271,1080.179"/>
		<path fill="#F36F2D" d="M54.503,1097.9c-2.389,0-4.324-1.938-4.324-4.326c0-2.391,1.936-4.326,4.324-4.326
			c2.391,0,4.326,1.936,4.326,4.326C58.829,1095.962,56.894,1097.9,54.503,1097.9"/>
		<path fill="#F36F2D" d="M62.444,1088.83c-1.83,0-3.314-1.482-3.314-3.316c0-1.83,1.484-3.312,3.314-3.312
			c1.832,0,3.314,1.482,3.314,3.312C65.759,1087.347,64.276,1088.83,62.444,1088.83"/>
		<path fill="#F36F2D" d="M68.495,1081.919c-1.406,0-2.545-1.137-2.545-2.545c0-1.406,1.139-2.545,2.545-2.545
			c1.406,0,2.545,1.139,2.545,2.545C71.04,1080.783,69.901,1081.919,68.495,1081.919"/>
		<path fill="#F36F2D" d="M74.167,1075.492c-1.035,0-1.875-0.836-1.875-1.873c0-1.035,0.84-1.875,1.875-1.875
			c1.037,0,1.877,0.84,1.877,1.875C76.044,1074.656,75.204,1075.492,74.167,1075.492"/>
		<path fill="#3676BA" d="M41.692,1067.078c-2.39,0-4.326-1.938-4.326-4.328c0-2.387,1.937-4.326,4.326-4.326
			c2.389,0,4.324,1.939,4.324,4.326C46.017,1065.14,44.081,1067.078,41.692,1067.078"/>
		<path fill="#3676BA" d="M53.005,1065.972c-1.828,0-3.31-1.482-3.31-3.311s1.481-3.311,3.31-3.311c1.828,0,3.31,1.482,3.31,3.311
			S54.833,1065.972,53.005,1065.972"/>
		<path fill="#3676BA" d="M61.625,1065.128c-1.401,0-2.536-1.137-2.536-2.533c0-1.402,1.135-2.537,2.536-2.537
			s2.534,1.135,2.534,2.537C64.159,1063.992,63.026,1065.128,61.625,1065.128"/>
		<path fill="#3676BA" d="M69.706,1064.392c-1.029,0-1.863-0.832-1.863-1.863c0-1.027,0.834-1.863,1.863-1.863
			s1.862,0.836,1.862,1.863C71.568,1063.56,70.735,1064.392,69.706,1064.392"/>
		<path fill="#068D8C" d="M54.431,1036.226c-2.389,0-4.326-1.939-4.326-4.326c0-2.391,1.938-4.328,4.326-4.328
			c2.389,0,4.326,1.938,4.326,4.328C58.757,1034.287,56.819,1036.226,54.431,1036.226"/>
		<path fill="#068D8C" d="M62.466,1043.167c-1.826,0-3.305-1.479-3.305-3.305c0-1.824,1.479-3.305,3.305-3.305
			c1.826,0,3.307,1.48,3.307,3.305C65.772,1041.689,64.292,1043.167,62.466,1043.167"/>
		<path fill="#068D8C" d="M68.589,1048.46c-1.396,0-2.527-1.131-2.527-2.527s1.131-2.529,2.527-2.529s2.527,1.133,2.527,2.529
			S69.985,1048.46,68.589,1048.46"/>
		<path fill="#068D8C" d="M74.328,1053.474c-1.022,0-1.853-0.83-1.853-1.852c0-1.025,0.83-1.854,1.853-1.854
			c1.023,0,1.853,0.828,1.853,1.854C76.181,1052.644,75.352,1053.474,74.328,1053.474"/>
		<path fill="#2CB35F" d="M85.253,1023.414c-2.391,0-4.326-1.936-4.326-4.326c0-2.387,1.935-4.326,4.326-4.326
			c2.39,0,4.324,1.939,4.324,4.326C89.577,1021.478,87.643,1023.414,85.253,1023.414"/>
		<path fill="#2CB35F" d="M85.24,1033.705c-1.825,0-3.305-1.479-3.305-3.303s1.479-3.305,3.305-3.305
			c1.825,0,3.304,1.48,3.304,3.305S87.065,1033.705,85.24,1033.705"/>
		<path fill="#2CB35F" d="M85.229,1041.546c-1.395,0-2.524-1.129-2.524-2.523s1.13-2.527,2.524-2.527
			c1.396,0,2.525,1.133,2.525,2.527S86.625,1041.546,85.229,1041.546"/>
		<path fill="#2CB35F" d="M85.222,1048.955c-1.024,0-1.852-0.83-1.852-1.852s0.828-1.852,1.852-1.852
			c1.021,0,1.851,0.83,1.851,1.852S86.243,1048.955,85.222,1048.955"/>
	</g>
	<rect x="38.604" y="39.189" fill="none" width="865.326" height="38.607"/>
	<text transform="matrix(1 0 0 1 35.6055 73.7012)"><tspan x="0" y="0" fill="#FFFFFF" font-family="'Helvetica-Bold'" font-size="48">PM: </tspan><tspan x="101.32" y="0" fill="#F5C714" font-family="'Helvetica-Bold'" font-size="48">TEMPERATURE INVERSION </tspan></text>
	<rect x="39.206" y="90.66" fill="none" width="863.957" height="71.133"/>
	<text transform="matrix(1 0 0 1 39.2061 103.5122)"><tspan x="0" y="0" fill="#FFFFFF" font-family="'HelveticaNeue-Medium'" font-size="18">WORDS</tspan><tspan x="68.003" y="0" fill="#FFFFFF" font-family="'HelveticaNeue-Medium'" font-size="18"> </tspan><tspan x="72.794" y="0" fill="#FFFFFF" font-family="'HelveticaNeue-Medium'" font-size="18">WORDS</tspan><tspan x="140.797" y="0" fill="#FFFFFF" font-family="'HelveticaNeue-Medium'" font-size="18"> </tspan><tspan x="145.589" y="0" fill="#FFFFFF" font-family="'HelveticaNeue-Medium'" font-size="18">WORDS</tspan><tspan x="213.592" y="0" fill="#FFFFFF" font-family="'HelveticaNeue-Medium'" font-size="18"> </tspan><tspan x="218.384" y="0" fill="#FFFFFF" font-family="'HelveticaNeue-Medium'" font-size="18">WORDS</tspan><tspan x="286.387" y="0" fill="#FFFFFF" font-family="'HelveticaNeue-Medium'" font-size="18"> </tspan><tspan x="291.179" y="0" fill="#FFFFFF" font-family="'HelveticaNeue-Medium'" font-size="18">WORDS</tspan><tspan x="359.182" y="0" fill="#FFFFFF" font-family="'HelveticaNeue-Medium'" font-size="18"> </tspan><tspan x="363.973" y="0" fill="#FFFFFF" font-family="'HelveticaNeue-Medium'" font-size="18">WORDS</tspan><tspan x="431.976" y="0" fill="#FFFFFF" font-family="'HelveticaNeue-Medium'" font-size="18"> </tspan><tspan x="436.768" y="0" fill="#FFFFFF" font-family="'HelveticaNeue-Medium'" font-size="18">WORDS</tspan><tspan x="504.771" y="0" fill="#FFFFFF" font-family="'HelveticaNeue-Medium'" font-size="18"> </tspan><tspan x="509.562" y="0" fill="#FFFFFF" font-family="'HelveticaNeue-Medium'" font-size="18">WORDS</tspan><tspan x="577.565" y="0" fill="#FFFFFF" font-family="'HelveticaNeue-Medium'" font-size="18"> </tspan><tspan x="582.357" y="0" fill="#FFFFFF" font-family="'HelveticaNeue-Medium'" font-size="18">WORDS</tspan><tspan x="650.36" y="0" fill="#FFFFFF" font-family="'HelveticaNeue-Medium'" font-size="18"> </tspan><tspan x="655.152" y="0" fill="#FFFFFF" font-family="'HelveticaNeue-Medium'" font-size="18">WORDSWORDS</tspan><tspan x="791.159" y="0" fill="#FFFFFF" font-family="'HelveticaNeue-Medium'" font-size="18"> </tspan><tspan x="795.95" y="0" fill="#FFFFFF" font-family="'HelveticaNeue-Medium'" font-size="18">WORDS </tspan><tspan x="0" y="21.6" fill="#FFFFFF" font-family="'HelveticaNeue-Medium'" font-size="18">WORDS</tspan><tspan x="68.003" y="21.6" fill="#FFFFFF" font-family="'HelveticaNeue-Medium'" font-size="18"> </tspan><tspan x="73.327" y="21.6" fill="#FFFFFF" font-family="'HelveticaNeue-Medium'" font-size="18">WORDS</tspan><tspan x="141.33" y="21.6" fill="#FFFFFF" font-family="'HelveticaNeue-Medium'" font-size="18"> </tspan><tspan x="146.654" y="21.6" fill="#FFFFFF" font-family="'HelveticaNeue-Medium'" font-size="18">WORDSWORDS</tspan><tspan x="282.66" y="21.6" fill="#FFFFFF" font-family="'HelveticaNeue-Medium'" font-size="18"> </tspan><tspan x="287.984" y="21.6" fill="#FFFFFF" font-family="'HelveticaNeue-Medium'" font-size="18">WORDS</tspan><tspan x="355.987" y="21.6" fill="#FFFFFF" font-family="'HelveticaNeue-Medium'" font-size="18"> </tspan><tspan x="361.311" y="21.6" fill="#FFFFFF" font-family="'HelveticaNeue-Medium'" font-size="18">WORDS</tspan><tspan x="429.314" y="21.6" fill="#FFFFFF" font-family="'HelveticaNeue-Medium'" font-size="18"> </tspan><tspan x="434.638" y="21.6" fill="#FFFFFF" font-family="'HelveticaNeue-Medium'" font-size="18">WORDS</tspan><tspan x="502.641" y="21.6" fill="#FFFFFF" font-family="'HelveticaNeue-Medium'" font-size="18"> </tspan><tspan x="507.965" y="21.6" fill="#FFFFFF" font-family="'HelveticaNeue-Medium'" font-size="18">WORDSWORDS</tspan><tspan x="643.971" y="21.6" fill="#FFFFFF" font-family="'HelveticaNeue-Medium'" font-size="18"> </tspan><tspan x="649.295" y="21.6" fill="#FFFFFF" font-family="'HelveticaNeue-Medium'" font-size="18">WORDS</tspan><tspan x="717.298" y="21.6" fill="#FFFFFF" font-family="'HelveticaNeue-Medium'" font-size="18"> </tspan><tspan x="722.623" y="21.6" fill="#FFFFFF" font-family="'HelveticaNeue-Medium'" font-size="18">WORDS</tspan><tspan x="790.625" y="21.6" fill="#FFFFFF" font-family="'HelveticaNeue-Medium'" font-size="18"> </tspan><tspan x="795.95" y="21.6" fill="#FFFFFF" font-family="'HelveticaNeue-Medium'" font-size="18">WORDS </tspan><tspan x="0" y="43.2" fill="#FFFFFF" font-family="'HelveticaNeue-Medium'" font-size="18">WORDSWORDS WORDS WORDS WORDS WORDS</tspan></text>
</g>
</svg>
