<?xml version="1.0" encoding="utf-8"?>
<!-- Generator: Adobe Illustrator 16.0.0, SVG Export Plug-In . SVG Version: 6.00 Build 0)  -->
<!DOCTYPE svg PUBLIC "-//W3C//DTD SVG 1.1//EN" "http://www.w3.org/Graphics/SVG/1.1/DTD/svg11.dtd">
<svg version="1.1" id="Layer_1" xmlns="http://www.w3.org/2000/svg" xmlns:xlink="http://www.w3.org/1999/xlink" x="0px" y="0px"
	 width="1600px" height="1150px" viewBox="0 0 1600 1150" enable-background="new 0 0 1600 1150" xml:space="preserve">
<g>
	<defs>
		<rect id="SVGID_1_" width="1600" height="1150"/>
	</defs>
	<clipPath id="SVGID_2_">
		<use xlink:href="#SVGID_1_"  overflow="visible"/>
	</clipPath>
	<rect x="0.041" y="0.124" clip-path="url(#SVGID_2_)" fill="#B3BA2D" width="1599.959" height="1147.442"/>
	<rect y="984.238" clip-path="url(#SVGID_2_)" fill="#FFFFFF" width="1600" height="165.762"/>
	<g clip-path="url(#SVGID_2_)">
		<text transform="matrix(1 0 0 1 335.707 1044.0869)" font-family="'Helvetica'" font-size="18">Re</text>
	</g>
	<g clip-path="url(#SVGID_2_)">
		<text transform="matrix(1 0 0 1 358.7109 1044.0869)" font-family="'Helvetica'" font-size="18">f</text>
	</g>
	<g clip-path="url(#SVGID_2_)">
		<text transform="matrix(1 0 0 1 363.5532 1044.0869)" font-family="'Helvetica'" font-size="18">erences: Hung, H., MacLeod, M., Guardans, R., Scheringer, M., Barra, R., Harner, T., and Zhang, G. (2013). &quot;Toward the next generation of air quality</text>
	</g>
	<g clip-path="url(#SVGID_2_)">
		<text transform="matrix(1 0 0 1 363.5532 1065.6865)"><tspan x="0" y="0" font-family="'Helvetica'" font-size="18" letter-spacing="30">  </tspan><tspan x="71.994" y="0" font-family="'Helvetica'" font-size="18">monitoring: Persistent organic pollutants.&quot; At</tspan><tspan x="425.561" y="0" font-family="'Helvetica'" font-size="18">m</tspan><tspan x="440.573" y="0" font-family="'Helvetica'" font-size="18">ospheric Environment 80: 591-598.</tspan></text>
	</g>
	<g clip-path="url(#SVGID_2_)">
		<text transform="matrix(1 0 0 1 799.7651 1044.0869)" font-family="'Helvetica'" font-size="18">a</text>
	</g>
	<g clip-path="url(#SVGID_2_)">
		<text transform="matrix(1 0 0 1 809.791 1044.0869)" font-family="'Helvetica'" font-size="18"> </text>
	</g>
	<g clip-path="url(#SVGID_2_)">
		<text transform="matrix(1 0 0 1 335.707 1065.6865)" font-family="'Helvetica'" font-size="18"> </text>
	</g>
	<g clip-path="url(#SVGID_2_)">
		<text transform="matrix(1 0 0 1 378.4209 1065.6865)" font-family="'Helvetica'" font-size="18"> </text>
	</g>
	<g clip-path="url(#SVGID_2_)">
		<text transform="matrix(1 0 0 1 421.1348 1065.6865)" font-family="'Helvetica'" font-size="18">   </text>
	</g>
	<polygon clip-path="url(#SVGID_2_)" fill="#2E2119" points="99.532,1043.854 99.532,1027.158 111.034,1027.158 111.034,1029.684 
		103.145,1029.684 103.145,1033.93 109.77,1033.93 109.77,1036.309 103.145,1036.309 103.145,1041.307 111.374,1041.307 
		111.374,1043.854 	"/>
	<g clip-path="url(#SVGID_2_)">
		<defs>
			<rect id="SVGID_3_" width="1600" height="1150"/>
		</defs>
		<clipPath id="SVGID_4_">
			<use xlink:href="#SVGID_3_"  overflow="visible"/>
		</clipPath>
		<path clip-path="url(#SVGID_4_)" fill="#2E2119" d="M121.598,1043.854v-7.375c0-1.24-0.194-2.137-1.698-2.137
			c-0.801,0-1.917,0.414-2.718,0.896v8.615h-3.495v-11.914h3.301l0.048,1.09l0.097,0.051c1.382-0.924,3.058-1.432,4.198-1.432
			c3.155,0,3.737,1.869,3.737,4.101v8.104H121.598z"/>
		<path clip-path="url(#SVGID_4_)" fill="#2E2119" d="M132.962,1041.549c0.121-0.314,0.776-3.082,1.164-4.32
			c0.535-1.553,1.53-4.951,1.651-5.289h3.495c-0.874,2.451-3.227,9.486-4.101,11.914h-4.732c-0.85-2.428-3.229-9.463-4.079-11.914
			h3.642l1.722,5.531c0.267,0.849,0.826,3.252,1.117,4.078H132.962z"/>
		<path clip-path="url(#SVGID_4_)" fill="#2E2119" d="M142.813,1030.482c-1.287,0-1.99-0.824-1.99-1.842
			c0-1.068,0.729-1.871,1.99-1.871c1.335,0,2.062,0.803,2.062,1.871C144.875,1029.658,144.148,1030.482,142.813,1030.482
			 M141.09,1031.939h3.47v11.909h-3.47V1031.939z"/>
		<path clip-path="url(#SVGID_4_)" fill="#2E2119" d="M151.082,1034.051c1.31-1.287,3.203-2.428,4.538-2.428
			c0.486,0,0.678,0.293,0.678,0.803c0,0.896-0.581,2.717-1.09,3.422l-4.053-0.049v8.055h-3.47v-11.914h3.421
			c0,0.557-0.072,1.48-0.144,2.039L151.082,1034.051z"/>
		<path clip-path="url(#SVGID_4_)" fill="#2E2119" d="M163.093,1044.098c-4.416,0-5.946-2.766-5.946-6.188
			c0-3.351,1.699-6.238,6.092-6.238c4.439,0,5.969,2.888,5.969,6.213C169.208,1041.209,167.632,1044.098,163.093,1044.098
			 M163.239,1034.123c-1.99,0-2.525,1.916-2.525,3.787c0,2.108,0.412,3.736,2.525,3.736c1.965,0,2.378-1.773,2.378-3.736
			C165.617,1036.016,165.229,1034.123,163.239,1034.123"/>
		<path clip-path="url(#SVGID_4_)" fill="#2E2119" d="M179.083,1043.854v-7.375c0-1.24-0.195-2.137-1.699-2.137
			c-0.801,0-1.918,0.414-2.719,0.896v8.615h-3.494v-11.914h3.3l0.049,1.09l0.096,0.051c1.383-0.924,3.059-1.432,4.199-1.432
			c3.155,0,3.737,1.869,3.737,4.101v8.104H179.083z"/>
		<path clip-path="url(#SVGID_4_)" fill="#2E2119" d="M200.071,1043.854v-7.545c0-1.312-0.34-1.943-1.578-1.943
			c-0.752,0-1.867,0.365-2.547,0.826c0.072,0.51,0.098,1.117,0.098,1.553v7.109h-3.424c0-2.598-0.024-5.193-0.024-7.789
			c0-1.117-0.508-1.674-1.431-1.674c-0.801,0-1.795,0.365-2.621,0.871v8.592h-3.47v-11.914h3.253l0.071,1.188l0.097,0.049
			c1.36-1.02,2.985-1.504,4.125-1.504c1.36,0,2.284,0.484,2.889,1.553c1.165-0.896,3.033-1.553,4.295-1.553
			c3.179,0,3.761,1.967,3.761,4.197v7.984H200.071z"/>
		<path clip-path="url(#SVGID_4_)" fill="#2E2119" d="M216.859,1037.449v1.236h-7.788c0,1.82,0.85,2.789,2.985,2.789
			c1.287,0,2.596-0.289,3.833-0.752l0.706,2.137c-1.579,0.873-3.399,1.188-5.049,1.188c-4.805,0-5.969-2.861-5.969-6.137
			c0-2.621,1.117-6.287,5.823-6.287C216.52,1031.623,216.859,1035.311,216.859,1037.449 M209.12,1036.549h4.586
			c-0.024-1.576-0.51-2.717-2.16-2.717C209.824,1033.832,209.241,1035.119,209.12,1036.549"/>
		<path clip-path="url(#SVGID_4_)" fill="#2E2119" d="M227.027,1043.854v-7.375c0-1.24-0.194-2.137-1.699-2.137
			c-0.801,0-1.917,0.414-2.718,0.896v8.615h-3.494v-11.914h3.299l0.049,1.09l0.097,0.051c1.384-0.924,3.057-1.432,4.198-1.432
			c3.156,0,3.738,1.869,3.738,4.101v8.104H227.027z"/>
		<path clip-path="url(#SVGID_4_)" fill="#2E2119" d="M237.266,1028.639v3.277h3.471v2.279h-3.471v5.389
			c0,1.26,0.364,1.842,1.603,1.842c0.436,0,1.189-0.119,2.061-0.314l0.437,2.258c-1.019,0.461-2.377,0.678-3.397,0.678
			c-3.324,0-4.125-1.648-4.125-3.541v-6.311h-1.675v-1.893l1.893-0.559c0.171-0.412,0.704-2.449,0.849-2.863L237.266,1028.639z"/>
		<path clip-path="url(#SVGID_4_)" fill="#2E2119" d="M253.353,1041.549h1.554l0.169,1.939c-0.777,0.365-1.893,0.609-2.911,0.609
			c-1.044,0-1.796-0.244-1.919-1.434c0-0.023-0.023-0.023-0.048-0.049c-1.674,1.459-3.444,1.482-4.124,1.482
			c-2.961,0-3.69-2.086-3.69-3.471c0-2.477,1.918-3.688,4.418-3.834c0.921-0.072,2.329-0.121,3.25-0.195v-0.289
			c0-1.361-0.436-2.062-2.207-2.062c-1.165,0-2.67,0.24-3.785,0.604c-0.171-0.727-0.365-1.455-0.558-2.156
			c1.406-0.609,3.468-0.996,5.168-0.996c2.863,0,4.683,1.066,4.683,4.15V1041.549z M247.649,1038.709
			c-1.141,0.098-1.674,0.68-1.674,1.625c0,0.998,0.485,1.531,1.627,1.531c0.728,0,1.674-0.391,2.449-1.068v-2.283L247.649,1038.709z
			"/>
		<polygon clip-path="url(#SVGID_4_)" fill="#2E2119" points="260.291,1043.854 256.845,1043.854 256.845,1026.479 
			260.315,1026.479 		"/>
		<path clip-path="url(#SVGID_4_)" fill="#2E2119" d="M106.157,1064.562h-3.034l0.025,6.406h-3.616v-16.695h6.333
			c3.811,0,5.727,1.99,5.727,5.121C111.592,1061.797,110.089,1064.562,106.157,1064.562 M103.123,1056.797v5.316h2.353
			c1.287,0,2.475-0.68,2.475-2.645c0-1.896-1.116-2.672-2.596-2.672H103.123z"/>
		<path clip-path="url(#SVGID_4_)" fill="#2E2119" d="M123.843,1064.562v1.239h-7.788c0,1.82,0.85,2.789,2.985,2.789
			c1.286,0,2.597-0.291,3.834-0.752l0.703,2.137c-1.578,0.873-3.397,1.189-5.047,1.189c-4.805,0-5.969-2.865-5.969-6.141
			c0-2.621,1.115-6.283,5.823-6.283C123.504,1058.74,123.843,1062.428,123.843,1064.562 M116.104,1063.666h4.586
			c-0.025-1.578-0.51-2.719-2.16-2.719C116.808,1060.947,116.225,1062.232,116.104,1063.666"/>
		<path clip-path="url(#SVGID_4_)" fill="#2E2119" d="M129.497,1061.164c1.311-1.283,3.203-2.424,4.538-2.424
			c0.485,0,0.681,0.289,0.681,0.799c0,0.896-0.584,2.717-1.094,3.422l-4.051-0.049v8.057h-3.472v-11.914h3.423
			c0,0.557-0.073,1.479-0.146,2.037L129.497,1061.164z"/>
		<path clip-path="url(#SVGID_4_)" fill="#2E2119" d="M137.722,1061.311h-1.675v-1.893l1.7-0.486v-1.479
			c0-2.281,0.995-4.08,4.512-4.08c0.826,0,2.16,0.1,3.277,0.414l-0.412,2.354c-0.679-0.145-1.554-0.217-2.063-0.217
			c-1.237,0-1.943,0.412-1.943,1.578v1.527h3.424v2.281h-3.424c0,1.043-0.023,8.615-0.023,9.658h-3.373V1061.311z"/>
		<path clip-path="url(#SVGID_4_)" fill="#2E2119" d="M151.503,1071.211c-4.416,0-5.945-2.766-5.945-6.188
			c0-3.35,1.698-6.234,6.091-6.234c4.44,0,5.969,2.885,5.969,6.209C157.618,1068.324,156.042,1071.211,151.503,1071.211
			 M151.649,1061.238c-1.99,0-2.523,1.918-2.523,3.785c0,2.111,0.412,3.736,2.523,3.736c1.966,0,2.379-1.77,2.379-3.736
			C154.028,1063.131,153.639,1061.238,151.649,1061.238"/>
		<path clip-path="url(#SVGID_4_)" fill="#2E2119" d="M163.028,1061.164c1.311-1.283,3.204-2.424,4.539-2.424
			c0.486,0,0.678,0.289,0.678,0.799c0,0.896-0.582,2.717-1.09,3.422l-4.054-0.049v8.057h-3.469v-11.914h3.421
			c0,0.557-0.072,1.479-0.145,2.037L163.028,1061.164z"/>
		<path clip-path="url(#SVGID_4_)" fill="#2E2119" d="M184.749,1070.969v-7.547c0-1.308-0.34-1.939-1.578-1.939
			c-0.752,0-1.867,0.363-2.547,0.822c0.072,0.51,0.098,1.117,0.098,1.553v7.111h-3.424c0-2.598-0.024-5.193-0.024-7.791
			c0-1.113-0.508-1.674-1.431-1.674c-0.801,0-1.795,0.365-2.62,0.875v8.59h-3.47v-11.914h3.25l0.073,1.189l0.097,0.049
			c1.36-1.021,2.985-1.504,4.125-1.504c1.36,0,2.283,0.482,2.889,1.553c1.165-0.9,3.033-1.553,4.295-1.553
			c3.179,0,3.761,1.965,3.761,4.197v7.982H184.749z"/>
		<path clip-path="url(#SVGID_4_)" fill="#2E2119" d="M201.126,1068.664h1.553l0.17,1.941c-0.776,0.363-1.893,0.605-2.912,0.605
			c-1.045,0-1.797-0.242-1.917-1.432c0-0.019-0.025-0.019-0.049-0.047c-1.675,1.455-3.446,1.479-4.125,1.479
			c-2.961,0-3.689-2.086-3.689-3.471c0-2.473,1.916-3.688,4.416-3.834c0.924-0.072,2.33-0.119,3.252-0.191v-0.293
			c0-1.357-0.437-2.062-2.209-2.062c-1.164,0-2.668,0.242-3.785,0.609c-0.17-0.73-0.363-1.457-0.558-2.164
			c1.408-0.604,3.47-0.992,5.17-0.992c2.863,0,4.683,1.068,4.683,4.148V1068.664z M195.423,1065.822
			c-1.141,0.1-1.674,0.682-1.674,1.629c0,0.994,0.485,1.527,1.625,1.527c0.729,0,1.674-0.389,2.451-1.066v-2.281L195.423,1065.822z"
			/>
		<path clip-path="url(#SVGID_4_)" fill="#2E2119" d="M212.555,1070.969v-7.377c0-1.238-0.194-2.135-1.699-2.135
			c-0.801,0-1.917,0.412-2.718,0.896v8.615h-3.494v-11.914h3.299l0.049,1.092l0.097,0.05c1.383-0.925,3.057-1.435,4.198-1.435
			c3.156,0,3.738,1.869,3.738,4.103v8.104H212.555z"/>
		<path clip-path="url(#SVGID_4_)" fill="#2E2119" d="M224.418,1068.518c1.115,0,2.136-0.242,3.204-0.604l0.654,2.303
			c-1.189,0.605-2.862,0.947-4.488,0.947c-4.562,0-5.752-2.719-5.752-6.02c0-2.813,1.068-6.355,5.897-6.355
			c1.019,0,2.353,0.094,3.714,0.583c-0.171,0.798-0.34,1.599-0.535,2.425c-1.019-0.293-1.892-0.34-2.595-0.34
			c-1.943,0-2.961,1.334-2.961,3.541C221.556,1067.184,222.259,1068.518,224.418,1068.518"/>
		<path clip-path="url(#SVGID_4_)" fill="#2E2119" d="M240.776,1064.562v1.239h-7.788c0,1.82,0.849,2.789,2.985,2.789
			c1.285,0,2.596-0.291,3.833-0.752l0.705,2.137c-1.579,0.873-3.399,1.189-5.049,1.189c-4.803,0-5.969-2.865-5.969-6.141
			c0-2.621,1.117-6.283,5.824-6.283C240.436,1058.74,240.776,1062.428,240.776,1064.562 M233.036,1063.666h4.587
			c-0.025-1.578-0.511-2.719-2.161-2.719C233.74,1060.947,233.157,1062.232,233.036,1063.666"/>
		<rect x="99.751" y="1081.387" clip-path="url(#SVGID_4_)" fill="#2E2119" width="3.541" height="16.697"/>
		<path clip-path="url(#SVGID_4_)" fill="#2E2119" d="M114.358,1098.084v-7.379c0-1.238-0.195-2.135-1.699-2.135
			c-0.801,0-1.917,0.412-2.718,0.896v8.617h-3.495v-11.916h3.301l0.049,1.092l0.096,0.051c1.383-0.924,3.058-1.434,4.198-1.434
			c3.155,0,3.739,1.867,3.739,4.1v8.107H114.358z"/>
		<path clip-path="url(#SVGID_4_)" fill="#2E2119" d="M128.333,1086.631v-5.898h3.471v17.352h-3.229l-0.072-1.068
			c-0.024-0.023-0.047-0.049-0.072-0.049c-1.164,0.945-2.646,1.285-3.664,1.285c-3.714,0-4.733-2.717-4.733-5.871
			c0-3.689,1.359-6.504,5.145-6.504C125.956,1085.877,127.339,1086.045,128.333,1086.631 M128.333,1089.055
			c-0.559-0.338-1.625-0.654-2.402-0.654c-1.189,0-2.403,0.703-2.403,3.955c0,2.816,1.043,3.471,2.354,3.471
			c0.704,0,1.892-0.484,2.451-0.896V1089.055z"/>
		<path clip-path="url(#SVGID_4_)" fill="#2E2119" d="M144.905,1091.676v1.238h-7.79c0,1.82,0.852,2.791,2.986,2.791
			c1.287,0,2.596-0.291,3.834-0.754l0.704,2.137c-1.578,0.873-3.398,1.189-5.049,1.189c-4.804,0-5.968-2.863-5.968-6.139
			c0-2.623,1.115-6.285,5.824-6.285C144.565,1085.854,144.905,1089.541,144.905,1091.676 M137.164,1090.779h4.587
			c-0.024-1.578-0.51-2.719-2.161-2.719C137.868,1088.061,137.286,1089.346,137.164,1090.779"/>
		<polygon clip-path="url(#SVGID_4_)" fill="#2E2119" points="152.208,1093.664 149.684,1098.084 145.972,1098.084 
			150.072,1091.871 146.287,1086.168 150.097,1086.168 152.257,1090.195 154.44,1086.168 158.153,1086.168 154.294,1091.846 
			158.348,1098.084 154.562,1098.084 		"/>
		<path clip-path="url(#SVGID_4_)" fill="#F4C618" d="M69.588,1090.689c-1.936,0-3.503-1.566-3.503-3.5
			c0-1.936,1.567-3.504,3.503-3.504c1.933,0,3.503,1.568,3.503,3.504C73.091,1089.123,71.521,1090.689,69.588,1090.689"/>
		<path clip-path="url(#SVGID_4_)" fill="#F4C618" d="M72.863,1081.67c-1.356,0-2.456-1.1-2.456-2.457s1.1-2.455,2.456-2.455
			s2.454,1.098,2.454,2.455S74.219,1081.67,72.863,1081.67"/>
		<path clip-path="url(#SVGID_4_)" fill="#F4C618" d="M75.319,1074.922c-0.933,0-1.689-0.756-1.689-1.687
			c0-0.935,0.756-1.69,1.689-1.69c0.934,0,1.688,0.756,1.688,1.69C77.007,1074.166,76.253,1074.922,75.319,1074.922"/>
		<path clip-path="url(#SVGID_4_)" fill="#F4C618" d="M76.957,1070.467c-0.673,0-1.22-0.545-1.22-1.221
			c0-0.674,0.547-1.219,1.22-1.219s1.22,0.545,1.22,1.219C78.177,1069.922,77.63,1070.467,76.957,1070.467"/>
		<path clip-path="url(#SVGID_4_)" fill="#7D8FC7" d="M55.042,1076.176c-1.935,0-3.502-1.57-3.502-3.504
			c0-1.932,1.567-3.498,3.502-3.498c1.934,0,3.502,1.566,3.502,3.498C58.544,1074.605,56.976,1076.176,55.042,1076.176"/>
		<path clip-path="url(#SVGID_4_)" fill="#7D8FC7" d="M62.985,1071.781c-1.355,0-2.451-1.1-2.451-2.455
			c0-1.352,1.096-2.451,2.451-2.451c1.354,0,2.453,1.1,2.453,2.451C65.438,1070.682,64.339,1071.781,62.985,1071.781"/>
		<path clip-path="url(#SVGID_4_)" fill="#7D8FC7" d="M68.944,1068.5c-0.932,0-1.684-0.752-1.684-1.682s0.752-1.686,1.684-1.686
			c0.93,0,1.684,0.756,1.684,1.686S69.875,1068.5,68.944,1068.5"/>
		<path clip-path="url(#SVGID_4_)" fill="#7D8FC7" d="M72.915,1066.355c-0.668,0-1.211-0.541-1.211-1.211s0.543-1.213,1.211-1.213
			c0.672,0,1.214,0.543,1.214,1.213S73.587,1066.355,72.915,1066.355"/>
		<path clip-path="url(#SVGID_4_)" fill="#0C9ACC" d="M55.016,1055.629c-1.933,0-3.501-1.566-3.501-3.504
			c0-1.932,1.568-3.498,3.501-3.498c1.935,0,3.503,1.566,3.503,3.498C58.519,1054.062,56.951,1055.629,55.016,1055.629"/>
		<path clip-path="url(#SVGID_4_)" fill="#0C9ACC" d="M63,1057.824c-1.351,0-2.448-1.094-2.448-2.447c0-1.352,1.097-2.45,2.448-2.45
			c1.352,0,2.448,1.099,2.448,2.45C65.448,1056.73,64.352,1057.824,63,1057.824"/>
		<path clip-path="url(#SVGID_4_)" fill="#0C9ACC" d="M68.987,1059.49c-0.924,0-1.676-0.75-1.676-1.676
			c0-0.929,0.752-1.679,1.676-1.679c0.928,0,1.678,0.75,1.678,1.679C70.666,1058.74,69.916,1059.49,68.987,1059.49"/>
		<path clip-path="url(#SVGID_4_)" fill="#0C9ACC" d="M72.981,1060.643c-0.666,0-1.205-0.541-1.205-1.205
			c0-0.662,0.539-1.203,1.205-1.203c0.664,0,1.203,0.541,1.203,1.203C74.185,1060.102,73.646,1060.643,72.981,1060.643"/>
		<path clip-path="url(#SVGID_4_)" fill="#3EBBA3" d="M69.528,1041.084c-1.934,0-3.504-1.57-3.504-3.504
			c0-1.936,1.57-3.502,3.504-3.502c1.933,0,3.502,1.566,3.502,3.502C73.03,1039.514,71.461,1041.084,69.528,1041.084"/>
		<path clip-path="url(#SVGID_4_)" fill="#3EBBA3" d="M72.853,1047.977c-1.35,0-2.444-1.092-2.444-2.443
			c0-1.35,1.094-2.445,2.444-2.445s2.445,1.096,2.445,2.445C75.297,1046.885,74.203,1047.977,72.853,1047.977"/>
		<path clip-path="url(#SVGID_4_)" fill="#3EBBA3" d="M75.347,1053.17c-0.924,0-1.674-0.748-1.674-1.672s0.75-1.672,1.674-1.672
			c0.922,0,1.67,0.748,1.67,1.672S76.269,1053.17,75.347,1053.17"/>
		<path clip-path="url(#SVGID_4_)" fill="#3EBBA3" d="M77.008,1056.672c-0.661,0-1.196-0.535-1.196-1.195
			c0-0.658,0.535-1.197,1.196-1.197s1.196,0.539,1.196,1.197C78.204,1056.137,77.669,1056.672,77.008,1056.672"/>
		<path clip-path="url(#SVGID_4_)" fill="#F79523" d="M79.907,1110.383c-2.389,0-4.326-1.936-4.326-4.326
			c0-2.389,1.937-4.324,4.326-4.324s4.326,1.936,4.326,4.324C84.233,1108.447,82.296,1110.383,79.907,1110.383"/>
		<path clip-path="url(#SVGID_4_)" fill="#F79523" d="M79.873,1098.061c-1.833,0-3.318-1.486-3.318-3.318
			c0-1.83,1.485-3.318,3.318-3.318s3.317,1.488,3.317,3.318C83.19,1096.574,81.706,1098.061,79.873,1098.061"/>
		<path clip-path="url(#SVGID_4_)" fill="#F79523" d="M79.847,1088.676c-1.408,0-2.551-1.145-2.551-2.553
			c0-1.406,1.143-2.551,2.551-2.551s2.551,1.145,2.551,2.551C82.397,1087.531,81.255,1088.676,79.847,1088.676"/>
		<path clip-path="url(#SVGID_4_)" fill="#F79523" d="M79.822,1079.924c-1.041,0-1.882-0.844-1.882-1.881
			c0-1.039,0.841-1.885,1.882-1.885c1.038,0,1.882,0.846,1.882,1.885C81.704,1079.08,80.86,1079.924,79.822,1079.924"/>
		<path clip-path="url(#SVGID_4_)" fill="#F26E2C" d="M49.055,1097.645c-2.39,0-4.325-1.938-4.325-4.326
			c0-2.391,1.935-4.326,4.325-4.326s4.325,1.936,4.325,4.326C53.38,1095.707,51.445,1097.645,49.055,1097.645"/>
		<path clip-path="url(#SVGID_4_)" fill="#F26E2C" d="M56.996,1088.574c-1.831,0-3.315-1.482-3.315-3.316
			c0-1.831,1.484-3.312,3.315-3.312c1.83,0,3.313,1.481,3.313,3.312C60.309,1087.092,58.826,1088.574,56.996,1088.574"/>
		<path clip-path="url(#SVGID_4_)" fill="#F26E2C" d="M63.046,1081.664c-1.406,0-2.545-1.137-2.545-2.545
			c0-1.406,1.139-2.545,2.545-2.545c1.405,0,2.545,1.139,2.545,2.545C65.591,1080.527,64.451,1081.664,63.046,1081.664"/>
		<path clip-path="url(#SVGID_4_)" fill="#F26E2C" d="M68.719,1075.236c-1.036,0-1.876-0.836-1.876-1.873
			c0-1.035,0.84-1.875,1.876-1.875s1.876,0.84,1.876,1.875C70.595,1074.4,69.755,1075.236,68.719,1075.236"/>
		<path clip-path="url(#SVGID_4_)" fill="#3575BA" d="M36.243,1066.822c-2.39,0-4.326-1.937-4.326-4.328
			c0-2.387,1.936-4.326,4.326-4.326c2.389,0,4.325,1.939,4.325,4.326C40.568,1064.886,38.632,1066.822,36.243,1066.822"/>
		<path clip-path="url(#SVGID_4_)" fill="#3575BA" d="M47.556,1065.717c-1.828,0-3.31-1.482-3.31-3.311s1.482-3.311,3.31-3.311
			s3.31,1.482,3.31,3.311S49.384,1065.717,47.556,1065.717"/>
		<path clip-path="url(#SVGID_4_)" fill="#3575BA" d="M56.176,1064.873c-1.4,0-2.536-1.137-2.536-2.533
			c0-1.405,1.136-2.537,2.536-2.537s2.534,1.132,2.534,2.537C58.71,1063.736,57.576,1064.873,56.176,1064.873"/>
		<path clip-path="url(#SVGID_4_)" fill="#3575BA" d="M64.257,1064.137c-1.029,0-1.863-0.832-1.863-1.863
			c0-1.027,0.834-1.863,1.863-1.863s1.862,0.836,1.862,1.863C66.119,1063.305,65.286,1064.137,64.257,1064.137"/>
		<path clip-path="url(#SVGID_4_)" fill="#018C8C" d="M48.981,1035.971c-2.389,0-4.326-1.939-4.326-4.326
			c0-2.391,1.937-4.328,4.326-4.328s4.326,1.938,4.326,4.328C53.308,1034.031,51.371,1035.971,48.981,1035.971"/>
		<path clip-path="url(#SVGID_4_)" fill="#018C8C" d="M57.017,1042.912c-1.825,0-3.305-1.479-3.305-3.305
			c0-1.824,1.48-3.305,3.305-3.305c1.826,0,3.307,1.48,3.307,3.305C60.324,1041.434,58.843,1042.912,57.017,1042.912"/>
		<path clip-path="url(#SVGID_4_)" fill="#018C8C" d="M63.14,1048.205c-1.396,0-2.527-1.131-2.527-2.527s1.131-2.529,2.527-2.529
			s2.527,1.133,2.527,2.529S64.536,1048.205,63.14,1048.205"/>
		<path clip-path="url(#SVGID_4_)" fill="#018C8C" d="M68.879,1053.219c-1.023,0-1.853-0.83-1.853-1.852
			c0-1.025,0.83-1.854,1.853-1.854s1.852,0.828,1.852,1.854C70.731,1052.389,69.902,1053.219,68.879,1053.219"/>
		<path clip-path="url(#SVGID_4_)" fill="#2CB35F" d="M79.804,1023.158c-2.391,0-4.326-1.936-4.326-4.326
			c0-2.387,1.935-4.326,4.326-4.326c2.39,0,4.325,1.939,4.325,4.326C84.129,1021.223,82.194,1023.158,79.804,1023.158"/>
		<path clip-path="url(#SVGID_4_)" fill="#2CB35F" d="M79.791,1033.449c-1.825,0-3.305-1.479-3.305-3.303
			c0-1.824,1.48-3.305,3.305-3.305s3.304,1.48,3.304,3.305C83.095,1031.97,81.616,1033.449,79.791,1033.449"/>
		<path clip-path="url(#SVGID_4_)" fill="#2CB35F" d="M79.78,1041.291c-1.395,0-2.524-1.129-2.524-2.523s1.129-2.527,2.524-2.527
			s2.526,1.133,2.526,2.527S81.175,1041.291,79.78,1041.291"/>
		<path clip-path="url(#SVGID_4_)" fill="#2CB35F" d="M79.772,1048.699c-1.023,0-1.852-0.83-1.852-1.852s0.829-1.852,1.852-1.852
			c1.021,0,1.85,0.83,1.85,1.852S80.793,1048.699,79.772,1048.699"/>
	</g>
	<g clip-path="url(#SVGID_2_)">
		<text transform="matrix(1 0 0 1 38.0332 106.3262)" fill="#FFFFFF" font-family="'Helvetica'" font-size="20">PERSISTEN</text>
	</g>
	<g clip-path="url(#SVGID_2_)">
		<text transform="matrix(1 0 0 1 151.3936 106.3262)" fill="#FFFFFF" font-family="'Helvetica'" font-size="20">T</text>
	</g>
	<g clip-path="url(#SVGID_2_)">
		<text transform="matrix(1 0 0 1 163.2734 106.3262)" fill="#FFFFFF" font-family="'Helvetica'" font-size="20"> ORGANIC POLLU</text>
	</g>
	<g clip-path="url(#SVGID_2_)">
		<text transform="matrix(1 0 0 1 333.3135 106.3262)" fill="#FFFFFF" font-family="'Helvetica'" font-size="20">T</text>
	</g>
	<g clip-path="url(#SVGID_2_)">
		<text transform="matrix(1 0 0 1 344.0732 106.3262)" fill="#FFFFFF" font-family="'Helvetica'" font-size="20">ANTS (POPS)</text>
	</g>
	<g clip-path="url(#SVGID_2_)">
		<text transform="matrix(1 0 0 1 471.8735 106.3262)" fill="#FFFFFF" font-family="'Helvetica'" font-size="20"> </text>
	</g>
	<g clip-path="url(#SVGID_2_)">
		<text transform="matrix(1 0 0 1 476.3135 106.3262)" fill="#FFFFFF" font-family="'Helvetica'" font-size="20">ARE HIGH</text>
	</g>
	<g clip-path="url(#SVGID_2_)">
		<text transform="matrix(1 0 0 1 572.9937 106.3262)" fill="#FFFFFF" font-family="'Helvetica'" font-size="20">L</text>
	</g>
	<g clip-path="url(#SVGID_2_)">
		<text transform="matrix(1 0 0 1 582.6533 106.3262)" fill="#FFFFFF" font-family="'Helvetica'" font-size="20">Y</text>
	</g>
	<g clip-path="url(#SVGID_2_)">
		<text transform="matrix(1 0 0 1 595.6934 106.3262)" fill="#FFFFFF" font-family="'Helvetica'" font-size="20"> </text>
	</g>
	<g clip-path="url(#SVGID_2_)">
		<text transform="matrix(1 0 0 1 600.9131 106.3262)" fill="#FFFFFF" font-family="'Helvetica'" font-size="20">T</text>
	</g>
	<g clip-path="url(#SVGID_2_)">
		<text transform="matrix(1 0 0 1 612.7529 106.3262)" fill="#FFFFFF" font-family="'Helvetica'" font-size="20">OXIC CHEMICALS</text>
	</g>
	<g clip-path="url(#SVGID_2_)">
		<text transform="matrix(1 0 0 1 783.8936 106.3262)" fill="#FFFFFF" font-family="'Helvetica'" font-size="20"> </text>
	</g>
	<g clip-path="url(#SVGID_2_)">
		<text transform="matrix(1 0 0 1 789.1133 106.3262)" fill="#FFFFFF" font-family="'Helvetica'" font-size="20">TH</text>
	</g>
	<g clip-path="url(#SVGID_2_)">
		<text transform="matrix(1 0 0 1 815.7734 106.3262)" fill="#FFFFFF" font-family="'Helvetica'" font-size="20">A</text>
	</g>
	<g clip-path="url(#SVGID_2_)">
		<text transform="matrix(1 0 0 1 827.6533 106.3262)" fill="#FFFFFF" font-family="'Helvetica'" font-size="20">T</text>
	</g>
	<g clip-path="url(#SVGID_2_)">
		<text transform="matrix(1 0 0 1 839.5332 106.3262)" fill="#FFFFFF" font-family="'Helvetica'" font-size="20"> </text>
	</g>
	<g clip-path="url(#SVGID_2_)">
		<text transform="matrix(1 0 0 1 844.0127 106.3262)" fill="#FFFFFF" font-family="'Helvetica'" font-size="20">ARE </text>
	</g>
	<g clip-path="url(#SVGID_2_)">
		<text transform="matrix(1 0 0 1 38.0332 130.3262)" fill="#FFFFFF" font-family="'Helvetica'" font-size="20">TRANSPO</text>
	</g>
	<g clip-path="url(#SVGID_2_)">
		<text transform="matrix(1 0 0 1 134.7134 130.3262)" fill="#FFFFFF" font-family="'Helvetica'" font-size="20">R</text>
	</g>
	<g clip-path="url(#SVGID_2_)">
		<text transform="matrix(1 0 0 1 148.813 130.3262)" fill="#FFFFFF" font-family="'Helvetica'" font-size="20">TED</text>
	</g>
	<g clip-path="url(#SVGID_2_)">
		<text transform="matrix(1 0 0 1 188.813 130.3262)" fill="#FFFFFF" font-family="'Helvetica'" font-size="20"> </text>
	</g>
	<g clip-path="url(#SVGID_2_)">
		<text transform="matrix(1 0 0 1 194.0332 130.3262)" fill="#FFFFFF" font-family="'Helvetica'" font-size="20">THROUGH</text>
	</g>
	<g clip-path="url(#SVGID_2_)">
		<text transform="matrix(1 0 0 1 295.1328 130.3262)" fill="#FFFFFF" font-family="'Helvetica'" font-size="20"> </text>
	</g>
	<g clip-path="url(#SVGID_2_)">
		<text transform="matrix(1 0 0 1 300.353 130.3262)" fill="#FFFFFF" font-family="'Helvetica'" font-size="20">THE</text>
	</g>
	<g clip-path="url(#SVGID_2_)">
		<text transform="matrix(1 0 0 1 340.353 130.3262)" fill="#FFFFFF" font-family="'Helvetica'" font-size="20"> </text>
	</g>
	<g clip-path="url(#SVGID_2_)">
		<text transform="matrix(1 0 0 1 344.833 130.3262)" fill="#FFFFFF" font-family="'Helvetica'" font-size="20">AIR.</text>
	</g>
	<g clip-path="url(#SVGID_2_)">
		<text transform="matrix(1 0 0 1 383.7334 130.3262)" fill="#FFFFFF" font-family="'Helvetica'" font-size="20"> </text>
	</g>
	<g clip-path="url(#SVGID_2_)">
		<text transform="matrix(1 0 0 1 388.9531 130.3262)" fill="#FFFFFF" font-family="'Helvetica'" font-size="20">THE</text>
	</g>
	<g clip-path="url(#SVGID_2_)">
		<text transform="matrix(1 0 0 1 428.9531 130.3262)" fill="#FFFFFF" font-family="'Helvetica'" font-size="20">Y</text>
	</g>
	<g clip-path="url(#SVGID_2_)">
		<text transform="matrix(1 0 0 1 441.9531 130.3262)" fill="#FFFFFF" font-family="'Helvetica'" font-size="20"> </text>
	</g>
	<g clip-path="url(#SVGID_2_)">
		<text transform="matrix(1 0 0 1 446.4331 130.3262)" fill="#FFFFFF" font-family="'Helvetica'" font-size="20">ARE USED IN</text>
	</g>
	<g clip-path="url(#SVGID_2_)">
		<text transform="matrix(1 0 0 1 574.2339 130.3262)" fill="#FFFFFF" font-family="'Helvetica'" font-size="20"> </text>
	</g>
	<g clip-path="url(#SVGID_2_)">
		<text transform="matrix(1 0 0 1 578.7129 130.3262)" fill="#FFFFFF" font-family="'Helvetica'" font-size="20">AGRICU</text>
	</g>
	<g clip-path="url(#SVGID_2_)">
		<text transform="matrix(1 0 0 1 656.4932 130.3262)" fill="#FFFFFF" font-family="'Helvetica'" font-size="20">L</text>
	</g>
	<g clip-path="url(#SVGID_2_)">
		<text transform="matrix(1 0 0 1 666.1533 130.3262)" fill="#FFFFFF" font-family="'Helvetica'" font-size="20">TURE, INDUST</text>
	</g>
	<g clip-path="url(#SVGID_2_)">
		<text transform="matrix(1 0 0 1 806.1533 130.3262)" fill="#FFFFFF" font-family="'Helvetica'" font-size="20">R</text>
	</g>
	<g clip-path="url(#SVGID_2_)">
		<text transform="matrix(1 0 0 1 820.2529 130.3262)" fill="#FFFFFF" font-family="'Helvetica'" font-size="20">Y</text>
	</g>
	<g clip-path="url(#SVGID_2_)">
		<text transform="matrix(1 0 0 1 831.0332 130.3262)" fill="#FFFFFF" font-family="'Helvetica'" font-size="20">,</text>
	</g>
	<g clip-path="url(#SVGID_2_)">
		<text transform="matrix(1 0 0 1 836.5928 130.3262)" fill="#FFFFFF" font-family="'Helvetica'" font-size="20"> </text>
	</g>
	<g clip-path="url(#SVGID_2_)">
		<text transform="matrix(1 0 0 1 841.0732 130.3262)" fill="#FFFFFF" font-family="'Helvetica'" font-size="20">AND SOME </text>
	</g>
	<g clip-path="url(#SVGID_2_)">
		<text transform="matrix(1 0 0 1 38.0532 154.3262)" fill="#FFFFFF" font-family="'Helvetica'" font-size="20">HOUSEHOLD PRODUCTS </text>
	</g>
	<g clip-path="url(#SVGID_2_)">
		<text transform="matrix(1 0 0 1 288.0737 154.3262)" fill="#FFFFFF" font-family="'Helvetica'" font-size="20"> </text>
	</g>
	<g clip-path="url(#SVGID_2_)">
		<text transform="matrix(1 0 0 1 292.5532 154.3262)" fill="#FFFFFF" font-family="'Helvetica'" font-size="20">AS PESTICIDES, SO</text>
	</g>
	<g clip-path="url(#SVGID_2_)">
		<text transform="matrix(1 0 0 1 483.7129 154.3262)" fill="#FFFFFF" font-family="'Helvetica'" font-size="20">L</text>
	</g>
	<g clip-path="url(#SVGID_2_)">
		<text transform="matrix(1 0 0 1 493.353 154.3262)" fill="#FFFFFF" font-family="'Helvetica'" font-size="20">VENTS,</text>
	</g>
	<g clip-path="url(#SVGID_2_)">
		<text transform="matrix(1 0 0 1 565.5933 154.3262)" fill="#FFFFFF" font-family="'Helvetica'" font-size="20"> </text>
	</g>
	<g clip-path="url(#SVGID_2_)">
		<text transform="matrix(1 0 0 1 570.0732 154.3262)" fill="#FFFFFF" font-family="'Helvetica'" font-size="20">AND EVEN PHARMACEUTICALS.</text>
	</g>
	<g clip-path="url(#SVGID_2_)">
		<defs>
			<rect id="SVGID_5_" width="1600" height="1150"/>
		</defs>
		<clipPath id="SVGID_6_">
			<use xlink:href="#SVGID_5_"  overflow="visible"/>
		</clipPath>
		<g opacity="0.4" clip-path="url(#SVGID_6_)">
			<g>
				<defs>
					<rect id="SVGID_7_" x="0.729" y="304.595" width="1600.231" height="675.624"/>
				</defs>
				<clipPath id="SVGID_8_">
					<use xlink:href="#SVGID_7_"  overflow="visible"/>
				</clipPath>
				<g clip-path="url(#SVGID_8_)">
					<defs>
						<rect id="SVGID_9_" x="0.73" y="304.595" width="1600.229" height="675.624"/>
					</defs>
					<clipPath id="SVGID_10_">
						<use xlink:href="#SVGID_9_"  overflow="visible"/>
					</clipPath>
					<path clip-path="url(#SVGID_10_)" fill="#FCF076" d="M314.486,416.619c0,0,67.857-27.356,103.856-27.356
						c35.998,0,28.444-15.512,98.995-7.22C551,386,553.5,362.5,598.476,353.4c13.132-2.657,37.024-3.9,63.062-7.712
						c38.704-5.666,42.877-36.16,93.904-40.11c72.058-5.578,67.059,14.42,114.046,14.101c30.977-0.21,42.998-4.348,80.496-4.453
						C1030.193,315,1138,443.5,1214.491,455.522c72.547,11.403,207.012,82.154,267.009,71.478c59.997-10.677,119.459-3,119.459-3
						l-0.229,456.219h-1600V476.206c0,0,75.704-1.525,143.264-16.876C207.21,444.965,314.486,416.619,314.486,416.619"/>
				</g>
			</g>
		</g>
		<path clip-path="url(#SVGID_6_)" fill="#FCF076" d="M0.5,429.5c0,0,98.701-36.601,156.16-34s154.953,23.905,231.45,68
			c76.496,44.095,101.995,42,101.995,42s50.946,8.408,90.72,42c39.774,33.592,123.961,87.589,144.864,89.089s73.4,3,136.397-40.498
			s284.123-52.39,349.945-13.997c54.001,31.498,52.039,49.994,107.535,79.494c37.998,20.199,147.584,43.997,214.488,48.497
			l66.904,4.5l-0.459,269.134H0.5V429.5z"/>
		<g opacity="0.4" clip-path="url(#SVGID_6_)">
			<g>
				<defs>
					<rect id="SVGID_11_" x="0.5" y="380.925" width="1600" height="600.794"/>
				</defs>
				<clipPath id="SVGID_12_">
					<use xlink:href="#SVGID_11_"  overflow="visible"/>
				</clipPath>
				<g clip-path="url(#SVGID_12_)">
					<defs>
						<rect id="SVGID_13_" x="0.5" y="380.925" width="1599.998" height="600.794"/>
					</defs>
					<clipPath id="SVGID_14_">
						<use xlink:href="#SVGID_13_"  overflow="visible"/>
					</clipPath>
					<path clip-path="url(#SVGID_14_)" fill="#FCF076" d="M314.257,418.119c0,0,67.857-27.356,103.856-27.356
						c35.998,0,28.498-15.965,98.995-7.22s130.87,53.675,180.392,57.965c13.347,1.157,34.463-4.363,47.597-3.46
						c39.024,2.683,70.805,16.582,107.399,22.782c36.594,6.199,122.089,66.514,203.085,69.151
						c80.996,2.637,115.496-11.091,152.993-11.091c37.498,0,47.957,1.337,83.994,11.427
						c70.722,19.799,137.995,55.686,197.992,45.009c59.997-10.677,109.939-27.455,109.939-27.455v433.848H0.5V477.706
						c0,0,75.704-1.525,143.264-16.876C206.981,446.465,314.257,418.119,314.257,418.119"/>
				</g>
			</g>
		</g>
		<path clip-path="url(#SVGID_6_)" fill="#627CBF" d="M0.5,753.582c0,0,97.458-5.415,116.562-5.415
			c19.103,0,59.103,4.163,71.769,5.415c12.667,1.252,90.001,13.918,101.334,15.918s164.668,17.334,178.001,18.667
			C481.5,789.5,537.5,806.834,557.5,814.834s64,19.999,158.667,20.666c94.666,0.667,203.334,16,308.001,48.667
			s108,22.666,136,23.333s72,13.333,100,16s123.135,60.219,206.233,60.219H0.5V753.582z"/>
		<path clip-path="url(#SVGID_6_)" fill="#FFFFFF" d="M741.5,633.5c0,0,192,42,219,66s-17,52-23,53s-100,12-117,15
			s-180.007,33.055-238,25c-72-10-97.656-28-214-32c-50.011-1.72-120.332-16-153.666-21s-128.711-5.416-214.334,2v-30.86
			c0,0,86.888-5.641,117-4.14c63.861,3.184,352,33.334,396,37.667s54,13.333,95,13.333s101-14,137-16s78-17,116-20
			s54-16.914,25-31.957s-33-12.043-49-15.043s-43-12-52-18s-46-17-57-19S741.5,633.5,741.5,633.5"/>
		<g opacity="0.7" clip-path="url(#SVGID_6_)">
			<g>
				<defs>
					<rect id="SVGID_15_" x="947.294" y="564.5" width="247.876" height="149.001"/>
				</defs>
				<clipPath id="SVGID_16_">
					<use xlink:href="#SVGID_15_"  overflow="visible"/>
				</clipPath>
				<g clip-path="url(#SVGID_16_)">
					<defs>
						<rect id="SVGID_17_" x="947.294" y="564.5" width="247.876" height="149.001"/>
					</defs>
					<clipPath id="SVGID_18_">
						<use xlink:href="#SVGID_17_"  overflow="visible"/>
					</clipPath>
					<path clip-path="url(#SVGID_18_)" fill="#FFFFFF" d="M1132.5,565.5c0,0,35.429,2.76,44.667,11
						c12.334,11.001,1.229,16.754-13.334,19.667c-21.662,4.333-100.368-1.021-124.941-0.667c-46.186,0.667-58.277,2.58-77.392,14
						c-18.655,11.146,3.333,30.334,38.904,32c28.083,1.315,69.096,4.001,100.065,3c32.374-1.046,56.53-2,63.697,15.334
						c2.363,5.716-23.666,9.333-42.666,10.333s-14.951-0.205-38.951,3.973s-49.138,9.604-59.054,12.36
						c-17.995,5.001-70.075,6.334-76.202,6.334l15.206,20.667c0,0,10.912-3.001,30.206-4.501s24.788-2.561,43.557-7.072
						c30.904-7.427,32.237-11.342,60.237-12.385s98.669-10.043,90.333-30.042c-2.588-6.21-9-27.667-37.333-28.334
						c-27.655-0.651-46.641,0.833-79.82-1.167s-70.661-2.5-84.67-6c-14.01-3.5-27.953-9.56,0-17c11.568-3.079,25.061,0.5,69.275,0.5
						s96.852-0.829,112.882-3.333c5.333-0.833,27.812-8.334,28-22.333c0.144-10.667-6.666-8.357-13.667-11.334
						c-11.54-4.906-27.5-6-27.5-6L1132.5,565.5"/>
				</g>
			</g>
		</g>
		<polygon clip-path="url(#SVGID_6_)" fill="#627CBF" points="961.5,565.5 961.5,526 1115.5,526 1121,490.5 1136.5,472 1149.5,490 
			1154,524 1154,565.5 		"/>
		<polygon clip-path="url(#SVGID_6_)" fill="#B3BA2D" points="961.5,526 969,488 983,469.5 1138,469.5 1153,489.5 1157,526 
			1154,526 1149.5,490 1136.5,472 1121,490.5 1115.5,526 		"/>
		
			<line clip-path="url(#SVGID_6_)" fill="none" stroke="#FCF076" stroke-miterlimit="10" x1="1085.075" y1="526" x2="1085.075" y2="565.5"/>
		
			<line clip-path="url(#SVGID_6_)" fill="none" stroke="#FCF076" stroke-miterlimit="10" x1="1092.772" y1="526" x2="1092.772" y2="565.5"/>
		
			<line clip-path="url(#SVGID_6_)" fill="none" stroke="#FCF076" stroke-miterlimit="10" x1="1100.47" y1="526" x2="1100.47" y2="565.5"/>
		
			<line clip-path="url(#SVGID_6_)" fill="none" stroke="#FCF076" stroke-miterlimit="10" x1="1108.167" y1="526" x2="1108.167" y2="565.5"/>
		
			<line clip-path="url(#SVGID_6_)" fill="none" stroke="#FCF076" stroke-miterlimit="10" x1="1061.983" y1="526" x2="1061.983" y2="565.5"/>
		
			<line clip-path="url(#SVGID_6_)" fill="none" stroke="#FCF076" stroke-miterlimit="10" x1="1069.68" y1="526" x2="1069.68" y2="565.5"/>
		
			<line clip-path="url(#SVGID_6_)" fill="none" stroke="#FCF076" stroke-miterlimit="10" x1="1077.379" y1="526" x2="1077.379" y2="565.5"/>
		
			<line clip-path="url(#SVGID_6_)" fill="none" stroke="#FCF076" stroke-miterlimit="10" x1="1038.892" y1="526" x2="1038.892" y2="565.5"/>
		
			<line clip-path="url(#SVGID_6_)" fill="none" stroke="#FCF076" stroke-miterlimit="10" x1="1046.588" y1="526" x2="1046.588" y2="565.5"/>
		
			<line clip-path="url(#SVGID_6_)" fill="none" stroke="#FCF076" stroke-miterlimit="10" x1="1054.285" y1="526" x2="1054.285" y2="565.5"/>
		
			<line clip-path="url(#SVGID_6_)" fill="none" stroke="#FCF076" stroke-miterlimit="10" x1="1015.799" y1="526" x2="1015.799" y2="565.5"/>
		
			<line clip-path="url(#SVGID_6_)" fill="none" stroke="#FCF076" stroke-miterlimit="10" x1="1023.496" y1="526" x2="1023.496" y2="565.5"/>
		
			<line clip-path="url(#SVGID_6_)" fill="none" stroke="#FCF076" stroke-miterlimit="10" x1="1031.193" y1="526" x2="1031.193" y2="565.5"/>
		
			<line clip-path="url(#SVGID_6_)" fill="none" stroke="#FCF076" stroke-miterlimit="10" x1="992.706" y1="526" x2="992.706" y2="565.5"/>
		
			<line clip-path="url(#SVGID_6_)" fill="none" stroke="#FCF076" stroke-miterlimit="10" x1="1000.404" y1="526" x2="1000.404" y2="565.5"/>
		
			<line clip-path="url(#SVGID_6_)" fill="none" stroke="#FCF076" stroke-miterlimit="10" x1="1008.102" y1="526" x2="1008.102" y2="565.5"/>
		
			<line clip-path="url(#SVGID_6_)" fill="none" stroke="#FCF076" stroke-miterlimit="10" x1="969.614" y1="526" x2="969.614" y2="565.5"/>
		
			<line clip-path="url(#SVGID_6_)" fill="none" stroke="#FCF076" stroke-miterlimit="10" x1="977.312" y1="526" x2="977.312" y2="565.5"/>
		
			<line clip-path="url(#SVGID_6_)" fill="none" stroke="#FCF076" stroke-miterlimit="10" x1="985.01" y1="526" x2="985.01" y2="565.5"/>
		<polygon clip-path="url(#SVGID_6_)" fill="#FCF076" points="1051.5,473 1063,473 1066.5,469.437 1069.5,469.437 1069.5,454 
			1051.5,454 		"/>
		<rect x="117.5" y="649" clip-path="url(#SVGID_6_)" fill="#FFFFFF" width="4.5" height="31.322"/>
		<rect x="167" y="657.221" clip-path="url(#SVGID_6_)" fill="#FFFFFF" width="4.5" height="31.322"/>
		<rect x="222" y="661.5" clip-path="url(#SVGID_6_)" fill="#FFFFFF" width="4.5" height="34.5"/>
		<rect x="282.508" y="657.221" clip-path="url(#SVGID_6_)" fill="#FFFFFF" width="3.234" height="31.322"/>
		<rect x="340.029" y="652.721" clip-path="url(#SVGID_6_)" fill="#FFFFFF" width="3.234" height="31.322"/>
		<rect x="491.766" y="660.221" clip-path="url(#SVGID_6_)" fill="#FFFFFF" width="3.234" height="31.322"/>
		<rect x="545.076" y="668.382" clip-path="url(#SVGID_6_)" fill="#FFFFFF" width="3.234" height="35.822"/>
		<rect x="593.986" y="681.56" clip-path="url(#SVGID_6_)" fill="#FFFFFF" width="3.234" height="31.322"/>
		<rect x="773.274" y="707.204" clip-path="url(#SVGID_6_)" fill="#FFFFFF" width="3.234" height="28.839"/>
		<rect x="822.361" y="701.721" clip-path="url(#SVGID_6_)" fill="#FFFFFF" width="2.313" height="23.822"/>
		<rect x="731.065" y="707.882" clip-path="url(#SVGID_6_)" fill="#FFFFFF" width="3.234" height="31.322"/>
		<rect x="684.266" y="699.721" clip-path="url(#SVGID_6_)" fill="#FFFFFF" width="3.234" height="31.322"/>
		<rect x="638.5" y="695.971" clip-path="url(#SVGID_6_)" fill="#FFFFFF" width="3.234" height="31.322"/>
		<rect x="861.5" y="695.971" clip-path="url(#SVGID_6_)" fill="#FFFFFF" width="2.318" height="23.822"/>
		<rect x="893.5" y="686.31" clip-path="url(#SVGID_6_)" fill="#FFFFFF" width="2.318" height="23.822"/>
		<rect x="875.849" y="672" clip-path="url(#SVGID_6_)" fill="#FFFFFF" width="1.27" height="16.543"/>
		<rect x="856.867" y="664.017" clip-path="url(#SVGID_6_)" fill="#FFFFFF" width="1.265" height="16.543"/>
		<rect x="836.735" y="659.11" clip-path="url(#SVGID_6_)" fill="#FFFFFF" width="1.265" height="16.543"/>
		<rect x="818.719" y="655.745" clip-path="url(#SVGID_6_)" fill="#FFFFFF" width="1.27" height="16.543"/>
		<rect x="799.735" y="647.071" clip-path="url(#SVGID_6_)" fill="#FFFFFF" width="1.265" height="19.311"/>
		<rect x="778.485" y="641.407" clip-path="url(#SVGID_6_)" fill="#FFFFFF" width="1.265" height="16.543"/>
		<rect x="759.735" y="638" clip-path="url(#SVGID_6_)" fill="#FFFFFF" width="1.265" height="11.679"/>
		<rect x="739.5" y="635" clip-path="url(#SVGID_6_)" fill="#FFFFFF" width="1.265" height="8.272"/>
		<rect x="63.5" y="645.721" clip-path="url(#SVGID_6_)" fill="#FFFFFF" width="4.5" height="31.322"/>
		<rect x="11" y="649" clip-path="url(#SVGID_6_)" fill="#FFFFFF" width="4.5" height="31.322"/>
		<polyline clip-path="url(#SVGID_6_)" fill="none" stroke="#FFFFFF" stroke-miterlimit="10" points="341.646,657.221 
			284.125,661.5 224.25,664.661 169.25,660.941 119.75,652.721 65.75,649 13.25,652.721 0.5,652.721 		"/>
		<polyline clip-path="url(#SVGID_6_)" fill="none" stroke="#FFFFFF" stroke-miterlimit="10" points="341.646,667.051 
			284.125,671.33 224.25,674.491 169.25,670.771 119.75,662.551 65.75,658.83 13.25,662.551 0.5,662.551 		"/>
		<polyline clip-path="url(#SVGID_6_)" fill="none" stroke="#FFFFFF" stroke-miterlimit="10" points="342.073,677.434 
			284.552,681.713 224.677,684.874 169.677,681.154 120.177,672.934 66.177,669.213 13.677,672.934 0.927,672.934 		"/>
		<polyline clip-path="url(#SVGID_6_)" fill="none" stroke="#FFFFFF" stroke-miterlimit="10" points="493.382,675.161 
			546.693,684.432 595.603,697.322 640.116,710.5 685.882,712.983 732.681,722.28 774.89,720.411 823.516,714.661 862.658,708.5 
			894.658,697.721 		"/>
		<polyline clip-path="url(#SVGID_6_)" fill="none" stroke="#FFFFFF" stroke-miterlimit="10" points="493.383,684.322 
			546.693,692.595 595.604,705.483 640.117,718.661 685.883,721.145 732.682,730.441 774.891,728.572 823.517,720.822 
			862.659,714.661 894.659,703.883 		"/>
		<polyline clip-path="url(#SVGID_6_)" fill="none" stroke="#FFFFFF" stroke-miterlimit="10" points="894.659,692.941 
			862.659,701.721 823.516,707.882 774.89,711.632 732.681,713.501 685.883,704.204 640.117,701.721 595.603,688.543 
			546.693,675.653 493.383,666.382 		"/>
		<polyline clip-path="url(#SVGID_6_)" fill="none" stroke="#FFFFFF" stroke-width="0.5" stroke-miterlimit="10" points="
			725,636.25 740.132,636.25 760.368,640.25 779.118,645.84 800.367,652.679 819.355,660.95 837.367,663.25 857.5,668.382 
			876.486,675.653 894.659,692.941 		"/>
		<polyline clip-path="url(#SVGID_6_)" fill="none" stroke="#FFFFFF" stroke-width="0.5" stroke-miterlimit="10" points="
			725,636.407 740.132,638.407 760.368,643.407 779.118,649.997 800.367,656.836 819.355,665.107 837.367,668.407 857.5,672.539 
			876.486,679.811 894.659,698.099 		"/>
		<polyline clip-path="url(#SVGID_6_)" fill="none" stroke="#FFFFFF" stroke-width="0.5" stroke-miterlimit="10" points="
			725,636.029 740.132,641.029 760.368,646.029 779.118,653.619 800.367,661.458 819.355,668.729 837.367,672.029 857.5,676.161 
			876.486,684.433 894.659,703.721 		"/>
		<polygon clip-path="url(#SVGID_6_)" fill="#627CBF" points="1427.988,391.627 1423.037,492.294 1446.69,492.294 1442.841,391.078 
					"/>
		<polygon clip-path="url(#SVGID_6_)" fill="#FFFFFF" points="1427.546,400.619 1427.154,408.522 1443.399,408.571 
			1443.109,400.619 		"/>
		<polygon clip-path="url(#SVGID_6_)" fill="#FFFFFF" points="1426.603,418.527 1426.229,426.398 1444.134,426.365 
			1443.841,418.527 		"/>
		<polygon clip-path="url(#SVGID_6_)" fill="#FFFFFF" points="1425.659,436.792 1425.268,444.598 1444.848,444.598 
			1444.555,436.759 		"/>
		<polygon clip-path="url(#SVGID_6_)" fill="#FFFFFF" points="1424.749,455.59 1424.326,463.396 1445.597,463.363 1445.27,455.558 
					"/>
		<polygon clip-path="url(#SVGID_6_)" fill="#FFFFFF" points="1423.806,475.039 1423.414,482.879 1446.312,482.911 
			1445.987,475.009 		"/>
		<polygon clip-path="url(#SVGID_6_)" fill="#627CBF" points="1463.008,391.79 1458.057,492.456 1481.71,492.456 1477.86,391.24 		
			"/>
		<polygon clip-path="url(#SVGID_6_)" fill="#FFFFFF" points="1462.565,400.781 1462.174,408.686 1478.419,408.733 
			1478.129,400.781 		"/>
		<polygon clip-path="url(#SVGID_6_)" fill="#FFFFFF" points="1461.622,418.689 1461.248,426.562 1479.153,426.527 1478.86,418.689 
					"/>
		<polygon clip-path="url(#SVGID_6_)" fill="#FFFFFF" points="1460.679,436.955 1460.289,444.76 1479.867,444.76 1479.574,436.923 
					"/>
		<polygon clip-path="url(#SVGID_6_)" fill="#FFFFFF" points="1459.769,455.752 1459.346,463.559 1480.616,463.526 1480.289,455.72 
					"/>
		<polygon clip-path="url(#SVGID_6_)" fill="#FFFFFF" points="1458.825,475.203 1458.434,483.042 1481.332,483.073 
			1481.007,475.171 		"/>
		<polygon clip-path="url(#SVGID_6_)" fill="#FFFFFF" points="1534.546,492.061 1534.546,480.104 1505.07,466.438 1505.07,492.061 
			1501.227,492.061 1501.227,480.104 1471.755,466.438 1471.755,492.061 1462.352,492.061 1462.352,492.165 1449.54,492.165 
			1449.54,492.061 1444.41,492.061 1444.41,492.121 1431.599,492.121 1431.599,492.061 1420.494,492.061 1420.494,527.94 
			1543.517,527.94 1543.517,492.061 		"/>
		<polygon clip-path="url(#SVGID_6_)" fill="#627CBF" points="1361.224,505.25 1361.089,383.502 1311.362,383.502 1311.362,504.98 
					"/>
		<rect x="1314.065" y="390.124" clip-path="url(#SVGID_6_)" fill="#FFFFFF" width="43.646" height="2.702"/>
		<rect x="1314.065" y="398.366" clip-path="url(#SVGID_6_)" fill="#FFFFFF" width="43.646" height="2.703"/>
		<rect x="1314.065" y="406.743" clip-path="url(#SVGID_6_)" fill="#FFFFFF" width="43.646" height="2.703"/>
		<rect x="1314.065" y="414.851" clip-path="url(#SVGID_6_)" fill="#FFFFFF" width="43.646" height="2.703"/>
		<rect x="1314.065" y="422.959" clip-path="url(#SVGID_6_)" fill="#FFFFFF" width="43.646" height="2.702"/>
		<rect x="1314.065" y="431.202" clip-path="url(#SVGID_6_)" fill="#FFFFFF" width="43.646" height="2.702"/>
		<rect x="1314.065" y="439.579" clip-path="url(#SVGID_6_)" fill="#FFFFFF" width="43.646" height="2.703"/>
		<rect x="1314.065" y="447.687" clip-path="url(#SVGID_6_)" fill="#FFFFFF" width="43.646" height="2.703"/>
		<rect x="1314.065" y="455.795" clip-path="url(#SVGID_6_)" fill="#FFFFFF" width="43.646" height="2.702"/>
		<rect x="1313.93" y="455.795" clip-path="url(#SVGID_6_)" fill="#FFFFFF" width="43.646" height="2.702"/>
		<rect x="1313.93" y="464.037" clip-path="url(#SVGID_6_)" fill="#FFFFFF" width="43.646" height="2.702"/>
		<rect x="1313.93" y="472.414" clip-path="url(#SVGID_6_)" fill="#FFFFFF" width="43.646" height="2.703"/>
		<rect x="1313.93" y="480.522" clip-path="url(#SVGID_6_)" fill="#FFFFFF" width="43.646" height="2.703"/>
		<rect x="1313.93" y="488.629" clip-path="url(#SVGID_6_)" fill="#FFFFFF" width="43.646" height="2.703"/>
		<rect x="1313.93" y="496.872" clip-path="url(#SVGID_6_)" fill="#FFFFFF" width="43.646" height="2.702"/>
		<polygon clip-path="url(#SVGID_6_)" fill="#627CBF" points="1292.75,510.23 1292.75,457.261 1295.723,457.261 1295.723,443.343 
			1299.642,443.343 1299.642,457.261 1305.182,457.261 1305.182,451.45 1309.101,451.45 1309.101,456.991 1321.937,456.991 
			1321.937,510.23 		"/>
		<rect x="1296.737" y="459.828" clip-path="url(#SVGID_6_)" fill="#FFFFFF" width="21.957" height="2.094"/>
		<rect x="1296.737" y="466.109" clip-path="url(#SVGID_6_)" fill="#FFFFFF" width="21.957" height="2.094"/>
		<rect x="1296.669" y="472.391" clip-path="url(#SVGID_6_)" fill="#FFFFFF" width="21.957" height="2.094"/>
		<rect x="1296.669" y="478.777" clip-path="url(#SVGID_6_)" fill="#FFFFFF" width="21.957" height="2.094"/>
		<rect x="1296.669" y="485.268" clip-path="url(#SVGID_6_)" fill="#FFFFFF" width="21.957" height="2.094"/>
		<rect x="1296.669" y="491.55" clip-path="url(#SVGID_6_)" fill="#FFFFFF" width="21.957" height="2.094"/>
		<rect x="1296.669" y="497.831" clip-path="url(#SVGID_6_)" fill="#FFFFFF" width="21.957" height="2.094"/>
		<rect x="1296.669" y="504.218" clip-path="url(#SVGID_6_)" fill="#FFFFFF" width="21.957" height="2.094"/>
		<polygon clip-path="url(#SVGID_6_)" fill="#627CBF" points="1364.873,519.98 1364.873,466.741 1368.926,466.741 1368.926,454.579 
			1376.088,454.579 1376.088,466.741 1387.844,466.741 1387.844,458.903 1393.384,458.903 1393.384,467.011 1407.301,467.011 
			1407.301,455.66 1414.193,455.66 1414.193,467.011 1415.409,467.011 1415.409,520.115 		"/>
		<rect x="1369.289" y="470.254" clip-path="url(#SVGID_6_)" fill="#FFFFFF" width="8.389" height="9.369"/>
		<rect x="1380.71" y="470.073" clip-path="url(#SVGID_6_)" fill="#FFFFFF" width="8.142" height="9.37"/>
		<rect x="1391.881" y="469.894" clip-path="url(#SVGID_6_)" fill="#FFFFFF" width="7.896" height="9.369"/>
		<rect x="1402.872" y="469.713" clip-path="url(#SVGID_6_)" fill="#FFFFFF" width="7.896" height="9.369"/>
		<rect x="1369.289" y="482.506" clip-path="url(#SVGID_6_)" fill="#FFFFFF" width="8.389" height="9.369"/>
		<rect x="1380.71" y="482.325" clip-path="url(#SVGID_6_)" fill="#FFFFFF" width="8.142" height="9.369"/>
		<rect x="1391.881" y="482.145" clip-path="url(#SVGID_6_)" fill="#FFFFFF" width="7.896" height="9.369"/>
		<rect x="1402.872" y="481.964" clip-path="url(#SVGID_6_)" fill="#FFFFFF" width="7.896" height="9.369"/>
		<rect x="1369.289" y="494.757" clip-path="url(#SVGID_6_)" fill="#FFFFFF" width="8.389" height="9.369"/>
		<rect x="1380.71" y="494.577" clip-path="url(#SVGID_6_)" fill="#FFFFFF" width="8.142" height="9.369"/>
		<rect x="1391.881" y="494.397" clip-path="url(#SVGID_6_)" fill="#FFFFFF" width="7.896" height="9.369"/>
		<rect x="1402.872" y="494.215" clip-path="url(#SVGID_6_)" fill="#FFFFFF" width="7.896" height="9.37"/>
		<rect x="1369.449" y="506.828" clip-path="url(#SVGID_6_)" fill="#FFFFFF" width="8.389" height="9.369"/>
		<rect x="1380.866" y="506.648" clip-path="url(#SVGID_6_)" fill="#FFFFFF" width="8.143" height="9.369"/>
		<rect x="1392.033" y="506.468" clip-path="url(#SVGID_6_)" fill="#FFFFFF" width="7.896" height="9.369"/>
		<rect x="1403.021" y="506.287" clip-path="url(#SVGID_6_)" fill="#FFFFFF" width="7.897" height="9.369"/>
		<polygon clip-path="url(#SVGID_6_)" fill="#627CBF" points="1546.693,528.115 1546.693,487.172 1559.53,487.172 1559.53,483.253 
			1567.232,483.253 1567.232,487.172 1568.854,487.172 1568.854,470.821 1575.744,470.821 1575.744,487.172 1588.176,487.172 
			1588.176,479.064 1594.933,479.064 1594.933,487.307 1597.5,487.307 1597.5,528.115 		"/>
		<rect x="1551.38" y="491.457" clip-path="url(#SVGID_6_)" fill="#FFFFFF" width="8.073" height="9.055"/>
		<rect x="1562.175" y="491.283" clip-path="url(#SVGID_6_)" fill="#FFFFFF" width="7.827" height="9.054"/>
		<rect x="1572.969" y="491.109" clip-path="url(#SVGID_6_)" fill="#FFFFFF" width="8.074" height="9.054"/>
		<rect x="1583.84" y="490.934" clip-path="url(#SVGID_6_)" fill="#FFFFFF" width="7.828" height="9.054"/>
		<rect x="1551.38" y="503.297" clip-path="url(#SVGID_6_)" fill="#FFFFFF" width="8.073" height="9.054"/>
		<rect x="1562.175" y="503.123" clip-path="url(#SVGID_6_)" fill="#FFFFFF" width="7.827" height="9.054"/>
		<rect x="1572.969" y="502.948" clip-path="url(#SVGID_6_)" fill="#FFFFFF" width="8.074" height="9.055"/>
		<rect x="1583.84" y="502.775" clip-path="url(#SVGID_6_)" fill="#FFFFFF" width="7.828" height="9.054"/>
		<rect x="1551.535" y="514.962" clip-path="url(#SVGID_6_)" fill="#FFFFFF" width="8.072" height="9.054"/>
		<rect x="1562.324" y="514.788" clip-path="url(#SVGID_6_)" fill="#FFFFFF" width="7.828" height="9.054"/>
		<rect x="1573.123" y="514.615" clip-path="url(#SVGID_6_)" fill="#FFFFFF" width="8.074" height="9.054"/>
		<rect x="1583.99" y="514.44" clip-path="url(#SVGID_6_)" fill="#FFFFFF" width="7.828" height="9.054"/>
		<path clip-path="url(#SVGID_6_)" fill="#7B7C35" d="M1557.489,450.07c0,4.376,3.547,7.923,7.923,7.923s7.924-3.547,7.924-7.923
			s-3.548-7.924-7.924-7.924S1557.489,445.694,1557.489,450.07"/>
		<path clip-path="url(#SVGID_6_)" fill="#7B7C35" d="M1564.99,458.61c0,2.735,2.217,4.953,4.952,4.953
			c2.734,0,4.953-2.218,4.953-4.953c0-2.735-2.219-4.953-4.953-4.953C1567.207,453.657,1564.99,455.875,1564.99,458.61"/>
		<path clip-path="url(#SVGID_6_)" fill="#7B7C35" d="M1555.904,432.639c0,8.533,6.918,15.451,15.45,15.451
			c8.534,0,15.45-6.918,15.45-15.451c0-8.534-6.916-15.451-15.45-15.451C1562.822,417.188,1555.904,424.105,1555.904,432.639"/>
		<path clip-path="url(#SVGID_6_)" fill="#7B7C35" d="M1275.927,413.765c0,6.421,5.204,11.625,11.625,11.625
			c6.42,0,11.626-5.204,11.626-11.625c0-6.42-5.206-11.626-11.626-11.626C1281.131,402.139,1275.927,407.345,1275.927,413.765"/>
		<path clip-path="url(#SVGID_6_)" fill="#7B7C35" d="M1286.933,426.294c0,4.013,3.252,7.267,7.266,7.267
			c4.012,0,7.268-3.254,7.268-7.267s-3.256-7.267-7.268-7.267C1290.185,419.027,1286.933,422.281,1286.933,426.294"/>
		<path clip-path="url(#SVGID_6_)" fill="#7B7C35" d="M1268.602,388.189c0,12.519,10.15,22.669,22.669,22.669
			c12.521,0,22.67-10.15,22.67-22.669c0-12.521-10.149-22.67-22.67-22.67C1278.752,365.52,1268.602,375.668,1268.602,388.189"/>
		<path clip-path="url(#SVGID_6_)" fill="#7B7C35" d="M1406.098,443.181c0,2.789,2.262,5.051,5.051,5.051s5.051-2.262,5.051-5.051
			c0-2.79-2.262-5.051-5.051-5.051S1406.098,440.391,1406.098,443.181"/>
		<path clip-path="url(#SVGID_6_)" fill="#7B7C35" d="M1404.098,432.848c0,3.71,3.008,6.718,6.718,6.718s6.718-3.008,6.718-6.718
			c0-3.711-3.008-6.718-6.718-6.718S1404.098,429.137,1404.098,432.848"/>
		<path clip-path="url(#SVGID_6_)" fill="#7B7C35" d="M1408.431,449.681c0,1.408,1.143,2.551,2.551,2.551s2.551-1.143,2.551-2.551
			c0-1.409-1.143-2.551-2.551-2.551S1408.431,448.272,1408.431,449.681"/>
		<path clip-path="url(#SVGID_6_)" fill="#7B7C35" d="M1400.099,417.848c0,5.919,4.799,10.718,10.718,10.718
			s10.718-4.799,10.718-10.718c0-5.921-4.799-10.718-10.718-10.718S1400.099,411.927,1400.099,417.848"/>
		<path clip-path="url(#SVGID_6_)" fill="#7B7C35" d="M1363.504,428.427c0,5.487,4.45,9.935,9.936,9.935
			c5.487,0,9.936-4.448,9.936-9.935c0-5.488-4.448-9.935-9.936-9.935C1367.954,418.492,1363.504,422.939,1363.504,428.427"/>
		<path clip-path="url(#SVGID_6_)" fill="#7B7C35" d="M1359.57,408.102c0,7.298,5.918,13.214,13.215,13.214
			c7.298,0,13.213-5.916,13.213-13.214c0-7.3-5.915-13.214-13.213-13.214C1365.488,394.888,1359.57,400.802,1359.57,408.102"/>
		<path clip-path="url(#SVGID_6_)" fill="#7B7C35" d="M1368.094,441.214c0,2.769,2.247,5.017,5.017,5.017
			c2.771,0,5.019-2.248,5.019-5.017c0-2.773-2.247-5.018-5.019-5.018C1370.341,436.196,1368.094,438.441,1368.094,441.214"/>
		<path clip-path="url(#SVGID_6_)" fill="#7B7C35" d="M1351.704,378.596c0,11.643,9.438,21.083,21.083,21.083
			c11.643,0,21.082-9.44,21.082-21.083c0-11.646-9.439-21.082-21.082-21.082C1361.143,357.514,1351.704,366.95,1351.704,378.596"/>
		<path clip-path="url(#SVGID_6_)" fill="#7B7C35" d="M1585.315,465.576c0,3.386,2.746,6.132,6.133,6.132s6.132-2.746,6.132-6.132
			c0-3.388-2.745-6.132-6.132-6.132S1585.315,462.188,1585.315,465.576"/>
		<path clip-path="url(#SVGID_6_)" fill="#7B7C35" d="M1582.888,453.03c0,4.505,3.651,8.157,8.155,8.157
			c4.505,0,8.156-3.652,8.156-8.157s-3.651-8.156-8.156-8.156C1586.539,444.874,1582.888,448.525,1582.888,453.03"/>
		<path clip-path="url(#SVGID_6_)" fill="#7B7C35" d="M1588.148,473.468c0,1.709,1.387,3.097,3.097,3.097s3.097-1.388,3.097-3.097
			c0-1.712-1.387-3.098-3.097-3.098S1588.148,471.756,1588.148,473.468"/>
		<path clip-path="url(#SVGID_6_)" fill="#7B7C35" d="M1425.001,330.466c0,12.858,10.422,23.28,23.279,23.28
			s23.282-10.422,23.282-23.28c0-12.857-10.425-23.281-23.282-23.281S1425.001,317.609,1425.001,330.466"/>
		<path clip-path="url(#SVGID_6_)" fill="#7B7C35" d="M1423.429,355.345c0,8.036,6.516,14.552,14.551,14.552
			s14.551-6.516,14.551-14.552s-6.516-14.551-14.551-14.551S1423.429,347.309,1423.429,355.345"/>
		<path clip-path="url(#SVGID_6_)" fill="#7B7C35" d="M1429.345,301.25c0,17.34,14.057,31.396,31.396,31.396
			c17.341,0,31.398-14.056,31.398-31.396c0-17.341-14.058-31.397-31.398-31.397C1443.401,269.854,1429.345,283.91,1429.345,301.25"
			/>
		<path clip-path="url(#SVGID_6_)" fill="#7B7C35" d="M1462.515,309.133c0,13.963,11.317,25.28,25.28,25.28
			c13.962,0,25.281-11.317,25.281-25.28c0-13.962-11.319-25.281-25.281-25.281C1473.832,283.853,1462.515,295.171,1462.515,309.133"
			/>
		<path clip-path="url(#SVGID_6_)" fill="#7B7C35" d="M1455.858,259.417c0,27.004,21.893,48.897,48.897,48.897
			s48.896-21.893,48.896-48.897c0-27.006-21.892-48.897-48.896-48.897S1455.858,232.412,1455.858,259.417"/>
		<path clip-path="url(#SVGID_6_)" fill="#7B7C35" d="M1464.562,362.136c0,6.227,5.047,11.274,11.273,11.274
			s11.274-5.047,11.274-11.274s-5.048-11.274-11.274-11.274S1464.562,355.909,1464.562,362.136"/>
		<path clip-path="url(#SVGID_6_)" fill="#7B7C35" d="M1464.801,376.851c0,3.892,3.155,7.047,7.047,7.047
			c3.891,0,7.046-3.155,7.046-7.047s-3.155-7.047-7.046-7.047C1467.956,369.804,1464.801,372.959,1464.801,376.851"/>
		<path clip-path="url(#SVGID_6_)" fill="#7B7C35" d="M1428.134,373.184c0,3.892,3.155,7.047,7.047,7.047s7.046-3.155,7.046-7.047
			s-3.154-7.047-7.046-7.047S1428.134,369.292,1428.134,373.184"/>
		<path clip-path="url(#SVGID_6_)" fill="#7B7C35" d="M1462.655,342.679c0,9.606,7.785,17.391,17.391,17.391
			s17.392-7.785,17.392-17.391c0-9.605-7.786-17.391-17.392-17.391S1462.655,333.074,1462.655,342.679"/>
		<path clip-path="url(#SVGID_6_)" fill="#7B7C35" d="M105.821,427.934c16.817-10.064,22.29-31.852,12.227-48.668
			c-10.063-16.818-31.855-22.295-48.671-12.232c-16.817,10.064-22.292,31.858-12.227,48.675
			C67.212,432.525,89.004,437.998,105.821,427.934"/>
		<path clip-path="url(#SVGID_6_)" fill="#7B7C35" d="M64.225,448.928c16.987-10.165,22.516-32.174,12.351-49.161
			c-10.165-16.986-32.176-22.517-49.162-12.351c-16.986,10.165-22.516,32.176-12.351,49.162
			C25.228,453.564,47.238,459.094,64.225,448.928"/>
		<path clip-path="url(#SVGID_6_)" fill="#7B7C35" d="M48.784,410.048c12.596-7.538,16.697-23.857,9.159-36.453
			c-7.537-12.595-23.858-16.697-36.454-9.158c-12.596,7.537-16.696,23.858-9.159,36.454
			C19.868,413.487,36.189,417.585,48.784,410.048"/>
		<path clip-path="url(#SVGID_6_)" fill="#7B7C35" d="M9.149,466.57c24.56-14.697,32.555-46.524,17.857-71.083
			c-14.698-24.562-46.523-32.556-71.083-17.859c-24.561,14.699-32.557,46.523-17.858,71.084
			C-47.238,473.271-15.413,481.268,9.149,466.57"/>
		<path clip-path="url(#SVGID_6_)" fill="#7B7C35" d="M148.835,414.945c13.138-7.861,17.41-24.881,9.55-38.014
			c-7.857-13.129-24.875-17.407-38.011-9.546c-13.131,7.857-17.409,24.879-9.553,38.01
			C118.683,418.528,135.705,422.802,148.835,414.945"/>
		<path clip-path="url(#SVGID_6_)" fill="#7B7C35" d="M250.047,381.119c3.814-2.282,5.054-7.222,2.773-11.034
			c-2.281-3.812-7.221-5.053-11.035-2.771c-3.811,2.28-5.052,7.221-2.772,11.033C241.294,382.159,246.235,383.399,250.047,381.119"
			/>
		<path clip-path="url(#SVGID_6_)" fill="#7B7C35" d="M208.897,405.805c12.596-7.538,16.695-23.856,9.158-36.451
			c-7.537-12.596-23.858-16.698-36.454-9.161c-12.596,7.538-16.695,23.861-9.157,36.456
			C179.98,409.244,196.302,413.343,208.897,405.805"/>
		<path clip-path="url(#SVGID_6_)" fill="#7B7C35" d="M234.191,392.76c7.871-4.711,10.433-14.913,5.724-22.784
			c-4.712-7.871-14.912-10.435-22.784-5.724c-7.874,4.712-10.435,14.912-5.725,22.784
			C216.117,394.907,226.318,397.471,234.191,392.76"/>
		<path clip-path="url(#SVGID_6_)" fill="#7B7C35" d="M178.578,408.377c8.574-5.132,11.365-16.246,6.235-24.821
			c-5.132-8.574-16.245-11.367-24.821-6.235c-8.576,5.133-11.366,16.245-6.236,24.82C158.889,410.716,170,413.509,178.578,408.377"
			/>
		<path clip-path="url(#SVGID_6_)" fill="#7B7C35" d="M1347.067,710.549c8.491,0.314,15.63-6.319,15.942-14.808
			c0.315-8.492-6.314-15.631-14.806-15.944c-8.493-0.315-15.63,6.314-15.943,14.809
			C1331.946,703.094,1338.575,710.236,1347.067,710.549"/>
		<path clip-path="url(#SVGID_6_)" fill="#7B7C35" d="M1320.336,713.807c7.866,0.291,14.479-5.852,14.769-13.717
			c0.291-7.865-5.851-14.476-13.716-14.766c-7.867-0.291-14.477,5.849-14.768,13.713
			C1306.33,706.902,1312.469,713.516,1320.336,713.807"/>
		<path clip-path="url(#SVGID_6_)" fill="#7B7C35" d="M1254.238,716.713c11.196,0.414,20.618-8.336,21.032-19.531
			c0.415-11.205-8.341-20.627-19.531-21.038c-11.207-0.415-20.622,8.337-21.033,19.54
			C1234.291,706.88,1243.03,716.298,1254.238,716.713"/>
		<path clip-path="url(#SVGID_6_)" fill="#7B7C35" d="M1288.223,721.109c12.549,0.464,23.099-9.335,23.562-21.883
			c0.464-12.548-9.334-23.096-21.882-23.561c-12.553-0.465-23.099,9.334-23.562,21.883
			C1265.877,710.096,1275.671,720.646,1288.223,721.109"/>
		<path clip-path="url(#SVGID_6_)" fill="#7B7C35" d="M1146.937,713.611c-5.914,0.22-10.886-4.4-11.104-10.311
			c-0.218-5.915,4.399-10.887,10.312-11.105c5.915-0.219,10.885,4.399,11.103,10.312
			C1157.467,708.42,1152.85,713.394,1146.937,713.611"/>
		<path clip-path="url(#SVGID_6_)" fill="#7B7C35" d="M1168.999,717.042c-7.865,0.291-14.478-5.852-14.769-13.716
			c-0.291-7.866,5.852-14.476,13.717-14.767s14.477,5.849,14.768,13.713C1183.005,710.138,1176.867,716.751,1168.999,717.042"/>
		<path clip-path="url(#SVGID_6_)" fill="#7B7C35" d="M1201.113,724.346c-12.549,0.463-23.1-9.335-23.562-21.884
			c-0.464-12.548,9.334-23.097,21.883-23.561c12.553-0.465,23.099,9.334,23.562,21.883
			C1223.459,713.332,1213.665,723.881,1201.113,724.346"/>
		<path clip-path="url(#SVGID_6_)" fill="#7B7C35" d="M1228.252,645.838c-18.077,4.787-28.854,23.323-24.066,41.4
			c4.787,18.08,23.323,28.854,41.4,24.069c18.08-4.788,28.854-23.323,24.067-41.403
			C1264.867,651.827,1246.332,641.053,1228.252,645.838"/>
		<path clip-path="url(#SVGID_6_)" fill="#7B7C35" d="M1293.993,613.053c-24.011,6.358-38.32,30.977-31.964,54.985
			c6.358,24.01,30.976,38.32,54.984,31.963c24.013-6.357,38.321-30.975,31.963-54.984
			C1342.621,621.007,1318.004,606.695,1293.993,613.053"/>
		<path clip-path="url(#SVGID_6_)" fill="#7B7C35" d="M1360.284,598.451c-26.139,6.921-41.719,33.723-34.798,59.861
			c6.922,26.141,33.723,41.72,59.861,34.799c26.142-6.922,41.721-33.722,34.799-59.861
			C1413.227,607.111,1386.426,591.529,1360.284,598.451"/>
		<path clip-path="url(#SVGID_6_)" fill="#7B7C35" d="M1588.018,703.916c-13.405,3.549-21.395,17.293-17.845,30.697
			c3.549,13.405,17.293,21.397,30.698,17.847c13.406-3.548,21.396-17.295,17.846-30.7
			C1615.168,708.356,1601.423,700.366,1588.018,703.916"/>
		<path clip-path="url(#SVGID_6_)" fill="#7B7C35" d="M1561.646,705.909c-8.378,2.219-13.372,10.81-11.153,19.188
			c2.217,8.377,10.809,13.371,19.188,11.153c8.378-2.218,13.371-10.811,11.152-19.187
			C1578.614,708.686,1570.024,703.69,1561.646,705.909"/>
		<path clip-path="url(#SVGID_6_)" fill="#7B7C35" d="M1565.826,656.623c-18.078,4.787-28.854,23.323-24.066,41.4
			c4.787,18.078,23.322,28.854,41.4,24.069c18.08-4.788,28.854-23.324,24.067-41.402
			C1602.44,662.612,1583.906,651.838,1565.826,656.623"/>
		<path clip-path="url(#SVGID_6_)" fill="#7B7C35" d="M1632.302,634.519c-26.139,6.92-41.719,33.722-34.798,59.861
			c6.922,26.14,33.723,41.72,59.861,34.799c26.142-6.922,41.721-33.722,34.799-59.862
			C1685.244,643.178,1658.443,627.597,1632.302,634.519"/>
		<path clip-path="url(#SVGID_6_)" fill="#7B7C35" d="M1545.529,706.37c-5.204,1.377-8.305,6.713-6.928,11.916
			s6.713,8.305,11.918,6.927c5.201-1.377,8.305-6.713,6.926-11.917C1556.067,708.093,1550.732,704.991,1545.529,706.37"/>
		<path clip-path="url(#SVGID_6_)" fill="#7B7C35" d="M1528.062,623.009c-24.314,6.439-38.807,31.368-32.368,55.682
			c6.438,24.315,31.368,38.808,55.68,32.371c24.318-6.439,38.81-31.369,32.372-55.685
			C1577.308,631.063,1552.379,616.573,1528.062,623.009"/>
		<path clip-path="url(#SVGID_6_)" fill="#7B7C35" d="M1480.601,615.138c-24.387,6.456-38.921,31.462-32.465,55.849
			c6.457,24.388,31.462,38.924,55.849,32.467c24.389-6.459,38.924-31.463,32.467-55.85
			C1529.993,623.216,1504.99,608.679,1480.601,615.138"/>
	</g>
	<g clip-path="url(#SVGID_2_)">
		<text transform="matrix(1 0 0 1 40.5332 210.9224)" fill="#627CBF" font-family="'Helvetica-Bold'" font-size="14">WHERE DOES IT COME FROM?</text>
	</g>
	<g clip-path="url(#SVGID_2_)">
		<text transform="matrix(1 0 0 1 40.5332 227.7227)" fill="#FFFFFF" font-family="'Helvetica'" font-size="14">POPs come from industrial</text>
	</g>
	<g clip-path="url(#SVGID_2_)">
		<text transform="matrix(1 0 0 1 40.5332 244.5225)" fill="#FFFFFF" font-family="'Helvetica'" font-size="14">and agricultural activities.</text>
	</g>
	<g clip-path="url(#SVGID_2_)">
		<defs>
			<rect id="SVGID_19_" width="1600" height="1150"/>
		</defs>
		<clipPath id="SVGID_20_">
			<use xlink:href="#SVGID_19_"  overflow="visible"/>
		</clipPath>
		<g opacity="0.3" clip-path="url(#SVGID_20_)">
			<g>
				<defs>
					<rect id="SVGID_21_" x="257.098" y="186.899" width="43" height="72.333"/>
				</defs>
				<clipPath id="SVGID_22_">
					<use xlink:href="#SVGID_21_"  overflow="visible"/>
				</clipPath>
				<polygon clip-path="url(#SVGID_22_)" fill="#FFFFFF" points="257.099,186.899 257.099,186.9 281.891,223.566 257.099,259.231 
					257.099,259.232 274.958,259.232 300.098,223.822 275.958,186.899 				"/>
			</g>
		</g>
	</g>
	<g clip-path="url(#SVGID_2_)">
		<text transform="matrix(1 0 0 1 328.7949 209.9224)" fill="#627CBF" font-family="'Helvetica-Bold'" font-size="14">WH</text>
	</g>
	<g clip-path="url(#SVGID_2_)">
		<text transform="matrix(1 0 0 1 352.1191 209.9224)" fill="#627CBF" font-family="'Helvetica-Bold'" font-size="14">A</text>
	</g>
	<g clip-path="url(#SVGID_2_)">
		<text transform="matrix(1 0 0 1 361.2051 209.9224)" fill="#627CBF" font-family="'Helvetica-Bold'" font-size="14">T</text>
	</g>
	<g clip-path="url(#SVGID_2_)">
		<text transform="matrix(1 0 0 1 369.7588 209.9224)" fill="#627CBF" font-family="'Helvetica-Bold'" font-size="14"> </text>
	</g>
	<g clip-path="url(#SVGID_2_)">
		<text transform="matrix(1 0 0 1 373.147 209.9224)" fill="#627CBF" font-family="'Helvetica-Bold'" font-size="14">ARE THE RISKS?</text>
	</g>
	<g clip-path="url(#SVGID_2_)">
		<text transform="matrix(1 0 0 1 328.7949 226.7227)" fill="#FFFFFF" font-family="'Helvetica'" font-size="14">Exposure can adversely affect</text>
	</g>
	<g clip-path="url(#SVGID_2_)">
		<text transform="matrix(1 0 0 1 328.7949 243.5225)" fill="#FFFFFF" font-family="'Helvetica'" font-size="14">both humans and the environment.</text>
	</g>
	<g clip-path="url(#SVGID_2_)">
		<defs>
			<rect id="SVGID_23_" width="1600" height="1150"/>
		</defs>
		<clipPath id="SVGID_24_">
			<use xlink:href="#SVGID_23_"  overflow="visible"/>
		</clipPath>
		<g opacity="0.3" clip-path="url(#SVGID_24_)">
			<g>
				<defs>
					<rect id="SVGID_25_" x="545.359" y="187.899" width="43" height="72.333"/>
				</defs>
				<clipPath id="SVGID_26_">
					<use xlink:href="#SVGID_25_"  overflow="visible"/>
				</clipPath>
				<polygon clip-path="url(#SVGID_26_)" fill="#FFFFFF" points="545.359,187.899 570.152,224.566 545.359,260.232 563.22,260.232 
					588.358,224.824 588.358,224.821 564.22,187.899 				"/>
			</g>
		</g>
	</g>
	<g clip-path="url(#SVGID_2_)">
		<text transform="matrix(1 0 0 1 617.0566 208.9224)" fill="#627CBF" font-family="'Helvetica-Bold'" font-size="14">WH</text>
	</g>
	<g clip-path="url(#SVGID_2_)">
		<text transform="matrix(1 0 0 1 640.3809 208.9224)" fill="#627CBF" font-family="'Helvetica-Bold'" font-size="14">A</text>
	</g>
	<g clip-path="url(#SVGID_2_)">
		<text transform="matrix(1 0 0 1 649.4668 208.9224)" fill="#627CBF" font-family="'Helvetica-Bold'" font-size="14">T IS ITS IM</text>
	</g>
	<g clip-path="url(#SVGID_2_)">
		<text transform="matrix(1 0 0 1 720.2505 208.9224)" fill="#627CBF" font-family="'Helvetica-Bold'" font-size="14">P</text>
	</g>
	<g clip-path="url(#SVGID_2_)">
		<text transform="matrix(1 0 0 1 728.5386 208.9224)" fill="#627CBF" font-family="'Helvetica-Bold'" font-size="14">ACT?</text>
	</g>
	<g clip-path="url(#SVGID_2_)">
		<text transform="matrix(1 0 0 1 617.0566 225.7227)" fill="#FFFFFF" font-family="'Helvetica'" font-size="14">E</text>
	</g>
	<g clip-path="url(#SVGID_2_)">
		<text transform="matrix(1 0 0 1 625.4146 225.7227)" fill="#FFFFFF" font-family="'Helvetica'" font-size="14">x</text>
	</g>
	<g clip-path="url(#SVGID_2_)">
		<text transform="matrix(1 0 0 1 631.4067 225.7227)" fill="#FFFFFF" font-family="'Helvetica'" font-size="14">p</text>
	</g>
	<g clip-path="url(#SVGID_2_)">
		<text transform="matrix(1 0 0 1 638.1826 225.7227)" fill="#FFFFFF" font-family="'Helvetica'" font-size="14">o</text>
	</g>
	<g clip-path="url(#SVGID_2_)">
		<text transform="matrix(1 0 0 1 644.9585 225.7227)" fill="#FFFFFF" font-family="'Helvetica'" font-size="14">s</text>
	</g>
	<g clip-path="url(#SVGID_2_)">
		<text transform="matrix(1 0 0 1 650.9644 225.7227)"><tspan x="0" y="0" fill="#FFFFFF" font-family="'Helvetica'" font-size="14" letter-spacing="-1">u</tspan><tspan x="6.778" y="0" fill="#FFFFFF" font-family="'Helvetica'" font-size="14">r</tspan></text>
	</g>
	<g clip-path="url(#SVGID_2_)">
		<text transform="matrix(1 0 0 1 661.3945 225.7227)" fill="#FFFFFF" font-family="'Helvetica'" font-size="14">e</text>
	</g>
	<g clip-path="url(#SVGID_2_)">
		<text transform="matrix(1 0 0 1 668.1704 225.7227)" fill="#FFFFFF" font-family="'Helvetica'" font-size="14"> </text>
	</g>
	<g clip-path="url(#SVGID_2_)">
		<text transform="matrix(1 0 0 1 671.0825 225.7227)" fill="#FFFFFF" font-family="'Helvetica'" font-size="14">k</text>
	</g>
	<g clip-path="url(#SVGID_2_)">
		<text transform="matrix(1 0 0 1 677.0747 225.7227)"><tspan x="0" y="0" fill="#FFFFFF" font-family="'Helvetica'" font-size="14" letter-spacing="-1">i</tspan><tspan x="2.103" y="0" fill="#FFFFFF" font-family="'Helvetica'" font-size="14">l</tspan></text>
	</g>
	<g clip-path="url(#SVGID_2_)">
		<text transform="matrix(1 0 0 1 681.2744 225.7227)" fill="#FFFFFF" font-family="'Helvetica'" font-size="14">l</text>
	</g>
	<g clip-path="url(#SVGID_2_)">
		<text transform="matrix(1 0 0 1 683.3745 225.7227)" fill="#FFFFFF" font-family="'Helvetica'" font-size="14">s</text>
	</g>
	<g clip-path="url(#SVGID_2_)">
		<text transform="matrix(1 0 0 1 689.3804 225.7227)" fill="#FFFFFF" font-family="'Helvetica'" font-size="14"> </text>
	</g>
	<g clip-path="url(#SVGID_2_)">
		<text transform="matrix(1 0 0 1 692.1665 225.7227)"><tspan x="0" y="0" fill="#FFFFFF" font-family="'Helvetica'" font-size="14" letter-spacing="-1">in</tspan><tspan x="8.853" y="0" fill="#FFFFFF" font-family="'Helvetica'" font-size="14">s</tspan></text>
	</g>
	<g clip-path="url(#SVGID_2_)">
		<text transform="matrix(1 0 0 1 706.9927 225.7227)" fill="#FFFFFF" font-family="'Helvetica'" font-size="14">e</text>
	</g>
	<g clip-path="url(#SVGID_2_)">
		<text transform="matrix(1 0 0 1 713.7544 225.7227)" fill="#FFFFFF" font-family="'Helvetica'" font-size="14">c</text>
	</g>
	<g clip-path="url(#SVGID_2_)">
		<text transform="matrix(1 0 0 1 719.7324 225.7227)" fill="#FFFFFF" font-family="'Helvetica'" font-size="14">t</text>
	</g>
	<g clip-path="url(#SVGID_2_)">
		<text transform="matrix(1 0 0 1 722.6445 225.7227)" fill="#FFFFFF" font-family="'Helvetica'" font-size="14">s</text>
	</g>
	<g clip-path="url(#SVGID_2_)">
		<text transform="matrix(1 0 0 1 728.6367 225.7227)" fill="#FFFFFF" font-family="'Helvetica'" font-size="14"> </text>
	</g>
	<g clip-path="url(#SVGID_2_)">
		<text transform="matrix(1 0 0 1 731.5063 225.7227)"><tspan x="0" y="0" fill="#FFFFFF" font-family="'Helvetica'" font-size="14">,</tspan><tspan x="2.896" y="0" fill="#FFFFFF" font-family="'Helvetica'" font-size="14"> </tspan></text>
	</g>
	<g clip-path="url(#SVGID_2_)">
		<text transform="matrix(1 0 0 1 737.2744 225.7227)"><tspan x="0" y="0" fill="#FFFFFF" font-family="'Helvetica'" font-size="14" letter-spacing="-1">pollin</tspan><tspan x="26.558" y="0" fill="#FFFFFF" font-family="'Helvetica'" font-size="14">a</tspan></text>
	</g>
	<g clip-path="url(#SVGID_2_)">
		<text transform="matrix(1 0 0 1 770.5806 225.7227)" fill="#FFFFFF" font-family="'Helvetica'" font-size="14">t</text>
	</g>
	<g clip-path="url(#SVGID_2_)">
		<text transform="matrix(1 0 0 1 773.4785 225.7227)"><tspan x="0" y="0" fill="#FFFFFF" font-family="'Helvetica'" font-size="14" letter-spacing="-1">o</tspan><tspan x="6.764" y="0" fill="#FFFFFF" font-family="'Helvetica'" font-size="14">r</tspan></text>
	</g>
	<g clip-path="url(#SVGID_2_)">
		<text transform="matrix(1 0 0 1 783.8804 225.7227)"><tspan x="0" y="0" fill="#FFFFFF" font-family="'Helvetica'" font-size="14">s,</tspan><tspan x="8.902" y="0" fill="#FFFFFF" font-family="'Helvetica'" font-size="14"> </tspan></text>
	</g>
	<g clip-path="url(#SVGID_2_)">
		<text transform="matrix(1 0 0 1 795.6406 225.7227)"><tspan x="0" y="0" fill="#FFFFFF" font-family="'Helvetica'" font-size="14" letter-spacing="-1">a</tspan><tspan x="6.764" y="0" fill="#FFFFFF" font-family="'Helvetica'" font-size="14">n</tspan></text>
	</g>
	<g clip-path="url(#SVGID_2_)">
		<text transform="matrix(1 0 0 1 809.1641 225.7227)" fill="#FFFFFF" font-family="'Helvetica'" font-size="14">d</text>
	</g>
	<g clip-path="url(#SVGID_2_)">
		<text transform="matrix(1 0 0 1 617.0566 242.5225)" fill="#FFFFFF" font-family="'Helvetica'" font-size="14">fana, and causes neurological</text>
	</g>
	<g clip-path="url(#SVGID_2_)">
		<text transform="matrix(1 0 0 1 617.0566 259.3223)" fill="#FFFFFF" font-family="'Helvetica'" font-size="14">damage</text>
	</g>
	<g clip-path="url(#SVGID_2_)">
		<text transform="matrix(1 0 0 1 617.0566 259.3223)" fill="#FFFFFF" font-family="'Helvetica'" font-size="14">damage in humans.</text>
	</g>
	<g clip-path="url(#SVGID_2_)">
		<defs>
			<rect id="SVGID_27_" width="1600" height="1150"/>
		</defs>
		<clipPath id="SVGID_28_">
			<use xlink:href="#SVGID_27_"  overflow="visible"/>
		</clipPath>
		<g opacity="0.3" clip-path="url(#SVGID_28_)">
			<g>
				<defs>
					<rect id="SVGID_29_" x="833.496" y="187.899" width="43" height="72.333"/>
				</defs>
				<clipPath id="SVGID_30_">
					<use xlink:href="#SVGID_29_"  overflow="visible"/>
				</clipPath>
				<polygon clip-path="url(#SVGID_30_)" fill="#FFFFFF" points="833.496,187.899 858.287,224.566 833.496,260.232 851.357,260.232 
					876.496,224.822 852.357,187.899 				"/>
			</g>
		</g>
	</g>
	<g clip-path="url(#SVGID_2_)">
		<text transform="matrix(1 0 0 1 905.1934 209.9224)" fill="#627CBF" font-family="'Helvetica-Bold'" font-size="14">HOW DO WE MEASURE IT? </text>
	</g>
	<g clip-path="url(#SVGID_2_)">
		<text transform="matrix(1 0 0 1 905.1934 226.7227)" fill="#FFFFFF" font-family="'Helvetica'" font-size="14">POP air concentrations are</text>
	</g>
	<g clip-path="url(#SVGID_2_)">
		<text transform="matrix(1 0 0 1 905.1934 243.5225)" fill="#FFFFFF" font-family="'Helvetica'" font-size="14">measured through active</text>
	</g>
	<g clip-path="url(#SVGID_2_)">
		<text transform="matrix(1 0 0 1 905.1934 260.3223)" fill="#FFFFFF" font-family="'Helvetica'" font-size="14">and passive air sampling.</text>
	</g>
	<g clip-path="url(#SVGID_2_)">
		<defs>
			<rect id="SVGID_31_" width="1600" height="1150"/>
		</defs>
		<clipPath id="SVGID_32_">
			<use xlink:href="#SVGID_31_"  overflow="visible"/>
		</clipPath>
		<g opacity="0.3" clip-path="url(#SVGID_32_)">
			<g>
				<defs>
					<rect id="SVGID_33_" x="1121.5" y="187.899" width="334" height="72.333"/>
				</defs>
				<clipPath id="SVGID_34_">
					<use xlink:href="#SVGID_33_"  overflow="visible"/>
				</clipPath>
				<polygon clip-path="url(#SVGID_34_)" fill="#FFFFFF" points="1121.5,187.899 1121.5,187.904 1146.289,224.566 1121.5,260.227 
					1121.5,260.232 1136.809,260.232 1139.357,260.232 1430.357,260.232 1455.496,224.822 1431.355,187.899 				"/>
			</g>
		</g>
	</g>
	<g clip-path="url(#SVGID_2_)">
		<text transform="matrix(1 0 0 1 1193.1934 209.9224)" fill="#627CBF" font-family="'Helvetica-Bold'" font-size="14">WH</text>
	</g>
	<g clip-path="url(#SVGID_2_)">
		<text transform="matrix(1 0 0 1 1216.5176 209.9224)" fill="#627CBF" font-family="'Helvetica-Bold'" font-size="14">A</text>
	</g>
	<g clip-path="url(#SVGID_2_)">
		<text transform="matrix(1 0 0 1 1225.6035 209.9224)" fill="#627CBF" font-family="'Helvetica-Bold'" font-size="14">T CAN WE DO</text>
	</g>
	<g clip-path="url(#SVGID_2_)">
		<text transform="matrix(1 0 0 1 1319.7109 209.9224)" fill="#627CBF" font-family="'Helvetica-Bold'" font-size="14"> </text>
	</g>
	<g clip-path="url(#SVGID_2_)">
		<text transform="matrix(1 0 0 1 1323.0859 209.9224)" fill="#627CBF" font-family="'Helvetica-Bold'" font-size="14">ABOUT IT?</text>
	</g>
	<g clip-path="url(#SVGID_2_)">
		<text transform="matrix(1 0 0 1 1193.1934 226.7227)" fill="#FFFFFF" font-family="'Helvetica'" font-size="14">Improve POP air monitoring and</text>
	</g>
	<g clip-path="url(#SVGID_2_)">
		<text transform="matrix(1 0 0 1 1193.1934 243.5225)" fill="#FFFFFF" font-family="'Helvetica'" font-size="14">modeling. </text>
	</g>
	
		<line clip-path="url(#SVGID_2_)" fill="none" stroke="#627CBF" stroke-width="2" stroke-miterlimit="10" x1="1556.401" y1="670.281" x2="1526.59" y2="693.264"/>
	<g clip-path="url(#SVGID_2_)">
		<defs>
			<rect id="SVGID_35_" x="1116.85" y="547.922" width="483.151" height="227.743"/>
		</defs>
		<clipPath id="SVGID_36_">
			<use xlink:href="#SVGID_35_"  overflow="visible"/>
		</clipPath>
		<path clip-path="url(#SVGID_36_)" fill="#627CBF" d="M1788.718,694.941l-244.739-24.66l-19.876-2.482l-129.194-2.486
			l-224.844,6.833l-25.622,11.024l-2.95-1.087l28.572-12.423l224.224-7.452h81.368l0.619-57.765h16.15c0,0,5.59,0.621,5.59,8.696
			v47.825l46.585,6.834l245.964,24.843l35.87,14.286l-4.66,0.311l-31.21-12.112L1788.718,694.941"/>
		<path clip-path="url(#SVGID_36_)" fill="#627CBF" d="M1502.983,696.369h-144.101v-22.361h31.678c0,0-1.24-5.589,3.728-6.21
			v-19.876c0,0-1.864-6.211,5.591-10.559l7.452-4.35v-23.602c0,0,0-5.591,3.107-6.832h-3.107c0,0-1.862-5.59,1.864-5.59h18.013
			v-3.728h10.56v4.347h26.087c0,0,14.596-1.863,14.596,14.597v23.293h5.279v16.771c0,0,14.907,0.621,18.634,0.621
			s7.454-1.862,7.454,4.349v3.105h10.56v36.645L1502.983,696.369"/>
		<path clip-path="url(#SVGID_36_)" fill="#627CBF" d="M1524.103,667.798c0,0-3.726-3.728-13.664,0
			c-9.938,3.725-11.18,54.658-4.348,60.248c6.831,5.592,13.385,3.766,18.012,1.243
			C1530.936,725.562,1537.146,678.979,1524.103,667.798"/>
		<g opacity="0.5" clip-path="url(#SVGID_36_)">
			<g>
				<defs>
					<rect id="SVGID_37_" x="1516.65" y="678.978" width="9.939" height="41.616"/>
				</defs>
				<clipPath id="SVGID_38_">
					<use xlink:href="#SVGID_37_"  overflow="visible"/>
				</clipPath>
				<g clip-path="url(#SVGID_38_)">
					<defs>
						<rect id="SVGID_39_" x="1516.65" y="678.978" width="9.938" height="41.616"/>
					</defs>
					<clipPath id="SVGID_40_">
						<use xlink:href="#SVGID_39_"  overflow="visible"/>
					</clipPath>
					<path clip-path="url(#SVGID_40_)" fill="#FFFFFF" d="M1516.649,699.786c0,11.491,2.226,20.808,4.968,20.808
						c2.745,0,4.971-9.316,4.971-20.808c0-11.493-2.226-20.808-4.971-20.808C1518.875,678.979,1516.649,688.293,1516.649,699.786"/>
				</g>
			</g>
		</g>
		<path clip-path="url(#SVGID_36_)" fill="#627CBF" d="M1486.798,668.556c0,0-4.139-4.135-15.165,0
			c-11.027,4.134-12.404,60.65-4.823,66.854c7.58,6.201,14.852,4.178,19.988,1.377
			C1494.377,732.652,1501.27,680.962,1486.798,668.556"/>
		<g opacity="0.5" clip-path="url(#SVGID_36_)">
			<g>
				<defs>
					<rect id="SVGID_41_" x="1478.53" y="680.962" width="11.02" height="46.176"/>
				</defs>
				<clipPath id="SVGID_42_">
					<use xlink:href="#SVGID_41_"  overflow="visible"/>
				</clipPath>
				<g clip-path="url(#SVGID_42_)">
					<defs>
						<rect id="SVGID_43_" x="1478.53" y="680.964" width="11.02" height="46.174"/>
					</defs>
					<clipPath id="SVGID_44_">
						<use xlink:href="#SVGID_43_"  overflow="visible"/>
					</clipPath>
					<path clip-path="url(#SVGID_44_)" fill="#FFFFFF" d="M1478.525,704.051c0,12.75,2.468,23.087,5.514,23.087
						s5.514-10.337,5.514-23.087c0-12.753-2.468-23.089-5.514-23.089S1478.525,691.298,1478.525,704.051"/>
				</g>
			</g>
		</g>
		<path clip-path="url(#SVGID_36_)" fill="#627CBF" d="M1419.739,657.375c0,0-3.519-4.135-12.896,0
			c-9.375,4.136-10.546,60.652-4.102,66.853c6.447,6.204,12.633,4.179,16.998,1.378
			C1426.184,721.471,1432.049,669.78,1419.739,657.375"/>
		<path clip-path="url(#SVGID_36_)" fill="#627CBF" d="M1376.261,664.208c0,0-3.519-4.137-12.894,0
			c-9.379,4.134-10.549,60.65-4.104,66.853c6.447,6.202,12.631,4.178,16.998,1.38
			C1382.705,728.303,1388.568,676.613,1376.261,664.208"/>
		<g opacity="0.5" clip-path="url(#SVGID_36_)">
			<g>
				<defs>
					<rect id="SVGID_45_" x="1410.439" y="603.821" width="44.36" height="30.437"/>
				</defs>
				<clipPath id="SVGID_46_">
					<use xlink:href="#SVGID_45_"  overflow="visible"/>
				</clipPath>
				<g clip-path="url(#SVGID_46_)">
					<defs>
						<rect id="SVGID_47_" x="1410.439" y="603.824" width="44.356" height="30.434"/>
					</defs>
					<clipPath id="SVGID_48_">
						<use xlink:href="#SVGID_47_"  overflow="visible"/>
					</clipPath>
					<path clip-path="url(#SVGID_48_)" fill="#FFFFFF" d="M1410.438,631.151l4.348-1.863c0,0,2.483-1.24,6.211-1.24h12.423
						c0,0,6.209,1.24,6.209,3.725v2.485h14.908v-25.465c0,0,1.863-4.972-4.348-4.972s-36.025,0.622-36.025,0.622
						s-3.726,1.863-3.726,4.35V631.151z"/>
				</g>
			</g>
		</g>
		<g opacity="0.5" clip-path="url(#SVGID_36_)">
			<g>
				<defs>
					<rect id="SVGID_49_" x="1458.89" y="604.443" width="6.21" height="29.192"/>
				</defs>
				<clipPath id="SVGID_50_">
					<use xlink:href="#SVGID_49_"  overflow="visible"/>
				</clipPath>
				<g clip-path="url(#SVGID_50_)">
					<defs>
						<rect id="SVGID_51_" x="1458.889" y="604.445" width="6.208" height="29.19"/>
					</defs>
					<clipPath id="SVGID_52_">
						<use xlink:href="#SVGID_51_"  overflow="visible"/>
					</clipPath>
					<path clip-path="url(#SVGID_52_)" fill="#FFFFFF" d="M1459.506,633.636h5.59v-24.224c0,0,0-4.969-2.484-4.969
						c-2.483,0-3.726,0.621-3.726,3.726C1458.886,611.275,1459.506,633.636,1459.506,633.636"/>
				</g>
			</g>
		</g>
		
			<line clip-path="url(#SVGID_36_)" fill="none" stroke="#627CBF" stroke-width="2" stroke-miterlimit="10" x1="1142.112" y1="682.706" x2="1376.275" y2="692.645"/>
		
			<polyline clip-path="url(#SVGID_36_)" fill="none" stroke="#627CBF" stroke-width="2" stroke-linejoin="round" stroke-miterlimit="10" points="
			1790.564,694.506 1789.943,705.842 1747.086,689.537 1747.707,703.823 1693.047,683.946 1693.67,701.96 1647.706,679.6 
			1647.086,699.476 1601.743,675.251 1601.743,697.612 1556.401,670.281 1556.401,696.369 		"/>
		
			<line clip-path="url(#SVGID_36_)" fill="none" stroke="#627CBF" stroke-width="2" stroke-linejoin="round" stroke-miterlimit="10" x1="1530.314" y1="695.126" x2="1826.59" y2="707.549"/>
		
			<polyline clip-path="url(#SVGID_36_)" fill="none" stroke="#627CBF" stroke-width="2" stroke-linejoin="round" stroke-miterlimit="10" points="
			1358.265,664.691 1303.604,688.917 1303.604,667.176 1257.021,687.053 1257.021,669.04 1204.846,684.568 1204.846,670.281 
			1170.064,683.325 1170.064,670.903 		"/>
	</g>
	
		<polyline clip-path="url(#SVGID_2_)" fill="none" stroke="#627CBF" stroke-width="2" stroke-linejoin="round" stroke-miterlimit="10" points="
		242.394,325.146 233.242,352.449 229.5,321.779 	"/>
	
		<line clip-path="url(#SVGID_2_)" fill="none" stroke="#627CBF" stroke-width="2" stroke-miterlimit="10" x1="228.074" y1="352.59" x2="202.811" y2="332.725"/>
	
		<polyline clip-path="url(#SVGID_2_)" fill="none" stroke="#627CBF" stroke-width="2" stroke-linejoin="round" stroke-miterlimit="10" points="
		83.55,306.733 82.501,346.74 93.931,305.88 	"/>
	<polyline clip-path="url(#SVGID_2_)" fill="none" stroke="#627CBF" stroke-width="2" stroke-miterlimit="10" points="
		198.117,347.799 205.034,374.725 178.349,351.304 	"/>
	<polyline clip-path="url(#SVGID_2_)" fill="none" stroke="#627CBF" stroke-width="2" stroke-miterlimit="10" points="
		163.512,350.639 170.05,375.242 175.078,349.312 	"/>
	
		<line clip-path="url(#SVGID_2_)" fill="none" stroke="#627CBF" stroke-width="2" stroke-miterlimit="10" x1="202.806" y1="373.966" x2="170.146" y2="374.104"/>
	<g clip-path="url(#SVGID_2_)">
		<defs>
			<rect id="SVGID_53_" width="1600" height="1150"/>
		</defs>
		<clipPath id="SVGID_54_">
			<use xlink:href="#SVGID_53_"  overflow="visible"/>
		</clipPath>
		<path clip-path="url(#SVGID_54_)" fill="#627CBF" d="M201.075,374.108c-0.511,6.126,2.641,11.39,7.038,11.756
			c4.4,0.368,8.379-4.3,8.89-10.427c0.51-6.126-2.639-11.389-7.038-11.756C205.567,363.313,201.587,367.981,201.075,374.108"/>
		<path clip-path="url(#SVGID_54_)" fill="#627CBF" d="M157,373.753c-0.493,5.907,2.546,10.983,6.787,11.337
			c4.241,0.354,8.079-4.148,8.572-10.055c0.493-5.907-2.545-10.983-6.787-11.337C161.331,363.344,157.494,367.846,157,373.753"/>
		<path clip-path="url(#SVGID_54_)" fill="#627CBF" d="M175.849,333.226c-0.821,9.833,5.263,18.37,13.587,19.065
			c8.327,0.695,15.74-6.715,16.56-16.549c0.822-9.834-5.261-18.369-13.587-19.064C184.083,315.983,176.669,323.392,175.849,333.226"
			/>
		
			<line clip-path="url(#SVGID_54_)" fill="none" stroke="#627CBF" stroke-linejoin="round" stroke-miterlimit="10" x1="229.311" y1="324.054" x2="202.811" y2="339.598"/>
		<polyline clip-path="url(#SVGID_54_)" fill="none" stroke="#627CBF" stroke-linejoin="round" stroke-miterlimit="10" points="
			157.354,314.611 83.876,343.991 84.777,340.056 154.131,312.051 		"/>
		
			<line clip-path="url(#SVGID_54_)" fill="none" stroke="#627CBF" stroke-miterlimit="10" x1="153.181" y1="330.301" x2="121.092" y2="309.866"/>
		<path clip-path="url(#SVGID_54_)" fill="#627CBF" d="M268.988,315.338c0,0-155.979-26.026-217.717-26.765
			c-8.011-0.096-11.557,1.213-12.041,7.014c-0.523,6.257-1.349,5.144-0.239,9.718c0.853,3.508,2.654,2.512,10.049,3.13
			c7.395,0.617,125.596,5.792,188.708,17.469c16.923,3.131,12.514,1.045,18.962-0.708
			C263.156,323.443,270.931,319.509,268.988,315.338"/>
		<path clip-path="url(#SVGID_54_)" fill="#627CBF" d="M251.823,349.417c0,0-33.703-1.095-56.551-1.856
			c-22.848-0.762-12.321-23.94-12.321-23.94s-0.853-3.508-6.541-3.983c-5.689-0.474-4.171-4.93-8.2-4.694
			c-4.03,0.237-4.03,7.11-6.353,7.489c0,0-6.447,1.753-11.283,4.786c-4.835,3.033-20.053,13.792-25.268,14.502
			c-5.214,0.711-3.887-1.47-3.744-3.177c0.142-1.706,0.712-8.532-4.455-8.39c-5.167,0.141-6.258,6.35-6.685,11.471
			c0,0-9.718-0.239-20.194,1.75c-10.476,1.99-33.987-4.555-42.046-4.082c-8.058,0.473-9.718,6.635-6.353,7.489
			c3.366,0.853,40.435,2.802,40.435,2.802l-0.333,3.981c0,0,24.459,2.042,29.248-0.422l67.026,6.74l0.949-4.503
			c0,0,56.03,1.24,66.933,1.005C256.989,356.149,258.601,350.557,251.823,349.417"/>
		<path clip-path="url(#SVGID_54_)" fill="#FFFFFF" d="M190.711,333.576c-0.231,2.783,1.491,5.199,3.846,5.396
			c2.357,0.196,4.454-1.901,4.687-4.684c0.232-2.784-1.488-5.199-3.846-5.396C193.043,328.696,190.944,330.792,190.711,333.576"/>
		<g opacity="0.5" clip-path="url(#SVGID_54_)">
			<g>
				<defs>
					<rect id="SVGID_55_" x="183.937" y="322.173" width="20.043" height="24.807"/>
				</defs>
				<clipPath id="SVGID_56_">
					<use xlink:href="#SVGID_55_"  overflow="visible"/>
				</clipPath>
				<g clip-path="url(#SVGID_56_)">
					<defs>
						<rect id="SVGID_57_" x="183.937" y="322.173" width="20.043" height="24.807"/>
					</defs>
					<clipPath id="SVGID_58_">
						<use xlink:href="#SVGID_57_"  overflow="visible"/>
					</clipPath>
					<path clip-path="url(#SVGID_58_)" fill="#FFFFFF" d="M183.991,333.745c-0.57,6.833,3.43,12.747,8.935,13.207
						c5.504,0.459,10.429-4.71,11-11.544c0.57-6.834-3.43-12.746-8.936-13.205C189.486,321.743,184.561,326.911,183.991,333.745"/>
				</g>
			</g>
		</g>
		<path clip-path="url(#SVGID_54_)" fill="#FFFFFF" d="M194.332,327.544c0,0,5.631-24.549,2.885-26.658
			c-2.747-2.109-3.803-1.341-6.181-0.084c-2.376,1.257-0.28,7.27,0.242,9.716C191.801,312.965,194.332,327.544,194.332,327.544"/>
		<path clip-path="url(#SVGID_54_)" fill="#FFFFFF" d="M199.485,336.969c0,0,19.199,7.167,21.228,10.175
			c2.029,3.006,0.502,5.358-0.994,5.928C218.225,353.639,207.91,348.409,199.485,336.969"/>
		<path clip-path="url(#SVGID_54_)" fill="#FFFFFF" d="M190.979,336.722c0,0-13.638,12.86-18.651,14.122
			c-5.013,1.262-5.407-2.153-5.152-4.054C167.434,344.887,184.711,336.733,190.979,336.722"/>
		<path clip-path="url(#SVGID_54_)" fill="#627CBF" d="M631.052,542.382c0,11.577-3.982,20.961-8.893,20.961
			c-4.911,0-8.893-9.384-8.893-20.961c0-11.576,3.982-20.961,8.893-20.961C627.07,521.421,631.052,530.806,631.052,542.382"/>
		<path clip-path="url(#SVGID_54_)" fill="#627CBF" d="M711.086,559.956v20.749c0,0-9.74-0.424-12.704-18.633h-23.291
			c0,0,1.694,6.352-5.928,7.2l-7.622,0.847c0,0-4.235-0.847-5.505-6.775c0,0-16.092,2.541-34.301,0c0,0-13.551-21.598,0-41.923
			c0,0,14.821-3.811,77.494,11.01c0,0-1.694-18.209,12.704-17.786v21.174c0,0,9.316,2.117,9.739,8.893
			c0.424,6.775-0.846,8.469-0.846,8.469S717.861,560.379,711.086,559.956"/>
		<path clip-path="url(#SVGID_54_)" fill="#627CBF" d="M660.694,524.386v-32.607h-8.046c0,0-4.235-4.659-0.424-9.317h21.174
			c0,0,4.658,4.658-0.847,9.317h-6.775v33.877L660.694,524.386z"/>
		<rect x="662.388" y="568.002" clip-path="url(#SVGID_54_)" fill="#627CBF" width="5.505" height="244.338"/>
		<g opacity="0.5" clip-path="url(#SVGID_54_)">
			<g>
				<defs>
					<rect id="SVGID_59_" x="614.536" y="523.115" width="15.245" height="38.957"/>
				</defs>
				<clipPath id="SVGID_60_">
					<use xlink:href="#SVGID_59_"  overflow="visible"/>
				</clipPath>
				<g clip-path="url(#SVGID_60_)">
					<defs>
						<rect id="SVGID_61_" x="614.537" y="523.115" width="15.244" height="38.957"/>
					</defs>
					<clipPath id="SVGID_62_">
						<use xlink:href="#SVGID_61_"  overflow="visible"/>
					</clipPath>
					<path clip-path="url(#SVGID_62_)" fill="#FFFFFF" d="M629.781,542.594c0,10.757-3.412,19.478-7.623,19.478
						c-4.209,0-7.622-8.721-7.622-19.478c0-10.758,3.413-19.479,7.622-19.479C626.369,523.115,629.781,531.836,629.781,542.594"/>
				</g>
			</g>
		</g>
		<path clip-path="url(#SVGID_54_)" fill="#627CBF" d="M344.5,593.5l68-88l69.344,88H623.5v87.822c0,0-68-5.736-133,8.221h-146
			V593.5z"/>
		<polygon clip-path="url(#SVGID_54_)" fill="#B3BA2D" points="344.5,593.5 332.5,593.5 412.5,492.5 545.56,497.75 628.5,593.5 
			481.844,593.5 412.5,505.5 		"/>
		
			<line clip-path="url(#SVGID_54_)" fill="none" stroke="#FCF076" stroke-width="2" stroke-miterlimit="10" x1="606.386" y1="593.5" x2="606.386" y2="689.543"/>
		
			<line clip-path="url(#SVGID_54_)" fill="none" stroke="#FCF076" stroke-width="2" stroke-miterlimit="10" x1="616.167" y1="593.5" x2="616.167" y2="689.543"/>
		
			<line clip-path="url(#SVGID_54_)" fill="none" stroke="#FCF076" stroke-width="2" stroke-miterlimit="10" x1="577.04" y1="593.5" x2="577.04" y2="689.543"/>
		
			<line clip-path="url(#SVGID_54_)" fill="none" stroke="#FCF076" stroke-width="2" stroke-miterlimit="10" x1="586.821" y1="593.5" x2="586.821" y2="689.543"/>
		
			<line clip-path="url(#SVGID_54_)" fill="none" stroke="#FCF076" stroke-width="2" stroke-miterlimit="10" x1="596.603" y1="593.5" x2="596.603" y2="689.543"/>
		
			<line clip-path="url(#SVGID_54_)" fill="none" stroke="#FCF076" stroke-width="2" stroke-miterlimit="10" x1="547.693" y1="593.5" x2="547.693" y2="689.543"/>
		
			<line clip-path="url(#SVGID_54_)" fill="none" stroke="#FCF076" stroke-width="2" stroke-miterlimit="10" x1="557.475" y1="593.5" x2="557.475" y2="689.543"/>
		
			<line clip-path="url(#SVGID_54_)" fill="none" stroke="#FCF076" stroke-width="2" stroke-miterlimit="10" x1="567.257" y1="593.5" x2="567.257" y2="689.543"/>
		
			<line clip-path="url(#SVGID_54_)" fill="none" stroke="#FCF076" stroke-width="2" stroke-miterlimit="10" x1="518.346" y1="593.5" x2="518.346" y2="689.543"/>
		
			<line clip-path="url(#SVGID_54_)" fill="none" stroke="#FCF076" stroke-width="2" stroke-miterlimit="10" x1="528.129" y1="593.5" x2="528.129" y2="689.543"/>
		
			<line clip-path="url(#SVGID_54_)" fill="none" stroke="#FCF076" stroke-width="2" stroke-miterlimit="10" x1="537.911" y1="593.5" x2="537.911" y2="689.543"/>
		
			<line clip-path="url(#SVGID_54_)" fill="none" stroke="#FCF076" stroke-width="2" stroke-miterlimit="10" x1="489" y1="593.5" x2="489" y2="689.543"/>
		
			<line clip-path="url(#SVGID_54_)" fill="none" stroke="#FCF076" stroke-width="2" stroke-miterlimit="10" x1="498.782" y1="593.5" x2="498.782" y2="689.543"/>
		
			<line clip-path="url(#SVGID_54_)" fill="none" stroke="#FCF076" stroke-width="2" stroke-miterlimit="10" x1="508.565" y1="593.5" x2="508.565" y2="689.543"/>
		<g opacity="0.5" clip-path="url(#SVGID_54_)">
			<g>
				<defs>
					<rect id="SVGID_63_" x="366.5" y="595.5" width="32" height="46"/>
				</defs>
				<clipPath id="SVGID_64_">
					<use xlink:href="#SVGID_63_"  overflow="visible"/>
				</clipPath>
				<g clip-path="url(#SVGID_64_)">
					<defs>
						<rect id="SVGID_65_" x="366.5" y="595.5" width="32" height="46"/>
					</defs>
					<clipPath id="SVGID_66_">
						<use xlink:href="#SVGID_65_"  overflow="visible"/>
					</clipPath>
					<rect x="366.5" y="595.5" clip-path="url(#SVGID_66_)" fill="#FFFFFF" width="32" height="46"/>
				</g>
			</g>
		</g>
	</g>
	<g clip-path="url(#SVGID_2_)">
		<text transform="matrix(1 0 0 1 35.5244 75.6328)" fill="#FFFFFF" font-family="'Helvetica-Bold'" font-size="48">POPS:</text>
	</g>
	<g clip-path="url(#SVGID_2_)">
		<text transform="matrix(1 0 0 1 184.9009 75.6328)" fill="#7D8FC7" font-family="'Helvetica-Bold'" font-size="48"> </text>
	</g>
	<g clip-path="url(#SVGID_2_)">
		<text transform="matrix(1 0 0 1 198.2451 75.6328)" fill="#627CBF" font-family="'Helvetica-Bold'" font-size="48">PERSISTENT ORGANIC POLLUTANTS</text>
	</g>
	<g clip-path="url(#SVGID_2_)">
		<defs>
			<rect id="SVGID_67_" width="1600" height="1150"/>
		</defs>
		<clipPath id="SVGID_68_">
			<use xlink:href="#SVGID_67_"  overflow="visible"/>
		</clipPath>
		<path clip-path="url(#SVGID_68_)" fill-rule="evenodd" clip-rule="evenodd" fill="#FFFFFF" d="M1211.807,128.469
			c0.416-1.259,1.275-2.142,2.288-2.965c1.605-1.304,3.056-2.806,4.688-4.075c6.26-4.876,13.44-7.519,21.312-7.854
			c5.989-0.252,12.006,0.019,18.007,0.207c21.681,0.679,43.358,1.421,65.038,2.145c10.884,0.365,21.766,0.895,32.648,1.061
			c8.011,0.124,15.079-2.572,20.875-8.282c8.053-7.933,16.125-15.844,24.188-23.765c0.38-0.374,0.743-0.763,1.12-1.141
			c1.214-1.211,2.634-2.103,4.376-2.08c4.021,0.055,8.041,0.223,12.235,0.353c-5.502,13.224-10.967,26.367-16.492,39.648
			c0.742,0.133,1.423,0.243,2.101,0.375c2.99,0.577,6.021,1.011,8.956,1.792c1.861,0.493,3.693,0.688,5.582,0.73
			c1.89,0.041,3.782,0.109,5.716,0.351c-0.219,0.079-0.435,0.172-0.659,0.232c-2.395,0.659-4.787,1.331-7.191,1.956
			c-0.637,0.163-0.944,0.411-0.925,1.123c0.022,0.879,0.222,2.024-0.233,2.568c-0.453,0.544-1.618,0.517-2.482,0.691
			c-15.455,3.102-30.896,6.265-46.375,9.241c-3.438,0.664-7.003,0.664-10.509,0.979c-12.393,1.11-24.782,0.253-37.169-0.067
			c-0.652-0.018-1.199,0.071-1.716,0.511c-0.239,0.205-0.64,0.312-0.964,0.302c-3.432-0.08-6.861-0.187-10.292-0.311
			c-0.293-0.011-0.718-0.121-0.837-0.326c-0.424-0.72-1.05-0.698-1.7-0.582c-2.097,0.371-4.188,0.77-6.283,1.158
			c-0.087,0.018-0.198,0.011-0.255,0.064c-1.435,1.28-3.172,0.902-4.832,0.859c-3.551-0.085-7.1-0.21-10.65-0.32
			c-2.366-0.072-3.455-0.948-4.043-3.464c-1.928-0.06-3.93-0.084-5.929-0.186c-13.711-0.72-27.428-1.377-41.131-2.226
			c-4.94-0.306-9.766-1.462-14.354-3.417c-1.731-0.737-3.334-1.68-4.162-3.511C1211.77,129.652,1211.787,129.06,1211.807,128.469"/>
	</g>
</g>
</svg>
