<?xml version="1.0" encoding="UTF-8" standalone="no"?>
<!-- Generator: Adobe Illustrator 16.0.0, SVG Export Plug-In . SVG Version: 6.00 Build 0)  -->

<svg xmlns:dc="http://purl.org/dc/elements/1.1/" xmlns:cc="http://creativecommons.org/ns#" xmlns:rdf="http://www.w3.org/1999/02/22-rdf-syntax-ns#" xmlns:svg="http://www.w3.org/2000/svg" xmlns="http://www.w3.org/2000/svg" xmlns:xlink="http://www.w3.org/1999/xlink" xmlns:sodipodi="http://sodipodi.sourceforge.net/DTD/sodipodi-0.dtd" xmlns:inkscape="http://www.inkscape.org/namespaces/inkscape" version="1.1" id="Layer_1" x="0px" y="0px" width="1600px" height="1150px" viewBox="0 0 1600 1150" enable-background="new 0 0 1600 1150" xml:space="preserve" inkscape:version="0.48.5 r10040" sodipodi:docname="POPs_FINAL_for Diego_AH_5.svg"><metadata id="metadata937"><rdf:RDF><cc:Work rdf:about=""><dc:format>image/svg+xml</dc:format><dc:type rdf:resource="http://purl.org/dc/dcmitype/StillImage" /></cc:Work></rdf:RDF></metadata><defs id="defs935"><defs id="defs503"><rect height="1150" width="1600" id="SVGID_21_" /></defs><clipPath id="SVGID_22_"><use id="use507" overflow="visible" xlink:href="#SVGID_21_" /></clipPath><defs id="defs157"><rect height="1150" width="1600" id="SVGID_17_" /></defs><clipPath id="SVGID_18_"><use id="use161" overflow="visible" xlink:href="#SVGID_17_" /></clipPath><defs id="defs651"><rect height="1150" width="1600" id="SVGID_33_" /></defs><clipPath id="SVGID_34_"><use id="use655" overflow="visible" xlink:href="#SVGID_33_" /></clipPath><defs id="defs765"><rect height="1150" width="1600" id="SVGID_47_" /></defs><clipPath id="SVGID_48_"><use id="use769" overflow="visible" xlink:href="#SVGID_47_" /></clipPath><clipPath id="SVGID_2_-8"><use xlink:href="#SVGID_1_" overflow="visible" id="use9-0" /></clipPath><clipPath id="clipPath3705"><use xlink:href="#SVGID_1_" overflow="visible" id="use3707" /></clipPath><clipPath id="clipPath3709"><use xlink:href="#SVGID_1_" overflow="visible" id="use3711" /></clipPath><clipPath id="clipPath3713"><use xlink:href="#SVGID_1_" overflow="visible" id="use3715" /></clipPath><clipPath id="SVGID_48_-7"><use id="use769-1" overflow="visible" xlink:href="#SVGID_47_" /></clipPath><defs id="defs917"><rect y="0" x="0" height="1150" width="1600" id="SVGID_55_" /></defs><clipPath id="SVGID_56_"><use height="1150" width="1600" y="0" x="0" style="overflow:visible" id="use921" overflow="visible" xlink:href="#SVGID_55_" /></clipPath><clipPath id="SVGID_56_-5"><use height="1150" width="1600" y="0" x="0" style="overflow:visible" id="use921-8" overflow="visible" xlink:href="#SVGID_55_" /></clipPath><clipPath id="SVGID_56_-5-0"><use height="1150" width="1600" y="0" x="0" style="overflow:visible" id="use921-8-2" overflow="visible" xlink:href="#SVGID_55_" /></clipPath><defs id="defs731"><rect height="110.994" width="492.01401" y="357.92999" x="700.34601" id="SVGID_41_" /></defs><clipPath id="SVGID_42_"><use height="1150" width="1600" y="0" x="0" style="overflow:visible" id="use735" overflow="visible" xlink:href="#SVGID_41_" /></clipPath><defs id="defs775"><rect id="SVGID_49_" x="700.53998" y="823.065" width="492.01001" height="110.994" /></defs><clipPath id="SVGID_50_"><use xlink:href="#SVGID_49_" overflow="visible" id="use779" style="overflow:visible" x="0" y="0" width="1600" height="1150" /></clipPath></defs><sodipodi:namedview pagecolor="#ffffff" bordercolor="#666666" borderopacity="1" objecttolerance="10" gridtolerance="10" guidetolerance="10" inkscape:pageopacity="0" inkscape:pageshadow="2" inkscape:window-width="1366" inkscape:window-height="717" id="namedview933" showgrid="false" inkscape:zoom="0.5" inkscape:cx="682.21031" inkscape:cy="704.10333" inkscape:window-x="0" inkscape:window-y="0" inkscape:window-maximized="1" inkscape:current-layer="g3" /><g id="g3"><defs id="defs5"><rect id="SVGID_1_" width="1600" height="1150" /></defs><clipPath id="SVGID_2_"><use xlink:href="#SVGID_1_" overflow="visible" id="use9" /></clipPath><rect y="0.739" clip-path="url(#SVGID_2_)" fill="#B3BA2D" width="1600" height="1147.441" id="rect11" /><g clip-path="url(#SVGID_2_)" id="g13"><defs id="defs15"><rect id="SVGID_3_" y="181.99899" width="1600" height="802.336" x="0" /></defs><clipPath id="SVGID_4_"><use xlink:href="#SVGID_3_" overflow="visible" id="use19" style="overflow:visible" x="0" y="0" width="1600" height="1150" /></clipPath><g clip-path="url(#SVGID_4_)" id="g21" style="opacity:0.4"><g id="g23"><defs id="defs25"><rect id="SVGID_5_" x="-1286.3101" y="222.311" width="2886.3101" height="1083.077" /></defs><clipPath id="SVGID_6_"><use xlink:href="#SVGID_5_" overflow="visible" id="use29" style="overflow:visible" x="0" y="0" width="1600" height="1150" /></clipPath><g clip-path="url(#SVGID_6_)" id="g31"><defs id="defs33"><rect id="SVGID_7_" x="-1286.3101" y="222.314" width="2886.3101" height="1083.074" /></defs><clipPath id="SVGID_8_"><use xlink:href="#SVGID_7_" overflow="visible" id="use37" style="overflow:visible" x="0" y="0" width="1600" height="1150" /></clipPath><path clip-path="url(#SVGID_8_)" d="m -783.334,401.895 c 0,0 108.78,-43.853 166.488,-43.853 57.709,0 45.599,-24.87 158.699,-11.576 53.962,6.344 57.97,-31.329 130.071,-45.916 21.052,-4.261 59.351,-6.253 101.094,-12.364 62.044,-9.083 68.735,-57.968 150.534,-64.299 115.514,-8.941 107.5,23.116 182.824,22.605 49.66,-0.337 68.93,-6.971 129.042,-7.14 128.581,-0.36 301.403,205.635 424.024,224.906 116.299,18.28 331.856,131.699 428.037,114.586 96.18,-17.117 191.502,-4.809 191.502,-4.809 L 1600,622 l -1.821,683.388 h -2884.49 v -807.97 c 0,0 121.36,-2.446 229.663,-27.055 101.341,-23.028 273.314,-68.468 273.314,-68.468" id="path39" inkscape:connector-curvature="0" style="fill:#fcf076" /></g></g></g><path clip-path="url(#SVGID_4_)" d="m -1286.679,422.543 c 0,0 158.225,-58.675 250.335,-54.504 92.111,4.167 248.403,38.32 371.033,109.009 122.63,70.688 163.507,67.329 163.507,67.329 0,0 81.67,13.479 145.43,67.329 63.761,53.851 198.718,140.41 232.23,142.816 33.508,2.403 117.664,4.808 218.653,-64.923 100.99,-69.73 455.472,-83.983 560.99,-22.437 86.568,50.493 83.423,80.145 172.386,127.435 60.916,32.383 236.59,70.529 343.843,77.743 l 107.253,7.214 L 1600,900 l -1.822,405.388 -319.933,5.61 H -1286.679 V 422.543 z" id="path41" inkscape:connector-curvature="0" style="fill:#fcf076" /><g clip-path="url(#SVGID_4_)" id="g43" style="opacity:0.4"><g id="g45"><defs id="defs47"><rect id="SVGID_9_" x="-1286.6801" y="344.67499" width="2888.8601" height="997.32501" /></defs><clipPath id="SVGID_10_"><use xlink:href="#SVGID_9_" overflow="visible" id="use51" style="overflow:visible" x="0" y="0" width="1600" height="1150" /></clipPath><g clip-path="url(#SVGID_10_)" id="g53"><defs id="defs55"><rect id="SVGID_11_" x="-1286.681" y="344.67499" width="2888.8601" height="997.32501" /></defs><clipPath id="SVGID_12_"><use xlink:href="#SVGID_11_" overflow="visible" id="use59" style="overflow:visible" x="0" y="0" width="1600" height="1150" /></clipPath><path clip-path="url(#SVGID_12_)" d="m -783.702,404.299 c 0,0 108.78,-43.853 166.49,-43.853 57.707,0 45.684,-25.592 158.696,-11.575 113.011,14.021 209.793,86.043 289.182,92.922 21.398,1.854 55.247,-6.995 76.301,-5.545 62.56,4.299 113.507,26.582 172.17,36.52 58.663,9.938 195.718,106.626 325.561,110.853 129.842,4.227 185.149,-17.777 245.261,-17.777 60.112,0 76.877,2.142 134.652,18.316 113.368,31.738 221.212,89.268 317.392,72.153 96.18,-17.117 176.242,-44.013 176.242,-44.013 l 63.799,-2.336 L 1600,646 l 2.179,696 -323.934,-34.207 h -2564.924 v -807.97 c 0,0 121.36,-2.445 229.664,-27.055 101.34,-23.029 273.313,-68.469 273.313,-68.469" id="path61" inkscape:connector-curvature="0" style="fill:#fcf076" /></g></g></g><path clip-path="url(#SVGID_4_)" d="m -98.799,749.571 c 0,0 307.791,67.329 351.074,105.803 43.283,38.474 -27.253,83.36 -36.871,84.963 -9.618,1.604 -160.308,19.237 -187.56,24.046 -27.252,4.81 -288.566,52.99 -381.532,40.077 -115.422,-16.03 -156.551,-44.886 -343.058,-51.298 -80.171,-2.759 -192.902,-25.649 -246.339,-33.665 -53.437,-8.016 -206.333,-8.683 -343.594,3.206 V 873.23 c 0,0 139.288,-9.043 187.561,-6.635 102.374,5.104 564.283,53.437 634.818,60.382 70.535,6.948 86.565,21.375 152.292,21.375 65.727,0 161.911,-22.443 219.622,-25.649 57.71,-3.206 125.039,-27.252 185.956,-32.062 60.917,-4.81 86.566,-27.114 40.077,-51.229 -46.489,-24.115 -52.901,-19.306 -78.551,-24.115 -25.649,-4.809 -68.931,-19.236 -83.359,-28.855 -14.428,-9.618 -73.742,-27.252 -91.376,-30.458 -17.634,-3.207 20.84,-6.413 20.84,-6.413" id="path63" inkscape:connector-curvature="0" style="fill:#ffffff" /><g clip-path="url(#SVGID_4_)" id="g65" style="opacity:0.7"><g id="g67"><defs id="defs69"><rect id="SVGID_13_" x="231.105" y="638.95898" width="397.36401" height="238.85899" /></defs><clipPath id="SVGID_14_"><use xlink:href="#SVGID_13_" overflow="visible" id="use73" style="overflow:visible" x="0" y="0" width="1600" height="1150" /></clipPath><g clip-path="url(#SVGID_14_)" id="g75"><defs id="defs77"><rect id="SVGID_15_" x="231.105" y="638.961" width="397.36401" height="238.85699" /></defs><clipPath id="SVGID_16_"><use xlink:href="#SVGID_15_" overflow="visible" id="use81" style="overflow:visible" x="0" y="0" width="1600" height="1150" /></clipPath><path clip-path="url(#SVGID_16_)" d="m 528.005,640.562 c 0,0 56.795,4.425 71.604,17.634 19.773,17.634 1.971,26.858 -21.375,31.526 -34.726,6.948 -160.898,-1.637 -200.291,-1.067 -74.039,1.067 -93.422,4.136 -124.065,22.443 -29.905,17.865 5.344,48.627 62.367,51.298 45.02,2.107 110.766,6.412 160.412,4.81 51.899,-1.679 90.623,-3.205 102.112,24.581 3.789,9.161 -37.938,14.96 -68.397,16.563 -30.458,1.603 -23.968,-0.329 -62.441,6.368 -38.475,6.697 -78.772,15.398 -94.668,19.816 -28.848,8.016 -112.336,10.153 -122.158,10.153 l 24.377,33.13 c 0,0 17.493,-4.81 48.422,-7.214 30.93,-2.404 39.738,-4.108 69.825,-11.338 49.542,-11.907 51.678,-18.181 96.565,-19.854 44.886,-1.672 158.174,-16.1 144.811,-48.16 -4.149,-9.954 -14.428,-44.352 -59.848,-45.423 -44.334,-1.042 -74.769,1.336 -127.958,-1.869 -53.189,-3.206 -113.273,-4.008 -135.732,-9.618 -22.459,-5.611 -44.812,-15.326 0,-27.252 18.544,-4.938 40.173,0.801 111.053,0.801 70.88,0 155.261,-1.33 180.958,-5.344 8.55,-1.334 44.584,-13.36 44.887,-35.801 0.229,-17.102 -10.687,-13.397 -21.909,-18.169 -18.5,-7.865 -44.085,-9.617 -44.085,-9.617 l -34.466,1.603" id="path83" inkscape:connector-curvature="0" style="fill:#ffffff" /></g></g></g><rect x="30.82" y="858.93402" clip-path="url(#SVGID_4_)" width="3.717" height="38.188999" id="rect85" style="fill:#ffffff" /><rect x="93.57" y="849.716" clip-path="url(#SVGID_4_)" width="3.717" height="38.188999" id="rect87" style="fill:#ffffff" /><rect x="144.869" y="834.22803" clip-path="url(#SVGID_4_)" width="3.717" height="38.188" id="rect89" style="fill:#ffffff" /><rect x="116.581" y="811.289" clip-path="url(#SVGID_4_)" width="2.026" height="26.52" id="rect91" style="fill:#ffffff" /><rect x="86.143997" y="798.48999" clip-path="url(#SVGID_4_)" width="2.027" height="26.52" id="rect93" style="fill:#ffffff" /><rect x="53.870998" y="790.625" clip-path="url(#SVGID_4_)" width="2.027" height="26.52" id="rect95" style="fill:#ffffff" /><rect x="24.997" y="785.22998" clip-path="url(#SVGID_4_)" width="2.027" height="26.52" id="rect97" style="fill:#ffffff" /><polyline clip-path="url(#SVGID_4_)" stroke-miterlimit="10" points="-496.55,816.355     -411.089,831.219 -332.684,851.883 -261.323,873.008 -187.957,876.987 -112.935,891.891 -45.271,888.895 32.679,879.677     95.427,869.802 146.725,852.521   " id="polyline99" style="fill:none;stroke:#ffffff;stroke-miterlimit:10" /><polyline clip-path="url(#SVGID_4_)" stroke-miterlimit="10" points="-496.55,831.043     -411.089,844.303 -332.682,864.965 -261.323,886.09 -187.957,890.072 -112.935,904.976 -45.27,901.981 32.68,889.556     95.429,879.677 146.727,862.397   " id="polyline101" style="fill:none;stroke:#ffffff;stroke-miterlimit:10" /><polyline clip-path="url(#SVGID_4_)" stroke-miterlimit="10" points="146.728,844.86     95.429,858.934 32.679,868.81 -45.271,874.82 -112.935,877.817 -187.958,862.914 -261.324,858.934 -332.682,837.809     -411.088,817.145 -496.549,802.281   " id="polyline103" style="fill:none;stroke:#ffffff;stroke-miterlimit:10" /><polyline clip-path="url(#SVGID_4_)" stroke-miterlimit="10" points="    -125.249,753.979 -100.99,753.979 -68.553,760.392 -38.494,769.353 -4.43,780.314 26.01,793.574 54.884,797.263 87.158,805.487     117.595,817.145 146.728,844.86   " id="polyline105" style="fill:none;stroke:#ffffff;stroke-width:0.5;stroke-miterlimit:10" /><polyline clip-path="url(#SVGID_4_)" stroke-miterlimit="10" points="    -125.249,754.23 -100.99,757.437 -68.553,765.451 -38.494,776.016 -4.43,786.98 26.01,800.24 54.884,805.528 87.158,812.153     117.595,823.811 146.728,853.127   " id="polyline107" style="fill:none;stroke:#ffffff;stroke-width:0.5;stroke-miterlimit:10" /><polyline clip-path="url(#SVGID_4_)" stroke-miterlimit="10" points="    -125.249,753.626 -100.99,761.641 -68.553,769.656 -38.494,781.823 -4.43,794.389 26.01,806.045 54.884,811.336 87.158,817.959     117.595,831.219 146.728,862.141   " id="polyline109" style="fill:none;stroke:#ffffff;stroke-width:0.5;stroke-miterlimit:10" /><polygon clip-path="url(#SVGID_4_)" points="251.3,576.252 498.174,576.252 506.991,519.343 531.839,489.686 552.679,518.542 559.893,573.046 559.893,639.574 251.3,639.574 " id="polygon111" style="fill:#627cbf" /><polygon clip-path="url(#SVGID_4_)" points="263.323,515.336 285.767,485.679 534.243,485.679 558.289,517.74 564.701,576.252 559.893,576.252 552.679,518.542 531.839,489.687 506.991,519.343 498.174,576.252 251.3,576.252 " id="polygon113" style="fill:#b3ba2d" /><line clip-path="url(#SVGID_4_)" stroke-miterlimit="10" x1="449.39999" y1="576.25201" x2="449.39999" y2="639.57397" id="line115" style="fill:none;stroke:#fcf076;stroke-miterlimit:10" /><line clip-path="url(#SVGID_4_)" stroke-miterlimit="10" x1="461.73901" y1="576.25201" x2="461.73901" y2="639.57397" id="line117" style="fill:none;stroke:#fcf076;stroke-miterlimit:10" /><line clip-path="url(#SVGID_4_)" stroke-miterlimit="10" x1="474.07901" y1="576.25201" x2="474.07901" y2="639.57397" id="line119" style="fill:none;stroke:#fcf076;stroke-miterlimit:10" /><line clip-path="url(#SVGID_4_)" stroke-miterlimit="10" x1="486.41901" y1="576.25201" x2="486.41901" y2="639.57397" id="line121" style="fill:none;stroke:#fcf076;stroke-miterlimit:10" /><line clip-path="url(#SVGID_4_)" stroke-miterlimit="10" x1="412.383" y1="576.25201" x2="412.383" y2="639.57397" id="line123" style="fill:none;stroke:#fcf076;stroke-miterlimit:10" /><line clip-path="url(#SVGID_4_)" stroke-miterlimit="10" x1="424.72" y1="576.25201" x2="424.72" y2="639.57397" id="line125" style="fill:none;stroke:#fcf076;stroke-miterlimit:10" /><line clip-path="url(#SVGID_4_)" stroke-miterlimit="10" x1="437.06201" y1="576.25201" x2="437.06201" y2="639.57397" id="line127" style="fill:none;stroke:#fcf076;stroke-miterlimit:10" /><line clip-path="url(#SVGID_4_)" stroke-miterlimit="10" x1="375.36401" y1="576.25201" x2="375.36401" y2="639.57397" id="line129" style="fill:none;stroke:#fcf076;stroke-miterlimit:10" /><line clip-path="url(#SVGID_4_)" stroke-miterlimit="10" x1="387.702" y1="576.25201" x2="387.702" y2="639.57397" id="line131" style="fill:none;stroke:#fcf076;stroke-miterlimit:10" /><line clip-path="url(#SVGID_4_)" stroke-miterlimit="10" x1="400.04199" y1="576.25201" x2="400.04199" y2="639.57397" id="line133" style="fill:none;stroke:#fcf076;stroke-miterlimit:10" /><line clip-path="url(#SVGID_4_)" stroke-miterlimit="10" x1="338.345" y1="576.25201" x2="338.345" y2="639.57397" id="line135" style="fill:none;stroke:#fcf076;stroke-miterlimit:10" /><line clip-path="url(#SVGID_4_)" stroke-miterlimit="10" x1="350.685" y1="576.25201" x2="350.685" y2="639.57397" id="line137" style="fill:none;stroke:#fcf076;stroke-miterlimit:10" /><line clip-path="url(#SVGID_4_)" stroke-miterlimit="10" x1="363.02301" y1="576.25201" x2="363.02301" y2="639.57397" id="line139" style="fill:none;stroke:#fcf076;stroke-miterlimit:10" /><line clip-path="url(#SVGID_4_)" stroke-miterlimit="10" x1="301.32501" y1="576.25201" x2="301.32501" y2="639.57397" id="line141" style="fill:none;stroke:#fcf076;stroke-miterlimit:10" /><line clip-path="url(#SVGID_4_)" stroke-miterlimit="10" x1="313.66699" y1="576.25201" x2="313.66699" y2="639.57397" id="line143" style="fill:none;stroke:#fcf076;stroke-miterlimit:10" /><line clip-path="url(#SVGID_4_)" stroke-miterlimit="10" x1="326.00601" y1="576.25201" x2="326.00601" y2="639.57397" id="line145" style="fill:none;stroke:#fcf076;stroke-miterlimit:10" /><line clip-path="url(#SVGID_4_)" stroke-miterlimit="10" x1="264.30801" y1="576.25201" x2="264.30801" y2="639.57397" id="line147" style="fill:none;stroke:#fcf076;stroke-miterlimit:10" /><line clip-path="url(#SVGID_4_)" stroke-miterlimit="10" x1="276.647" y1="576.25201" x2="276.647" y2="639.57397" id="line149" style="fill:none;stroke:#fcf076;stroke-miterlimit:10" /><line clip-path="url(#SVGID_4_)" stroke-miterlimit="10" x1="288.98801" y1="576.25201" x2="288.98801" y2="639.57397" id="line151" style="fill:none;stroke:#fcf076;stroke-miterlimit:10" /><polygon clip-path="url(#SVGID_4_)" points="414.013,491.289 419.623,485.578 424.432,485.578 424.432,460.831 395.577,460.831 395.577,491.289 " id="polygon153" style="fill:#fcf076" /></g><path style="fill:#7b7c35" inkscape:connector-curvature="0" id="path163" d="m 805.83,270.045 c 0,-21.472 17.407,-38.877 38.878,-38.877 21.471,0 38.879,17.405 38.879,38.877 0,21.471 -17.408,38.877 -38.879,38.877 -21.471,0 -38.878,-17.406 -38.878,-38.877" clip-path="url(#SVGID_18_)" /><path style="fill:#7b7c35" inkscape:connector-curvature="0" id="path173" d="m 1177.527,592.519 c -4.011,-1.879 -5.738,-6.654 -3.858,-10.665 1.88,-4.011 6.655,-5.738 10.666,-3.855 4.011,1.877 5.738,6.652 3.858,10.662 -1.88,4.01 -6.655,5.738 -10.666,3.858" clip-path="url(#SVGID_18_)" /><path style="fill:#7b7c35" inkscape:connector-curvature="0" id="path175" d="m 1106.519,579.09 c -4.012,-1.881 -5.739,-6.655 -3.859,-10.667 1.88,-4.01 6.655,-5.737 10.666,-3.856 4.012,1.879 5.738,6.653 3.858,10.665 -1.88,4.009 -6.655,5.737 -10.665,3.858" clip-path="url(#SVGID_18_)" /><path style="fill:#7b7c35" inkscape:connector-curvature="0" id="path179" d="m 926.879,447.95 c 6.6,-5.91 7.158,-16.051 1.25,-22.65 -5.908,-6.599 -16.049,-7.161 -22.648,-1.25 -6.602,5.908 -7.16,16.048 -1.252,22.649 5.908,6.6 16.049,7.16 22.65,1.251" clip-path="url(#SVGID_18_)" /><path style="fill:#7b7c35" inkscape:connector-curvature="0" id="path187" d="m 809.59,449.926 c 2.955,3.301 8.021,3.58 11.325,0.625 3.3,-2.953 3.579,-8.024 0.624,-11.324 -2.954,-3.301 -8.023,-3.58 -11.324,-0.625 -3.298,2.954 -3.58,8.023 -0.625,11.324" clip-path="url(#SVGID_18_)" /><path style="fill:#7b7c35" inkscape:connector-curvature="0" id="path189" d="m 754.188,393.345 c 2.955,3.301 8.025,3.58 11.326,0.625 3.299,-2.953 3.578,-8.024 0.623,-11.324 -2.954,-3.301 -8.023,-3.58 -11.324,-0.625 -3.299,2.954 -3.581,8.023 -0.625,11.324" clip-path="url(#SVGID_18_)" /><path style="fill:#7b7c35" inkscape:connector-curvature="0" id="path205" d="m 952.859,393.2 c 0,-7.534 6.105,-13.641 13.641,-13.641 7.534,0 13.642,6.107 13.642,13.641 0,7.534 -6.107,13.641 -13.642,13.641 -7.535,0 -13.641,-6.107 -13.641,-13.641" clip-path="url(#SVGID_18_)" /><g id="g3850" /><g id="g5153"><g id="g5141"><path style="fill:none;stroke:#627cbf;stroke-width:4;stroke-miterlimit:10" inkscape:connector-curvature="0" id="path659" d="m 216.274,673.503 c 0,-6.563 -14.415,-11.879 -32.191,-11.879 -17.775,0 -32.191,5.315 -32.191,11.879 0,6.562 14.416,11.877 32.191,11.877 17.776,0 32.191,-5.316 32.191,-11.877 z" stroke-miterlimit="10" /><path style="fill:#627cbf" inkscape:connector-curvature="0" id="path661" d="m 184.75,602.607 c -12.537,0 -22.704,9.726 -22.704,21.726 0,13.522 22.704,50.366 22.704,50.366 0,0 22.697,-36.844 22.697,-50.366 0,-12 -10.155,-21.726 -22.697,-21.726" /><path style="fill:none;stroke:#ffffff;stroke-width:6;stroke-miterlimit:10" inkscape:connector-curvature="0" id="path663" d="m 175.727,626 c 0,0 0.003,-8.355 8.617,-8.358 6.664,0 7.83,6.007 7.835,8.358 0.005,2.089 -1.565,4.438 -4.962,7.049 -3.395,2.613 -3.541,3.527 -3.656,7.573" stroke-miterlimit="10" /><path style="fill:#ffffff" inkscape:connector-curvature="0" id="path665" d="m 186.695,647.151 c 0,1.587 -1.287,2.872 -2.874,2.872 -1.586,0 -2.872,-1.285 -2.872,-2.872 0,-1.586 1.286,-2.872 2.872,-2.872 1.587,0 2.874,1.286 2.874,2.872" /></g><g id="g5147"><ellipse style="fill:none;stroke:#627cbf;stroke-width:3;stroke-miterlimit:10" sodipodi:ry="6.1589999" sodipodi:rx="16.691" sodipodi:cy="255.976" sodipodi:cx="93.554001" id="ellipse667" ry="6.1589999" rx="16.691" cy="255.976" cx="93.554001" stroke-miterlimit="10" /><path style="fill:#627cbf" inkscape:connector-curvature="0" id="path669" d="m 93.899,219.217 c -6.5,0 -11.771,5.042 -11.771,11.265 0,7.01 11.771,26.114 11.771,26.114 0,0 11.769,-19.104 11.769,-26.114 0,-6.223 -5.266,-11.265 -11.769,-11.265" /><path style="fill:none;stroke:#ffffff;stroke-width:2;stroke-miterlimit:10" inkscape:connector-curvature="0" id="path671" d="m 89.221,231.346 c 0,0 0.002,-4.333 4.469,-4.334 3.455,0 4.059,3.114 4.062,4.334 0.002,1.083 -0.812,2.301 -2.573,3.654 -1.761,1.355 -1.836,1.829 -1.896,3.927" stroke-miterlimit="10" /><path style="fill:#ffffff" inkscape:connector-curvature="0" id="path673" d="m 94.908,242.312 c 0,0.823 -0.667,1.489 -1.49,1.489 -0.823,0 -1.489,-0.666 -1.489,-1.489 0,-0.822 0.666,-1.489 1.489,-1.489 0.823,0.001 1.49,0.668 1.49,1.489" /></g></g><rect style="fill:#ffffff" id="rect235" height="165.76199" width="1600" clip-path="url(#SVGID_18_)" y="984.33502" x="0.287" /><g clip-path="url(#SVGID_2_)" id="g237"><text transform="matrix(1 0 0 1 339.9941 1046.1826)" font-family="'Helvetica'" font-size="18" id="text239">Re</text>
</g><g clip-path="url(#SVGID_2_)" id="g241"><text transform="matrix(1 0 0 1 362.998 1046.1826)" font-family="'Helvetica'" font-size="18" id="text243">f</text>
</g><g clip-path="url(#SVGID_2_)" id="g245"><text transform="matrix(1 0 0 1 367.8403 1046.1826)" font-family="'Helvetica'" font-size="18" id="text247">erences: </text>
</g><g clip-path="url(#SVGID_2_)" id="g249"><text transform="matrix(1 0 0 1 441.874 1046.1826)" font-family="'Helvetica'" font-size="18" id="text251">Hung, H., MacLeod, M., Guardans, R., Scheringer, M., Barra, R., Harner, T., and Zhang, G. (2013). &quot;Toward the next generation o</text>
</g><g clip-path="url(#SVGID_2_)" id="g253"><text transform="matrix(1 0 0 1 1476.7275 1046.1826)" font-family="'Helvetica'" font-size="18" id="text255">f air quality</text>
</g><g clip-path="url(#SVGID_2_)" id="g257"><text transform="matrix(1 0 0 1 367.8403 1067.7822)" id="text259"><tspan x="0" y="0" font-family="'Helvetica'" font-size="18" letter-spacing="30" id="tspan261" /><tspan x="35.997" y="0" font-family="'Helvetica'" font-size="18" id="tspan263" /></text>
</g><g clip-path="url(#SVGID_2_)" id="g265"><text transform="matrix(1 0 0 1 439.8403 1067.7822)" font-family="'Helvetica'" font-size="18" id="text267">monitoring: Persistent organic pollutants.&quot; At</text>
</g><g clip-path="url(#SVGID_2_)" id="g269"><text transform="matrix(1 0 0 1 793.396 1067.7822)" font-family="'Helvetica'" font-size="18" id="text271">m</text>
</g><g clip-path="url(#SVGID_2_)" id="g273"><text transform="matrix(1 0 0 1 808.4082 1067.7822)" font-family="'Helvetica'" font-size="18" id="text275">ospheric Environment 80: 591-598.</text>
</g><g clip-path="url(#SVGID_2_)" id="g277"><text transform="matrix(1 0 0 1 804.0703 1046.1826)" font-family="'Helvetica'" font-size="18" id="text279" />
</g><g clip-path="url(#SVGID_2_)" id="g281"><text transform="matrix(1 0 0 1 339.9941 1067.7822)" font-family="'Helvetica'" font-size="18" id="text283" />
</g><g clip-path="url(#SVGID_2_)" id="g285"><text transform="matrix(1 0 0 1 382.708 1067.7822)" font-family="'Helvetica'" font-size="18" id="text287" />
</g><g clip-path="url(#SVGID_2_)" id="g289"><text transform="matrix(1 0 0 1 425.4219 1067.7822)" font-family="'Helvetica'" font-size="18" id="text291" />
</g><polygon clip-path="url(#SVGID_2_)" fill="#2E2119" points="103.819,1045.95 103.819,1029.255 115.321,1029.255 115.321,1031.78    107.432,1031.78 107.432,1036.026 114.057,1036.026 114.057,1038.405 107.432,1038.405 107.432,1043.403 115.661,1043.403    115.661,1045.95  " id="polygon293" /><g clip-path="url(#SVGID_2_)" id="g295"><defs id="defs297"><rect id="SVGID_19_" width="1600" height="1150" /></defs><clipPath id="SVGID_20_"><use xlink:href="#SVGID_19_" overflow="visible" id="use301" /></clipPath><path clip-path="url(#SVGID_20_)" fill="#2E2119" d="M125.885,1045.95v-7.375c0-1.24-0.194-2.137-1.698-2.137    c-0.801,0-1.917,0.414-2.718,0.896v8.615h-3.495v-11.914h3.301l0.048,1.09l0.097,0.051c1.382-0.924,3.058-1.432,4.198-1.432    c3.155,0,3.737,1.869,3.737,4.102v8.104H125.885z" id="path303" /><path clip-path="url(#SVGID_20_)" fill="#2E2119" d="M137.249,1043.646c0.121-0.314,0.776-3.082,1.164-4.32    c0.535-1.553,1.53-4.949,1.651-5.289h3.495c-0.874,2.451-3.227,9.486-4.101,11.914h-4.732c-0.85-2.428-3.229-9.463-4.078-11.914    h3.641l1.722,5.531c0.267,0.849,0.826,3.252,1.117,4.078H137.249z" id="path305" /><path clip-path="url(#SVGID_20_)" fill="#2E2119" d="M147.101,1032.579c-1.287,0-1.991-0.824-1.991-1.842    c0-1.068,0.729-1.871,1.991-1.871c1.335,0,2.061,0.803,2.061,1.871C149.162,1031.755,148.436,1032.579,147.101,1032.579     M145.377,1034.036h3.47v11.914h-3.47V1034.036z" id="path307" /><path clip-path="url(#SVGID_20_)" fill="#2E2119" d="M155.369,1036.147c1.31-1.287,3.203-2.428,4.538-2.428    c0.486,0,0.678,0.293,0.678,0.803c0,0.896-0.581,2.717-1.09,3.422l-4.053-0.049v8.055h-3.47v-11.914h3.421    c0,0.557-0.072,1.48-0.144,2.039L155.369,1036.147z" id="path309" /><path clip-path="url(#SVGID_20_)" fill="#2E2119" d="M167.38,1046.194c-4.416,0-5.946-2.766-5.946-6.188    c0-3.351,1.699-6.238,6.092-6.238c4.439,0,5.969,2.888,5.969,6.213C173.496,1043.306,171.919,1046.194,167.38,1046.194     M167.526,1036.22c-1.99,0-2.525,1.916-2.525,3.787c0,2.108,0.412,3.736,2.525,3.736c1.965,0,2.378-1.773,2.378-3.736    C169.904,1038.112,169.516,1036.22,167.526,1036.22" id="path311" /><path clip-path="url(#SVGID_20_)" fill="#2E2119" d="M183.37,1045.95v-7.375c0-1.24-0.195-2.137-1.699-2.137    c-0.801,0-1.918,0.414-2.719,0.896v8.615h-3.494v-11.914h3.3l0.048,1.09l0.097,0.051c1.383-0.924,3.059-1.432,4.199-1.432    c3.155,0,3.737,1.869,3.737,4.102v8.104H183.37z" id="path313" /><path clip-path="url(#SVGID_20_)" fill="#2E2119" d="M204.358,1045.95v-7.545c0-1.312-0.34-1.943-1.578-1.943    c-0.752,0-1.867,0.365-2.547,0.826c0.072,0.51,0.098,1.117,0.098,1.553v7.109h-3.424c0-2.598-0.024-5.193-0.024-7.789    c0-1.117-0.508-1.674-1.431-1.674c-0.801,0-1.795,0.365-2.621,0.871v8.592h-3.47v-11.914h3.253l0.071,1.188l0.097,0.049    c1.36-1.02,2.985-1.504,4.125-1.504c1.36,0,2.284,0.484,2.889,1.553c1.165-0.896,3.033-1.553,4.295-1.553    c3.179,0,3.761,1.967,3.761,4.197v7.984H204.358z" id="path315" /><path clip-path="url(#SVGID_20_)" fill="#2E2119" d="M221.146,1039.546v1.236h-7.788c0,1.82,0.85,2.789,2.986,2.789    c1.286,0,2.595-0.289,3.833-0.752l0.705,2.137c-1.579,0.873-3.399,1.188-5.049,1.188c-4.805,0-5.969-2.861-5.969-6.137    c0-2.621,1.117-6.287,5.823-6.287C220.807,1033.72,221.146,1037.407,221.146,1039.546 M213.407,1038.646h4.586    c-0.024-1.576-0.51-2.717-2.16-2.717C214.111,1035.929,213.528,1037.216,213.407,1038.646" id="path317" /><path clip-path="url(#SVGID_20_)" fill="#2E2119" d="M231.314,1045.95v-7.375c0-1.24-0.194-2.137-1.699-2.137    c-0.801,0-1.917,0.414-2.718,0.896v8.615h-3.494v-11.914h3.299l0.049,1.09l0.097,0.051c1.384-0.924,3.057-1.432,4.198-1.432    c3.156,0,3.738,1.869,3.738,4.102v8.104H231.314z" id="path319" /><path clip-path="url(#SVGID_20_)" fill="#2E2119" d="M241.553,1030.735v3.277h3.471v2.279h-3.471v5.389    c0,1.26,0.364,1.842,1.603,1.842c0.436,0,1.189-0.119,2.061-0.314l0.437,2.258c-1.019,0.461-2.377,0.678-3.397,0.678    c-3.324,0-4.125-1.648-4.125-3.541v-6.311h-1.675v-1.893l1.893-0.559c0.171-0.412,0.704-2.449,0.849-2.863L241.553,1030.735z" id="path321" /><path clip-path="url(#SVGID_20_)" fill="#2E2119" d="M257.64,1043.646h1.554l0.169,1.939c-0.777,0.367-1.893,0.609-2.911,0.609    c-1.044,0-1.796-0.242-1.919-1.434c0-0.023-0.023-0.023-0.048-0.049c-1.674,1.459-3.444,1.482-4.124,1.482    c-2.961,0-3.69-2.086-3.69-3.471c0-2.477,1.918-3.688,4.418-3.834c0.921-0.072,2.33-0.121,3.25-0.195v-0.289    c0-1.361-0.436-2.062-2.207-2.062c-1.165,0-2.67,0.24-3.785,0.604c-0.171-0.727-0.365-1.452-0.558-2.156    c1.406-0.609,3.468-0.996,5.168-0.996c2.863,0,4.683,1.066,4.683,4.15V1043.646z M251.937,1040.806    c-1.141,0.098-1.674,0.68-1.674,1.625c0,0.998,0.485,1.531,1.627,1.531c0.728,0,1.674-0.391,2.449-1.068v-2.283L251.937,1040.806z    " id="path323" /><polygon clip-path="url(#SVGID_20_)" fill="#2E2119" points="264.578,1045.95 261.132,1045.95 261.132,1028.575 264.602,1028.575       " id="polygon325" /><path clip-path="url(#SVGID_20_)" fill="#2E2119" d="M110.444,1066.659h-3.034l0.025,6.406h-3.616v-16.692h6.333    c3.811,0,5.727,1.987,5.727,5.118C115.879,1063.894,114.376,1066.659,110.444,1066.659 M107.41,1058.894v5.316h2.353    c1.287,0,2.475-0.68,2.475-2.645c0-1.896-1.116-2.672-2.596-2.672H107.41z" id="path327" /><path clip-path="url(#SVGID_20_)" fill="#2E2119" d="M128.13,1066.659v1.238h-7.788c0,1.82,0.85,2.789,2.986,2.789    c1.285,0,2.596-0.291,3.833-0.752l0.703,2.137c-1.578,0.873-3.397,1.189-5.047,1.189c-4.805,0-5.969-2.865-5.969-6.141    c0-2.621,1.115-6.283,5.823-6.283C127.792,1060.837,128.13,1064.524,128.13,1066.659 M120.392,1065.763h4.586    c-0.024-1.578-0.51-2.719-2.16-2.719C121.095,1063.044,120.512,1064.329,120.392,1065.763" id="path329" /><path clip-path="url(#SVGID_20_)" fill="#2E2119" d="M133.784,1063.261c1.311-1.283,3.203-2.424,4.538-2.424    c0.485,0,0.681,0.289,0.681,0.799c0,0.896-0.584,2.717-1.094,3.422l-4.051-0.049v8.057h-3.471v-11.914h3.422    c0,0.557-0.073,1.479-0.146,2.037L133.784,1063.261z" id="path331" /><path clip-path="url(#SVGID_20_)" fill="#2E2119" d="M142.009,1063.407h-1.675v-1.893l1.7-0.486v-1.479    c0-2.281,0.995-4.078,4.512-4.078c0.826,0,2.16,0.098,3.277,0.412l-0.412,2.354c-0.679-0.145-1.554-0.217-2.063-0.217    c-1.237,0-1.943,0.412-1.943,1.578v1.527h3.424v2.281h-3.424c0,1.043-0.023,8.615-0.023,9.658h-3.373V1063.407z" id="path333" /><path clip-path="url(#SVGID_20_)" fill="#2E2119" d="M155.792,1073.308c-4.416,0-5.946-2.766-5.946-6.188    c0-3.348,1.698-6.234,6.091-6.234c4.44,0,5.969,2.887,5.969,6.209C161.905,1070.421,160.329,1073.308,155.792,1073.308     M155.937,1063.335c-1.99,0-2.523,1.918-2.523,3.785c0,2.111,0.412,3.736,2.523,3.736c1.966,0,2.379-1.77,2.379-3.736    C158.315,1065.228,157.926,1063.335,155.937,1063.335" id="path335" /><path clip-path="url(#SVGID_20_)" fill="#2E2119" d="M167.315,1063.261c1.311-1.283,3.204-2.424,4.539-2.424    c0.486,0,0.678,0.289,0.678,0.799c0,0.896-0.582,2.717-1.09,3.422l-4.054-0.049v8.057h-3.469v-11.914h3.421    c0,0.557-0.072,1.479-0.145,2.037L167.315,1063.261z" id="path337" /><path clip-path="url(#SVGID_20_)" fill="#2E2119" d="M189.036,1073.065v-7.547c0-1.309-0.34-1.939-1.578-1.939    c-0.752,0-1.867,0.363-2.547,0.822c0.072,0.51,0.098,1.117,0.098,1.553v7.111h-3.424c0-2.598-0.024-5.193-0.024-7.791    c0-1.113-0.508-1.674-1.431-1.674c-0.801,0-1.795,0.365-2.62,0.875v8.59h-3.47v-11.914h3.25l0.073,1.189l0.097,0.049    c1.36-1.021,2.985-1.504,4.125-1.504c1.36,0,2.283,0.482,2.889,1.553c1.165-0.9,3.033-1.553,4.295-1.553    c3.179,0,3.761,1.965,3.761,4.197v7.982H189.036z" id="path339" /><path clip-path="url(#SVGID_20_)" fill="#2E2119" d="M205.413,1070.761h1.553l0.17,1.941c-0.776,0.362-1.893,0.605-2.912,0.605    c-1.045,0-1.797-0.243-1.917-1.432c0-0.021-0.025-0.021-0.049-0.047c-1.675,1.455-3.447,1.479-4.125,1.479    c-2.961,0-3.689-2.086-3.689-3.471c0-2.473,1.916-3.689,4.416-3.834c0.924-0.072,2.33-0.119,3.252-0.191v-0.293    c0-1.357-0.437-2.062-2.209-2.062c-1.164,0-2.668,0.242-3.785,0.607c-0.17-0.729-0.363-1.457-0.558-2.162    c1.408-0.604,3.47-0.992,5.17-0.992c2.863,0,4.683,1.068,4.683,4.148V1070.761z M199.71,1067.919    c-1.141,0.1-1.674,0.682-1.674,1.629c0,0.994,0.484,1.527,1.625,1.527c0.729,0,1.674-0.389,2.451-1.066v-2.281L199.71,1067.919z" id="path341" /><path clip-path="url(#SVGID_20_)" fill="#2E2119" d="M216.842,1073.065v-7.377c0-1.238-0.194-2.135-1.699-2.135    c-0.801,0-1.917,0.412-2.718,0.896v8.615h-3.494v-11.914h3.299l0.049,1.092l0.097,0.049c1.383-0.924,3.057-1.434,4.198-1.434    c3.156,0,3.738,1.869,3.738,4.102v8.105H216.842z" id="path343" /><path clip-path="url(#SVGID_20_)" fill="#2E2119" d="M228.705,1070.614c1.115,0,2.136-0.242,3.204-0.604l0.654,2.303    c-1.189,0.605-2.862,0.947-4.488,0.947c-4.562,0-5.752-2.719-5.752-6.02c0-2.813,1.068-6.355,5.897-6.355    c1.019,0,2.353,0.094,3.714,0.583c-0.171,0.798-0.34,1.599-0.535,2.425c-1.019-0.293-1.892-0.34-2.595-0.34    c-1.943,0-2.961,1.334-2.961,3.541C225.843,1069.28,226.546,1070.614,228.705,1070.614" id="path345" /><path clip-path="url(#SVGID_20_)" fill="#2E2119" d="M245.063,1066.659v1.238h-7.788c0,1.82,0.849,2.789,2.985,2.789    c1.285,0,2.596-0.291,3.833-0.752l0.705,2.137c-1.579,0.873-3.399,1.189-5.049,1.189c-4.803,0-5.969-2.865-5.969-6.141    c0-2.621,1.117-6.283,5.824-6.283C244.723,1060.837,245.063,1064.524,245.063,1066.659 M237.323,1065.763h4.587    c-0.025-1.578-0.511-2.719-2.161-2.719C238.027,1063.044,237.444,1064.329,237.323,1065.763" id="path347" /><rect x="104.038" y="1083.483" clip-path="url(#SVGID_20_)" fill="#2E2119" width="3.541" height="16.692" id="rect349" /><path clip-path="url(#SVGID_20_)" fill="#2E2119" d="M118.646,1100.181v-7.379c0-1.238-0.195-2.135-1.699-2.135    c-0.801,0-1.917,0.412-2.718,0.896v8.617h-3.495v-11.916h3.301l0.049,1.092l0.096,0.051c1.383-0.924,3.058-1.434,4.198-1.434    c3.155,0,3.739,1.867,3.739,4.1v8.107H118.646z" id="path351" /><path clip-path="url(#SVGID_20_)" fill="#2E2119" d="M132.62,1088.728v-5.898h3.471v17.352h-3.229l-0.072-1.068    c-0.025-0.023-0.047-0.049-0.072-0.049c-1.164,0.945-2.646,1.285-3.664,1.285c-3.714,0-4.733-2.717-4.733-5.871    c0-3.689,1.359-6.504,5.145-6.504C130.243,1087.974,131.626,1088.142,132.62,1088.728 M132.62,1091.151    c-0.559-0.338-1.625-0.654-2.402-0.654c-1.189,0-2.403,0.703-2.403,3.955c0,2.816,1.043,3.471,2.354,3.471    c0.704,0,1.892-0.484,2.451-0.896V1091.151z" id="path353" /><path clip-path="url(#SVGID_20_)" fill="#2E2119" d="M149.192,1093.772v1.238h-7.79c0,1.82,0.852,2.791,2.985,2.791    c1.288,0,2.597-0.291,3.835-0.754l0.704,2.137c-1.578,0.873-3.398,1.189-5.049,1.189c-4.804,0-5.968-2.863-5.968-6.139    c0-2.623,1.115-6.285,5.824-6.285C148.852,1087.95,149.192,1091.638,149.192,1093.772 M141.451,1092.876h4.587    c-0.024-1.578-0.51-2.719-2.161-2.719C142.155,1090.157,141.573,1091.442,141.451,1092.876" id="path355" /><polygon clip-path="url(#SVGID_20_)" fill="#2E2119" points="156.495,1095.761 153.971,1100.181 150.259,1100.181     154.359,1093.968 150.574,1088.265 154.384,1088.265 156.544,1092.292 158.727,1088.265 162.44,1088.265 158.581,1093.942     162.635,1100.181 158.849,1100.181   " id="polygon357" /><path clip-path="url(#SVGID_20_)" fill="#F4C618" d="M73.875,1092.786c-1.936,0-3.503-1.566-3.503-3.5    c0-1.936,1.567-3.504,3.503-3.504c1.933,0,3.503,1.568,3.503,3.504C77.378,1091.22,75.808,1092.786,73.875,1092.786" id="path359" /><path clip-path="url(#SVGID_20_)" fill="#F4C618" d="M77.15,1083.767c-1.357,0-2.456-1.1-2.456-2.457s1.099-2.455,2.456-2.455    c1.356,0,2.454,1.098,2.454,2.455S78.506,1083.767,77.15,1083.767" id="path361" /><path clip-path="url(#SVGID_20_)" fill="#F4C618" d="M79.606,1077.019c-0.933,0-1.689-0.756-1.689-1.687    c0-0.935,0.756-1.69,1.689-1.69c0.934,0,1.689,0.756,1.689,1.69C81.295,1076.263,80.541,1077.019,79.606,1077.019" id="path363" /><path clip-path="url(#SVGID_20_)" fill="#F4C618" d="M81.244,1072.563c-0.673,0-1.22-0.545-1.22-1.221    c0-0.674,0.547-1.219,1.22-1.219s1.22,0.545,1.22,1.219C82.464,1072.019,81.917,1072.563,81.244,1072.563" id="path365" /><path clip-path="url(#SVGID_20_)" fill="#7D8FC7" d="M59.329,1078.272c-1.935,0-3.502-1.57-3.502-3.504    c0-1.932,1.567-3.498,3.502-3.498c1.934,0,3.502,1.566,3.502,3.498C62.831,1076.702,61.263,1078.272,59.329,1078.272" id="path367" /><path clip-path="url(#SVGID_20_)" fill="#7D8FC7" d="M67.272,1073.878c-1.355,0-2.451-1.1-2.451-2.455    c0-1.352,1.096-2.451,2.451-2.451c1.354,0,2.453,1.1,2.453,2.451C69.726,1072.778,68.626,1073.878,67.272,1073.878" id="path369" /><path clip-path="url(#SVGID_20_)" fill="#7D8FC7" d="M73.231,1070.597c-0.932,0-1.684-0.752-1.684-1.682s0.752-1.686,1.684-1.686    c0.93,0,1.684,0.756,1.684,1.686S74.162,1070.597,73.231,1070.597" id="path371" /><path clip-path="url(#SVGID_20_)" fill="#7D8FC7" d="M77.202,1068.452c-0.668,0-1.211-0.541-1.211-1.211s0.543-1.213,1.211-1.213    c0.672,0,1.214,0.543,1.214,1.213S77.874,1068.452,77.202,1068.452" id="path373" /><path clip-path="url(#SVGID_20_)" fill="#0C9ACC" d="M59.303,1057.726c-1.933,0-3.501-1.566-3.501-3.504    c0-1.932,1.568-3.498,3.501-3.498c1.935,0,3.503,1.566,3.503,3.498C62.806,1056.159,61.238,1057.726,59.303,1057.726" id="path375" /><path clip-path="url(#SVGID_20_)" fill="#0C9ACC" d="M67.287,1059.921c-1.351,0-2.448-1.094-2.448-2.447    c0-1.352,1.097-2.448,2.448-2.448c1.352,0,2.448,1.097,2.448,2.448C69.735,1058.827,68.639,1059.921,67.287,1059.921" id="path377" /><path clip-path="url(#SVGID_20_)" fill="#0C9ACC" d="M73.274,1061.587c-0.924,0-1.676-0.75-1.676-1.676    c0-0.929,0.752-1.679,1.676-1.679c0.928,0,1.678,0.75,1.678,1.679C74.952,1060.837,74.202,1061.587,73.274,1061.587" id="path379" /><path clip-path="url(#SVGID_20_)" fill="#0C9ACC" d="M77.269,1062.739c-0.666,0-1.205-0.541-1.205-1.205    c0-0.662,0.539-1.203,1.205-1.203c0.664,0,1.203,0.541,1.203,1.203C78.472,1062.198,77.933,1062.739,77.269,1062.739" id="path381" /><path clip-path="url(#SVGID_20_)" fill="#3EBBA3" d="M73.815,1043.181c-1.934,0-3.504-1.57-3.504-3.504    c0-1.933,1.57-3.502,3.504-3.502c1.933,0,3.502,1.569,3.502,3.502C77.317,1041.61,75.749,1043.181,73.815,1043.181" id="path383" /><path clip-path="url(#SVGID_20_)" fill="#3EBBA3" d="M77.14,1050.073c-1.35,0-2.444-1.092-2.444-2.443    c0-1.35,1.094-2.445,2.444-2.445s2.445,1.096,2.445,2.445C79.584,1048.981,78.49,1050.073,77.14,1050.073" id="path385" /><path clip-path="url(#SVGID_20_)" fill="#3EBBA3" d="M79.634,1055.267c-0.924,0-1.674-0.748-1.674-1.672s0.75-1.672,1.674-1.672    c0.922,0,1.67,0.748,1.67,1.672S80.556,1055.267,79.634,1055.267" id="path387" /><path clip-path="url(#SVGID_20_)" fill="#3EBBA3" d="M81.295,1058.769c-0.661,0-1.196-0.535-1.196-1.195    c0-0.658,0.535-1.197,1.196-1.197s1.196,0.539,1.196,1.197C82.491,1058.233,81.956,1058.769,81.295,1058.769" id="path389" /><path clip-path="url(#SVGID_20_)" fill="#F79523" d="M84.194,1112.479c-2.389,0-4.326-1.936-4.326-4.326    c0-2.389,1.937-4.324,4.326-4.324s4.326,1.936,4.326,4.324C88.521,1110.544,86.583,1112.479,84.194,1112.479" id="path391" /><path clip-path="url(#SVGID_20_)" fill="#F79523" d="M84.16,1100.157c-1.833,0-3.318-1.486-3.318-3.318    c0-1.83,1.485-3.318,3.318-3.318s3.317,1.488,3.317,3.318C87.477,1098.671,85.993,1100.157,84.16,1100.157" id="path393" /><path clip-path="url(#SVGID_20_)" fill="#F79523" d="M84.134,1090.772c-1.408,0-2.551-1.145-2.551-2.553    c0-1.406,1.143-2.551,2.551-2.551s2.551,1.145,2.551,2.551C86.685,1089.628,85.542,1090.772,84.134,1090.772" id="path395" /><path clip-path="url(#SVGID_20_)" fill="#F79523" d="M84.109,1082.021c-1.041,0-1.882-0.844-1.882-1.881    c0-1.039,0.841-1.885,1.882-1.885c1.038,0,1.882,0.846,1.882,1.885C85.991,1081.177,85.147,1082.021,84.109,1082.021" id="path397" /><path clip-path="url(#SVGID_20_)" fill="#F26E2C" d="M53.342,1099.741c-2.39,0-4.325-1.937-4.325-4.326    c0-2.391,1.935-4.326,4.325-4.326s4.325,1.936,4.325,4.326C57.667,1097.805,55.732,1099.741,53.342,1099.741" id="path399" /><path clip-path="url(#SVGID_20_)" fill="#F26E2C" d="M61.283,1090.671c-1.831,0-3.315-1.482-3.315-3.316    c0-1.829,1.484-3.312,3.315-3.312c1.83,0,3.314,1.483,3.314,3.312C64.597,1089.188,63.113,1090.671,61.283,1090.671" id="path401" /><path clip-path="url(#SVGID_20_)" fill="#F26E2C" d="M67.333,1083.761c-1.406,0-2.545-1.137-2.545-2.545    c0-1.406,1.139-2.545,2.545-2.545c1.405,0,2.545,1.139,2.545,2.545C69.878,1082.624,68.738,1083.761,67.333,1083.761" id="path403" /><path clip-path="url(#SVGID_20_)" fill="#F26E2C" d="M73.006,1077.333c-1.036,0-1.876-0.836-1.876-1.873    c0-1.035,0.84-1.875,1.876-1.875s1.876,0.84,1.876,1.875C74.882,1076.497,74.042,1077.333,73.006,1077.333" id="path405" /><path clip-path="url(#SVGID_20_)" fill="#3575BA" d="M40.53,1068.919c-2.39,0-4.326-1.938-4.326-4.328    c0-2.387,1.936-4.326,4.326-4.326c2.389,0,4.325,1.939,4.325,4.326C44.855,1066.981,42.919,1068.919,40.53,1068.919" id="path407" /><path clip-path="url(#SVGID_20_)" fill="#3575BA" d="M51.843,1067.813c-1.828,0-3.31-1.482-3.31-3.311s1.482-3.311,3.31-3.311    s3.309,1.482,3.309,3.311S53.671,1067.813,51.843,1067.813" id="path409" /><path clip-path="url(#SVGID_20_)" fill="#3575BA" d="M60.463,1066.97c-1.4,0-2.536-1.137-2.536-2.533    c0-1.402,1.136-2.537,2.536-2.537s2.534,1.135,2.534,2.537C62.997,1065.833,61.863,1066.97,60.463,1066.97" id="path411" /><path clip-path="url(#SVGID_20_)" fill="#3575BA" d="M68.544,1066.233c-1.029,0-1.863-0.832-1.863-1.863    c0-1.027,0.834-1.863,1.863-1.863c1.029,0,1.862,0.836,1.862,1.863C70.406,1065.401,69.573,1066.233,68.544,1066.233" id="path413" /><path clip-path="url(#SVGID_20_)" fill="#018C8C" d="M53.269,1038.067c-2.389,0-4.326-1.939-4.326-4.326    c0-2.391,1.937-4.328,4.326-4.328s4.326,1.938,4.326,4.328C57.595,1036.128,55.658,1038.067,53.269,1038.067" id="path415" /><path clip-path="url(#SVGID_20_)" fill="#018C8C" d="M61.304,1045.009c-1.825,0-3.305-1.479-3.305-3.305    c0-1.824,1.48-3.305,3.305-3.305c1.826,0,3.307,1.48,3.307,3.305C64.611,1043.53,63.13,1045.009,61.304,1045.009" id="path417" /><path clip-path="url(#SVGID_20_)" fill="#018C8C" d="M67.427,1050.302c-1.395,0-2.527-1.131-2.527-2.527s1.132-2.529,2.527-2.529    c1.396,0,2.527,1.133,2.527,2.529S68.823,1050.302,67.427,1050.302" id="path419" /><path clip-path="url(#SVGID_20_)" fill="#018C8C" d="M73.166,1055.315c-1.022,0-1.852-0.83-1.852-1.852    c0-1.025,0.83-1.854,1.852-1.854c1.023,0,1.853,0.828,1.853,1.854C75.019,1054.485,74.189,1055.315,73.166,1055.315" id="path421" /><path clip-path="url(#SVGID_20_)" fill="#2CB35F" d="M84.091,1025.255c-2.391,0-4.326-1.936-4.326-4.326    c0-2.387,1.935-4.326,4.326-4.326c2.39,0,4.325,1.939,4.325,4.326C88.416,1023.319,86.481,1025.255,84.091,1025.255" id="path423" /><path clip-path="url(#SVGID_20_)" fill="#2CB35F" d="M84.078,1035.546c-1.825,0-3.305-1.479-3.305-3.303s1.48-3.305,3.305-3.305    s3.304,1.48,3.304,3.305S85.903,1035.546,84.078,1035.546" id="path425" /><path clip-path="url(#SVGID_20_)" fill="#2CB35F" d="M84.067,1043.388c-1.395,0-2.524-1.129-2.524-2.523s1.129-2.527,2.524-2.527    c1.396,0,2.526,1.133,2.526,2.527S85.463,1043.388,84.067,1043.388" id="path427" /><path clip-path="url(#SVGID_20_)" fill="#2CB35F" d="M84.06,1050.796c-1.023,0-1.852-0.83-1.852-1.852s0.829-1.852,1.852-1.852    c1.021,0,1.851,0.83,1.851,1.852S85.081,1050.796,84.06,1050.796" id="path429" /></g><g clip-path="url(#SVGID_2_)" id="g435"><text transform="matrix(1 0 0 1 220.8018 74.0928)" fill="#7D8FC7" font-family="'Helvetica-Bold'" font-size="48" id="text437" />
</g><g id="g4149"><g id="g431"><text id="text433" font-size="48" transform="translate(71.4253,74.0928)" style="font-size:48px;fill:#ffffff;font-family:Helvetica-Bold">POPS:</text>
</g><g id="g439"><text id="text441" font-size="48" transform="translate(234.146,74.0928)" style="font-size:48px;fill:#627cbf;font-family:Helvetica-Bold">THE NEXT GENERATION</text>
</g><g id="g443"><text id="text445" font-size="20" transform="translate(75.0254,105.4316)" style="font-size:20px;fill:#ffffff;font-family:Helvetica">TO STRENGTHEN INDICATORS FOR POPS WILL REQUIRE IMPROVEMENTS IN POP AIR MONITORING AND MODELING IN</text>
</g><g id="g447"><text id="text449" font-size="20" transform="translate(75.0254,129.4316)" style="font-size:20px;fill:#ffffff;font-family:Helvetica">ORDER TO ESTABLISH MODELED EMISSIONS RATES FOR POPS AT THE COUNTRY, REGION, OR GLOBAL LEVEL.</text>
</g></g><g clip-path="url(#SVGID_2_)" id="g451"><text transform="matrix(1 0 0 1 200.2656 105.4316)" fill="#FFFFFF" font-family="'Helvetica'" font-size="20" id="text453" />
</g><g clip-path="url(#SVGID_2_)" id="g455"><text transform="matrix(1 0 0 1 531.0854 105.4316)" fill="#FFFFFF" font-family="'Helvetica'" font-size="20" id="text457" />
</g><g clip-path="url(#SVGID_2_)" id="g459"><text transform="matrix(1 0 0 1 535.5454 105.4316)" fill="#FFFFFF" font-family="'Helvetica'" font-size="20" id="text461" />
</g><g clip-path="url(#SVGID_2_)" id="g463"><text transform="matrix(1 0 0 1 654.9253 105.4316)" fill="#FFFFFF" font-family="'Helvetica'" font-size="20" id="text465" />
</g><g clip-path="url(#SVGID_2_)" id="g467"><text transform="matrix(1 0 0 1 848.6855 105.4316)" fill="#FFFFFF" font-family="'Helvetica'" font-size="20" id="text469" />
</g><g clip-path="url(#SVGID_2_)" id="g471"><text transform="matrix(1 0 0 1 906.8857 105.4316)" fill="#FFFFFF" font-family="'Helvetica'" font-size="20" id="text473" />
</g><g clip-path="url(#SVGID_2_)" id="g475"><text transform="matrix(1 0 0 1 911.3652 105.4316)" fill="#FFFFFF" font-family="'Helvetica'" font-size="20" id="text477" />
</g><g clip-path="url(#SVGID_2_)" id="g479"><text transform="matrix(1 0 0 1 162.4653 129.4316)" fill="#FFFFFF" font-family="'Helvetica'" font-size="20" id="text481" />
</g><g clip-path="url(#SVGID_2_)" id="g483"><text transform="matrix(1 0 0 1 332.9053 129.4316)" fill="#FFFFFF" font-family="'Helvetica'" font-size="20" id="text485" />
</g><g clip-path="url(#SVGID_2_)" id="g487"><text transform="matrix(1 0 0 1 337.3853 129.4316)" fill="#FFFFFF" font-family="'Helvetica'" font-size="20" id="text489" />
</g><g clip-path="url(#SVGID_2_)" id="g491"><text transform="matrix(1 0 0 1 756.3252 129.4316)" fill="#FFFFFF" font-family="'Helvetica'" font-size="20" id="text493" />
</g><g clip-path="url(#SVGID_2_)" id="g495"><text transform="matrix(1 0 0 1 961.625 129.4316)" fill="#FFFFFF" font-family="'Helvetica'" font-size="20" id="text497" />
</g><polygon clip-path="url(#SVGID_2_)" fill="#627CBF" points="57.029,37.775 37.92,56.884 57.029,75.995  " id="polygon499" /><g id="g3956"><path clip-path="url(#SVGID_22_)" d="m 1406.565,627.179 c 0,13.898 -4.779,25.166 -10.679,25.166 -5.895,0 -10.676,-11.268 -10.676,-25.166 0,-13.897 4.781,-25.168 10.676,-25.168 5.9,0 10.679,11.27 10.679,25.168" id="path509" inkscape:connector-curvature="0" style="fill:#627cbf" /><path clip-path="url(#SVGID_22_)" d="m 1502.657,648.277 v 24.912 c 0,0 -11.692,-0.51 -15.252,-22.371 h -27.964 c 0,0 2.033,7.626 -7.117,8.645 l -9.152,1.017 c 0,0 -5.083,-1.017 -6.608,-8.135 0,0 -19.32,3.052 -41.183,0 0,0 -16.271,-25.931 0,-50.334 0,0 17.794,-4.577 93.042,13.22 0,0 -2.037,-21.862 15.253,-21.354 v 25.421 c 0,0 11.186,2.543 11.693,10.678 0.507,8.135 -1.018,10.168 -1.018,10.168 0,0 -3.559,8.641 -11.694,8.133" id="path511" inkscape:connector-curvature="0" style="fill:#627cbf" /><path clip-path="url(#SVGID_22_)" d="m 1442.156,605.57 v -39.149 h -9.66 c 0,0 -5.085,-5.593 -0.509,-11.186 h 25.421 c 0,0 5.593,5.593 -1.018,11.186 h -8.135 v 40.674 l -6.099,-1.525 z" id="path513" inkscape:connector-curvature="0" style="fill:#627cbf" /><rect x="1444.189" y="657.93799" clip-path="url(#SVGID_22_)" width="6.6079998" height="293.36099" id="rect515" style="fill:#627cbf" /><g clip-path="url(#SVGID_22_)" id="g517" style="opacity:0.5"><g id="g519"><defs id="defs521"><rect id="SVGID_23_" x="1386.74" y="604.04498" width="18.299999" height="46.773998" /></defs><clipPath id="SVGID_24_"><use xlink:href="#SVGID_23_" overflow="visible" id="use525" style="overflow:visible" x="0" y="0" width="1600" height="1150" /></clipPath><g clip-path="url(#SVGID_24_)" id="g527"><defs id="defs529"><rect id="SVGID_25_" x="1386.74" y="604.04401" width="18.301001" height="46.775002" /></defs><clipPath id="SVGID_26_"><use xlink:href="#SVGID_25_" overflow="visible" id="use533" style="overflow:visible" x="0" y="0" width="1600" height="1150" /></clipPath><path clip-path="url(#SVGID_26_)" d="m 1405.04,627.433 c 0,12.915 -4.096,23.386 -9.153,23.386 -5.052,0 -9.149,-10.471 -9.149,-23.386 0,-12.917 4.098,-23.388 9.149,-23.388 5.057,0 9.153,10.471 9.153,23.388" id="path535" inkscape:connector-curvature="0" style="fill:#ffffff" /></g></g></g><line clip-path="url(#SVGID_22_)" stroke-miterlimit="10" x1="1114.986" y1="814.44397" x2="1091.712" y2="948.64697" id="line537" style="fill:none;stroke:#ffffff;stroke-width:2;stroke-miterlimit:10" /><line clip-path="url(#SVGID_22_)" stroke-miterlimit="10" x1="1319.3051" y1="814.30103" x2="1342.605" y2="948.64697" id="line539" style="fill:none;stroke:#ffffff;stroke-width:2;stroke-miterlimit:10" /><rect x="1101.416" y="799.12598" clip-path="url(#SVGID_22_)" width="230.64" height="17.341999" id="rect541" style="fill:#ffffff" /><line clip-path="url(#SVGID_22_)" stroke-miterlimit="10" x1="1318.141" y1="815.591" x2="1090.184" y2="948.27197" id="line543" style="fill:none;stroke:#ffffff;stroke-width:2;stroke-miterlimit:10" /><line clip-path="url(#SVGID_22_)" stroke-miterlimit="10" x1="1114.756" y1="815.591" x2="1342.71" y2="948.27197" id="line545" style="fill:none;stroke:#ffffff;stroke-width:2;stroke-miterlimit:10" /><rect x="1160.088" y="745.95099" clip-path="url(#SVGID_22_)" width="113.296" height="47.396" id="rect547" style="fill:#ffffff" /><rect x="1165.724" y="751.87097" clip-path="url(#SVGID_22_)" width="35.116001" height="35.118" id="rect549" style="fill:#b3ba2d" /><path clip-path="url(#SVGID_22_)" d="m 1262.401,720.439 c 0,2.275 -5.338,4.119 -11.922,4.119 -6.585,0 -11.922,-1.844 -11.922,-4.119 0,-2.271 5.337,-4.117 11.922,-4.117 6.584,0 11.922,1.847 11.922,4.117" id="path551" inkscape:connector-curvature="0" style="fill:#ffffff" /><rect x="1248.092" y="724.55402" clip-path="url(#SVGID_22_)" width="4.7709999" height="21.681" id="rect553" style="fill:#ffffff" /><g clip-path="url(#SVGID_22_)" id="g555" style="opacity:0.4"><g id="g557"><defs id="defs559"><rect id="SVGID_27_" x="1165.72" y="751.87097" width="35.119999" height="35.118999" /></defs><clipPath id="SVGID_28_"><use xlink:href="#SVGID_27_" overflow="visible" id="use563" style="overflow:visible" x="0" y="0" width="1600" height="1150" /></clipPath><g clip-path="url(#SVGID_28_)" id="g565"><defs id="defs567"><rect id="SVGID_29_" x="1165.72" y="751.87299" width="35.119999" height="35.117001" /></defs><clipPath id="SVGID_30_"><use xlink:href="#SVGID_29_" overflow="visible" id="use571" style="overflow:visible" x="0" y="0" width="1600" height="1150" /></clipPath><rect x="1165.724" y="751.87097" clip-path="url(#SVGID_30_)" width="35.116001" height="35.118" id="rect573" style="fill:#fcf076" /></g></g></g></g><circle style="fill:none;stroke:#7b7c35;stroke-width:6;stroke-miterlimit:10" sodipodi:ry="144.97099" sodipodi:rx="144.97099" sodipodi:cy="196.091" sodipodi:cx="1424.924" id="circle657" r="144.97099" cy="196.091" cx="1424.924" stroke-miterlimit="10" /><g id="g4401"><path d="m 1570.749,196.573 c 0,80.828 -65.523,146.354 -146.354,146.354 -80.827,0 -146.352,-65.526 -146.352,-146.354 0,-80.829 65.524,-146.352 146.352,-146.352 80.831,0 146.354,65.523 146.354,146.352" id="path575" inkscape:connector-curvature="0" style="fill:#b3ba2d" /><g id="g577"><defs id="defs579"><path inkscape:connector-curvature="0" d="m 1280.835,196.091 c 0,80.068 64.906,144.972 144.967,144.972 80.07,0 144.976,-64.904 144.976,-144.972 0,-80.065 -64.905,-144.971 -144.976,-144.971 -80.061,0 -144.967,64.906 -144.967,144.971" id="SVGID_31_" /></defs><clipPath id="SVGID_32_"><use height="1150" width="1600" y="0" x="0" style="overflow:visible" id="use583" overflow="visible" xlink:href="#SVGID_31_" /></clipPath><polygon style="fill:none;stroke:#ffffff;stroke-width:3;stroke-miterlimit:10" id="polygon585" points="1424.004,218.601 1403.759,252.441 1365.248,251.453 1347.303,217.209 1366.699,184.593 1405.474,184.676 " stroke-miterlimit="10" clip-path="url(#SVGID_32_)" /><polyline style="fill:none;stroke:#ffffff;stroke-width:3;stroke-miterlimit:10" id="polyline587" points="    1405.474,184.676 1426.039,151.42 1464.549,152.408 1485.114,119.153 1523.623,120.14 1543.06,154.33 1521.589,187.322     1483.101,185.716   " stroke-miterlimit="10" clip-path="url(#SVGID_32_)" /><line style="fill:none;stroke:#ffffff;stroke-width:3;stroke-miterlimit:10" id="line589" y2="95.855003" x2="1395.688" y1="151.42" x1="1426.0389" stroke-miterlimit="10" clip-path="url(#SVGID_32_)" /><polyline style="fill:none;stroke:#ffffff;stroke-width:3;stroke-miterlimit:10" id="polyline591" points="    1375.275,116.877 1407.243,118.4 1422.761,93.977   " stroke-miterlimit="10" clip-path="url(#SVGID_32_)" /><line style="fill:none;stroke:#ffffff;stroke-width:3;stroke-miterlimit:10" id="line593" y2="152.089" x2="1465.1331" y1="186.59801" x1="1483.9821" stroke-miterlimit="10" clip-path="url(#SVGID_32_)" /><line style="fill:none;stroke:#ffffff;stroke-width:3;stroke-miterlimit:10" id="line595" y2="251.45399" x2="1365.248" y1="279.81201" x1="1348.085" stroke-miterlimit="10" clip-path="url(#SVGID_32_)" /><line style="fill:none;stroke:#ffffff;stroke-width:3;stroke-miterlimit:10" id="line597" y2="154.52699" x2="1570.504" y1="154.33" x1="1543.0601" stroke-miterlimit="10" clip-path="url(#SVGID_32_)" /><line style="fill:none;stroke:#ffffff;stroke-width:3;stroke-miterlimit:10" id="line599" y2="154.601" x2="1535.611" y1="180.83299" x1="1519.563" stroke-miterlimit="10" clip-path="url(#SVGID_32_)" /><line style="fill:none;stroke:#ffffff;stroke-width:3;stroke-miterlimit:10" id="line601" y2="126.845" x2="1519.691" y1="125.267" x1="1489.213" stroke-miterlimit="10" clip-path="url(#SVGID_32_)" /><line style="fill:none;stroke:#ffffff;stroke-width:3;stroke-miterlimit:10" id="line603" y2="153.043" x2="1471.73" y1="180.532" x1="1486.745" stroke-miterlimit="10" clip-path="url(#SVGID_32_)" /><line style="fill:none;stroke:#ffffff;stroke-width:3;stroke-miterlimit:10" id="line605" y2="219.269" x2="1417.913" y1="245.5" x1="1401.866" stroke-miterlimit="10" clip-path="url(#SVGID_32_)" /><line style="fill:none;stroke:#ffffff;stroke-width:3;stroke-miterlimit:10" id="line607" y2="191.513" x2="1401.993" y1="189.935" x1="1371.515" stroke-miterlimit="10" clip-path="url(#SVGID_32_)" /><line style="fill:none;stroke:#ffffff;stroke-width:3;stroke-miterlimit:10" id="line609" y2="217.71001" x2="1354.031" y1="245.2" x1="1369.048" stroke-miterlimit="10" clip-path="url(#SVGID_32_)" /><g id="g611" clip-path="url(#SVGID_32_)"><text style="font-size:19.99410057px;fill:#ffffff;font-family:HelveticaNeue-Medium" id="text613" font-size="19.9941" transform="matrix(0.8776,-0.4794,0.4794,0.8776,1336.7695,299.3086)">Cl</text>
</g><g id="g615" clip-path="url(#SVGID_32_)"><text style="font-size:19.99410057px;fill:#ffffff;font-family:HelveticaNeue-Medium" id="text617" font-size="19.9941" transform="matrix(0.8776,-0.4794,0.4794,0.8776,1579.8496,163.8682)">Cl</text>
</g><g id="g619" clip-path="url(#SVGID_32_)"><text style="font-size:19.99410057px;fill:#ffffff;font-family:HelveticaNeue-Medium" id="text621" font-size="19.9941" transform="matrix(0.8776,-0.4794,0.4794,0.8776,1359.7568,125.8408)">Cl</text>
</g><g id="g623" clip-path="url(#SVGID_32_)"><text style="font-size:19.99410057px;fill:#ffffff;font-family:HelveticaNeue-Medium" id="text625" font-size="19.9941" transform="matrix(0.8776,-0.4794,0.4794,0.8776,1383.0957,94.8672)">Cl</text>
</g><g id="g627" clip-path="url(#SVGID_32_)"><text style="font-size:19.99410057px;fill:#ffffff;font-family:HelveticaNeue-Medium" id="text629" font-size="19.9941" transform="matrix(0.8776,-0.4794,0.4794,0.8776,1424.165,92.1855)">Cl</text>
</g><polyline style="fill:none;stroke:#ffffff;stroke-width:3;stroke-miterlimit:10" id="polyline631" points="    1435.839,281.614 1469.25,300.791 1503.152,281.306 1536.563,300.482 1537.41,339.8 1502.839,358.619 1470.097,340.107   " stroke-miterlimit="10" clip-path="url(#SVGID_32_)" /><line style="fill:none;stroke:#ffffff;stroke-width:3;stroke-miterlimit:10" id="line633" y2="304.51199" x2="1529.916" y1="288.63599" x1="1503.8521" stroke-miterlimit="10" clip-path="url(#SVGID_32_)" /><line style="fill:none;stroke:#ffffff;stroke-width:3;stroke-miterlimit:10" id="line635" y2="304.76099" x2="1475.266" y1="336.08499" x1="1475.41" stroke-miterlimit="10" clip-path="url(#SVGID_32_)" /><line style="fill:none;stroke:#ffffff;stroke-width:3;stroke-miterlimit:10" id="line637" y2="340.10699" x2="1470.097" y1="300.79001" x1="1469.25" stroke-miterlimit="10" clip-path="url(#SVGID_32_)" /><line style="fill:none;stroke:#ffffff;stroke-width:3;stroke-miterlimit:10" id="line639" y2="244.08" x2="1502.79" y1="281.30701" x1="1503.151" stroke-miterlimit="10" clip-path="url(#SVGID_32_)" /><g id="g641" clip-path="url(#SVGID_32_)"><text style="font-size:19.99410057px;fill:#ffffff;font-family:HelveticaNeue-Medium" id="text643" font-size="19.9941" transform="matrix(0.8776,-0.4794,0.4794,0.8776,1422.7393,283.6719)">Br</text>
</g><g id="g645" clip-path="url(#SVGID_32_)"><text style="font-size:19.99410057px;fill:#ffffff;font-family:HelveticaNeue-Medium" id="text647" font-size="19.9941" transform="matrix(0.8776,-0.4794,0.4794,0.8776,1490.7158,245.0381)">CN</text>
</g></g></g><path style="fill:#7b7c35" inkscape:connector-curvature="0" id="path165" d="m 1169.428,275.973 c 0,-54.727 44.368,-99.092 99.092,-99.092 54.728,0 99.098,44.365 99.098,99.092 0,54.727 -44.37,99.092 -99.098,99.092 -54.724,0 -99.092,-44.365 -99.092,-99.092" clip-path="url(#SVGID_18_)" /><path style="fill:#7b7c35" inkscape:connector-curvature="0" id="path167" d="m 1116.829,506.124 c 3.76,-8.022 13.311,-11.476 21.331,-7.717 8.021,3.76 11.477,13.31 7.717,21.331 -3.759,8.023 -13.31,11.477 -21.331,7.718 -8.022,-3.76 -11.477,-13.311 -7.717,-21.332" clip-path="url(#SVGID_18_)" /><path style="fill:#7b7c35" inkscape:connector-curvature="0" id="path169" d="m 1258.383,544.127 c -8.021,-3.761 -11.477,-13.31 -7.717,-21.332 3.76,-8.022 13.31,-11.476 21.331,-7.716 8.021,3.76 11.477,13.309 7.717,21.33 -3.76,8.023 -13.31,11.478 -21.331,7.718" clip-path="url(#SVGID_18_)" /><path style="fill:#7b7c35" inkscape:connector-curvature="0" id="path171" d="m 1340.359,578.813 c -8.021,-3.761 -11.477,-13.311 -7.716,-21.332 3.759,-8.021 13.309,-11.477 21.33,-7.717 8.022,3.76 11.477,13.31 7.718,21.332 -3.76,8.022 -13.31,11.476 -21.332,7.717" clip-path="url(#SVGID_18_)" /><path style="fill:#7b7c35" inkscape:connector-curvature="0" id="path177" d="m 1197.364,461.191 c -4.012,-1.881 -5.738,-6.655 -3.858,-10.665 1.879,-4.012 6.654,-5.74 10.665,-3.859 4.011,1.879 5.737,6.654 3.858,10.666 -1.88,4.009 -6.654,5.737 -10.665,3.858" clip-path="url(#SVGID_18_)" /><path style="fill:#7b7c35" inkscape:connector-curvature="0" id="path181" d="m 580.228,501.699 c 5.91,6.6 16.051,7.16 22.651,1.251 6.6,-5.909 7.16,-16.05 1.25,-22.649 -5.909,-6.6 -16.049,-7.161 -22.649,-1.251 -6.6,5.91 -7.161,16.049 -1.252,22.649" clip-path="url(#SVGID_18_)" /><path style="fill:#7b7c35" inkscape:connector-curvature="0" id="path183" d="m 408.204,296.35 c 2.953,3.301 8.023,3.58 11.324,0.626 3.3,-2.955 3.58,-8.025 0.625,-11.325 -2.955,-3.3 -8.024,-3.58 -11.325,-0.626 -3.3,2.954 -3.58,8.025 -0.624,11.325" clip-path="url(#SVGID_18_)" /><path style="fill:#7b7c35" inkscape:connector-curvature="0" id="path185" d="m 536.204,415.35 c 2.954,3.301 8.024,3.58 11.323,0.626 3.301,-2.955 3.58,-8.025 0.626,-11.325 -2.954,-3.3 -8.024,-3.58 -11.325,-0.626 -3.299,2.954 -3.58,8.025 -0.624,11.325" clip-path="url(#SVGID_18_)" /><path style="fill:#7b7c35" inkscape:connector-curvature="0" id="path191" d="m 483.706,305.474 c 0,-13.963 11.317,-25.279 25.28,-25.279 13.962,0 25.282,11.316 25.282,25.279 0,13.963 -11.32,25.281 -25.282,25.281 -13.963,-10e-4 -25.28,-11.318 -25.28,-25.281" clip-path="url(#SVGID_18_)" /><path style="fill:#7b7c35" inkscape:connector-curvature="0" id="path193" d="m 315.349,404.177 c 0,-7.534 6.107,-13.641 13.641,-13.641 7.534,0 13.641,6.107 13.641,13.641 0,7.534 -6.107,13.641 -13.641,13.641 -7.534,0 -13.641,-6.107 -13.641,-13.641" clip-path="url(#SVGID_18_)" /><path style="fill:#7b7c35" inkscape:connector-curvature="0" id="path195" d="m 474.865,388.437 c 0,-5.464 4.428,-9.892 9.892,-9.892 5.462,0 9.891,4.428 9.891,9.892 0,5.463 -4.429,9.891 -9.891,9.891 -5.464,0 -9.892,-4.429 -9.892,-9.891" clip-path="url(#SVGID_18_)" /><path style="fill:#7b7c35" inkscape:connector-curvature="0" id="path197" d="m 597.216,249.985 c 0,-6.782 5.498,-12.28 12.28,-12.28 6.782,0 12.281,5.498 12.281,12.28 0,6.783 -5.499,12.281 -12.281,12.281 -6.782,10e-4 -12.28,-5.497 -12.28,-12.281" clip-path="url(#SVGID_18_)" /><path style="fill:#7b7c35" inkscape:connector-curvature="0" id="path199" d="m 266.858,229.688 c 0,-7.534 6.106,-13.641 13.641,-13.641 7.534,0 13.641,6.107 13.641,13.641 0,7.534 -6.107,13.641 -13.641,13.641 -7.535,0.001 -13.641,-6.106 -13.641,-13.641" clip-path="url(#SVGID_18_)" /><path style="fill:#7b7c35" inkscape:connector-curvature="0" id="path201" d="m 1104.44,276.298 c -22.443,-0.829 -41.314,16.694 -42.142,39.137 -0.829,22.443 16.694,41.31 39.138,42.138 22.45,0.831 41.312,-16.694 42.139,-39.134 0.831,-22.444 -16.685,-41.311 -39.135,-42.141" clip-path="url(#SVGID_18_)" /><path style="fill:#7b7c35" inkscape:connector-curvature="0" id="path203" d="m 1089.217,369.497 c 0,-13.963 11.316,-25.279 25.28,-25.279 13.962,0 25.281,11.316 25.281,25.279 0,13.963 -11.319,25.281 -25.281,25.281 -13.964,0 -25.28,-11.318 -25.28,-25.281" clip-path="url(#SVGID_18_)" /><path style="fill:#7b7c35" inkscape:connector-curvature="0" id="path207" d="m 975.222,323.51 c 0,-13.963 11.317,-25.279 25.28,-25.279 13.962,0 25.281,11.316 25.281,25.279 0,13.963 -11.319,25.281 -25.281,25.281 -13.963,0 -25.28,-11.318 -25.28,-25.281" clip-path="url(#SVGID_18_)" /><g clip-path="url(#SVGID_2_)" id="g817"><text transform="matrix(1 0 0 1.0522 716.9004 273.6714)" fill="#FFFFFF" font-family="'Helvetica'" font-size="11.4047" id="text819" />
</g><g clip-path="url(#SVGID_2_)" id="g845"><text transform="matrix(1 0 0 1.0522 716.9004 414.1313)" fill="#FFFFFF" font-family="'Helvetica'" font-size="11.4047" id="text847" />
</g><g clip-path="url(#SVGID_2_)" id="g849"><text transform="matrix(1 0 0 1.0522 716.9004 428.5312)" fill="#FFFFFF" font-family="'Helvetica'" font-size="11.4047" id="text851" />
</g><g clip-path="url(#SVGID_2_)" id="g865"><text transform="matrix(1 0 0 1.0522 716.9004 906.9238)" fill="#FFFFFF" font-family="'Helvetica'" font-size="11.4047" id="text867" />
</g><g id="g4070"><g id="g3910"><g id="g3991"><path clip-path="url(#SVGID_18_)" stroke-miterlimit="10" d="m 678.907,504.72 c 0.952,3.104 1.434,6.411 1.361,9.835 -0.363,17.263 -14.651,30.962 -31.914,30.599 -17.262,-0.364 -30.961,-14.653 -30.597,-31.915 0.363,-17.262 14.651,-30.96 31.914,-30.597 10.414,0.22 19.533,5.507 25.047,13.459 h 736.459 V 573" id="path223" inkscape:connector-curvature="0" style="fill:none;stroke:#627cbf;stroke-width:2;stroke-miterlimit:10" /><path clip-path="url(#SVGID_18_)" d="m 1416.511,576 c 0,2.945 -2.388,5.332 -5.332,5.332 -2.946,0 -5.333,-2.387 -5.333,-5.332 0,-2.945 2.387,-5.332 5.333,-5.332 2.944,0 5.332,2.387 5.332,5.332" id="path225" inkscape:connector-curvature="0" style="fill:#627cbf" /></g></g><path d="m 644.448,521.376 c 0,1.358 0.219,2.483 0.655,3.374 0.811,1.641 2.284,2.461 4.419,2.461 1.31,0 2.451,-0.449 3.426,-1.348 0.975,-0.898 1.461,-2.191 1.461,-3.879 0,-2.234 -0.902,-3.726 -2.71,-4.476 -1.028,-0.422 -2.647,-0.632 -4.86,-0.632 v -4.782 c 2.164,-0.031 3.675,-0.242 4.531,-0.633 1.479,-0.656 2.219,-1.984 2.219,-3.984 0,-1.297 -0.377,-2.351 -1.133,-3.164 -0.756,-0.813 -1.821,-1.219 -3.192,-1.219 -1.574,0 -2.73,0.5 -3.47,1.5 -0.74,1 -1.096,2.336 -1.065,4.008 h -6.234 c 0.062,-1.687 0.351,-3.289 0.867,-4.805 0.546,-1.328 1.404,-2.555 2.574,-3.68 0.875,-0.797 1.912,-1.406 3.115,-1.827 1.202,-0.423 2.676,-0.634 4.424,-0.634 3.247,0 5.866,0.84 7.856,2.52 1.99,1.68 2.984,3.933 2.984,6.762 0,2 -0.594,3.688 -1.781,5.062 -0.75,0.859 -1.531,1.445 -2.344,1.758 0.61,0 1.485,0.523 2.625,1.57 1.703,1.578 2.555,3.735 2.555,6.469 0,2.875 -0.994,5.402 -2.984,7.582 -1.991,2.18 -4.938,3.269 -8.84,3.269 -4.807,0 -8.149,-1.57 -10.021,-4.71 -0.983,-1.672 -1.53,-3.86 -1.639,-6.562 h 6.562 z" id="path231" inkscape:connector-curvature="0" style="fill:#ffffff" /><g id="g3611"><g style="opacity:0.8" id="g681"><g id="g683"><defs id="defs685"><rect height="110.994" width="492.01801" y="512.92999" x="700.34302" id="SVGID_35_" /></defs><clipPath id="SVGID_36_"><use height="1150" width="1600" y="0" x="0" style="overflow:visible" id="use689" overflow="visible" xlink:href="#SVGID_35_" /></clipPath><g id="g691" clip-path="url(#SVGID_36_)"><defs id="defs693"><rect height="110.992" width="492.01099" y="512.93201" x="700.349" id="SVGID_37_" /></defs><clipPath id="SVGID_38_"><use height="1150" width="1600" y="0" x="0" style="overflow:visible" id="use697" overflow="visible" xlink:href="#SVGID_37_" /></clipPath><rect style="fill:#627cbf" id="rect699" height="110.994" width="492.01901" clip-path="url(#SVGID_38_)" y="512.92999" x="700.34198" /></g></g></g><g id="g3501"><g id="g701"><text id="text703" font-size="11.4047" transform="matrix(1,0,0,1.0522,716.9004,540.4834)" style="font-size:11.40470028px;fill:#ffffff;font-family:Helvetica">INCREASE SPATIAL COVERAGE OF AIR MEASUREMENTS WITH PASSIVE AIR</text>
</g><g id="g705"><text id="text707" font-size="11.4047" transform="matrix(1,0,0,1.0522,716.9004,554.1636)" style="font-size:11.40470028px;fill:#ffffff;font-family:Helvetica">SAMPLERS. SUCH MEASUREMENTS SHOULD BE SUSTAINED AND EXPANDED.</text>
</g><g id="g709"><text id="text711" font-size="11.4047" transform="matrix(1,0,0,1.0522,716.9004,567.8433)" style="font-size:11.40470028px;fill:#ffffff;font-family:Helvetica">PASSIVE SAMPLERS CAPABLE OF SAMPLING PARTICLE-PHASE COMPOUNDS</text>
</g><g id="g713"><text id="text715" font-size="11.4047" transform="matrix(1,0,0,1.0522,716.9004,581.5234)" style="font-size:11.40470028px;fill:#ffffff;font-family:Helvetica">SHOULD ALSO BE EXPLORED.</text>
</g></g></g><polygon id="polygon717" points="714.354,514.865 699.523,500.033 699.523,529.695 " style="fill:#ffffff" /><polygon style="fill:#ffffff" transform="matrix(-1,0,0,-1,1413.8287,1029.4856)" id="polygon717-0" points="699.523,529.695 714.354,514.865 699.523,500.033 " /></g><g id="g4101"><path d="m 658.413,369.694 h -3.844 v 7.312 h -6.539 v -7.312 h -13.453 v -5.836 l 12.492,-20.625 h 7.5 v 21.234 h 3.844 v 5.227 z m -10.383,-5.227 v -14.638 l -8.482,14.638 h 8.482 z" id="path227" inkscape:connector-curvature="0" style="fill:#ffffff" /><g id="g3995"><g id="g3962"><path stroke-miterlimit="10" d="m 674.721,386.584 c 7.124,-6.868 11.555,-16.511 11.555,-27.186 0,-20.857 -16.907,-37.763 -37.762,-37.763 -20.856,0 -37.764,16.906 -37.764,37.763 H 508.179 v -19.643" id="path215" inkscape:connector-curvature="0" style="fill:none;stroke:#627cbf;stroke-width:2;stroke-miterlimit:10" /><path d="m 513.511,339.755 c 0,2.945 -2.388,5.332 -5.332,5.332 -2.946,0 -5.333,-2.387 -5.333,-5.332 0,-2.945 2.387,-5.332 5.333,-5.332 2.944,0 5.332,2.387 5.332,5.332" id="path217" inkscape:connector-curvature="0" style="fill:#627cbf" /></g><g id="g3958"><path style="fill:none;stroke:#627cbf;stroke-width:2;stroke-miterlimit:10" inkscape:connector-curvature="0" id="path211" d="m 658.817,389.592 c -3.083,1.018 -6.379,1.568 -9.804,1.568 -17.266,0 -31.263,-13.996 -31.263,-31.262 0,-17.267 13.997,-31.263 31.263,-31.263 17.266,0 31.262,13.996 31.262,31.263 0,10.417 -5.095,19.644 -13.0125,25.2135 L 667.179,476 l 714,0 0,-124" stroke-miterlimit="10" sodipodi:nodetypes="csssscccc" /><path d="m 1386.511,352.668 c 0,2.945 -2.388,5.332 -5.332,5.332 -2.946,0 -5.333,-2.387 -5.333,-5.332 0,-2.945 2.387,-5.332 5.333,-5.332 2.944,0 5.332,2.387 5.332,5.332" id="path209" inkscape:connector-curvature="0" style="fill:#627cbf" /></g></g><g id="g3584"><rect style="opacity:0.8;fill:#627cbf" id="rect737" height="110.994" width="492.01099" y="357.92999" x="700.349" /><g id="g3511"><g id="g821"><text id="text823" font-size="11.4047" transform="matrix(1,0,0,1.0522,716.9004,385.3433)" style="font-size:11.40470028px;fill:#ffffff;font-family:Helvetica">DEVELOPING EXPERTISE IN ALL ASPECTS OF AIR MONITORING WILL ENSURE</text>
</g><g id="g825"><text id="text827" font-size="11.4047" transform="matrix(1,0,0,1.0522,716.9004,399.0234)" style="font-size:11.40470028px;fill:#ffffff;font-family:Helvetica">THE DELIVERY OF COMPARABLE DATA. THIS INCLUDES AIR SAMPLING, CHEMICAL</text>
</g><g id="g829"><text id="text831" font-size="11.4047" transform="matrix(1,0,0,1.0522,716.9004,412.7031)" style="font-size:11.40470028px;fill:#ffffff;font-family:Helvetica">ANALYSIS, DATA MANAGEMENT, INTERNATIONAL AND REGIONAL</text>
</g><g id="g833"><text id="text835" font-size="11.4047" transform="matrix(1,0,0,1.0522,716.9004,426.3955)" style="font-size:11.40470028px;fill:#ffffff;font-family:Helvetica">INTERLABORATORY COMPARISONS, DATA QA/QC AND INTERPRETATION.</text>
</g><g id="g837"><text id="text839" font-size="11.4047" transform="matrix(1,0,0,1.0522,716.9004,440.0752)" style="font-size:11.40470028px;fill:#ffffff;font-family:Helvetica">SUCH DATA CAN HELP BUILD MODELS, UNDERSTAND TRANSPORT, ASSESS</text>
</g><g id="g841"><text id="text843" font-size="11.4047" transform="matrix(1,0,0,1.0522,716.9004,453.7554)" style="font-size:11.40470028px;fill:#ffffff;font-family:Helvetica">CHANGES IN EMISSIONS OVER TIME, AND EVALUATE CONTROL MEASURES.</text>
</g></g></g><polygon id="polygon739" points="714.354,359.865 699.523,345.033 699.523,374.695 " style="fill:#ffffff" /><polygon style="fill:#ffffff" transform="matrix(-1,0,0,-1,1413.8287,719.48561)" id="polygon739-8" points="699.523,374.695 714.354,359.865 699.523,345.033 " /></g><g id="g4139"><path d="m 643.53,202.015 c 0.928,-0.64 1.855,-1.111 2.784,-1.416 0.928,-0.304 1.968,-0.456 3.12,-0.456 1.6,0 3.048,0.281 4.344,0.84 1.297,0.56 2.4,1.337 3.313,2.328 0.912,0.992 1.615,2.153 2.112,3.48 0.495,1.328 0.743,2.777 0.743,4.344 0,1.824 -0.287,3.488 -0.863,4.992 -0.576,1.505 -1.393,2.792 -2.448,3.865 -1.056,1.072 -2.329,1.904 -3.817,2.496 -1.487,0.592 -3.143,0.887 -4.968,0.887 -3.263,0 -5.896,-0.856 -7.895,-2.568 -2.001,-1.711 -3.161,-4.2 -3.481,-7.464 h 6.72 c 0.224,1.408 0.68,2.536 1.368,3.384 0.688,0.849 1.8,1.272 3.336,1.272 0.896,0 1.672,-0.175 2.328,-0.528 0.656,-0.352 1.193,-0.823 1.609,-1.416 0.415,-0.592 0.719,-1.271 0.912,-2.04 0.191,-0.768 0.288,-1.552 0.288,-2.352 0,-0.799 -0.097,-1.576 -0.288,-2.328 -0.193,-0.752 -0.497,-1.408 -0.912,-1.967 -0.416,-0.56 -0.953,-1.008 -1.609,-1.345 -0.656,-0.336 -1.432,-0.504 -2.328,-0.504 -0.992,0 -1.84,0.192 -2.544,0.576 -0.704,0.384 -1.312,1.008 -1.824,1.872 l -6,-0.288 2.353,-18.72 h 18.719 v 5.664 H 644.73 l -1.2,7.392 z" id="path233" inkscape:connector-curvature="0" style="fill:#ffffff" /><g id="g3968"><path stroke-miterlimit="10" d="m 655.544,174.547 c 3.15,0.782 6.233,2.073 9.131,3.898 14.609,9.204 18.993,28.506 9.79,43.116 -9.203,14.609 -28.507,18.991 -43.116,9.788 -14.609,-9.202 -18.99,-28.505 -9.788,-43.114 5.552,-8.814 14.782,-13.907 24.438,-14.538 V 154 h 624.18" id="path219" inkscape:connector-curvature="0" style="fill:none;stroke:#627cbf;stroke-width:2;stroke-miterlimit:10" /><path style="fill:#627cbf" inkscape:connector-curvature="0" id="path221" d="m 1275.511,154 c 0,2.945 -2.388,5.332 -5.332,5.332 -2.946,0 -5.333,-2.387 -5.333,-5.332 0,-2.945 2.387,-5.332 5.333,-5.332 2.944,0 5.332,2.387 5.332,5.332" /></g><g id="g3557"><g id="g741"><defs id="defs743"><rect id="SVGID_43_" width="1600" height="1150" x="0" y="0" /></defs><clipPath id="SVGID_44_"><use xlink:href="#SVGID_43_" overflow="visible" id="use747" style="overflow:visible" x="0" y="0" width="1600" height="1150" /></clipPath><g clip-path="url(#SVGID_44_)" id="g749" style="opacity:0.8"><g id="g751"><defs id="defs753"><rect id="SVGID_45_" x="700.34601" y="202.92999" width="492.01401" height="110.994" /></defs><clipPath id="SVGID_46_"><use xlink:href="#SVGID_45_" overflow="visible" id="use757" style="overflow:visible" x="0" y="0" width="1600" height="1150" /></clipPath><rect x="700.349" y="202.92999" clip-path="url(#SVGID_46_)" width="492.01099" height="110.992" id="rect759" style="fill:#627cbf" /></g></g></g><g id="g3543"><g id="g793"><text id="text795" font-size="11.4047" transform="matrix(1,0,0,1.0522,716.9004,230.4834)" style="font-size:11.40470028px;fill:#ffffff;font-family:Helvetica">ENHANCE RESEARCH ON THE STABILITY OF PARTICLE-BOUND CHEMICALS. THIS</text>
</g><g id="g797"><text id="text799" font-size="11.4047" transform="matrix(1,0,0,1.0522,716.9004,244.1636)" style="font-size:11.40470028px;fill:#ffffff;font-family:Helvetica">IS VERY RELEVANT IN URBAN AREAS OF DEVELOPING REGIONS WHERE</text>
</g><g id="g801" clip-path="url(#SVGID_2_)"><text id="text803" font-size="11.4047" transform="matrix(1 0 0 1.0522 716.9004 257.8433)" font-family="'Helvetica'" fill="#FFFFFF">INCREASES IN AIR-BORNE PARTICLES LEAD TO INCREASED HUMAN EXPOSURE.</text>
</g><g id="g805" clip-path="url(#SVGID_2_)"><text id="text807" font-size="11.4047" transform="matrix(1 0 0 1.0522 716.9004 271.5352)" font-family="'Helvetica'" fill="#FFFFFF">ALSO, IT WOULD HELP TO CO-LOCATE POP MONITORING AT EXISTING</text>
</g><g id="g809" clip-path="url(#SVGID_2_)"><text id="text811" font-size="11.4047" transform="matrix(1 0 0 1.0522 716.9004 285.2153)" font-family="'Helvetica'" fill="#FFFFFF">MONITORING STATIONS FOR AIR QUALITY AND METEOROLOGY, TO CUT COSTS</text>
</g><g id="g813" clip-path="url(#SVGID_2_)"><text id="text815" font-size="11.4047" transform="matrix(1,0,0,1.0522,716.9004,298.8955)" style="font-size:11.40470028px;fill:#ffffff;font-family:Helvetica">AND BOOST UNDERSTANDING OF RELATIONSHIPS BETWEEN CO-POLLUTANTS.</text>
</g></g></g><polygon id="polygon761" points="714.354,204.865 699.523,190.033 699.523,219.695 " style="fill:#ffffff" /><polygon style="fill:#ffffff" transform="matrix(-1,0,0,-1,1413.8287,409.48561)" id="polygon761-6" points="714.354,204.865 699.523,190.033 699.523,219.695 " /></g><g id="g4005" transform="translate(74,-6)"><path d="m 638.628,818.554 v -4.547 c 2.104,-0.094 3.577,-0.234 4.419,-0.422 1.341,-0.297 2.432,-0.891 3.272,-1.781 0.578,-0.609 1.014,-1.422 1.311,-2.438 0.17,-0.608 0.256,-1.062 0.256,-1.358 h 5.578 v 33.983 h -6.844 v -23.437 h -7.992 z" id="path789" inkscape:connector-curvature="0" style="fill:#ffffff" /><g id="g3677"><rect style="opacity:0.8;fill:#627cbf" id="rect781" height="110.989" width="492.00699" clip-path="url(#SVGID_50_)" y="823.06897" x="700.53998" /><g id="g3479"><g id="g853"><text id="text855" font-size="11.4047" transform="matrix(1,0,0,1.0522,716.9004,849.335)" style="font-size:11.40470028px;fill:#ffffff;font-family:Helvetica">FACILITATE DATA SHARING WITH ATMOSPHERIC POLLUTANT DATA ARCHIVES</text>
</g><g id="g857"><text id="text859" font-size="11.4047" transform="matrix(1,0,0,1.0522,716.9004,863.0156)" style="font-size:11.40470028px;fill:#ffffff;font-family:Helvetica">THAT INCLUDE AIR MONITORING DATA OF POPS (E.G. AMAP/EMEP DATABASE),</text>
</g><g id="g861"><text id="text863" font-size="11.4047" transform="matrix(1,0,0,1.0522,716.9004,876.6953)" style="font-size:11.40470028px;fill:#ffffff;font-family:Helvetica">PROVIDING A FOUNDATION FOR MODEL AND INDICATOR DEVELOPMENT. </text>
</g></g></g><polygon points="714.594,825.001 699.764,810.169 699.764,839.831 " id="polygon791" style="fill:#ffffff" /><g id="g3972"><g id="g3981"><path style="fill:#627cbf" inkscape:connector-curvature="0" id="path923" d="m 98.511,274 c 0,2.945 -2.388,5.332 -5.332,5.332 -2.946,0 -5.333,-2.387 -5.333,-5.332 0,-2.945 2.387,-5.332 5.333,-5.332 2.944,0 5.332,2.387 5.332,5.332" /><path stroke-miterlimit="10" d="m 615.846,807.667 c 3.62,-5.962 10.057,-13.179 16.799,-16.452 18.658,-9.059 41.127,-1.274 50.184,17.383 9.059,18.658 1.279,41.127 -17.381,50.186 -18.657,9.058 -41.126,1.276 -50.185,-17.383 -2.107,-4.341 -3.292,-8.891 -3.651,-13.427 H 93.179 V 274" id="path925" inkscape:connector-curvature="0" style="fill:none;stroke:#627cbf;stroke-width:2;stroke-miterlimit:10" /></g><g id="g3854"><path style="fill:none;stroke:#627cbf;stroke-width:2;stroke-miterlimit:10" inkscape:connector-curvature="0" id="path787" d="m 616.595,827.578 c 0.311,3.932 1.338,7.876 3.166,11.639 7.853,16.176 27.33,22.92 43.502,15.067 16.178,-7.853 22.922,-27.329 15.068,-43.503 -7.851,-16.173 -27.328,-22.921 -43.503,-15.067 -8.106,3.936 -14.597,12.889 -17.95614,20.536 l -505.58552,-0.119 0,-109.43504" stroke-miterlimit="10" sodipodi:nodetypes="ccccsccc" /><path d="m 190.511,699.332 c 0,2.945 -2.388,5.332 -5.332,5.332 -2.946,0 -5.333,-2.387 -5.333,-5.332 0,-2.945 2.387,-5.332 5.333,-5.332 2.944,0 5.332,2.387 5.332,5.332" id="path931" inkscape:connector-curvature="0" style="fill:#627cbf" transform="translate(-74.246212,6.363961)" /></g></g><polygon transform="matrix(-1,0,0,-1,1414.3097,1649.7576)" points="699.764,810.169 699.764,839.831 714.594,825.001 " id="polygon791-1" style="fill:#ffffff" /></g><g id="g4032"><path d="m 639.562,678.391 c 0.953,-2.266 3.203,-4.664 6.75,-7.195 3.078,-2.203 5.07,-3.781 5.977,-4.734 1.39,-1.484 2.086,-3.109 2.086,-4.875 0,-1.438 -0.399,-2.633 -1.196,-3.586 -0.797,-0.953 -1.937,-1.43 -3.422,-1.43 -2.031,0 -3.414,0.758 -4.148,2.273 -0.422,0.875 -0.672,2.266 -0.75,4.172 h -6.492 c 0.109,-2.891 0.633,-5.227 1.572,-7.008 1.783,-3.391 4.951,-5.086 9.502,-5.086 3.598,0 6.459,0.996 8.587,2.988 2.127,1.992 3.19,4.629 3.19,7.91 0,2.516 -0.751,4.75 -2.254,6.703 -0.986,1.297 -2.606,2.742 -4.861,4.336 l -2.676,1.898 c -1.676,1.188 -2.822,2.047 -3.439,2.578 -0.617,0.531 -1.137,1.148 -1.559,1.852 h 14.836 v 5.883 h -23.273 c 0.062,-2.437 0.586,-4.664 1.57,-6.679" id="path229" inkscape:connector-curvature="0" style="fill:#ffffff" /><g id="g3634"><g id="g869"><defs id="defs871"><rect id="SVGID_51_" width="1600" height="1150" x="0" y="0" /></defs><clipPath id="SVGID_52_"><use xlink:href="#SVGID_51_" overflow="visible" id="use875" style="overflow:visible" x="0" y="0" width="1600" height="1150" /></clipPath><g clip-path="url(#SVGID_52_)" id="g877" style="opacity:0.8"><g id="g879"><defs id="defs881"><rect id="SVGID_53_" x="700.34601" y="667.92999" width="492.01401" height="110.994" /></defs><clipPath id="SVGID_54_"><use xlink:href="#SVGID_53_" overflow="visible" id="use885" style="overflow:visible" x="0" y="0" width="1600" height="1150" /></clipPath><rect x="700.349" y="667.92999" clip-path="url(#SVGID_54_)" width="492.01099" height="110.994" id="rect887" style="fill:#627cbf" /></g></g></g><g id="g3487"><g id="g891"><text id="text893" font-size="11.4047" transform="matrix(1,0,0,1.0522,717.9004,696.3584)" style="font-size:11.40470028px;fill:#ffffff;font-family:Helvetica">SUPPLEMENT EXISTING MONITORING PROGRAMS WITH TARGETED</text>
</g><g id="g895"><text id="text897" font-size="11.4047" transform="matrix(1,0,0,1.0522,717.9004,710.0381)" style="font-size:11.40470028px;fill:#ffffff;font-family:Helvetica">MEASUREMENT CAMPAIGNS IN DESIGNATED SOURCE AREAS THAT, TOGETHER</text>
</g><g id="g899"><text id="text901" font-size="11.4047" transform="matrix(1,0,0,1.0522,717.9004,723.7188)" style="font-size:11.40470028px;fill:#ffffff;font-family:Helvetica">WITH APPROPRIATE REGIONAL-SCALE MODELING, WILL PROVIDE EMISSION</text>
</g><g id="g903"><text id="text905" font-size="11.4047" transform="matrix(1,0,0,1.0522,717.9004,737.3984)" style="font-size:11.40470028px;fill:#ffffff;font-family:Helvetica">ESTIMATES THAT CAN BE EXTRAPOLATED TO SIMILAR REGIONS. EMISSION</text>
</g><g id="g907"><text id="text909" font-size="11.4047" transform="matrix(1,0,0,1.0522,717.9004,751.0781)" style="font-size:11.40470028px;fill:#ffffff;font-family:Helvetica">ESTIMATES FROM THESE CAMPAIGNS SHOULD BE USED TO DRIVE GLOBAL</text>
</g><g id="g911"><text id="text913" font-size="11.4047" transform="matrix(1,0,0,1.0522,717.9004,764.7588)" style="font-size:11.40470028px;fill:#ffffff;font-family:Helvetica">MODELS.</text>
</g></g></g><polygon id="polygon889" points="714.354,669.865 699.523,655.033 699.523,684.695 " style="fill:#ffffff" /><g id="g3841"><g id="g3986"><path style="fill:#627cbf" inkscape:connector-curvature="0" id="path675" d="m 1301.511,789 c 0,2.945 -2.388,5.332 -5.332,5.332 -2.946,0 -5.333,-2.387 -5.333,-5.332 0,-2.945 2.387,-5.332 5.333,-5.332 2.944,0 5.332,2.387 5.332,5.332" /><path sodipodi:nodetypes="cssscccc" stroke-miterlimit="10" d="m 617.212,662.009 c -0.626,2.516 -0.961,5.146 -0.961,7.855 0,17.979 14.576,32.554 32.555,32.554 17.98,0 32.554,-14.574 32.554,-32.554 0,-11.158 -5.613,-21.006 -14.176,-27.53068 L 667.179,630 l 629,0 0,159" id="path679" inkscape:connector-curvature="0" style="fill:none;stroke:#627cbf;stroke-width:2;stroke-miterlimit:10" /></g><g id="g3906"><path sodipodi:nodetypes="cscccc" stroke-miterlimit="10" d="m 656.146,638.14 c -2.359,-0.544 -4.816,-0.831 -7.341,-0.831 -12.016,0 -21.97875,6.385 -27.88138,16.1345 l -15.74462,0.0645 0,46.492 -420,0" id="path929" inkscape:connector-curvature="0" style="fill:none;stroke:#627cbf;stroke-width:2;stroke-miterlimit:10" /><path d="m 190.511,699.332 c 0,2.945 -2.388,5.332 -5.332,5.332 -2.946,0 -5.333,-2.387 -5.333,-5.332 0,-2.945 2.387,-5.332 5.333,-5.332 2.944,0 5.332,2.387 5.332,5.332" id="path931-5" inkscape:connector-curvature="0" style="fill:#627cbf" transform="translate(-0.00432581,0.15543826)" /></g></g><polygon style="fill:#ffffff" transform="matrix(-1,0,0,-1,1413.8287,1339.4856)" id="polygon889-8" points="699.523,684.695 714.354,669.865 699.523,655.033 " /></g></g></svg>